<svg xmlns="http://www.w3.org/2000/svg" viewBox="0 0 1254 1254"><path fill="#1650CF" d="M212 323c17 4 31 24 39 38l15 23 14 36c9 28 9 28 9 42h2v-3l5-13 2-3c10-20 27-43 48-52q8-2 14 2 4 5 2 12-5 15-12 28l-16 41-10 33-1 3-1 6-1 2-3 20 2-1 18-9 4-2 21-8 9-4 20-8 7-2 43-11 36-7h2l25-3 8-1h36a370 370 0 0 1 70 6l37 8q20 5 39 12l4 1 14 6 12 5 24 12 33 17 28 15a392 392 0 0 0 102 38l3 1h2l2 1 9 1 6 1 22 3 15 2-4-24v-4l-2-4-1-4v-3l-1-5v-2l-1-3-2-6-1-7-3-14-1-7-6-25-4-18-1-8q-4-11 1-21a14 14 0 0 1 11-2c16 5 27 23 34 37l7 17 5-19c11-52 36-116 82-147q7-5 15-3 5 3 6 8 1 8-2 15l-1 2-1 5-5 12v2a1238 1238 0 0 0-42 162l-1 3v6l1-2c10-14 24-29 42-33a31 31 0 0 1 18 0q4 5 2 12l-10 18q-12 20-20 41h2a78 78 0 0 1 58 8l10 9 2 2a67 67 0 0 1 17 36q2 17-2 32l-1 3q-7 30-27 54l-2 3-17 19-2 2-14 13-6 4a346 346 0 0 1-68 43l-2 1-41 17-3 1a353 353 0 0 1-58 15l-4 1q-29 4-57 4h-12a295 295 0 0 1-68-7l-39-10a434 434 0 0 1-111-51l-3-2-8-5-3-2-15-10-58-36-3-1-13-6-6-2q-5-3-11-4l-2-1-14-4-3-1a199 199 0 0 0-82 0l-2 1q-26 4-49 16l-6 2q-28 13-54 34a252 252 0 0 1-91 43q-15 4-30 3h-6a98 98 0 0 1-70-29 113 113 0 0 1-30-77v-4l4-30 1-3 5-13 3-7a130 130 0 0 1 42-53l3-2q20-15 44-22l3-1a86 86 0 0 1 26-4c-8-30-19-58-41-81l-4-4-8-9q-2-1-2-6-1-4 2-7 12-6 23-3 35 9 55 39a686 686 0 0 0-33-158q-3-6 0-12 3-4 7-5"/><path fill="#050707" d="M212 323c17 4 31 24 39 38l15 23 14 36c9 28 9 28 9 42h2v-3l5-13 2-3c10-20 27-43 48-52q8-2 14 2 4 5 2 12-5 15-12 28l-16 41-10 33-1 3-1 6-1 2-3 20 2-1 18-9 4-2 21-8 9-4 20-8 7-2 43-11 36-7h2l25-3 8-1h36a370 370 0 0 1 70 6l37 8q20 5 39 12l4 1 14 6 12 5 24 12 33 17 28 15a392 392 0 0 0 102 38l3 1h2l2 1 9 1 6 1 22 3 15 2-4-24v-4l-2-4-1-4v-3l-1-5v-2l-1-3-2-6-1-7-3-14-1-7-6-25-4-18-1-8q-4-11 1-21a14 14 0 0 1 11-2c16 5 27 23 34 37l7 17 5-19c11-52 36-116 82-147q7-5 15-3 5 3 6 8 1 8-2 15l-1 2-1 5-5 12v2a1238 1238 0 0 0-42 162l-1 3v6l1-2c10-14 24-29 42-33a31 31 0 0 1 18 0q4 5 2 12l-10 18q-12 20-20 41h2a78 78 0 0 1 58 8l10 9 2 2a67 67 0 0 1 17 36q2 17-2 32l-1 3q-7 30-27 54l-2 3-17 19-2 2-14 13-6 4a346 346 0 0 1-68 43l-2 1-41 17-3 1a353 353 0 0 1-58 15l-4 1q-29 4-57 4h-12a295 295 0 0 1-68-7l-39-10a434 434 0 0 1-111-51l-3-2-8-5-3-2-15-10-58-36-3-1-13-6-6-2q-5-3-11-4l-2-1-14-4-3-1a199 199 0 0 0-82 0l-2 1q-26 4-49 16l-6 2q-28 13-54 34a252 252 0 0 1-91 43q-15 4-30 3h-6a98 98 0 0 1-70-29 113 113 0 0 1-30-77v-4l4-30 1-3 5-13 3-7a130 130 0 0 1 42-53l3-2q20-15 44-22l3-1a86 86 0 0 1 26-4c-8-30-19-58-41-81l-4-4-8-9q-2-1-2-6-1-4 2-7 12-6 23-3 35 9 55 39a686 686 0 0 0-33-158q-3-6 0-12 3-4 7-5m240 181-3 1-38 9-9 3a349 349 0 0 0-56 22l-27 14-19 8-7 3-34 10-6 1-15 3h-4l-17 3q-59 7-97 52a130 130 0 0 0-25 91c4 24 18 47 37 61a87 87 0 0 0 53 16h4l29-3 4-1c33-7 61-26 88-46q23-17 48-29l3-1a205 205 0 0 1 88-22h17a181 181 0 0 1 43 5l3 1a168 168 0 0 1 38 13q31 16 61 36 62 43 133 70l3 1 32 9 38 8h3l32 2h21a297 297 0 0 0 59-5 379 379 0 0 0 141-57l2-1q15-10 28-22l2-2q18-15 31-33l2-2a152 152 0 0 0 19-35l1-3a79 79 0 0 0-2-56l-8-11-2-2a45 45 0 0 0-31-14c-27-1-27-1-36 5l-1 4-1 2-1 3-1 2-5 23-1 2v2l-4 5c-23 9-56 6-79-3-8-4-8-4-10-8l-3-14-10-2h-6a374 374 0 0 1-104-24l-3-1q-18-7-35-16l-7-4-50-26-17-8-10-6-11-5-9-4-16-6-7-3a337 337 0 0 0-81-20l-8-1h-3l-5-1q-21-2-44-2h-2q-47 0-93 9"/><path fill="#4CAA33" d="m1091 354-7 26-13 42-4 12-19 78-9 45v3l-5 28-3 18-5 36-17-1c-3-3-2-11-2-15v-61c-1-60 13-122 48-172l2-3c25-36 25-36 34-36"/><path fill="#4CA933" d="M219 342c37 28 54 86 60 130l1 22v18l-2 44-21 5v-2l-4-37-6-51v-2l-3-18-12-60-8-30z"/><path fill="#080707" d="m436 281 7 5 3 9q4 15 17 23l13 2q5 1 7 5 1 5-3 9l-6 2a35 35 0 0 0-17 17l-5 17-2 8q-4 2-9 1-5-3-5-10a46 46 0 0 0-18-25q-4-2-10-2l-7-3q-2-4-1-8 3-4 8-5 12-4 17-14l4-21q0-7 7-10"/><path fill="#4CA833" d="M956 469c16 7 25 31 31 47 13 37 12 82 11 121l-12-4-1-6-1-3v-4l-1-11-10-58-1-3-7-33-8-35v-4z"/><path fill="#4AA833" d="m348 405-9 22-16 41a263 263 0 0 0-13 47l-1 3-2 13c-1 14-1 14-6 17l-12 3q-3-49 16-94l1-2a134 134 0 0 1 26-38l2-2c9-10 9-10 14-10"/><path fill="#4BA934" d="m1102 530-6 12-1 1-5 9a241 241 0 0 0-31 87l-14 3h-8l3-28v-2c7-29 23-60 48-77 9-5 9-5 14-5"/><path fill="#4CA934" d="M175 471q27 3 45 24a106 106 0 0 1 27 69l-8 2h-14l-1-3q-11-51-46-87-4-3-3-5"/><path fill="#01030A" d="M553 648h7q41 1 72 27a96 96 0 0 0 67 24h2l7 3v5q-6 5-14 4a91 91 0 0 1-42-8l-2-1-26-17a113 113 0 0 0-39-22l-3-1q-16-3-34-2h-20l-5-2 1-5c8-6 19-5 29-5m-206 15 4 4q-1 5-6 7a115 115 0 0 1-85 4q-26-7-51 6l-2 1q-5 3-12 3l-1-4q0-5 5-7a80 80 0 0 1 60-12l18 5 21 1a131 131 0 0 0 39-7q5-2 10-1"/><path fill="#010308" d="M710 617a85 85 0 0 0 57 10l5 2v6l-6 3c-14 5-34 3-48-3l-18-10a63 63 0 0 0-36-10h-2l-16 2h-7l-4-2 1-5c20-18 54-4 74 7"/><path fill="#010309" d="m392 589 22 2h5q4 0 5 3l-1 5c-11 6-23 3-35 1l-28-2h-4q-26 1-46 18l-8 3q-3 0-5-2v-5c24-29 62-30 95-23"/><path fill="#01040A" d="m875 741 4 4q1 5-2 6h-7l-9-1a124 124 0 0 0-45 5 79 79 0 0 1-50-3q-3-1-4-6l1-4q8 0 15 2 24 4 48-4c14-3 35-5 49 1"/><path fill="#01040B" d="M891 665q8 0 15 5 38 21 80 14h14l2 4q0 3-2 4a71 71 0 0 1-34 7h-2a111 111 0 0 1-36-6l-2-1a88 88 0 0 1-37-20v-5z"/><path fill="#01030A" d="M1044 714h2q3 3 2 8-3 7-10 12l-2 2a99 99 0 0 1-50 25h-23l-7-3v-5q2-2 7-2l2-1h3q42-3 71-34 2-2 5-2"/><path fill="#01040C" d="M462 542h4q15 0 29 5l1 6-4 2h-23q-30-2-56 15l-6 3-4-4q0-5 4-8a84 84 0 0 1 34-17h2z"/><path fill="#F4F4F5" d="M438 312h2l4 6 10 9 3 2 2 1-2 2a56 56 0 0 0-13 20h-2l-3-4-9-10-6-6 2-2a44 44 0 0 0 12-18"/><path fill="#0C0C0C" d="m920 896 3 3q1 5-2 8l-2 2h-2l-1 2-5 6-3 3-2 2-2 3c-8 7-8 7-12 7q-3 0-5-2v-8l6-6 1-2 9-9 4-3 1-2q5-6 12-4"/><path fill="#0A0A0A" d="m949 909 3 3v6l-6 7-1 1-10 10-3 3-2 2q-3 4-9 5l-5-3q-2-4 1-9l6-5 3-4 2-1 6-7c8-9 8-9 15-8"/><path fill="#14141A" d="m717 727 3 4a48 48 0 0 1-35 11l-16-6 2-5 2 1q12 7 25 4zm-480 0 3 4a48 48 0 0 1-35 11l-16-6 2-5 2 1q12 7 25 4zm560-64 3 4a48 48 0 0 1-35 11l-16-6 2-5 2 1q12 7 25 4zm-360 0 3 4a48 48 0 0 1-35 11l-16-6 2-5 2 1q12 7 25 4zm80-64 3 4a48 48 0 0 1-35 11l-16-6 2-5 2 1q12 7 25 4zm-240 0 3 4a48 48 0 0 1-35 11l-16-6 2-5 2 1q12 7 25 4z"/><path fill="#468EEC" d="m229 762 2 6a46 46 0 0 1-34 4l-4-2-3-1 1-6 3 2a49 49 0 0 0 35-3m560-64 2 6a46 46 0 0 1-34 4l-4-2-3-1 1-6 3 2a49 49 0 0 0 35-3m-480 0 2 6a46 46 0 0 1-34 4l-4-2-3-1 1-6 3 2a49 49 0 0 0 35-3m560-64 2 6a46 46 0 0 1-34 4l-4-2-3-1 1-6 3 2a49 49 0 0 0 35-3m-480 0 2 6a46 46 0 0 1-34 4l-4-2-3-1 1-6 3 2a49 49 0 0 0 35-3m-120 0 2 6a46 46 0 0 1-34 4l-4-2-3-1 1-6 3 2a49 49 0 0 0 35-3m440 128 2 6a47 47 0 0 1-34 4l-7-4 1-5 3 2a49 49 0 0 0 35-3"/><path fill="#14141A" d="m957 727 3 4q-5 4-11 5l-8 4q-12 5-24 0l-8-4 2-5 2 1q12 7 25 4z"/><path fill="#468EEC" d="m509 634 2 3-3 5a44 44 0 0 1-33 1l-2-1-3-1 1-6 3 2a49 49 0 0 0 35-3m-358 65 4 2q11 2 21 1h15v2a46 46 0 0 1-34 4l-4-2-3-1zm720 0 2 1 18 2c12 0 12 0 16 2q-6 6-15 5-10 1-19-3l-3-1zm40 64 2 1 18 2h10l1 5q-15 6-29-1l-3-1z"/><path fill="#14141A" d="m1111 667 2 1a44 44 0 0 0 30 3l-2 5q-10 4-21 1l-11-5zm-520-64 2 1a53 53 0 0 0 28 4v4q-13 5-26-1l-6-3z"/><path fill="#468EEC" d="m1031 763 2 1 18 2h9q-5 7-13 7-7 0-14-3l-3-1z"/><path fill="#14141A" d="m151 667 2 1a48 48 0 0 0 26 4v5a39 39 0 0 1-30-5z"/><path fill="#468EEC" d="m1109 634 2 6q-11 6-24 5l1-6h3q9-1 18-5"/><path fill="#14141A" d="m757 599 3 4q-8 8-19 9l-5-2 6-4 3-1 3-2 2-1zm320 128 3 4-10 6-3 2-8 1q4-6 11-10l2-1z"/><path fill="#468EEC" d="m629 634 2 6c-11 5-11 5-15 3l-7-3v-1h2z"/><path fill="#14141A" d="m677 663 3 4-14 8-6-2 10-7 2-1zm361 5a38 38 0 0 1-22 9v-4a36 36 0 0 1 22-5m-523 6h31q-6 5-16 4l-15-3z"/><path fill="#468EEC" d="m1111 699 2 1 13 3q-2 6-4 6l-4-1-3-1-2-1-3-1z"/><path fill="#0F3B98" d="m528 495 64 2v1h-32v-1l-32-1z"/><path fill="#468EEC" d="m1029 698 1 2-3 2-5 4q-6 4-13 3l3-2 2-2q7-6 15-7m-880-64 2 6c-7 3-7 3-12 3 5-8 5-8 8-9z"/><path fill="#DBDCDC" d="m929 919 2 3-10 10-2-1q3-7 10-12"/><path fill="#5E5E5E" d="M84 682h1q2 7-1 13v6l-1 3v16h-1v-16z"/><path fill="#468EEC" d="m951 637 8 1 1 6-10-3z"/><path fill="#F5F5F6" d="m939 909 2 2-10 10-1-3z"/><path fill="#14141A" d="m871 667 4 2v5l-6-2z"/><path fill="#357A27" d="m293 494 1 9v4h-2l-1 4z"/><path fill="#E5E4E5" d="m999 501-1 10-4-9z"/><path fill="#C0C2C2" d="M237 487h1l1 13-4-7z"/><path fill="#CECDCE" d="m431 325 2 1-2 2q-4 3-3 7l-4-2z"/><path fill="#1241AC" d="M349 539v2c-7 3-7 3-11 2l4-2 2-1z"/><path fill="#E2E2E2" d="m923 925 2 1q-1 4-5 6 0-4 2-6z"/><path fill="#1044B0" d="M328 549v2q-5 3-11 3 5-5 11-5"/><path fill="#CFD0D0" d="m290 454 3 1-2 7h-2v-7z"/><path fill="#151515" d="M919 942h6v3h-7z"/><path fill="#144AB8" d="m1006 739 2 2-4 2-2 1-2 1-2-1q3-4 8-5"/><path fill="#3A3B3B" d="m411 715 2 2-8 1-1-3z"/><path fill="#C4C4C4" d="M1053 544h1v5h2q-2 6-4 6z"/><path fill="#E9E9E9" d="m654 493 5 1 2 3-8-1z"/><path fill="#3F9E2D" d="m1091 354-1 6-3 1v-3l-2-1z"/><path fill="#154CBF" d="M1060 788q-1 5-6 6h-2q2-6 8-6"/><path fill="#E7E7E8" d="m1090 785 2 1-5 5-4-1z"/><path fill="#D6D5D6" d="m1088 582 1 2 2 1-3 3 2 2h-4z"/><path fill="#1A1A1A" d="m918 934 2 1-3 8h-1v-7z"/><path fill="#EDEDEE" d="m550 733 9 4-4 1-1-3-4-1z"/><path fill="#505050" d="M84 682h1q2 7-1 13h-1z"/><path fill="#252526" d="m109 627 2 1-2 5-4 1z"/><path fill="#103998" d="M496 498v1q-6 3-13 1v-1z"/><path fill="#333433" d="M213 324h3l1 2-6 1-3-2z"/></svg>