<svg xmlns="http://www.w3.org/2000/svg" viewBox="0 0 1254 1254"><path fill="#070606" d="m427 338 18 7c33 12 71 13 106 16h3q42 2 85 2h3l98-2 75-8h2l14-3 5-1q20-4 38-12a55 55 0 0 1 29-6q7 3 9 10 2 21-9 38v6l4 8 1 2q35 63 103 87l3 1 8 2a34 34 0 0 1 22 11q5 10 2 22-9 23-30 34l-5 3-24 10h-3l-4 1-5 2-1 5a43 43 0 0 1-18 26q-14 9-30 8v141l7-4a36 36 0 0 1 23 0l13 9 10-5 7-2q5-1 7-5 4-7 2-16l-3-4v-2h-2q-22 3-40-10a48 48 0 0 1-17-33 48 48 0 0 1 14-36q11-11 26-13h5l1-2a56 56 0 0 1 24-35 64 64 0 0 1 44-8 55 55 0 0 1 33 23c6 13 6 13 6 20h2q19 1 32 15c11 13 11 26 10 41q0 8-5 15l-2 3a55 55 0 0 1-28 23l-2 1-12 2h-8q-5 0-9 2l-3 4-10 8-2 2-2 1-2 2-4 2q-4 3-6 7l-1 3v3l-2 13h3q9 1 16 8 8 9 8 21l-1 13v12l2 1q6 3 9 11 2 6 0 12l-9 8 1 3a69 69 0 0 1-1 25q-2 8 1 16 5 21-4 39a28 28 0 0 1-19 11l-18 1h-88l-114-1H655l-10-2h-11l-17-1h-2l-6 1-4 5q-5 3-11 2H428q-5 0-8-4l-1-4-26 1h-2l-9 1-12 1H184q-12 0-21-7-11-12-9-31 0-7 3-14 2-4-1-9-3-16 2-32l1-5-2-1a47 47 0 0 1-20-24l-1-2a39 39 0 0 1 2-28 48 48 0 0 1 18-18l6-1-1-4a43 43 0 0 1 0-31q7-11 18-18l3-2 17-1v-3q-1-14 5-27l1-2a54 54 0 0 1 31-24q23-4 43 8 8 6 12 14l12-5a41 41 0 0 1 27 0 47 47 0 0 1 19 14v2h2v-92l-13-1a45 45 0 0 1-29-20l-2-3-2-7-3-8-10-3a86 86 0 0 1-48-29 42 42 0 0 1-6-29q4-8 12-14l14-4 7-3h2a167 167 0 0 0 66-40l7-5 13-14 2-2 27-36 1-2q3-4 3-8l-3-9q-6-16-1-33l5-5 2-2q17-3 32 6"/><path fill="#F6D6AF" d="m789 852 2 1 2 1 3 2a45 45 0 0 0 34 2l9-5 7-2 3 2q14 8 32 5 9-1 15-6l2-1 9 5 2 1q17 6 34 1l9-4 3-1v-2l6 3 3 2 2 1q17 7 35 0l10-5 9 3a63 63 0 0 0 26 6h3q2 5 1 11v3q1 7-2 14v7l2 5 1 14v3a29 29 0 0 1-5 20q-6 4-14 3H905l4-7q3-8 0-17a27 27 0 0 0-16-15l-2-1q-13-4-26 2a27 27 0 0 0-13 15q-1 12 7 23h-82l4-8q3-9-1-17l-8-9-2-1q-10-6-23-3a29 29 0 0 0-17 14 23 23 0 0 0-2 14l4 8 1 2h-76q-4 1-8-2v-36q0-7-4-12l-3-2v-30h2a50 50 0 0 0 36-5l4-1 5 3a41 41 0 0 0 27 4l18-7h5l3 2a38 38 0 0 0 28 3c9-2 9-2 13-5q3-3 6-1"/><path fill="#0B0702" d="M703 640h145l5 1 1 8v129h2q3 1 5 4v11q0 6-4 9l-7 1H696q-5-1-7-5v-10q0-5 2-9h3V642z"/><path fill="#34901D" d="M267 681a46 46 0 0 1 19 22l3 1q4 0 6-3 11-10 25-7 13 2 20 11 6 6 7 14v3l4 2v81H203c-17 0-17 0-24 7l-3 11q0 4-3 6l-5 3-8 8q-6-1-9-7-7-10-5-24l3-7 1-2q6-9 17-12l6-1 3-1q1-3-1-7l-3-3q-5-11-3-23a31 31 0 0 1 16-18q7-2 14-1h8l3-1-1-5q-2-15 4-28l1-2q9-15 25-19c8-2 20-2 28 2"/><path fill="#F6D6AF" d="m227 855 7 3q16 10 33 5l18-6 5-1 6 3a47 47 0 0 0 47-2l4-1 8 3q6 4 14 4h13l7-1v27l-5 2-2 6-1 1v15l-1 20v6q-4 2-10 2H205l2-6q2-12-3-22a32 32 0 0 0-22-13h-13v-3l-2-6-1-13v-2q0-9 3-16l7 1 5 2q23 3 42-7z"/><path fill="#0644B8" d="M898 342q3 2 2 6 0 11-5 21l-1 3-6 7q-10 4-21 6l-3 1a632 632 0 0 1-72 11l-10 1q-25 3-51 4h-14c-92 6-189 4-297-18l-6-2c-8-2-8-2-11-5l-3-9-1-2q-3-11 0-21l4-2q9 1 18 5c30 14 63 18 95 21h2q61 5 121 5h18a1326 1326 0 0 0 122-5q53-1 102-22l6-3 3-1z"/><path fill="#F8F8F8" d="M878 606v199H673V613l56-1 32-1h4l63-3h16l3-1 18-1zm-184 36v137h-2l-2 1q-2 4-1 10v2q-1 4 2 8 4 3 9 2h63l63 1h28l5-3q2-5 2-11v-4q1-3-2-5-2-2-5-2V645l-1-4-8-1H700z"/><path fill="#34901D" d="M1062 602a42 42 0 0 1 15 30v2q5 2 9 1 14 1 24 10a40 40 0 0 1 10 31 44 44 0 0 1-14 28 43 43 0 0 1-31 10l1-2q2-7 1-13l-6-6h-10l-10 9-5 4-2 2-6 1 2-18c3-16 3-16 2-22l-7-6c-7-1-7-1-11 2-6 6-8 17-10 25l-3 8q-5-2-8-9a14 14 0 0 0-10-5q-7 0-10 5-2 5-1 9l3 7 1 4q-12 2-23-4l-2-1a32 32 0 0 1-13-14l-1-2q-5-13-2-26a41 41 0 0 1 20-23q7-3 14-2h9v-3q2-19 17-33a49 49 0 0 1 57 1"/><path fill="#F95404" d="M459 681h27v70h3v-69h26v206h-26v-88l12-2q7-3 9-10 2-8-2-14l-4-4q-3-4-3-8l-2-5q-3-2-8-1l-5 5v3q-1 6-6 10-4 4-3 8l4 12 3 2q4 5 3 12v17l-1 16v47h-27z"/><path fill="#F85404" d="M522 681h26v70h3v-69h26v206h-26l-1-67v-17l2-8 4-3q4-3 4-8 1-8-4-14l-2-1-3-4v-6q0-2-2-3l-9-1-3 3v4q0 5-4 8l-3 2q-3 8-2 16 3 7 10 10l10 1v88h-26z"/><path fill="#0644B8" d="M488 405h2l41 4h5l2 1 5 1q-4 27-13 53l-7 22-8 29-1 3-3 6-7 2a26 26 0 0 0-17 16l-3 8q-16 5-30-1-4-4-3-8a21 21 0 0 0-7-15l-7-4 3-9 2-3 1-2q25-45 42-95z"/><path fill="#0645B9" d="m809 405 7 21a796 796 0 0 0 31 86l1 6-3 1q-11 7-15 19l-1 8a40 40 0 0 1-32 4l-5-5-1-5a18 18 0 0 0-7-12l-10-5-3-3v-3l-1-4v-2l-2-13-10-67-1-8v-2l-1-12h2l9-1h3l23-2z"/><path fill="#0644B8" d="m431 397 20 2 26 5-6 18-1 3a897 897 0 0 1-44 92l-3 4h-3q-10 2-15 9l-6 11q-2 4-6 4h-11q-9 1-16-4-2-3-1-7a27 27 0 0 0-10-20l-4-3 6-8q6-5 11-12l6-8q10-11 19-24l2-2q20-28 36-60"/><path fill="#0645B8" d="m745 411 4 22 1 8v2l3 25 1 3 3 23 1 4 1 6 1 19-2 1q-11 4-16 15l-1 6q-1 6-3 7-12 5-26 1l-5-3-2-7q-1-7-6-11l-9-5-1-83v-31l22-1zm-191 1 56 1v10l-2 17-2 12-5 33-2 15-1 3-1 7v2l-2 13-2 1h-2l-3 1a27 27 0 0 0-15 14l-3 9q-3 4-8 5h-10q-8 1-14-4l-1-7q0-7-6-12l-8-5 5-20q13-39 22-80zm66 2h58v112l-10 3q-8 5-12 14l-1 5-1 4q-7 4-16 3h-2q-7 1-12-3l-2-5q-2-11-9-17l-7-3q1-16 4-31l2-17 2-12 2-17 1-3 1-10z"/><path fill="#F55204" d="M878 579v18l-28 2h-3l-50 2-51 2h-28l-85 1h-15c-129 0-129 0-173-3l-45-2v-17c29-6 29-6 43 1a62 62 0 0 0 50 1q14-7 29-3l10 5a40 40 0 0 0 21 4h2q13 0 25-5h18a46 46 0 0 1 23 3c11 5 29 3 40-1l3-2 14-1h6q12-1 23 4a62 62 0 0 0 43-5 39 39 0 0 1 25-6l11 5q24 10 48 1l13-6q16-3 31 2"/><path fill="#0644B8" d="m862 396 1 3a411 411 0 0 0 28 52 334 334 0 0 0 43 52l2 4-3 1q-9 5-13 16v7l-3 6q-9 5-20 5h-3c-8-1-8-1-12-4l-2-6q-4-9-13-12-9-5-11-15l-2-3-4-11-3-7-23-65-1-4-1-3-1-3-1-6 6-2h6l23-4z"/><path fill="#FCFCFC" d="M400 608h16l5 1 19 1 34 1h2q78 3 156 2v31H400z"/><path fill="#F65403" d="m361 581 12 2 17 1v223l-29-1z"/><path fill="#328D1C" d="m956 755 9 9 4 2q5 0 7-3 5-8 15-8a27 27 0 0 1 21 7q7 9 6 19h3l4-1h2q10-1 16 6 6 6 6 14v2l-1 4-159-1c0-8 0-11 6-17a23 23 0 0 1 16-7h6v-4q2-13 13-20a27 27 0 0 1 26-2"/><path fill="#F85203" d="m916 579 1 172v4q-1 5-5 9l-1 5-1 2v2h-2l-3 1-3 1-14 7V581l20-1z"/><path fill="#FCFCFC" d="M400 682h26v206h-26z"/><path fill="#0543B6" d="m403 389 18 4-5 12-1 2q-13 22-28 43l-1 2-37 43-1 2-4 4-3 3-2 2q-2 3-6 3-10 2-15 9l-1 2q-6 7-17 8-9 2-20 1v-2h-3q-13-1-21-11l-4-4 2-5 11-4a184 184 0 0 0 82-45l4-4q10-8 18-18l5-6 22-30z"/><path fill="#0543B7" d="m892 390 2 4 2 2 1 3a253 253 0 0 0 40 53c23 25 56 39 88 46q7 2 7 4l1 2a51 51 0 0 1-33 20q-17 3-31-7l-3-4-9-7q-13-7-23-18l-2-2-21-25-1-2a411 411 0 0 1-34-55l-1-2-3-6 1-3 7-2 2-1z"/><path fill="#A5A4A4" d="M438 918h156q5 0 7 4l1 5v9l-2 10q-4 2-9 1H429q-3-6-2-14v-9q2-8 11-7"/><path fill="#F9F9F9" d="M608 681h24v207h-24V784l2-4v-7l-2-4v-57z"/><path fill="#F35404" d="M641 613h23v192l-23 1z"/><path fill="#FA5403" d="M400 653h232v19H400z"/><path fill="#F3D4AD" d="M397 898h239q2-1 4 3v30c0 6 0 6-2 8h-17l-11-1v-12q0-8-5-14a22 22 0 0 0-13-3H432q-7 0-12 7l-2 10v2l-1 3v8h-26q-2-4-1-10v-22l1-8z"/><path fill="#0441B2" d="M653 814h386q4 0 8 3v7H642c0-6 0-6 2-8q4-2 9-2"/><path fill="#F45405" d="M702 648h143v129h-10l-1-118-7-1H717l-3 1v53l-1 66h-11z"/><path fill="#F3B25F" d="M842 871q6 4 8 11 2 11-3 18-11 11-26 10c-24 1-24 1-34-6a24 24 0 0 1-7-16q1-8 7-14a52 52 0 0 1 55-3"/><path fill="#F55204" d="M436 681h14v179q-6-1-7-3l-4 1-3 1z"/><path fill="#0C0B0B" d="M248 284q3 0 5 3l1 5q2 14 13 24 5 4 12 4l5 4v5q-2 4-8 4a32 32 0 0 0-16 11q-5 8-6 20l-4 5h-5q-4-4-4-11-2-13-13-21l-13-5-3-2c-1-5-1-5 1-8l7-2a26 26 0 0 0 16-12l5-19q1-5 7-5"/><path fill="#9F9E9E" d="M331 874h2a36 36 0 0 1 26 9q7 8 5 19a16 16 0 0 1-6 11l-8 4-3 1a59 59 0 0 1-34-2q-8-4-12-13-2-10 3-18 11-11 27-11"/><path fill="#0B0A0A" d="M1037 307q3 0 5 2l3 10a34 34 0 0 0 11 19l12 5 5 3-1 7-13 5q-10 6-14 17-2 5-2 11l-3 4h-6q-4-4-3-8-2-14-13-23l-11-4-6-4v-5q3-3 8-4 11-2 17-12l5-17v-2q2-4 6-4"/><path fill="#0E0C0B" d="M957 874q6 4 8 11 2 9-3 16-8 9-21 10h-9a28 28 0 0 1-21-8q-6-6-5-17 1-7 7-12c12-10 31-8 44 0"/><path fill="#0440B3" d="M197 816h183q5 0 9 2v7q-3 2-6 1H191l-6-1 2-7q4-4 10-3"/><path fill="#0F0C08" d="M702 869h3a30 30 0 0 1 22 9q5 6 3 15 0 8-7 12a44 44 0 0 1-24 5h-3q-11 0-18-5a20 20 0 0 1-6-14q0-9 7-15a34 34 0 0 1 23-7"/><path fill="#A84C07" d="m1029 672 5 1-2 16-1 3-5 21-1 12 1 1c12 0 22-10 30-17l4-4q3-4 8-4l1 5-3 4-2 3-2 2-1 2q-11 13-27 21l-2 2-1 1q-6 5-7 12l-1 2-1 6-2-2a49 49 0 0 0-18-12l4-13q2-6-1-11l-5-8c-10-17-10-17-9-22l5 1 8 11 1 1 5 7 5-1 3-7 1-2 6-21 1-3v-2z"/><path fill="#0540B0" d="m1024 527 2 1c-21 23-57 31-86 35l-15 3q-16 4-33 3h-11l-9-2 4-6 5-9 3 1h17a33 33 0 0 0 19-5l5-2 3 4q7 7 15 7h5q10 0 17-7a33 33 0 0 0 8-17h2a77 77 0 0 0 48-5z"/><path fill="#110D08" d="M244 875q8 5 9 13 1 9-4 16a33 33 0 0 1-22 7h-3a28 28 0 0 1-20-8 23 23 0 0 1-4-15q2-7 8-13a37 37 0 0 1 36 0"/><path fill="#E64B03" d="M701 785h151v10l-21 1H704l-7-2v-8z"/><path fill="#0E0E0E" d="M1132 862q4 3 3 8 3 12 13 19l9 4 1 3q1 3-2 5l-5 2a26 26 0 0 0-14 13l-2 7-1 2v3l-2 4h-5q-3-4-4-9a27 27 0 0 0-9-17l-10-5-4-3 1-5 7-3a24 24 0 0 0 14-15l2-9 1-3z"/><path fill="#043FAE" d="m259 534 2 1a78 78 0 0 0 28 5h3q7 1 14-2h5l1 2q3 13 15 20a29 29 0 0 0 21-1l8-5 3-3q6 0 10 4l13 1h3l16-1 2 4 7 10c-21 8-46 2-67-2h-4q-34-5-65-21l-3-2q-8-3-12-10"/><path fill="#0F0D0B" d="M1035 881a22 22 0 0 1 6 15q0 9-6 15-10 6-21 4-10-3-14-12-3-9 1-17 15-17 34-5"/><path fill="#130500" d="m497 755 5 5v4l2 6 5 3q4 8 2 15-3 7-9 11l-13 1v87l-3 1v-72c0-17 0-17-4-22l-4-3q-2-5-2-12 2-5 6-8l3-8 3-7q5-2 9-1"/><path fill="#160600" d="m547 755 5 5v4l2 6 5 3q4 8 2 15l-8 10h-2v90h-3v-88h-10a24 24 0 0 1-11-11q-1-8 2-16l5-5h2v-2c0-6 0-6 2-10q4-3 9-1"/><path fill="#9C9C9C" d="M895 910q9 6 8 17 0 5-4 9-9 7-17 6h-3q-8 0-14-5t-6-12 3-12a27 27 0 0 1 33-3"/><path fill="#100C08" d="M842 871q6 4 8 11 2 11-3 18-11 11-26 10c-24 1-24 1-34-6a24 24 0 0 1-7-16q1-8 7-14a52 52 0 0 1 55-3m-51 9-3 8 4 9a36 36 0 0 0 22 5h3c16 0 16 0 22-4q4-4 3-10l-1-8c-13-10-38-11-50 0"/><path fill="#100E0B" d="M288 906q5 4 6 11l-1 11q-8 8-20 7a30 30 0 0 1-21-7 19 19 0 0 1-2-14q4-8 13-11a34 34 0 0 1 25 3"/><path fill="#F45303" d="M586 681h13v90h-3v-2h-5v2h-5z"/><path fill="#0E0D0B" d="M331 874h2a36 36 0 0 1 26 9q7 8 5 19a16 16 0 0 1-6 11l-8 4-3 1a59 59 0 0 1-34-2q-8-4-12-13-2-10 3-18 11-11 27-11m-18 13q-5 5-4 12 0 4 3 7c9 7 22 6 32 5l12-6q3-6 1-12-3-8-12-10c-10-4-24-4-33 4"/><path fill="#9C9B9B" d="M765 910q6 3 10 10 2 8-1 14-4 6-10 7l-8 1h-3q-8 1-14-5-5-5-5-11 0-7 6-12a26 26 0 0 1 25-4"/><path fill="#9E9D9D" d="M195 913q7 8 7 17-2 6-7 11c-18 1-18 1-24-4q-7-8-6-19v-8c8-8 23-2 30 3"/><path fill="#9B9B9B" d="M950 878q5 2 7 7v10a18 18 0 0 1-10 7h-15q-9 1-15-4l-2-2q-3-4-2-9 1-6 7-9 15-7 30 0"/><path fill="#F55403" d="M586 782h5v3l2-1 6-2v77h-13z"/><path fill="#EFAF5F" d="M715 878q5 2 8 7 2 7-2 12-10 8-23 6a25 25 0 0 1-16-5q-2-5-2-11 3-6 11-10a38 38 0 0 1 24 1"/><path fill="#0F0D0B" d="M995 907q5 5 5 14 0 7-7 10-6 4-13 2h-2q-7 1-12-3-4-6-3-13 0-8 7-11a22 22 0 0 1 25 1"/><path fill="#033FB1" d="M236 834h49l-2 13q-5 4-11 5l-3 1a43 43 0 0 1-32-4l-4-4q0-5 3-11"/><path fill="#033FB2" d="M203 834h20c-1 10-1 10-5 13a46 46 0 0 1-32 7l-17-8q1-5 5-8c9-6 19-5 29-5"/><path fill="#0442B4" d="M297 834h46c-1 11-1 11-3 14q-14 8-32 6a23 23 0 0 1-13-8q-1-7 2-12"/><path fill="#EFAE59" d="m238 880 8 8-1 9q-3 5-9 6h-12q-9 1-15-6-3-4-1-10c6-10 20-12 30-7"/><path fill="#033EAF" d="M903 832h47l1 10-4 3-2 1q-14 7-28 4-7-2-13-8z"/><path fill="#F4F4F4" d="M431 531q6 3 9 8a17 17 0 0 1-11 23q-7 2-12-3a17 17 0 0 1-6-10q-2-6 2-10 6-10 18-8"/><path fill="#F6F6F6" d="M954 517c7 6 7 6 7 11q2 7-3 13a19 19 0 0 1-15 6q-8-3-12-10-1-7 2-15 8-9 21-5m-182 17q5 3 9 8a18 18 0 0 1-1 14 15 15 0 0 1-9 8q-6 2-12-1a17 17 0 0 1-7-12q-2-6 2-10 6-10 18-7"/><path fill="#F4F4F4" d="m342 520 10 8q3 7 0 13l-9 9q-7 2-14-1a17 17 0 0 1-7-14 15 15 0 0 1 5-12q7-5 15-3m178 18q6 3 7 10a15 15 0 0 1-3 11q-3 7-10 7-7 2-12-3a16 16 0 0 1-6-12q0-7 5-12a16 16 0 0 1 19-1"/><path fill="#F5F5F5" d="M689 539q7 5 7 13 0 6-4 10c-5 4-7 5-14 5q-6-1-10-6-4-6-2-14 3-6 8-9 8-2 15 1"/><path fill="#F6F6F6" d="M864 531q7 4 7 12a20 20 0 0 1-4 12q-5 4-12 5-7-1-11-7t-3-14q3-6 8-9 8-2 15 1"/><path fill="#033DAF" d="M960 832h45c3 7 3 7 2 10l-5 3-2 2q-12 5-25 3l-14-8z"/><path fill="#F6F6F6" d="M604 538a18 18 0 0 1 8 10q2 8-3 14a14 14 0 0 1-10 5q-7 2-12-3a16 16 0 0 1-5-11q0-9 6-14 8-3 16-1"/><path fill="#043EAE" d="m833 557 4 4 5 5-3 4a71 71 0 0 1-55 1l5-8 1-2 1-2 2 1c16 5 25-3 40-3"/><path fill="#0340B6" d="M792 833h47c0 8 0 8-2 11a41 41 0 0 1-29 6q-9-1-16-8z"/><path fill="#033FB2" d="M1016 832h29q5 0 9 2c5 5 5 5 5 8q1 3-2 5-11 6-24 4l-9-4-3-2q-4-2-5-8z"/><path fill="#033EB1" d="M849 832h44v10l-7 5-2 1-12 1h-3q-8 0-15-4l-3-2c-2-2-2-2-2-11"/><path fill="#0440B2" d="M354 834h35v16q-10 7-22 4l-9-4-3-2q-3-4-2-9z"/><path fill="#033DAF" d="M689 833h41v10l-8 5-2 1a28 28 0 0 1-21 1l-10-6z"/><path fill="#0440B0" d="m449 560 2 1a51 51 0 0 0 21 2l15-2 5 7 2 5a68 68 0 0 1-43 3l-9-4-2-1 7-9z"/><path fill="#033DB0" d="M740 833h42v9c-18 10-18 10-29 8l-13-7z"/><path fill="#F35202" d="M961 570v6a36 36 0 0 1-23 19l-12 1v-19l28-6z"/><path fill="#033DAB" d="m744 563 3 3 2 2 1 2q0 3-4 4a61 61 0 0 1-45 1l-3-1 7-11 3 1 17 1q6 0 11-2z"/><path fill="#033CAC" d="m657 563 4 6 2 2 1 3a53 53 0 0 1-27 6h-2q-12 0-22-5l5-8 1-2 1-1h2c13 4 23-1 35-1"/><path fill="#033FB5" d="M642 833h36v11q-10 8-25 7-6 0-11-4z"/><path fill="#043EAF" d="m535 563 2 1a62 62 0 0 0 36-1l5 7 2 4-5 2-2 1q-10 3-19 2h-3q-13 0-23-5z"/><path fill="#F25203" d="m315 573 36 6v19q-16 1-28-10-7-6-8-15"/><path fill="#C3AE99" d="M1027 885q4 1 6 5 2 8-1 14a15 15 0 0 1-11 5q-8-1-13-7l-2-10q2-5 7-8a17 17 0 0 1 14 1"/><path fill="#F2F2F2" d="m247 307 5 7a24 24 0 0 0 13 11v2l-4 3-11 12-3 4-1-2q-5-11-16-16 1-4 5-6 8-5 12-15"/><path fill="#E2E1E1" d="M631 615h1v29H400v-1l17-1v-1h212l1-7v-4l1-3v-4z"/><path fill="#F5F4F5" d="M1036 329h2l1 2a37 37 0 0 0 12 15l3 3-2 1a44 44 0 0 0-14 17h-2l-1-4-9-9-6-6 2-1a36 36 0 0 0 14-18"/><path fill="#CDAD28" d="M765 722h18v28h-18z"/><path fill="#C6A923" d="M742 722h18v28h-18z"/><path fill="#CFAE26" d="M765 689h18v27h-18z"/><path fill="#CDAE26" d="M742 689h18v27h-18z"/><path fill="#CCAA24" d="M788 722h17v28h-17z"/><path fill="#CEAD26" d="M788 688h17v28h-17z"/><path fill="#C5AB8F" d="M285 913q3 3 3 8-1 4-5 6l-11 1h-3c-7 0-7 0-11-3q-3-4-1-9 3-5 8-7 10-2 20 4"/><path fill="#CBAD26" d="M811 722h16v28h-16z"/><path fill="#C7A622" d="M811 688h16v28h-16z"/><path fill="#CDB024" d="M720 689h16v27h-16z"/><path fill="#272005" d="M736 689h6v27h17v1l-5 1 2 1 3 3h-17v16l-2 1-1-16h-2v27h-1v-27h-15v27h-1v-25l1-8v-1h15z"/><path fill="#CDAF24" d="M721 723h15v27h-15z"/><path fill="#CEAD26" d="M765 756h18v20h-18z"/><path fill="#C4A924" d="M742 756h18v20h-18z"/><path fill="#064A06" d="M319 763q3 2 2 5 0 7-4 12h-2v2q-6 5-13 3l-3-3q-1-7 3-12 7-8 17-7"/><path fill="#054B06" d="M225 765q6-1 10 3 6 5 6 12l-1 5a24 24 0 0 1-14-2q-6-4-7-11-1-9 6-7"/><path fill="#CEAE28" d="M742 664h18v19h-18z"/><path fill="#CFAE2B" d="M765 664h18v19h-18z"/><path fill="#F2F2F2" d="M1128 881h2l3 5a25 25 0 0 0 10 10l-8 8-6 7-1-2-9-10-3-2v-2l4-3q6-4 8-11"/><path fill="#054E07" d="M259 731q7 2 10 8a26 26 0 0 1 2 15l-5 3q-6-1-10-7-3-5-2-11v-3q-1-5 5-5"/><path fill="#C4A725" d="M720 664h17v19h-17z"/><path fill="#C9AB24" d="M788 664h17v19h-17z"/><path fill="#CAAA20" d="M811 756h16v20h-16z"/><path fill="#CDAF27" d="M721 756h16v20h-16z"/><path fill="#969595" d="M985 910q6 3 8 7v5q-2 4-6 5-8 0-15-2-2-1-2-6 0-4 2-6 6-4 13-3"/><path fill="#D0B024" d="M789 756h16v19h-16z"/><path fill="#CBAD26" d="M811 664h16v19h-16z"/><path fill="#151101" d="M805 664h6v9l1 3 1 12h-2v28h-6v-29h-16v-2h7l-3-2h12z"/><path fill="#EA4D02" d="M586 869h13v19h-13z"/><path fill="#065106" d="M291 735q2 2 1 6 0 6-4 11-5 4-12 4-1-7 2-13c7-9 7-9 13-8"/><path fill="#EE4F03" d="M445 870h5v18h-14v-17l8 2z"/><path fill="#EB4E01" d="M490 776h2l9 1q3 2 2 5-1 5-4 9l-8 1-6-6 1-9z"/><path fill="#E74B02" d="M537 776h2l3 1h9q3 2 2 5 0 4-3 8l-9 2-4-3v-2h-2c0-8 0-8 2-11"/><path fill="#064D08" d="M942 776q6 0 11 5 3 4 2 10l-3 3-7-1c-5-7-5-7-6-11z"/><path fill="#B9A322" d="M765 722h18v28h-18zm2 2v24h13v-24z"/><path fill="#065807" d="M994 778q3 2 2 5-1 5-4 9-5 3-10 2l-1-5 1-7q5-5 12-4"/><path fill="#010100" d="M737 665h1l1 16 1-16h1v11l1 2v2l2 5-1 2h15v1l-16 1-1 21h-1v-21h-2v27h-1l-1-27-15-1v-1l14-1-7-1v-1l8-1z"/><path fill="#AC931E" d="M765 756h18v20h-18zm2 2v10l1 5h12q2-4 1-9l-1-6z"/><path fill="#B9A021" d="M742 664h18v19h-18zm2 4v13h13v-14z"/><path fill="#B8A024" d="M765 664h18v19h-18zm2 4v13h13v-15h-7z"/><path fill="#BAA620" d="M765 689h18v27h-18zm2 2v23h15v-22q-7-2-15-1"/><path fill="#FD6004" d="M703 649h4l-2 5v35l-1 88h-1z"/><path fill="#BEA724" d="M788 688h17v3l-14 1-1 22h15v2h-17z"/><path fill="#C1A824" d="M721 756h16v20h-16zm2 2v15l4 1h8v-16z"/><path fill="#DCC229" d="M721 723h15v27h-15zm2 1v24h12v-20l-1-4z"/><path fill="#AA941E" d="M742 689h18v27h-1v-15h-2v-10h-13l-1 25h-1z"/><path fill="#033393" d="m323 558 3 2q10 2 19 1l-1 5h3q4-1 6 2l-24-4h-4l-9-2v-1h7z"/><path fill="#D5C225" d="M789 723h1v25c10-1 10-1 12-3l1-5v-4h2v14h-16z"/><path fill="#AF961D" d="M788 722h17v14h-2v-12h-13l-1 26h-1z"/><path fill="#DCC529" d="M743 690h1v24h13v-13h2v15h-16z"/><path fill="#DCBF25" d="M812 689h14l-1 4v-2l-11 1-1 22h14v1h-15z"/><path fill="#AD911D" d="M767 689h16v27h-1v-11l-1-4v-6l-1-4h-13z"/><path fill="#043897" d="m1024 527 2 1-4 4-2 2-7 4-2-3-4-1 4-1 4-2 2-1zm-11 6 1 2 1-2z"/><path fill="#191919" d="m177 728 2 1-2 1-3 4-9 9-2-1q6-8 14-14"/><path fill="#D23E01" d="m488 776 3 1-1 2-1 5v4h-3l-1-9z"/><path fill="#05276F" d="M941 557h8l7 1h6q-4 3-10 3l-2 1-7-1h2v-2z"/><path fill="#042E7F" d="m323 558 6 2 8 5-21-3v-1h7z"/><path fill="#DFC82A" d="M766 757h1l1 16h11q-2 3-5 2h-8z"/><path fill="#C9B191" d="M730 885h1l1 6v4q0 3-3 7l-3-1 1-2q4-6 3-14"/><path fill="#E2E2E3" d="m1142 908-2 8v2l-1 2-3 1q0-8 6-13"/><path fill="#3A1101" d="m478 774 1 12-2 3q-2-7 1-15"/><path fill="#D5B82E" d="M803 736h2v12h-5l2-3 1-5v-2z"/><path fill="#DC4A01" d="m315 573 9 1-2 1q-2 2-2 5v3c-5-7-5-7-5-10"/><path fill="#CAB394" d="M294 916h1c2 9 2 9-1 14l-4 3-2-2 2-2q4-4 4-9v-2z"/><path fill="#D6BC95" d="M807 860h2l1 4 12 1v1h-11l-7-2h3z"/><path fill="#CCB899" d="M281 861q-6 6-16 4l9-4 3-1z"/><path fill="#E7E6E7" d="m975 567 3 1q0 6-4 8v-7z"/><path fill="#053AA9" d="m179 835 2 1-11 10-1-3z"/><path fill="#2A7918" d="M196 734h6l-9 3h-2l-4-2z"/><path fill="#F3F3F2" d="M928 726h1v4l1 10v2l1 4-4 1z"/><path fill="#3D3D3E" d="M987 747h-3l-1 2q-2 3-7 3h-2q5-7 13-5"/><path fill="#D6D6D6" d="m759 535 2 1-4 5h-2l-1 5-2-1q2-6 7-10"/><path fill="#AF9B7F" d="M713 910q-6 3-13 2h-2l-6-1v-1l8-1h7z"/><path fill="#7A797A" d="m918 879 2 1-2 3-4 11h-1c-1-8-1-8 1-11z"/><path fill="#BC3B01" d="M527 776v10l-3-1v-8z"/><path fill="#043997" d="m931 504 5 1v2l-7 3z"/><path fill="#043CA8" d="m358 502 2 2h-2l-1 2q-1 4-6 5z"/><path fill="#E2C8A4" d="m361 908 1 4-5 4-4-1 2-1 2-1 1-2z"/><path fill="#EC5304" d="M491 682h15v1h-6l-3 1-6 2z"/><path fill="#D0CFD1" d="m937 518 2 1-3 6h-3l-1 3q1-6 5-10"/><path fill="#DF4C01" d="M511 780h1l1 10-4 2z"/><path fill="#E5E5E5" d="m245 539 7 6-2 2-6-7z"/><path fill="#054AC6" d="M829 531h2q0 6-3 11v-7z"/><path fill="#F86410" d="m642 801 7 2-7 3z"/><path fill="#1E1F1F" d="m995 735 2 3-3 6h-2z"/><path fill="#D1D1D2" d="M1128 881h2l1 3-5 5z"/><path fill="#E74C01" d="m443 855-7 4v-4z"/><path fill="#053794" d="m296 835 1 9 1 4-3-2z"/><path fill="#451402" d="M547 755v1h-3q-4 1-7 5l1-5q5-2 9-1"/><path fill="#2E0D01" d="M491 755h6l1 2-7 1z"/><path fill="#2B801A" d="m179 739 2 1c-3 5-3 5-8 6z"/><path fill="#212121" d="m954 546-2 2-8-1v-1zm-7 2 2 1Z"/><path fill="#454545" d="M267 492h-2l-1 3-8-2c7-2 7-2 11-1"/><path fill="#272727" d="m1004 343 4 1-3 2 1 3-3 2-1-6z"/><path fill="#292929" d="m872 339-1 3-6 1 1-3z"/><path fill="#7F7E7E" d="M356 893h1v7l-2 4q-2-5 1-11"/><path fill="#0339A4" d="m904 837 3 1 1 5h-3l-1-4z"/><path fill="#1A1A1B" d="m146 789 1 2-4 6-2-2z"/><path fill="#101010" d="m946 702 6 5-2 2-5-6z"/><path fill="#FA5E0A" d="m863 593 5 2v1l-8 1v-2z"/><path fill="#DD4901" d="m961 570 1 3-2 3-4-5zm-5 3 2 1Z"/><path fill="#242525" d="m610 558 1 3-2 1zm-5 6 2 1-4 3-2-2z"/><path fill="#032E7E" d="m394 541 4 2-10 2 4-1v-2z"/><path fill="#022F88" d="m771 515 1 3 3 1v4l-3-1z"/><path fill="#053DAC" d="m390 463 1 2-4 6h-3z"/><path fill="#C6C6C8" d="m908 366 2 1-2 7-3 1z"/><path fill="#E0DFE1" d="M1053 360h2q-2 6-7 8z"/></svg>