<svg xmlns="http://www.w3.org/2000/svg" viewBox="0 0 280 265" width="280" height="265" role="img">
<title>character-01-rock-sprout retraced from original sheet</title>
<g id="character-01-rock-sprout" data-source="generated-image-3-crop-wide" data-bbox="0 0 280 265">
  <g id="character-01-rock-sprout__gray" fill="#9b9b9b" fill-rule="evenodd" transform="translate(0.000000,265.000000) scale(0.100000,-0.100000)">
    <path d="M1368 2183 c23 -2 59 -2 80 0 20 2 1 4 -43 4 -44 0 -61 -2 -37 -4z"/>
    <path d="M1345 2123 c-144 -19 -292 -108 -367 -221 -21 -31 -36 -63 -33 -69 2
-7 0 -13 -6 -13 -6 0 -8 -7 -5 -16 3 -8 2 -13 -3 -10 -11 7 -45 -147 -38 -173
3 -12 1 -19 -4 -15 -5 3 -9 -10 -9 -28 0 -19 -6 -58 -14 -88 -8 -29 -11 -60
-8 -68 4 -11 1 -13 -8 -7 -10 6 -12 4 -7 -9 4 -9 3 -15 -2 -12 -7 5 -56 -87
-56 -106 0 -5 -5 -12 -12 -16 -6 -4 -13 -11 -15 -17 -1 -5 -6 -9 -10 -8 -7 3
-12 -12 -10 -29 1 -3 -5 -12 -13 -18 -8 -7 -15 -9 -15 -4 0 5 -16 -13 -35 -40
-19 -27 -32 -53 -29 -58 3 -5 0 -7 -8 -6 -7 2 -13 -6 -13 -17 0 -11 -5 -19
-10 -18 -14 2 -28 -25 -19 -39 4 -6 3 -8 -3 -5 -6 4 -24 -24 -42 -64 -60 -134
-52 -316 17 -382 16 -16 38 -29 50 -30 11 0 19 -4 16 -8 -7 -12 84 -29 232
-44 169 -17 650 -39 664 -30 13 8 13 115 0 135 -8 13 -10 13 -10 1 0 -11 -4
-9 -14 4 -8 11 -13 22 -11 26 2 3 -31 5 -73 5 -134 1 -236 53 -284 148 -49 95
-31 243 40 333 21 26 39 51 40 56 1 4 3 7 5 6 1 0 29 16 61 35 33 20 66 36 74
36 7 0 11 4 8 8 -2 4 12 7 32 5 28 -2 32 -1 17 6 -14 6 1 8 46 7 37 0 65 -4
62 -8 -4 -7 23 -12 69 -12 9 0 14 -4 11 -9 -4 -6 1 -8 11 -4 11 5 15 3 10 -5
-5 -8 -2 -9 10 -5 10 4 15 3 11 -3 -3 -5 4 -14 15 -20 11 -6 20 -7 20 -3 0 10
60 -49 72 -71 8 -14 7 -17 -3 -11 -9 6 -11 3 -6 -9 4 -10 7 -21 7 -24 0 -4 4
-1 9 7 18 28 43 -58 46 -163 4 -94 15 -150 15 -71 0 21 2 36 5 33 10 -10 23
-283 14 -293 -5 -5 -9 -41 -9 -80 0 -42 4 -65 9 -57 7 11 9 11 14 -2 7 -18 90
-22 145 -7 18 6 30 7 28 3 -9 -16 244 6 367 31 40 8 70 21 95 43 37 32 37 32
37 110 0 92 -16 126 -109 234 -95 108 -104 134 -145 418 -19 128 -60 171 -168
175 -39 1 -69 5 -66 10 2 4 -5 7 -17 7 -12 0 -19 -3 -16 -8 2 -4 -2 -16 -10
-27 -10 -14 -14 -15 -15 -4 0 8 -6 -4 -13 -26 -13 -45 -37 -56 -67 -29 -22 20
-25 59 -5 67 8 3 18 26 21 51 6 36 3 51 -13 73 -10 15 -58 107 -105 203 -114
235 -175 303 -300 336 -50 13 -90 15 -152 7z m204 -184 c49 -53 44 -119 -8
-119 -67 0 -85 137 -19 140 4 0 16 -10 27 -21z m-225 -14 c20 -20 29 -72 18
-110 -18 -64 -91 -63 -112 1 -26 79 43 159 94 109z m210 -218 c50 -51 38 -157
-19 -157 -57 0 -90 115 -45 160 26 26 36 25 64 -3z m218 -79 c8 -13 18 -42 21
-65 6 -35 3 -46 -17 -69 -23 -27 -24 -28 -49 -11 -47 30 -64 144 -25 171 25
17 47 9 70 -26z m-432 -3 c7 -8 14 -38 17 -66 4 -39 1 -55 -13 -70 -20 -23
-57 -25 -74 -4 -21 26 -25 101 -6 130 19 28 57 33 76 10z m-204 -82 c14 -29 3
-102 -20 -137 -20 -31 -61 -35 -76 -7 -17 32 -12 103 10 139 16 27 26 33 48
30 15 -2 31 -12 38 -25z m459 -120 c27 -41 32 -68 13 -80 -20 -11 -61 -4 -75
15 -19 24 -16 79 5 91 26 16 29 14 57 -26z m560 -107 c8 -38 -8 -76 -30 -76
-15 0 -45 49 -45 72 0 8 7 24 16 36 21 30 51 14 59 -32z m-917 7 c-2 -19 -12
-32 -33 -42 -16 -8 -34 -20 -38 -28 -5 -7 -12 -11 -17 -8 -12 8 10 55 25 55 6
0 17 11 23 25 16 35 44 33 40 -2z m592 2 c10 -12 10 -21 1 -41 -6 -14 -16 -22
-22 -19 -6 4 -8 9 -5 13 3 3 -2 10 -11 17 -19 14 -11 45 10 45 8 0 20 -7 27
-15z m113 -45 c26 -20 43 -77 32 -109 -8 -26 -49 -43 -69 -28 -35 27 -48 114
-20 141 20 21 26 20 57 -4z m-1076 -76 c6 12 13 15 17 8 3 -6 -11 -27 -31 -47
-36 -35 -38 -36 -41 -15 -2 11 4 33 14 48 16 24 18 25 24 7 6 -18 7 -18 17 -1z
m153 1 c29 -35 -9 -155 -49 -155 -32 0 -44 26 -38 82 9 75 54 113 87 73z
m1143 -82 c26 -30 41 -108 27 -143 -30 -73 -100 -32 -108 63 -2 31 1 63 7 76
14 26 52 28 74 4z m-1339 -89 c20 -20 20 -40 -3 -89 -29 -65 -71 -84 -88 -39
-12 31 41 144 67 144 5 0 16 -7 24 -16z m1164 -37 c6 -7 12 -32 13 -55 2 -32
-2 -45 -17 -57 -26 -20 -29 -19 -42 10 -31 68 7 150 46 102z m-151 -84 c-3
-10 -5 -4 -5 12 0 17 2 24 5 18 2 -7 2 -21 0 -30z m191 -45 c15 -15 15 -43 1
-69 -10 -19 -12 -20 -29 -4 -20 18 -23 52 -7 73 12 15 20 15 35 0z m220 -11
c24 -28 31 -64 17 -83 -13 -18 -14 -18 -29 1 -36 49 -25 127 12 82z m-167 -54
c-8 -15 -10 -15 -11 -2 0 17 10 32 18 25 2 -3 -1 -13 -7 -23z m47 -8 c18 -39
15 -67 -5 -63 -12 2 -20 16 -24 41 -8 53 9 66 29 22z m217 -55 c4 -6 11 -8 16
-5 5 3 6 -2 2 -11 -3 -10 -2 -15 3 -12 17 11 15 -69 -2 -83 -14 -11 -18 -10
-30 6 -17 23 -28 79 -20 100 6 17 22 20 31 5z m-1527 -51 c3 -41 -10 -64 -32
-56 -32 12 -13 104 19 94 5 -2 11 -19 13 -38z m1177 1 c-3 -5 1 -11 9 -11 9
-1 22 -2 29 -3 8 -1 12 -20 12 -61 l0 -60 -30 3 c-23 2 -27 1 -15 -7 8 -6 10
-11 4 -11 -6 0 -18 8 -25 17 -12 14 -12 16 0 8 11 -6 13 -4 8 9 -4 10 -8 36
-8 59 l-2 42 -7 -35 -7 -35 -2 32 c0 17 6 39 15 47 17 18 28 21 19 6z m-960
-39 c-3 -17 -2 -32 4 -36 6 -3 11 -14 11 -23 -1 -15 -2 -15 -15 2 -21 28 -19
86 2 86 3 0 2 -13 -2 -29z m1185 -28 c0 -8 3 -12 8 -10 10 7 9 -57 -2 -65 -31
-21 -72 66 -46 97 14 17 40 3 40 -22z m-353 -95 c-2 -13 -4 -5 -4 17 -1 22 1
32 4 23 2 -10 2 -28 0 -40z m121 -75 c-10 -2 -26 -2 -35 0 -10 3 -2 5 17 5 19
0 27 -2 18 -5z"/>
    <path d="M1893 1995 c0 -33 2 -45 4 -27 2 18 2 45 0 60 -2 15 -4 0 -4 -33z"/>
    <path d="M443 750 c0 -30 2 -43 4 -27 2 15 2 39 0 55 -2 15 -4 2 -4 -28z"/>
    <path d="M1824 700 c0 -58 1 -81 3 -52 2 28 2 76 0 105 -2 28 -3 5 -3 -53z"/>
    <path d="M938 413 c17 -2 47 -2 65 0 17 2 3 4 -33 4 -36 0 -50 -2 -32 -4z"/>
    <path d="M1333 393 c32 -2 81 -2 110 0 29 2 3 3 -58 3 -60 0 -84 -1 -52 -3z"/>
    <path d="M1652 383 l57 -4 4 -62 3 -62 2 68 2 67 -62 -2 -63 -2 57 -3z"/>
    <path d="M1923 383 c37 -2 97 -2 135 0 37 2 6 3 -68 3 -74 0 -105 -1 -67 -3z"/>
    <path d="M1038 213 c17 -2 47 -2 65 0 17 2 3 4 -33 4 -36 0 -50 -2 -32 -4z"/>
  </g>
  <g id="character-01-rock-sprout__green" fill="#45b83f" fill-rule="evenodd" transform="translate(0.000000,265.000000) scale(0.100000,-0.100000)">
    <path d="M2099 2270 c-50 -33 -108 -112 -129 -175 -7 -22 -13 -65 -12 -95 0
-61 22 -138 36 -130 6 3 24 47 42 99 35 101 43 114 61 103 10 -6 6 -33 -16
-115 -23 -84 -26 -107 -15 -107 26 0 96 82 127 148 25 54 31 78 31 141 1 85
-25 154 -60 159 -11 1 -40 -11 -65 -28z"/>
    <path d="M2381 1869 c-57 -23 -151 -105 -151 -133 0 -12 7 -11 40 5 22 11 54
22 70 26 26 5 30 3 30 -16 0 -11 -6 -21 -12 -21 -7 0 -37 -14 -67 -31 -44 -25
-51 -33 -38 -40 24 -14 109 -13 153 1 85 28 189 127 182 174 -7 49 -122 68
-207 35z m119 -40 c0 -5 6 -7 13 -3 8 5 8 3 -2 -9 -7 -9 -17 -14 -22 -11 -12
7 -11 34 1 34 6 0 10 -5 10 -11z"/>
  </g>
  <g id="character-01-rock-sprout__yellow" fill="#ffd11a" fill-rule="evenodd" transform="translate(0.000000,265.000000) scale(0.100000,-0.100000)">
    <path d="M1345 1081 c-49 -22 -73 -48 -91 -98 -28 -81 -13 -147 46 -197 74
-61 193 -54 256 16 35 38 47 69 47 123 0 131 -135 213 -258 156z m45 -130 c18
-35 -18 -79 -54 -65 -22 8 -31 51 -16 69 18 21 57 19 70 -4z m130 4 c26 -32
-13 -81 -47 -59 -23 14 -28 41 -13 59 16 19 44 19 60 0z"/>
  </g>
  <g id="character-01-rock-sprout__white" fill="#ffffff" fill-rule="evenodd" transform="translate(0.000000,265.000000) scale(0.100000,-0.100000)">
    <path d="M1495 1940 c-33 -37 2 -120 50 -120 54 0 43 99 -14 130 -14 7 -23 5
-36 -10z"/>
    <path d="M1251 1919 c-28 -30 -29 -108 -3 -132 37 -34 78 -18 92 35 9 32 8 46
-7 76 -22 45 -52 52 -82 21z"/>
    <path d="M1459 1699 c-15 -29 -6 -105 16 -129 59 -65 115 32 70 120 -19 38
-68 42 -86 9z"/>
    <path d="M1670 1645 c-25 -30 3 -140 42 -164 48 -30 79 69 43 138 -21 42 -62
54 -85 26z"/>
    <path d="M1264 1632 c-35 -23 -40 -107 -8 -143 42 -46 91 -1 79 73 -12 71 -35
94 -71 70z"/>
    <path d="M1040 1545 c-31 -33 -40 -123 -15 -148 28 -28 53 -21 75 23 33 65 23
150 -19 150 -9 0 -28 -11 -41 -25z"/>
    <path d="M1515 1440 c-12 -14 -15 -27 -10 -47 10 -40 24 -53 56 -53 25 0 29 4
29 26 0 29 -27 81 -46 88 -7 3 -20 -4 -29 -14z"/>
    <path d="M2071 1341 c-14 -25 13 -101 35 -101 42 0 38 112 -3 118 -14 2 -26
-4 -32 -17z"/>
    <path d="M1186 1328 c-9 -12 -16 -26 -16 -30 0 -10 40 -10 41 0 0 4 2 17 3 30
3 28 -8 28 -28 0z"/>
    <path d="M1773 1333 c-21 -8 -15 -27 11 -39 20 -9 26 -9 30 2 4 10 -19 47 -27
43 -1 0 -8 -3 -14 -6z"/>
    <path d="M1865 1280 c-32 -35 1 -140 44 -140 50 0 60 93 15 135 -32 30 -36 30
-59 5z"/>
    <path d="M935 1197 c-21 -33 -31 -113 -15 -132 23 -28 50 -18 70 28 11 23 20
52 20 65 0 58 -46 83 -75 39z"/>
    <path d="M2071 1121 c-26 -47 -3 -149 39 -171 53 -28 81 72 42 150 -21 42 -64
54 -81 21z"/>
    <path d="M748 1018 c-22 -34 -39 -93 -32 -111 3 -8 13 -18 22 -22 33 -12 88
86 75 135 -7 27 -47 26 -65 -2z"/>
    <path d="M1933 1003 c-15 -6 -17 -91 -3 -113 27 -43 66 52 40 100 -11 20 -16
22 -37 13z"/>
    <path d="M2200 837 c0 -19 8 -45 19 -58 l19 -24 8 29 c5 19 2 38 -7 55 -22 39
-39 38 -39 -2z"/>
  </g>
  <g id="character-01-rock-sprout__black" fill="#111111" fill-rule="evenodd" transform="translate(0.000000,265.000000) scale(0.100000,-0.100000)">
    <path d="M2121 2348 c-48 -13 -151 -120 -186 -191 -51 -107 -45 -242 16 -326
l27 -38 -16 -76 c-10 -41 -20 -78 -24 -82 -4 -4 -20 21 -36 56 -117 257 -182
358 -270 426 -54 41 -96 54 -202 60 -151 9 -310 -51 -427 -161 -105 -98 -141
-178 -173 -386 -11 -69 -23 -139 -28 -156 -19 -61 -65 -142 -134 -234 -147
-195 -185 -270 -209 -413 -20 -120 10 -257 67 -309 51 -46 198 -82 374 -93
160 -10 162 -10 158 -52 -3 -34 -6 -37 -50 -50 -61 -17 -79 -46 -49 -77 19
-18 33 -21 116 -21 117 0 122 5 133 105 5 58 11 75 22 73 8 -1 122 -5 253 -8
l237 -7 0 -62 c0 -90 11 -101 103 -101 83 0 110 13 105 53 -2 19 -12 28 -38
37 -19 7 -35 17 -34 23 1 7 2 21 3 32 1 19 8 20 134 20 150 0 368 22 442 45
118 35 160 95 153 214 -4 84 -38 154 -114 241 -83 95 -110 160 -129 310 -19
143 -43 222 -81 261 -31 32 -101 59 -153 59 -67 0 -67 13 -4 63 64 52 71 54
112 32 118 -61 304 4 395 137 48 70 49 102 8 139 -123 110 -394 17 -448 -154
-13 -44 -25 -59 -70 -91 -29 -22 -63 -50 -75 -63 -13 -12 -26 -23 -31 -23 -14
0 -9 49 14 132 21 78 22 80 69 104 74 37 115 79 153 154 43 87 61 185 46 260
-12 64 -51 127 -86 140 -29 11 -28 11 -73 -2z m83 -88 c16 -27 21 -52 21 -115
0 -69 -5 -89 -33 -149 -32 -69 -99 -146 -127 -146 -11 0 -8 22 14 105 23 85
26 107 15 115 -16 14 -22 2 -59 -110 -16 -47 -32 -89 -36 -94 -11 -13 -29 29
-39 92 -19 115 42 252 138 313 58 36 80 34 106 -11z m-707 -144 c124 -33 185
-101 300 -336 47 -96 95 -188 106 -203 15 -22 18 -37 12 -73 -3 -25 -13 -48
-21 -51 -20 -8 -17 -47 5 -67 29 -26 54 -16 66 26 18 67 27 70 135 54 86 -13
97 -17 121 -45 33 -40 48 -89 60 -204 19 -180 46 -247 140 -354 86 -98 104
-136 104 -223 0 -128 -33 -150 -275 -179 -112 -14 -362 -23 -393 -16 -25 7
-25 7 -31 163 -3 86 -13 209 -20 273 -23 187 -81 291 -194 346 -49 24 -69 28
-142 27 -70 0 -95 -5 -142 -26 -75 -35 -151 -107 -185 -177 -24 -49 -28 -68
-28 -146 0 -106 19 -151 86 -209 55 -47 125 -69 222 -70 99 -1 117 -17 117
-107 0 -32 -4 -61 -10 -64 -28 -18 -757 30 -852 55 -115 32 -168 105 -168 235
0 138 52 259 187 440 131 174 165 246 184 393 12 97 32 187 55 245 78 203 355
348 561 293z m1032 -236 c19 -5 42 -17 52 -26 18 -16 18 -18 -1 -53 -21 -41
-83 -102 -128 -125 -17 -9 -50 -20 -75 -25 -46 -11 -128 -3 -130 13 -1 5 26
25 61 44 34 18 62 40 62 48 0 20 -22 17 -86 -11 -32 -14 -59 -24 -61 -22 -8 9
60 89 96 113 76 50 142 64 210 44z m-1034 -789 c108 -49 145 -168 84 -268 -33
-53 -84 -78 -160 -78 -55 0 -72 4 -107 27 -52 35 -75 78 -75 143 0 82 51 152
129 180 52 19 81 18 129 -4z"/>
    <path d="M2078 815 c-12 -12 8 -80 25 -83 20 -4 23 24 5 63 -11 24 -19 30 -30
20z"/>
    <path d="M2294 735 c-8 -21 3 -77 20 -100 12 -17 16 -17 31 -5 19 16 15 59
-10 97 -18 27 -33 30 -41 8z"/>
    <path d="M762 718 c-18 -18 -15 -77 4 -85 22 -8 35 15 32 56 -3 37 -17 48 -36
29z"/>
    <path d="M1007 673 c-12 -12 -7 -59 8 -79 13 -17 14 -17 15 -2 0 9 -5 20 -11
23 -6 4 -7 19 -4 36 7 29 4 35 -8 22z"/>
    <path d="M1967 674 c-9 -9 -9 -77 -1 -98 7 -19 40 -21 47 -3 9 25 -8 102 -23
105 -9 1 -19 0 -23 -4z"/>
    <path d="M2160 645 c-15 -18 -5 -81 15 -88 21 -9 38 19 30 52 -9 40 -28 56
-45 36z"/>
    <path d="M1325 954 c-19 -20 -16 -43 8 -58 34 -22 73 27 47 59 -16 19 -35 19
-55 -1z"/>
    <path d="M1472 958 c-17 -17 -15 -55 3 -62 36 -13 69 31 45 59 -15 18 -32 19
-48 3z"/>
  </g>
</g>
</svg>
