<?xml version="1.0" encoding="UTF-8"?>
<svg xmlns="http://www.w3.org/2000/svg" viewBox="315 45 237 271" width="237" height="271" role="img"><g id="character-02-seed-cap" data-bbox="315 45 552 316">
  <g id="character-02-seed-cap__coral_red" fill="#f24a25" fill-rule="evenodd" transform="translate(0,1122) scale(0.1,-0.1)">
    <path d="M4413 9822 c4 -68 2 -83 -12 -96 -43 -39 -73 -4 -70 80 1 35 -1 67
-4 71 -14 13 -162 -28 -246 -68 -121 -59 -202 -141 -264 -269 -48 -99 -191
-516 -183 -535 6 -17 254 -82 396 -104 395 -63 792 -44 1197 56 l113 28 0 111
c0 239 -115 514 -271 647 -121 104 -260 148 -488 155 l-174 5 6 -81z m225
-108 c47 -33 17 -84 -51 -84 -45 0 -91 79 -54 93 26 11 84 6 105 -9z m287 -70
c46 -30 41 -94 -7 -94 -29 0 -73 26 -92 55 -17 25 -17 28 0 47 21 22 57 19 99
-8z m-694 -4 c25 -14 24 -42 -3 -67 -49 -44 -96 -55 -118 -27 -20 23 -1 64 40
85 40 22 54 23 81 9z m221 -67 c28 -25 22 -60 -20 -105 -34 -36 -41 -39 -60
-29 -38 20 -15 111 36 141 22 13 23 13 44 -7z m329 -125 c24 -47 24 -70 -1
-93 -36 -32 -78 4 -104 91 -4 13 1 28 14 42 27 29 64 13 91 -40z m-535 -62
c14 -23 14 -28 -1 -59 -32 -69 -83 -95 -108 -56 -15 24 0 68 38 106 39 39 49
41 71 9z m282 -48 c23 -48 -37 -146 -75 -122 -32 20 -38 41 -24 81 27 76 73
95 99 41z m600 -82 c30 -62 34 -124 9 -140 -26 -16 -50 17 -72 98 -20 74 -15
99 17 94 16 -2 30 -18 46 -52z m-1189 21 c8 -11 5 -30 -15 -78 -29 -72 -41
-89 -60 -89 -28 0 -33 34 -13 89 28 81 61 110 88 78z m909 -59 c19 -23 37
-137 26 -156 -17 -26 -41 -26 -58 0 -19 30 -35 131 -24 152 11 19 41 21 56 4z
m-684 -41 c11 -18 -6 -100 -26 -124 -35 -43 -69 9 -48 74 22 67 51 87 74 50z
m334 -19 c18 -18 16 -133 -4 -149 -29 -24 -49 1 -52 68 -4 75 23 114 56 81z"/>
  </g>
  <g id="character-02-seed-cap__lemon_yellow" fill="#ffd11a" fill-rule="evenodd" transform="translate(0,1122) scale(0.1,-0.1)">
    <path d="M4041 10332 c-41 -20 -56 -57 -46 -109 15 -83 143 -147 281 -141 81
4 81 5 33 105 -60 125 -180 190 -268 145z M4565 10314 c-40 -21 -62 -41 -96
-90 -32 -47 -64 -122 -56 -130 10 -10 150 17 195 38 55 24 117 87 125 124 13
63 -91 99 -168 58z"/>
  </g>
  <g id="character-02-seed-cap__warm_gray" fill="#9b9b9b" fill-rule="evenodd" transform="translate(0,1122) scale(0.1,-0.1)">
    <path d="M4761 10345 c51 -59 45 -111 -22 -191 l-41 -49 46 48 c74 79 81 143
20 197 l-29 25 26 -30z M3930 10202 c0 -23 27 -66 62 -97 l33 -30 -32 35 c-18
19 -39 51 -47 70 -8 19 -15 29 -16 22z M4126 10030 c12 -5 55 -11 95 -14 68
-5 69 -4 19 4 -113 18 -136 20 -114 10z M4414 10026 c-3 -7 -3 -40 -1 -72 l3
-59 2 67 2 67 48 4 47 3 -48 2 c-32 1 -49 -2 -53 -12z M4312 10023 c14 -3 18
-18 21 -71 l3 -67 2 73 c2 69 1 72 -20 71 -17 -1 -18 -3 -6 -6z M3581 8929
c-31 -62 -40 -129 -22 -157 4 -7 6 10 4 40 -4 44 0 63 26 113 16 32 29 61 27
63 -2 2 -18 -25 -35 -59z M5321 8736 c-12 -13 -40 -31 -62 -41 -21 -10 -37
-20 -35 -22 8 -8 81 35 105 61 14 14 22 26 19 26 -2 0 -15 -11 -27 -24z M3604
8715 c47 -41 142 -75 231 -80 l60 -4 -55 8 c-96 14 -182 43 -229 78 l-46 34
39 -36z M5125 8654 l-60 -13 53 5 c29 2 62 9 75 14 31 12 3 10 -68 -6z M4764
8616 c-3 -7 -4 -33 -1 -57 3 -44 4 -44 5 8 l2 52 98 4 97 3 -98 2 c-75 2 -99
-1 -103 -12z M4060 8614 c60 -8 128 -8 123 -1 -2 4 -37 6 -76 6 -40 -1 -61 -3
-47 -5z M4517 8613 l92 -4 4 -92 3 -92 0 95 -1 95 -95 1 -95 0 92 -3z M4812
8511 c79 -16 96 -83 28 -110 -18 -7 -20 -10 -7 -10 24 -1 57 35 57 63 0 32
-44 66 -84 65 -30 -1 -30 -1 6 -8z M4136 8500 c-31 -10 -66 -37 -66 -53 0 -5
8 0 18 12 9 12 37 27 62 35 25 8 38 14 30 14 -8 0 -28 -4 -44 -8z M4341 8418
c-1 -10 -12 -25 -26 -34 -37 -24 -194 -17 -226 11 l-24 19 23 -24 c35 -38 195
-43 237 -8 16 14 25 30 22 39 -4 11 -6 10 -6 -3z M4698 8383 c23 -2 59 -2 80
0 20 2 1 4 -43 4 -44 0 -61 -2 -37 -4z"/>
  </g>
  <g id="character-02-seed-cap__charcoal" fill="#111111" fill-rule="evenodd" transform="translate(0,1122) scale(0.1,-0.1)">
    <path d="M4011 10382 c-126 -64 -98 -243 50 -317 57 -29 175 -49 235 -40 l44
6 0 -150 c0 -158 3 -167 45 -157 24 6 24 7 27 159 l3 152 67 7 c229 22 390
200 277 305 -96 89 -271 32 -355 -114 -23 -42 -23 -42 -59 18 -72 123 -230
185 -334 131z m185 -61 c70 -40 131 -126 149 -208 l7 -33 -81 0 c-102 0 -197
29 -239 74 -118 125 9 255 164 167z m519 -5 c91 -60 -65 -209 -235 -223 -91
-8 -93 14 -14 134 67 100 174 138 249 89z M4550 9721 c-37 -10 -38 -44 0 -71
27 -19 34 -20 66 -10 47 16 54 37 20 67 -28 24 -43 26 -86 14z M4826 9644
c-15 -40 68 -104 106 -83 10 5 18 21 18 34 0 47 -109 89 -124 49z M4143 9620
c-36 -21 -44 -58 -18 -80 19 -15 48 -5 91 32 62 54 2 94 -73 48z M4385 9546
c-52 -68 -27 -133 33 -85 39 31 56 73 39 100 -18 28 -43 23 -72 -15z M4688
9476 c-18 -40 27 -121 67 -121 26 0 30 4 33 29 9 77 -72 152 -100 92z M4178
9373 c-48 -52 -57 -82 -32 -107 36 -36 114 52 99 111 -7 31 -36 29 -67 -4z
M4477 9359 c-38 -22 -60 -102 -35 -127 32 -32 74 3 84 70 7 41 -20 73 -49 57z
M3589 8925 c-27 -55 -31 -72 -27 -117 12 -118 138 -165 498 -186 l125 -7 3
-56 3 -55 -48 -15 c-65 -19 -89 -58 -55 -91 20 -20 35 -23 115 -26 132 -5 141
3 145 136 l4 100 81 7 c45 4 105 5 132 3 l50 -3 3 -95 c4 -123 9 -130 112
-130 96 0 138 13 147 48 11 43 -9 61 -90 77 -27 5 -28 8 -25 58 l3 52 137 7
c375 19 502 96 448 271 -11 37 -24 69 -29 71 -5 3 -34 -3 -65 -14 -377 -129
-1039 -132 -1500 -5 -70 19 -130 35 -131 35 -2 0 -18 -29 -36 -65z"/>
  </g>
</g>
</svg>