<?xml version="1.0" encoding="UTF-8"?>
<svg xmlns="http://www.w3.org/2000/svg" viewBox="585 35 245 281" width="245" height="281" role="img"><g id="character-03-listening-night" data-bbox="585 35 830 316">
  <g id="character-03-listening-night__coral_red" fill="#f24a25" fill-rule="evenodd" transform="translate(0,1122) scale(0.1,-0.1)">
    <path d="M6346 9403 c-12 -45 -17 -123 -8 -123 6 0 14 21 17 48 3 26 8 55 10
64 4 24 -12 33 -19 11z M7598 9399 c-9 -23 5 -124 17 -124 6 0 11 29 13 63 2
39 -1 61 -7 58 -5 -3 -11 -1 -13 6 -3 8 -6 7 -10 -3z M7727 9383 c-4 -3 -7
-11 -7 -17 0 -6 5 -4 10 4 5 8 10 12 10 7 0 -4 -5 -15 -11 -26 -7 -11 -9 -32
-5 -54 14 -73 42 -29 30 48 -6 43 -13 53 -27 38z M6216 9341 c-12 -19 -20
-145 -9 -138 15 10 36 128 25 139 -6 6 -12 6 -16 -1z M7630 9077 c0 -41 4 -54
15 -54 16 0 21 59 9 91 -12 32 -24 14 -24 -37z M7742 9102 c-1 -7 -6 -10 -12
-7 -6 4 -10 -10 -10 -34 0 -41 16 -64 26 -38 3 8 4 32 1 53 -2 22 -4 33 -5 26z
M6197 9062 c-14 -22 -21 -122 -9 -122 16 0 24 38 20 91 -2 28 -6 39 -11 31z
M6285 9017 c-4 -24 -5 -55 -3 -68 4 -24 4 -24 16 4 14 34 16 107 3 107 -6 0
-13 -20 -16 -43z"/>
  </g>
  <g id="character-03-listening-night__lemon_yellow" fill="#ffd11a" fill-rule="evenodd" transform="translate(0,1122) scale(0.1,-0.1)">
    <path d="M7635 10049 c-28 -14 -70 -76 -95 -139 -37 -95 -51 -181 -56 -365
-12 -349 53 -621 160 -672 71 -33 140 7 173 100 23 67 27 685 5 827 -34 216
-93 295 -187 249z m48 -176 c6 -55 -2 -88 -14 -57 -11 27 -11 104 0 104 4 0
11 -21 14 -47z m-58 -531 c0 -77 -18 -86 -27 -13 -7 59 -2 84 16 78 6 -2 11
-28 11 -65z m129 3 c8 -47 1 -85 -14 -85 -15 0 -24 99 -11 128 7 15 20 -7 25
-43z m-100 -231 c3 -9 6 -38 6 -66 0 -44 -2 -49 -15 -38 -10 8 -15 31 -15 66
0 52 12 71 24 38z m91 -47 c0 -65 -19 -64 -23 2 -2 40 0 52 10 49 8 -3 13 -22
13 -51z M6325 9928 c-68 -59 -117 -188 -175 -460 -105 -492 -71 -742 97 -715
91 15 150 141 198 419 76 444 49 788 -61 788 -13 0 -40 -14 -59 -32z m44 -155
c-5 -21 -14 -63 -21 -93 -12 -60 -28 -89 -28 -50 0 36 21 153 32 173 15 30 27
10 17 -30z m-4 -381 c-2 -9 -7 -38 -10 -64 -3 -27 -11 -48 -17 -48 -9 0 -4 78
8 123 7 22 23 13 19 -11z m-136 -121 c-17 -87 -34 -92 -26 -7 7 74 14 93 29
78 6 -6 5 -32 -3 -71z m-24 -308 c-3 -13 -10 -23 -17 -23 -12 0 -5 100 9 122
10 16 17 -65 8 -99z m105 58 c0 -22 -5 -52 -12 -68 -12 -28 -12 -28 -16 -4 -5
34 7 111 19 111 5 0 9 -18 9 -39z"/>
  </g>
  <g id="character-03-listening-night__warm_gray" fill="#9b9b9b" fill-rule="evenodd" transform="translate(0,1122) scale(0.1,-0.1)">
    <path d="M7436 10622 c-3 -5 5 -8 17 -8 42 2 30 -32 -37 -105 -75 -82 -130
-165 -115 -175 6 -3 13 -3 16 0 4 3 1 6 -5 6 -19 0 44 93 113 168 36 39 65 76
65 84 0 28 -41 51 -54 30z M6739 10301 c-120 -51 -207 -120 -274 -216 -27 -40
-20 -32 55 56 50 59 134 115 235 156 44 18 73 33 65 33 -8 0 -45 -13 -81 -29z
M7498 10235 c29 -26 64 -67 78 -91 28 -47 29 -48 59 -33 17 8 16 9 -6 4 -21
-4 -28 1 -37 21 -14 30 -99 122 -127 136 -11 6 4 -10 33 -37z M7740 10109 c49
-20 87 -73 116 -164 7 -22 13 -31 13 -20 2 60 -94 196 -137 194 -11 0 -8 -4 8
-10z M6261 9955 c-42 -45 -112 -175 -110 -205 0 -8 6 1 13 20 26 71 68 143
108 186 22 24 38 44 36 44 -3 0 -24 -20 -47 -45z M6755 9896 c-16 -7 -41 -26
-55 -42 l-25 -29 31 28 c17 16 51 35 75 42 24 8 35 14 24 14 -11 0 -33 -6 -50
-13z M6847 9751 c-12 -61 -87 -66 -112 -8 -9 19 -14 25 -15 14 0 -24 44 -67
70 -67 27 0 70 43 70 70 0 29 -7 25 -13 -9z M6881 9649 c-31 -29 -38 -31 -92
-27 -33 2 -54 1 -47 -4 7 -4 34 -8 61 -8 40 0 53 5 85 35 20 19 35 34 32 34
-3 0 -20 -13 -39 -30z M7904 9345 c0 -137 2 -195 3 -128 2 67 2 179 0 250 -1
70 -3 16 -3 -122z M6086 9489 c-10 -45 -15 -83 -13 -85 2 -2 12 32 22 77 9 44
15 82 13 85 -3 2 -12 -32 -22 -77z M7036 9421 c-10 -11 -16 -28 -13 -38 4 -15
5 -15 6 3 0 12 8 27 16 34 25 21 39 -3 46 -78 l6 -67 1 60 c3 87 -26 126 -62
86z M6636 9311 c-10 -11 -16 -28 -13 -38 4 -15 5 -15 6 3 1 25 26 49 41 39 5
-3 11 -27 12 -53 l1 -47 4 43 c6 64 -19 89 -51 53z M6912 9158 c-20 -20 -15
-142 6 -161 17 -15 20 -15 38 -1 18 15 18 15 -2 5 -34 -16 -45 7 -42 86 3 66
4 68 30 68 14 -1 24 3 22 7 -8 12 -38 10 -52 -4z M6024 9015 c0 -49 1 -71 3
-48 2 23 2 64 0 90 -2 26 -3 8 -3 -42z M7816 8851 c-49 -51 -135 -62 -216 -27
-10 4 -24 -6 -43 -31 l-29 -38 30 32 c30 31 31 31 69 18 73 -27 143 -12 194
41 18 19 31 34 28 34 -3 0 -18 -13 -33 -29z M6050 8817 c-1 -31 84 -127 113
-127 7 0 -1 8 -18 19 -35 21 -57 45 -78 86 -9 17 -16 26 -17 22z M6869 8780
c-5 -53 -41 -71 -58 -28 -6 14 -10 17 -10 8 -1 -23 19 -40 46 -40 25 0 37 29
31 76 -3 23 -5 20 -9 -16z M6339 8733 c-20 -24 -72 -43 -121 -44 -33 -2 -36
-3 -14 -6 46 -7 93 6 126 34 l31 26 45 -51 c44 -50 165 -122 203 -122 9 0 -10
11 -42 24 -82 34 -133 70 -165 116 -30 43 -43 48 -63 23z M7398 8656 c-36 -20
-38 -24 -36 -66 l1 -45 4 43 c3 34 9 45 33 57 16 8 32 19 35 25 8 12 8 13 -37
-14z M7220 8497 l5 -92 3 84 c2 46 -1 88 -5 92 -4 5 -6 -33 -3 -84z M6841
8518 c2 -30 2 -31 6 -6 4 26 6 27 81 31 l77 3 -82 2 -83 2 1 -32z M7370 8470
c0 -4 20 -10 45 -13 51 -5 85 -30 85 -60 0 -11 3 -18 6 -14 12 11 -5 52 -26
65 -25 15 -110 32 -110 22z M6578 8411 c-32 -29 -32 -31 -18 -57 8 -15 21 -29
29 -32 7 -2 4 5 -8 17 -29 29 -24 50 18 78 19 13 29 23 23 23 -7 0 -26 -13
-44 -29z M7477 8353 c-21 -21 -181 -31 -218 -14 -23 12 -23 12 -4 -4 32 -27
197 -17 227 13 13 12 20 22 17 22 -2 0 -12 -8 -22 -17z M6816 8333 c-4 -5 -35
-11 -69 -14 l-62 -6 56 -1 c35 -1 62 3 75 13 10 8 16 15 13 15 -3 0 -9 -3 -13
-7z"/>
  </g>
  <g id="character-03-listening-night__charcoal" fill="#111111" fill-rule="evenodd" transform="translate(0,1122) scale(0.1,-0.1)">
    <path d="M7203 10632 c-20 -13 -97 -154 -118 -216 -15 -43 -24 -56 -40 -56
-11 0 -30 -3 -43 -7 l-24 -6 7 81 c7 72 5 82 -9 88 -29 11 -46 -18 -54 -95
l-7 -74 -70 -19 c-159 -43 -280 -122 -367 -238 -43 -58 -57 -70 -81 -70 -98 0
-197 -121 -247 -302 -24 -91 -84 -357 -101 -458 -17 -96 -18 -361 -1 -416 16
-55 50 -104 92 -132 43 -29 131 -28 175 4 15 10 34 24 42 29 10 7 17 5 24 -8
41 -71 161 -147 262 -166 61 -11 59 -8 51 -75 -6 -51 -9 -56 -31 -56 -53 0
-109 -45 -98 -80 10 -32 40 -41 136 -41 110 1 129 9 129 59 0 20 3 67 7 105
l6 67 71 0 c59 0 243 20 296 32 12 2 16 -17 21 -111 8 -144 8 -144 136 -139
72 3 96 8 112 22 46 42 13 95 -63 103 l-44 5 -7 85 c-4 46 -5 86 -3 87 1 1 23
14 48 29 49 29 111 84 150 134 25 32 25 32 65 18 132 -47 235 30 264 196 14
82 15 572 1 727 -17 188 -58 308 -123 356 -30 22 -102 28 -143 13 -18 -6 -26
-1 -47 36 -25 43 -95 113 -133 135 -18 10 -17 13 21 52 22 23 61 57 88 77 45
34 60 66 35 76 -25 9 -59 -13 -140 -91 -51 -49 -89 -77 -98 -74 -8 3 -25 9
-38 13 l-22 9 30 49 c17 27 60 81 96 120 65 70 77 102 42 109 -33 6 -163 -139
-213 -237 -16 -32 -18 -33 -63 -27 -25 3 -47 8 -49 10 -5 5 59 139 93 197 35
59 22 99 -23 71z m540 -590 c29 -26 54 -80 73 -162 25 -109 33 -813 10 -894
-52 -177 -206 -172 -280 9 -93 231 -97 727 -7 931 57 127 140 175 204 116z
m-1313 -100 c46 -46 54 -95 55 -317 0 -234 -5 -303 -39 -485 -52 -277 -116
-393 -218 -392 -155 2 -185 243 -87 705 70 331 123 457 211 500 44 22 45 22
78 -11z m807 -42 c105 -47 114 -182 18 -262 -59 -49 -163 -19 -196 58 -38 85
-8 167 75 205 51 23 51 23 103 -1z m-356 -21 c54 -38 75 -129 44 -188 -69
-135 -265 -93 -265 57 0 124 126 199 221 131z m203 -461 c18 -26 22 -119 6
-149 -6 -10 -19 -19 -30 -19 -27 0 -40 30 -40 96 0 81 33 117 64 72z m-209
-18 c8 -13 8 -114 0 -140 -8 -24 -50 -27 -59 -4 -10 25 -7 114 4 135 11 20 45
26 55 9z m-195 -85 c9 -11 11 -34 6 -79 -7 -69 -1 -96 20 -96 26 0 36 -39 29
-114 -8 -83 -18 -106 -45 -106 -32 0 -40 31 -33 134 6 92 5 96 -18 115 -20 16
-24 27 -22 71 3 71 35 109 63 75z m293 -200 c15 -93 -17 -160 -57 -116 -20 22
-23 140 -4 159 27 27 52 10 61 -43z m217 40 c18 -22 26 -131 10 -150 -24 -29
-48 -18 -61 27 -23 86 12 171 51 123z m-328 -252 c14 -12 18 -31 18 -84 0 -82
-6 -99 -34 -99 -36 0 -46 20 -46 93 0 98 20 128 62 90z m222 -5 c22 -30 22
-151 1 -168 -20 -17 -43 -6 -55 25 -38 100 5 213 54 143z M7137 9812 c-36 -39
-11 -102 39 -102 28 0 64 32 64 58 0 53 -68 82 -103 44z M6744 9795 c-21 -32
-11 -72 21 -87 53 -24 102 32 76 88 -15 35 -74 34 -97 -1z"/>
  </g>
</g>
</svg>