<?xml version="1.0" encoding="UTF-8"?>
<svg xmlns="http://www.w3.org/2000/svg" viewBox="865 35 243 281" width="243" height="281" role="img"><g id="character-04-blue-night-drop" data-bbox="865 35 1108 316">
  <g id="character-04-blue-night-drop__coral_red" fill="#f24a25" fill-rule="evenodd" transform="translate(0,1122) scale(0.1,-0.1)">
    <path d="M9352 10638 c-5 -7 -17 -40 -27 -73 -31 -108 -39 -119 -93 -111 -26
3 -59 9 -74 12 -52 12 -45 -21 19 -89 72 -77 98 -131 116 -234 10 -65 16 -78
31 -78 23 0 29 12 51 90 25 88 77 180 150 270 91 112 84 130 -31 79 -68 -30
-78 -24 -90 55 -12 83 -28 108 -52 79z"/>
  </g>
  <g id="character-04-blue-night-drop__lemon_yellow" fill="#ffd11a" fill-rule="evenodd" transform="translate(0,1122) scale(0.1,-0.1)">
    <path d="M9850 9910 c-35 -35 -26 -96 17 -119 71 -37 140 63 81 119 -28 26
-72 26 -98 0z M9662 9637 c-59 -63 14 -150 81 -97 33 26 36 71 7 100 -27 27
-62 25 -88 -3z M10057 9612 c-37 -41 -9 -112 45 -112 27 0 58 37 58 68 0 55
-68 83 -103 44z M9383 9530 c-43 -18 -44 -95 -1 -119 22 -13 30 -13 51 -2 80
43 34 155 -50 121z M9862 9428 c-36 -46 -14 -108 38 -108 51 0 76 51 50 101
-12 22 -71 27 -88 7z M10147 9272 c-22 -25 -21 -75 1 -95 42 -38 102 -8 102
50 0 55 -67 85 -103 45z"/>
  </g>
  <g id="character-04-blue-night-drop__cobalt_blue" fill="#124fd2" fill-rule="evenodd" transform="translate(0,1122) scale(0.1,-0.1)">
    <path d="M9825 10211 c-51 -25 -120 -90 -422 -393 -367 -369 -422 -429 -530
-575 -119 -161 -164 -261 -165 -368 -2 -220 239 -355 683 -381 137 -9 321 -9
325 -2 3 5 39 8 80 8 84 0 264 36 376 75 216 76 322 207 321 400 0 169 -47
332 -193 680 -48 116 -109 259 -134 319 -84 202 -131 256 -229 264 -43 3 -62
-2 -112 -27z m121 -294 c35 -31 37 -77 4 -112 -31 -33 -73 -33 -105 0 -33 33
-32 70 4 106 36 35 61 37 97 6z m-194 -274 c24 -22 24 -77 -2 -103 -43 -43
-110 -14 -110 47 0 61 68 96 112 56z m386 -19 c46 -32 19 -124 -37 -124 -70 1
-93 92 -32 125 34 18 42 18 69 -1z m-678 -104 c40 -40 7 -120 -50 -120 -31 0
-70 39 -70 70 0 57 80 90 120 50z m493 -102 c24 -28 21 -55 -8 -83 -43 -44
-105 -18 -105 44 0 62 72 86 113 39z m268 -128 c19 0 39 -47 33 -79 -13 -64
-99 -75 -126 -17 -21 47 27 115 70 100 8 -2 18 -4 23 -4z m-540 -80 c192 -36
347 -204 337 -365 -9 -140 -115 -199 -379 -212 -371 -18 -531 80 -461 283 67
192 304 331 503 294z"/>
  </g>
  <g id="character-04-blue-night-drop__warm_gray" fill="#9b9b9b" fill-rule="evenodd" transform="translate(0,1122) scale(0.1,-0.1)">
    <path d="M10404 10455 c-18 -14 -17 -14 9 -3 37 16 65 -8 48 -41 -7 -11 -9
-21 -7 -21 19 0 26 43 10 61 -21 23 -34 24 -60 4z M10340 10330 c-27 -19 -54
-29 -67 -27 -12 2 -20 0 -17 -4 10 -16 37 -9 86 22 41 27 56 39 46 39 -2 0
-23 -14 -48 -30z M10505 10161 c24 -5 30 -12 30 -31 0 -21 -7 -27 -45 -38 -44
-12 -44 -12 -7 -8 44 6 67 21 67 45 0 25 -20 41 -49 40 -24 -1 -24 -2 4 -8z
M8902 10138 c-18 -18 -15 -43 8 -69 l20 -24 -17 31 c-20 38 -12 64 21 64 21 0
39 -20 101 -107 42 -59 74 -114 73 -122 -6 -29 -39 -24 -77 11 l-36 33 34 -37
c38 -41 61 -47 82 -22 16 20 3 45 -86 167 -66 89 -93 105 -123 75z M8827 9653
c86 -4 120 -20 94 -46 -18 -18 -177 -23 -199 -6 -16 13 -16 12 -3 -4 21 -26
181 -22 207 5 17 16 17 18 -1 38 -16 17 -29 20 -99 18 l-81 -2 82 -3z M9340
8925 c-30 -36 38 -110 101 -110 58 0 137 87 100 109 -5 4 -7 -2 -4 -13 3 -12
-6 -31 -25 -52 -42 -48 -101 -48 -143 -1 -41 46 -34 94 9 60 15 -12 16 -11 3
5 -16 21 -25 21 -41 2z M9320 8440 c-5 -54 -5 -55 -42 -61 -45 -7 -78 -34 -78
-64 0 -28 33 -58 57 -52 16 4 15 5 -2 6 -74 4 -50 101 25 101 43 0 51 12 48
71 l-4 54 -4 -55z M9841 8429 c-1 -42 10 -53 58 -63 43 -8 61 -23 61 -51 0
-37 -27 -50 -119 -56 l-86 -6 81 -1 c69 -2 85 1 108 19 50 39 26 91 -50 107
-36 7 -39 11 -45 47 l-6 40 -2 -36z"/>
  </g>
  <g id="character-04-blue-night-drop__charcoal" fill="#111111" fill-rule="evenodd" transform="translate(0,1122) scale(0.1,-0.1)">
    <path d="M10171 10701 c-17 -17 -101 -216 -101 -239 0 -16 26 -33 42 -27 14 6
118 224 118 248 0 14 -20 37 -32 37 -4 0 -16 -8 -27 -19z M10347 10410 c-85
-57 -102 -74 -93 -95 9 -25 33 -18 121 36 87 53 103 72 84 95 -18 22 -32 17
-112 -36z M10422 10146 c-68 -17 -93 -39 -71 -61 14 -14 24 -14 94 0 86 16 99
23 93 51 -4 24 -45 27 -116 10z M8903 10124 c-14 -37 134 -229 177 -229 42 0
33 28 -45 138 -62 87 -80 107 -101 107 -14 0 -27 -7 -31 -16z M8725 9634 c-32
-32 -1 -46 97 -42 93 3 121 15 98 43 -18 22 -172 22 -195 -1z M9343 8914 c-7
-20 26 -65 61 -82 37 -18 80 -7 111 30 44 52 25 90 -20 39 -40 -45 -63 -46
-100 -5 -35 38 -43 41 -52 18z M9789 8901 c-37 -45 -64 -48 -98 -12 -45 48
-75 36 -46 -18 34 -66 143 -62 179 8 24 45 -3 62 -35 22z M9337 8493 c-4 -3
-7 -30 -7 -59 0 -55 -8 -64 -54 -64 -52 0 -87 -60 -52 -89 30 -25 166 -26 205
-2 10 6 18 44 25 109 l11 100 -35 6 c-47 8 -85 7 -93 -1z M9738 8493 l-27 -4
5 -97 c7 -127 11 -132 118 -132 91 0 126 15 126 54 0 29 -17 44 -61 52 -55 11
-62 21 -55 81 l6 53 -42 -1 c-24 -1 -55 -4 -70 -6z"/>
  </g>
</g>
</svg>