<?xml version="1.0" encoding="UTF-8"?>
<svg xmlns="http://www.w3.org/2000/svg" viewBox="1120 20 248 296" width="248" height="296" role="img"><g id="character-05-yellow-signal" data-bbox="1120 20 1368 316">
  <g id="character-05-yellow-signal__coral_red" fill="#f24a25" fill-rule="evenodd" transform="translate(0,1122) scale(0.1,-0.1)">
    <path d="M12477 8894 c-12 -12 -7 -77 7 -102 11 -20 14 -21 25 -9 20 24 -11
132 -32 111z"/>
  </g>
  <g id="character-05-yellow-signal__lemon_yellow" fill="#ffd11a" fill-rule="evenodd" transform="translate(0,1122) scale(0.1,-0.1)">
    <path d="M11960 10190 c-180 -33 -341 -197 -404 -410 -31 -105 -31 -244 0
-390 5 -22 -9 -40 -94 -125 -133 -134 -177 -219 -177 -340 0 -72 3 -86 28
-123 99 -150 355 -213 854 -213 361 1 493 21 628 96 74 41 97 65 129 135 71
152 0 354 -183 520 -46 41 -107 98 -137 125 l-55 50 -5 100 c-13 284 -103 459
-280 546 -71 35 -206 48 -304 29z m216 -226 c186 -63 243 -250 115 -375 -61
-58 -120 -80 -242 -86 -200 -11 -312 54 -326 191 -19 187 241 342 453 270z
m-10 -702 c228 -116 142 -447 -116 -446 -262 2 -341 326 -108 444 74 37 154
38 224 2z m345 -422 c7 -31 6 -46 -2 -57 -17 -20 -38 18 -39 68 0 67 25 60 41
-11z"/>
  </g>
  <g id="character-05-yellow-signal__leaf_green" fill="#45b934" fill-rule="evenodd" transform="translate(0,1122) scale(0.1,-0.1)">
    <path d="M12615 10420 c-96 -39 -91 -171 9 -209 97 -37 185 67 135 160 -20 38
-102 67 -144 49z"/>
  </g>
  <g id="character-05-yellow-signal__sky_cyan" fill="#39bdd0" fill-rule="evenodd" transform="translate(0,1122) scale(0.1,-0.1)">
    <path d="M12002 9279 c-212 -41 -264 -332 -77 -428 66 -35 179 -36 240 -4 98
52 146 147 125 249 -27 129 -153 209 -288 183z m68 -98 c26 -50 -1 -140 -34
-112 -28 23 -16 131 14 131 5 0 14 -9 20 -19z m81 -11 c23 -13 25 -43 4 -60
-21 -17 -35 -3 -35 36 0 37 2 39 31 24z m-181 -22 c0 -32 -15 -52 -34 -45 -19
7 -21 38 -4 55 19 19 38 14 38 -10z"/>
  </g>
  <g id="character-05-yellow-signal__warm_gray" fill="#9b9b9b" fill-rule="evenodd" transform="translate(0,1122) scale(0.1,-0.1)">
    <path d="M11960 10544 c-19 -49 -32 -112 -27 -130 3 -14 5 -11 6 8 0 14 10 54
20 87 19 61 19 84 1 35z M12807 10393 c10 -15 21 -50 24 -77 l6 -51 2 45 c1
40 -27 110 -44 110 -3 0 2 -12 12 -27z M11930 10281 c0 -25 -6 -31 -36 -41
-47 -16 -39 -23 9 -8 33 10 37 15 37 45 0 18 -2 33 -5 33 -3 0 -5 -13 -5 -29z
M11669 10093 c-41 -43 -81 -89 -88 -103 -10 -20 -8 -19 10 5 12 17 55 63 95
103 40 39 70 72 66 72 -3 0 -41 -35 -83 -77z M11940 9802 c47 -23 61 -62 37
-105 l-17 -32 20 24 c33 38 20 99 -27 120 -39 18 -51 12 -13 -7z M11861 9784
c-22 -29 -27 -60 -11 -84 6 -10 8 -4 4 22 -5 30 -2 41 19 62 15 14 22 26 17
26 -5 0 -18 -12 -29 -26z M11892 9768 c-7 -7 -12 -16 -12 -22 0 -5 6 -2 13 8
10 13 20 16 35 12 24 -8 29 -34 10 -56 -11 -12 -10 -12 5 -1 23 18 22 48 -2
61 -25 13 -34 13 -49 -2z M11404 9298 c-54 -57 -120 -135 -83 -98 42 41 152
160 148 160 -3 0 -32 -28 -65 -62z M13012 8955 c-1 -44 -5 -91 -7 -105 l-6
-25 11 24 c6 14 9 61 7 105 l-3 81 -2 -80z M12841 8643 c-13 -9 -56 -29 -95
-44 -39 -16 -65 -28 -59 -29 21 0 136 49 163 70 31 24 24 26 -9 3z M11416
8629 c5 -9 134 -53 139 -47 2 2 -29 15 -70 29 -41 14 -72 22 -69 18z M11570
8577 c5 -5 179 -37 203 -37 4 0 7 -29 7 -64 0 -57 -3 -65 -21 -71 -11 -4 -18
-9 -16 -12 3 -2 15 0 26 7 18 9 21 20 21 79 l0 69 -82 12 c-46 6 -96 14 -113
17 -16 3 -28 3 -25 0z M12485 8540 c-34 -6 -36 -7 -10 -8 17 0 48 3 70 7 52
11 0 12 -60 1z M11923 8524 c-2 -7 -3 -25 0 -41 4 -25 4 -25 6 7 l1 35 193 -2
c105 -1 183 0 172 2 -58 11 -368 10 -372 -1z M11907 8378 c-5 -52 -11 -76 -24
-85 -9 -7 -12 -13 -6 -13 22 0 34 30 40 99 3 39 4 71 1 71 -3 0 -8 -33 -11
-72z M11651 8339 c-2 -39 45 -62 131 -65 l83 -3 -82 8 c-84 8 -109 19 -123 56
-6 14 -9 15 -9 4z M12561 8329 c-2 -38 -23 -51 -94 -60 l-62 -8 63 3 c72 3
107 26 99 67 -4 23 -4 23 -6 -2z"/>
  </g>
  <g id="character-05-yellow-signal__charcoal" fill="#111111" fill-rule="evenodd" transform="translate(0,1122) scale(0.1,-0.1)">
    <path d="M12260 10759 c-213 -36 -348 -221 -325 -449 l7 -66 -55 -17 c-274
-86 -465 -445 -403 -757 l17 -85 -93 -95 c-107 -109 -160 -198 -178 -300 -42
-230 110 -374 451 -426 l109 -17 0 -68 c0 -73 -4 -80 -53 -85 -40 -5 -77 -30
-77 -53 0 -37 36 -54 123 -59 113 -5 114 -4 129 138 l13 115 190 -4 c105 -1
191 -4 192 -5 2 -1 5 -52 8 -112 7 -125 10 -129 92 -140 101 -12 153 7 153 56
0 35 -19 50 -70 57 -51 7 -52 9 -44 87 l7 64 66 7 c164 18 330 84 400 160 67
72 84 117 89 225 8 189 -80 335 -328 542 l-65 54 -8 95 c-15 190 -53 320 -124
427 -89 133 -258 218 -421 211 l-57 -3 -7 50 c-15 106 19 228 86 301 83 93
263 128 371 72 80 -41 179 -193 135 -207 -32 -10 -97 -89 -103 -125 -17 -107
67 -200 180 -199 195 2 226 249 40 323 -34 13 -42 23 -53 58 -34 117 -129 204
-252 230 -59 12 -65 12 -142 0z m470 -357 c51 -38 58 -114 15 -168 -21 -26
-29 -29 -80 -29 -51 0 -59 3 -86 32 -37 42 -45 75 -28 120 27 69 116 91 179
45z m-538 -210 c218 -61 339 -251 357 -563 8 -132 3 -124 139 -232 273 -219
349 -511 173 -670 -128 -115 -349 -155 -796 -143 -437 12 -655 72 -748 205
-30 43 -32 51 -32 137 0 130 41 212 173 341 106 105 98 74 72 255 -43 302 177
640 439 673 18 2 36 7 39 10 12 12 122 4 184 -13z M11911 9945 c-190 -70 -248
-294 -102 -392 103 -70 337 -62 453 14 116 77 123 250 13 341 -80 66 -242 82
-364 37z m288 -130 c68 -35 44 -145 -32 -145 -74 0 -104 86 -46 134 36 30 40
31 78 11z m-245 -6 c33 -15 52 -62 40 -97 -13 -38 -73 -67 -107 -51 -62 28
-58 123 7 149 28 12 31 12 60 -1z M12134 9765 c-9 -23 3 -45 24 -45 11 0 25 7
32 15 16 19 -3 45 -32 45 -10 0 -21 -7 -24 -15z M11890 9751 c-10 -19 8 -51
29 -51 28 0 41 54 15 64 -25 10 -33 7 -44 -13z M12969 9961 c-64 -20 -85 -45
-56 -70 18 -15 112 13 121 35 13 34 -16 49 -65 35z M12876 9736 c-73 -20 -87
-66 -20 -66 56 0 106 25 102 52 -4 28 -19 31 -82 14z M13050 9597 c-35 -12
-51 -40 -32 -59 13 -13 98 1 123 21 49 40 -11 65 -91 38z"/>
  </g>
</g>
</svg>