<?xml version="1.0" encoding="UTF-8"?>
<svg xmlns="http://www.w3.org/2000/svg" viewBox="278 315 194 270" width="194" height="270" role="img"><g id="character-07-river-sprout" data-bbox="278 315 472 585">
  <g id="character-07-river-sprout__cobalt_blue" fill="#124fd2" fill-rule="evenodd" transform="translate(0,1122) scale(0.1,-0.1)">
    <path d="M3245 6467 c-83 -33 -149 -104 -175 -192 -16 -53 -55 -103 -85 -111
-13 -3 -44 2 -69 11 -43 16 -47 16 -71 1 -81 -53 44 -159 161 -137 69 13 110
53 159 156 79 166 174 199 260 91 46 -58 95 -106 108 -106 7 0 25 24 41 53
l28 53 -83 85 c-70 72 -92 88 -131 97 -58 15 -104 14 -143 -1z M4018 6443
c-35 -11 -48 -21 -48 -35 0 -10 -9 -44 -20 -75 -11 -31 -18 -58 -17 -60 2 -2
28 10 58 27 79 43 143 39 170 -13 7 -12 18 -52 25 -90 24 -124 80 -177 186
-177 99 0 195 70 170 125 -14 30 -50 33 -105 10 -83 -34 -120 -7 -137 99 -27
172 -129 240 -282 189z M3249 6130 c-40 -12 -84 -48 -119 -96 -40 -57 -80 -77
-130 -69 -64 11 -102 -43 -61 -84 64 -64 200 -31 272 66 62 82 117 82 179 -2
44 -59 60 -68 60 -32 0 12 7 44 15 71 l15 50 -37 39 c-59 61 -121 80 -194 57z
M3934 6095 c-91 -47 -103 -64 -105 -145 -1 -39 1 -74 5 -77 4 -4 28 14 54 39
64 62 91 78 128 78 48 0 60 -7 98 -60 45 -62 102 -90 184 -90 108 0 168 42
143 98 -11 24 -15 24 -74 18 -88 -8 -115 2 -166 65 -83 103 -165 126 -267 74z"/>
  </g>
  <g id="character-07-river-sprout__sky_cyan" fill="#39bdd0" fill-rule="evenodd" transform="translate(0,1122) scale(0.1,-0.1)">
    <path d="M3675 7830 c-79 -35 -142 -128 -152 -223 -7 -69 9 -140 52 -234 l35
-75 -17 -52 c-13 -39 -35 -71 -98 -136 -98 -102 -116 -134 -123 -216 -8 -106
34 -167 183 -267 94 -63 118 -99 112 -172 -2 -28 -10 -64 -18 -80 -39 -77
-103 -191 -109 -195 -43 -30 -133 -392 -90 -365 4 2 38 -2 76 -10 90 -19 142
-19 230 2 l73 17 0 90 c0 107 20 195 66 286 59 118 78 187 79 280 1 126 -39
194 -167 280 -61 40 -87 82 -87 138 0 54 13 78 88 171 75 92 123 179 126 232
2 23 9 44 15 48 17 11 51 157 51 222 0 202 -163 333 -325 259z m44 -217 c11
-21 -6 -61 -30 -68 -30 -10 -59 12 -59 45 0 55 61 72 89 23z m152 27 c35 -19
14 -100 -27 -100 -42 0 -58 69 -22 94 27 19 24 19 49 6z m-136 -156 c22 -14
26 -14 47 0 30 21 38 20 38 -3 0 -23 -36 -51 -64 -51 -25 0 -56 28 -56 52 0
22 4 22 35 2z"/>
  </g>
  <g id="character-07-river-sprout__warm_gray" fill="#9b9b9b" fill-rule="evenodd" transform="translate(0,1122) scale(0.1,-0.1)">
    <path d="M3033 7790 c-28 -12 -45 -44 -40 -78 4 -26 4 -26 6 4 2 46 23 68 65
68 21 0 31 3 23 8 -15 10 -26 9 -54 -2z M3088 7598 c20 -10 22 -19 24 -92 l2
-81 3 80 c4 80 -7 107 -41 104 -6 0 -1 -5 12 -11z M3182 7515 c-1 -39 2 -86 8
-104 9 -34 65 -101 83 -101 5 0 -5 12 -22 26 -46 38 -54 59 -61 159 l-7 90 -1
-70z M4415 7461 c-3 -12 -23 -43 -42 -69 -20 -26 -26 -38 -13 -27 26 24 75
104 67 111 -3 3 -8 -4 -12 -15z M4210 7368 c-14 -6 -77 -14 -140 -18 l-115 -8
115 2 c80 2 126 7 150 18 39 18 30 23 -10 6z M3505 7318 c-16 -5 -66 -13 -110
-18 l-80 -9 80 4 c65 2 206 33 155 33 -8 0 -28 -4 -45 -10z M3993 7273 c32 -2
81 -2 110 0 29 2 3 3 -58 3 -60 0 -84 -1 -52 -3z M3432 5772 c-1 -26 -4 -65
-7 -87 -4 -35 -3 -36 5 -12 10 32 16 134 9 142 -3 2 -6 -17 -7 -43z M3531
5728 c2 -77 6 -69 11 20 2 28 0 52 -4 52 -5 0 -7 -33 -7 -72z M3724 5690 c0
-58 1 -81 3 -52 2 28 2 76 0 105 -2 28 -3 5 -3 -53z M3314 5603 c-12 -46 25
-66 114 -61 40 3 78 10 84 16 9 9 3 9 -23 2 -45 -13 -125 -13 -151 1 -16 8
-19 17 -14 40 7 36 -1 38 -10 2z M3902 5578 c-7 -7 -39 -16 -70 -19 l-57 -6
51 -2 c38 -1 58 4 75 19 13 10 22 19 19 20 -4 0 -12 -6 -18 -12z"/>
  </g>
  <g id="character-07-river-sprout__charcoal" fill="#111111" fill-rule="evenodd" transform="translate(0,1122) scale(0.1,-0.1)">
    <path d="M4495 7848 c-70 -38 -78 -58 -109 -257 -29 -185 -119 -251 -342 -251
-106 0 -113 -3 -114 -52 0 -5 51 -8 114 -8 252 0 370 87 401 296 7 46 14 86
16 87 2 1 22 11 43 22 75 38 104 118 56 157 -25 21 -37 22 -65 6z M3040 7783
c-69 -25 -46 -134 36 -172 l42 -20 4 -104 c3 -95 6 -109 33 -153 61 -97 183
-127 355 -84 87 22 90 23 90 51 0 34 0 35 -92 9 -126 -35 -214 -24 -276 33
-41 40 -52 79 -52 195 0 51 -5 113 -11 137 -19 74 -81 126 -129 108z M3638
7616 c-13 -29 -6 -51 20 -65 40 -22 83 44 50 77 -21 21 -57 14 -70 -12z M3808
7614 c-14 -31 -1 -57 31 -62 28 -4 51 14 51 42 0 50 -62 65 -82 20z M3790
7485 c-14 -17 -46 -20 -55 -5 -7 12 -35 13 -35 2 0 -15 25 -40 47 -46 27 -9
84 37 67 54 -8 8 -14 7 -24 -5z M3447 5803 c-4 -3 -7 -25 -7 -48 0 -87 -8
-105 -52 -111 -65 -11 -92 -60 -46 -85 24 -13 154 -7 169 8 5 5 12 59 16 120
6 110 6 110 -18 116 -31 9 -54 9 -62 0z M3758 5803 l-28 -4 0 -109 c0 -127 2
-130 92 -130 55 0 98 19 98 44 0 22 -35 46 -68 46 l-32 0 0 80 c0 87 4 83 -62
73z"/>
  </g>
</g>
</svg>