<?xml version="1.0" encoding="UTF-8"?>
<svg xmlns="http://www.w3.org/2000/svg" viewBox="910 315 195 255" width="195" height="255" role="img"><g id="character-10-green-triangle-bloom" data-bbox="910 315 1105 570">
  <g id="character-10-green-triangle-bloom__leaf_green" fill="#45b934" fill-rule="evenodd" transform="translate(0,1122) scale(0.1,-0.1)">
    <path d="M9985 7663 c-71 -19 -125 -95 -196 -277 -139 -357 -166 -414 -293
-631 -42 -73 -70 -132 -70 -150 -1 -21 -8 -33 -24 -40 -28 -12 -115 -163 -180
-309 -62 -141 -60 -202 6 -227 48 -18 219 -40 310 -40 51 0 91 -3 88 -8 -3 -5
136 -9 309 -10 196 -1 315 2 315 8 0 5 45 10 108 10 142 0 346 25 379 46 23
16 25 22 20 69 -5 47 -110 388 -126 411 -4 6 -16 33 -26 60 -10 28 -64 158
-120 290 -57 132 -115 272 -130 310 -54 134 -112 255 -120 247 -5 -4 -5 -2 -1
5 10 18 -63 147 -109 193 -43 42 -90 57 -140 43z m97 -392 c29 -23 74 -119 84
-178 l6 -42 -38 -7 c-51 -10 -212 -11 -246 -1 -35 9 -35 26 -3 114 42 118 128
168 197 114z m158 -612 c11 -43 10 -53 -3 -66 -13 -14 -16 -10 -26 36 -24 110
3 137 29 30z m-197 11 c10 -55 -5 -103 -31 -98 -17 3 -31 101 -18 135 12 31
41 9 49 -37z m-347 -5 c-11 -44 -25 -75 -34 -75 -11 0 -9 34 2 73 11 35 41 38
32 2z m155 3 c5 -40 -5 -105 -16 -117 -37 -38 -62 41 -33 104 12 26 47 35 49
13z m529 -150 c14 -34 30 -136 24 -152 -10 -26 -33 -26 -50 -1 -20 31 -35 145
-21 163 15 19 36 14 47 -10z m-209 -65 c13 -84 -9 -133 -46 -103 -22 18 -21
133 1 155 23 22 35 7 45 -52z m-572 23 c6 -7 9 -20 7 -27 -3 -8 -12 -40 -21
-72 -14 -51 -19 -58 -38 -55 -29 4 -28 68 2 127 23 44 32 49 50 27z m360 -30
c19 -22 10 -117 -12 -130 -29 -18 -48 16 -40 73 8 66 28 87 52 57z m-191 -9
c13 -16 1 -112 -16 -129 -6 -6 -18 -8 -28 -4 -14 5 -16 16 -11 62 8 73 30 102
55 71z m766 -129 c24 -40 40 -126 26 -143 -17 -20 -37 -19 -49 3 -44 84 -24
214 23 140z m-1107 -40 c-8 -66 -23 -98 -48 -98 -20 0 -21 4 -17 43 6 49 33
97 55 97 12 0 15 -9 10 -42z m777 -46 c11 -43 16 -95 11 -112 -8 -24 -50 -27
-59 -4 -10 27 -7 119 5 131 14 14 37 6 43 -15z m176 -1 c5 -11 11 -41 13 -68
2 -43 0 -48 -20 -51 -27 -4 -43 29 -43 87 0 54 28 72 50 32z m-840 -37 c0 -59
-14 -84 -46 -84 -25 0 -26 2 -19 38 17 89 65 124 65 46z m490 -33 c0 -59 -13
-80 -37 -65 -25 15 -29 88 -7 122 16 24 17 25 30 7 8 -10 14 -39 14 -64z
m-332 22 c4 -50 -11 -83 -38 -83 -33 0 -34 32 -5 118 11 31 40 7 43 -35z m166
31 c17 -45 -5 -127 -33 -122 -20 4 -28 102 -10 124 15 19 35 18 43 -2z"/>
  </g>
  <g id="character-10-green-triangle-bloom__warm_gray" fill="#9b9b9b" fill-rule="evenodd" transform="translate(0,1122) scale(0.1,-0.1)">
    <path d="M9431 7672 c-1 -20 2 -22 27 -16 53 14 77 22 62 23 -8 1 -29 -3 -47
-8 -26 -8 -33 -6 -36 7 -3 12 -5 10 -6 -6z M9517 7416 c8 -39 -20 -43 -84 -12
-31 15 -57 25 -59 23 -2 -2 23 -16 57 -32 46 -23 64 -27 77 -19 20 13 28 42
14 56 -6 6 -8 0 -5 -16z M9218 7353 c0 -16 0 -37 1 -48 1 -11 -6 -48 -14 -83
-9 -35 -14 -66 -12 -68 7 -8 35 129 36 179 1 50 -8 66 -11 20z M9920 7195 c-7
-8 -16 -13 -20 -10 -5 3 -6 -4 -3 -16 5 -20 6 -20 17 3 6 13 21 24 32 26 45 7
57 -59 13 -73 -11 -4 -18 -9 -16 -12 10 -9 46 17 52 38 13 41 -47 77 -75 44z
M9150 6982 c-6 -38 -10 -91 -7 -118 l3 -49 2 56 c1 30 7 81 13 113 6 32 8 60
6 63 -3 2 -10 -27 -17 -65z M9220 6832 c0 -8 26 -40 58 -71 51 -50 52 -51 11
-6 -26 27 -51 59 -57 70 -7 11 -12 14 -12 7z M10353 5910 c0 -41 2 -58 4 -37
2 20 2 54 0 75 -2 20 -4 3 -4 -38z M9385 5795 c-30 -29 -31 -36 -6 -66 16 -20
29 -23 92 -25 l74 -2 -74 7 c-69 7 -101 23 -101 51 0 19 32 44 66 50 39 8 39
8 6 9 -23 1 -41 -7 -57 -24z"/>
  </g>
  <g id="character-10-green-triangle-bloom__charcoal" fill="#111111" fill-rule="evenodd" transform="translate(0,1122) scale(0.1,-0.1)">
    <path d="M9393 7778 c-12 -13 -42 -62 -67 -109 l-47 -87 -70 29 c-39 16 -80
29 -90 29 -31 0 -24 -49 12 -86 l31 -32 -31 -18 c-26 -15 -31 -24 -31 -56 0
-37 1 -38 28 -33 15 4 38 8 52 11 14 3 33 7 44 10 17 6 18 2 10 -47 -4 -30 -7
-67 -6 -83 1 -16 -7 -61 -18 -100 -56 -212 -73 -357 -46 -419 11 -27 183 -197
224 -221 16 -10 42 11 42 33 0 9 -47 61 -104 116 -132 126 -131 121 -87 340
30 151 70 307 92 366 l10 27 71 -35 c39 -19 78 -33 87 -31 32 6 24 45 -18 91
-23 24 -41 49 -41 54 0 5 34 31 75 57 111 71 102 113 -17 83 -35 -9 -64 -14
-66 -12 -2 1 2 30 8 64 15 84 -3 106 -47 59z M10057 7199 c-22 -13 -22 -55 0
-68 25 -13 53 5 53 34 0 29 -28 47 -53 34z M9922 7188 c-28 -28 -1 -75 37 -63
11 3 23 15 26 26 12 38 -35 65 -63 37z M9666 6661 c-11 -20 -13 -37 -8 -52 8
-21 9 -21 16 -3 29 70 22 114 -8 55z M9515 5909 c-8 -87 -18 -99 -81 -99 -23
0 -64 -31 -64 -48 0 -32 31 -47 102 -50 103 -5 114 5 128 123 6 50 13 105 16
123 l5 32 -50 0 -49 0 -7 -81z M10262 5982 c-11 -7 -11 -30 -1 -122 15 -137
24 -150 102 -149 81 0 121 18 125 54 5 39 -19 55 -80 55 -54 0 -56 3 -60 105
l-3 60 -35 3 c-19 1 -41 -2 -48 -6z"/>
  </g>
</g>
</svg>