<?xml version="1.0" encoding="UTF-8"?>
<svg xmlns="http://www.w3.org/2000/svg" viewBox="325 600 217 255" width="217" height="255" role="img"><g id="character-13-gray-listener" data-bbox="325 600 542 855">
  <g id="character-13-gray-listener__cobalt_blue" fill="#124fd2" fill-rule="evenodd" transform="translate(0,1122) scale(0.1,-0.1)">
    <path d="M4515 4579 l-35 -31 49 -49 c83 -81 138 -217 202 -499 18 -80 34
-147 36 -149 12 -17 96 32 153 89 244 243 73 642 -211 494 -38 -19 -36 -22
-49 61 -17 113 -74 146 -145 84z M3550 4423 c-61 -23 -74 -103 -34 -208 4 -9
-11 -21 -45 -36 -163 -70 -218 -293 -102 -409 48 -48 103 -70 174 -70 l35 0 6
98 c20 291 48 468 86 543 11 21 20 41 20 43 0 20 -111 51 -140 39z"/>
  </g>
  <g id="character-13-gray-listener__warm_gray" fill="#9b9b9b" fill-rule="evenodd" transform="translate(0,1122) scale(0.1,-0.1)">
    <path d="M4337 5196 c3 -13 -5 -45 -16 -71 -12 -27 -20 -50 -17 -52 6 -6 46
94 46 116 0 11 -4 22 -9 25 -4 3 -6 -5 -4 -18z M3952 5168 c-14 -14 -15 -47
-3 -67 5 -8 8 0 7 25 -1 52 26 58 54 12 11 -18 20 -28 20 -22 0 17 -40 64 -54
64 -6 0 -17 -5 -24 -12z M3786 4688 c63 -69 91 -118 72 -129 -67 -38 -131
-106 -168 -179 -45 -89 -74 -200 -65 -248 4 -20 2 -32 -3 -28 -5 3 -12 -29
-16 -72 -3 -42 -13 -144 -21 -227 -24 -243 -17 -370 24 -425 47 -65 168 -106
341 -116 47 -2 86 -8 88 -13 1 -4 15 -6 30 -4 15 1 93 4 174 6 141 3 147 2
151 -18 3 -15 5 -14 6 6 1 24 5 27 44 28 23 1 51 2 62 4 14 1 21 -6 26 -28 l6
-30 4 29 c3 24 10 31 39 38 140 35 191 64 228 132 23 44 19 173 -10 313 -16
74 -20 114 -13 117 5 2 3 5 -5 5 -11 1 -24 41 -49 149 -54 235 -122 425 -157
439 -8 3 -12 9 -9 13 8 13 -77 93 -133 126 -32 18 -34 18 -43 2 -6 -10 -19
-18 -29 -18 -20 0 -22 4 -24 45 -2 29 -31 30 -44 0 -17 -37 -52 -34 -52 5 0
23 -4 30 -20 30 -11 0 -21 6 -21 13 -1 6 -5 -6 -8 -28 -6 -39 -7 -40 -47 -42
-39 -2 -42 -1 -48 27 -5 27 -8 29 -30 20 -13 -5 -26 -7 -28 -4 -3 2 -3 -9 0
-25 5 -38 -25 -51 -50 -22 -9 12 -24 21 -34 21 -9 0 -23 8 -31 18 -10 11 -9 7
2 -11 19 -33 17 -71 -6 -75 -10 -2 -28 19 -53 60 -33 58 -99 138 -113 138 -3
0 12 -19 33 -42z m594 -409 c0 -33 -56 -79 -97 -79 -37 0 -93 44 -93 74 0 24
26 19 54 -9 33 -33 52 -32 85 5 31 35 51 38 51 9z m-304 -27 c1 -17 -3 -29 -8
-26 -4 3 -11 -1 -14 -10 -8 -20 -59 -36 -95 -29 -33 6 -69 45 -69 74 0 27 25
23 44 -6 21 -32 67 -34 96 -3 11 12 20 26 20 31 0 25 25 -4 26 -31z m114 -128
c0 -7 -9 -16 -20 -19 -11 -3 -20 -14 -21 -23 0 -14 -2 -14 -6 -2 -3 8 -12 23
-20 32 -13 14 -12 19 7 38 21 21 23 21 41 4 10 -9 19 -23 19 -30z m158 -117
c14 -16 26 -129 18 -161 -9 -35 -43 -35 -52 0 -4 14 -10 21 -13 15 -4 -5 -5
22 -3 62 5 87 23 117 50 84z m196 -129 c21 -29 21 -111 1 -128 -24 -20 -43 4
-47 63 -7 79 15 110 46 65z m-630 -5 c13 -45 16 -104 6 -123 -23 -44 -60 -7
-60 60 0 62 40 109 54 63z m327 -187 c1 -40 3 -46 9 -26 4 14 5 -7 3 -50 -6
-83 -22 -112 -51 -94 -11 7 -19 31 -24 66 -4 30 -8 59 -9 64 -1 5 -1 30 0 56
2 105 70 91 72 -16z m-117 17 c4 -9 0 -23 -9 -32 -15 -15 -18 -14 -31 3 -8 11
-14 26 -14 33 0 19 47 16 54 -4z m-309 -97 c35 -53 2 -177 -36 -139 -17 17
-24 116 -10 142 15 27 27 27 46 -3z m645 -22 c31 -81 -15 -190 -51 -122 -12
22 -14 122 -3 139 11 19 45 8 54 -17z m185 -46 c6 -39 4 -54 -8 -66 -27 -26
-47 1 -47 62 0 93 43 96 55 4z m-627 40 c18 -18 16 -133 -3 -148 -24 -20 -43
4 -50 64 -10 76 18 119 53 84z M4534 3180 c1 -22 6 -26 50 -31 71 -8 96 -49
56 -89 -11 -11 -16 -20 -11 -20 13 0 41 40 41 58 0 28 -48 62 -89 62 -33 0
-40 4 -44 23 -3 19 -4 19 -3 -3z M4401 3123 c-2 -81 16 -93 127 -91 l87 2 -92
5 c-50 3 -95 10 -100 14 -4 5 -11 34 -14 65 l-6 57 -2 -52z M3860 3153 c-42
-7 -78 -24 -84 -40 -4 -10 2 -8 20 6 15 12 38 21 53 21 14 0 33 5 41 10 15 10
13 10 -30 3z M3788 3050 c31 -34 199 -38 229 -6 17 19 17 19 -1 5 -31 -23
-197 -20 -227 6 l-24 19 23 -24z"/>
  </g>
  <g id="character-13-gray-listener__charcoal" fill="#111111" fill-rule="evenodd" transform="translate(0,1122) scale(0.1,-0.1)">
    <path d="M4293 5208 c-48 -60 -118 -288 -146 -478 -4 -32 -10 -18 -32 85 -42
195 -109 360 -143 353 -29 -5 -25 -41 16 -144 39 -98 95 -304 107 -396 l6 -48
42 3 41 2 18 124 c19 139 48 244 102 375 20 49 36 98 34 110 -3 24 -30 33 -45
14z M3762 5068 c-18 -18 -16 -24 47 -127 61 -99 139 -258 160 -323 14 -43 32
-61 55 -52 32 12 9 81 -100 294 -105 207 -130 240 -162 208z M4393 5042 c-27
-18 -93 -175 -128 -307 -31 -116 -32 -155 -6 -155 26 0 27 3 56 115 13 53 45
142 70 197 25 56 45 111 45 124 0 23 -20 37 -37 26z M4538 5003 c-17 -21 -62
-94 -106 -174 -44 -78 -103 -235 -96 -253 9 -24 43 -19 53 7 5 12 20 49 32 82
22 58 79 163 148 271 33 52 34 84 1 84 -9 0 -24 -8 -32 -17z M3637 4873 c-17
-16 -4 -42 33 -67 61 -40 154 -141 196 -213 38 -66 66 -80 72 -36 5 35 -91
175 -175 253 -70 65 -106 83 -126 63z M4329 4270 c-33 -37 -52 -38 -85 -5 -28
28 -54 33 -54 9 0 -30 56 -74 93 -74 41 0 97 46 97 79 0 29 -20 26 -51 -9z
M4050 4283 c0 -5 -9 -19 -20 -31 -29 -31 -75 -29 -96 3 -19 29 -44 33 -44 6 0
-29 36 -68 70 -74 55 -11 123 33 117 77 -2 19 -27 36 -27 19z M4312 4008 c-31
-31 -6 -188 29 -188 25 0 33 36 24 113 -8 79 -25 103 -53 75z M4502 3883 c-12
-26 -3 -120 14 -134 24 -20 44 7 44 60 0 68 -37 115 -58 74z M3870 3864 c-29
-76 16 -178 50 -114 10 19 7 78 -6 123 -8 25 -33 21 -44 -9z M4187 3765 c-15
-14 -25 -82 -18 -119 1 -5 5 -34 9 -64 8 -64 31 -87 58 -60 14 14 15 31 9 117
-8 117 -27 157 -58 126z M4070 3707 c0 -7 6 -22 14 -33 13 -17 16 -18 31 -3 9
9 13 23 9 32 -7 20 -54 23 -54 4z M3769 3609 c-14 -26 -7 -125 10 -142 38 -38
71 86 36 139 -19 30 -31 30 -46 3z M4405 3601 c-8 -15 -4 -123 7 -143 22 -44
58 -3 58 67 0 50 -16 85 -39 85 -11 0 -22 -4 -26 -9z M4602 3598 c-18 -18 -15
-113 4 -128 28 -24 47 9 39 68 -7 56 -24 79 -43 60z M3969 3569 c-14 -27 -3
-123 17 -140 27 -22 44 7 44 75 0 80 -33 116 -61 65z M4498 3275 c-3 -3 -26
-6 -52 -7 l-46 -1 1 -36 c1 -82 16 -173 30 -182 8 -5 53 -9 102 -9 74 0 90 3
107 20 40 40 15 81 -56 89 l-49 6 -5 59 c-4 54 -16 76 -32 61z M3909 3269 c0
-2 -2 -28 -4 -58 -4 -58 -14 -71 -57 -71 -40 0 -86 -43 -72 -67 21 -34 55 -44
142 -40 106 4 109 7 116 130 l5 97 -27 0 c-15 0 -44 3 -64 6 -21 4 -38 5 -39
3z"/>
  </g>
</g>
</svg>