<?xml version="1.0" encoding="UTF-8"?>
<svg xmlns="http://www.w3.org/2000/svg" viewBox="555 600 260 255" width="260" height="255" role="img"><g id="character-14-river-stone" data-bbox="555 600 815 855">
  <g id="character-14-river-stone__sky_cyan" fill="#39bdd0" fill-rule="evenodd" transform="translate(0,1122) scale(0.1,-0.1)">
    <path d="M6579 4984 c-270 -53 -467 -171 -642 -382 -254 -307 -327 -589 -215
-834 27 -58 92 -138 112 -138 7 0 25 -14 42 -31 49 -52 184 -111 278 -123 27
-3 54 -10 60 -15 41 -33 625 -59 860 -38 71 6 176 29 171 36 -1 3 9 6 24 7 49
2 163 66 227 129 68 66 106 132 123 214 14 64 10 70 -82 131 -176 118 -397
106 -580 -31 -83 -62 -177 -215 -177 -287 0 -23 -19 -42 -41 -42 -84 0 -6 222
124 353 202 203 547 240 737 80 l33 -28 -7 98 c-35 509 -177 758 -495 869
-135 47 -401 63 -552 32z m-245 -236 c14 -23 0 -47 -42 -71 -36 -21 -67 -16
-83 14 -27 51 94 106 125 57z m720 -8 c140 -54 221 -194 186 -320 -34 -125
-182 -230 -337 -242 -18 -1 -33 -5 -33 -8 0 -4 -35 -31 -77 -60 -170 -118
-279 -274 -319 -454 -22 -97 -30 -116 -53 -116 -35 0 -44 25 -37 96 18 174
154 388 328 514 l38 27 -58 12 c-66 13 -155 61 -178 95 -15 24 -16 24 -67 9
-246 -72 -480 -336 -514 -578 -6 -47 -24 -75 -47 -75 -64 0 -36 181 50 339
103 187 290 339 482 390 41 12 42 13 42 55 0 143 98 265 259 323 88 31 244 28
335 -7z m-730 -189 c36 -40 -23 -96 -94 -89 -29 2 -36 7 -38 29 -4 38 33 65
109 78 3 1 14 -8 23 -18z m1114 -124 c38 -45 4 -123 -47 -110 -45 12 -57 90
-18 115 19 12 53 9 65 -5z m-1398 -58 c10 -17 6 -27 -23 -62 -96 -115 -93
-113 -111 -98 -24 20 -20 53 13 98 55 76 101 100 121 62z m430 -224 c17 -20 5
-49 -37 -85 -34 -30 -36 -31 -55 -14 -28 26 -20 64 21 91 40 27 54 28 71 8z
m-176 -238 c8 -12 3 -31 -21 -79 -33 -66 -47 -108 -58 -170 -7 -47 -41 -70
-62 -42 -33 45 15 216 81 287 28 30 43 31 60 4z m-187 -74 c-14 -37 -30 -83
-34 -102 -10 -38 -27 -51 -36 -26 -14 35 70 222 90 201 3 -3 -6 -35 -20 -73z
m1163 12 c15 -18 7 -44 -17 -51 -92 -29 -141 -72 -171 -149 -21 -54 -40 -72
-66 -62 -20 8 -21 65 -2 112 45 108 210 205 256 150z m210 -45 c24 -24 24 -30
6 -74 -17 -42 -50 -55 -77 -30 -26 23 -24 72 3 101 26 28 42 29 68 3z"/>
  </g>
  <g id="character-14-river-stone__warm_gray" fill="#9b9b9b" fill-rule="evenodd" transform="translate(0,1122) scale(0.1,-0.1)">
    <path d="M6704 4580 c-33 -13 -64 -59 -63 -94 1 -30 2 -29 9 7 8 45 28 67 73
84 18 6 25 12 17 12 -8 0 -25 -4 -36 -9z M6980 4579 c-12 -8 -10 -9 8 -4 37
11 79 -13 96 -53 8 -21 15 -31 15 -24 3 56 -77 110 -119 81z M6112 3430 c-4
-78 -14 -109 -36 -114 -17 -3 -16 -4 4 -3 28 2 44 53 37 117 l-4 35 -1 -35z
M6207 3415 c-4 -22 -6 -53 -6 -70 1 -16 5 -3 10 30 10 67 6 102 -4 40z M7114
3416 c-3 -7 -3 -38 -1 -67 l3 -54 2 62 c1 38 7 63 15 66 9 4 9 6 -1 6 -7 1
-15 -5 -18 -13z M6000 3290 c-11 -11 -20 -28 -20 -38 0 -24 35 -56 52 -49 9 4
8 6 -3 6 -48 3 -49 72 -2 89 18 7 22 11 11 11 -10 1 -27 -8 -38 -19z M6190
3278 c0 -43 -10 -57 -46 -68 -24 -7 -25 -8 -6 -9 33 -1 62 33 62 74 0 19 -2
35 -5 35 -3 0 -5 -15 -5 -32z M7020 3233 c0 -34 123 -69 163 -47 10 6 -9 9
-55 9 -61 0 -72 3 -89 24 -10 13 -19 19 -19 14z"/>
  </g>
  <g id="character-14-river-stone__charcoal" fill="#111111" fill-rule="evenodd" transform="translate(0,1122) scale(0.1,-0.1)">
    <path d="M6775 4759 c-321 -65 -422 -418 -155 -543 63 -29 70 -30 205 -30 191
-1 285 38 371 151 109 143 23 351 -168 408 -67 20 -191 26 -253 14z m21 -201
c29 -26 36 -66 18 -100 -33 -63 -97 -76 -145 -29 -84 84 41 211 127 129z m249
20 c56 -25 67 -104 21 -147 -77 -72 -184 15 -132 108 24 44 67 59 111 39z
M6706 4524 c-21 -20 -20 -51 0 -62 42 -24 81 23 48 59 -21 23 -28 24 -48 3z
M6980 4526 c-22 -28 -8 -61 25 -61 24 0 31 5 33 23 4 25 -13 52 -33 52 -7 0
-18 -7 -25 -14z M6127 3473 c-4 -3 -8 -27 -8 -52 -3 -91 -9 -103 -63 -116 -63
-16 -87 -55 -51 -85 41 -34 171 -18 180 23 5 24 25 184 25 204 0 10 -8 15 -61
29 -8 2 -18 1 -22 -3z M7053 3423 l-33 -4 0 -89 c0 -111 11 -129 90 -136 79
-8 112 7 108 48 -3 34 -11 39 -80 53 -27 5 -28 8 -28 70 0 46 -4 65 -12 63 -7
0 -28 -3 -45 -5z"/>
  </g>
</g>
</svg>