<svg xmlns="http://www.w3.org/2000/svg" viewBox="0 0 293 270" width="293" height="270" role="img">
<title>character-15-red-breath retraced from original sheet</title>
<g id="character-15-red-breath" data-source="generated-image-3-crop" data-bbox="0 0 293 270">
  <g id="character-15-red-breath__blue" fill="#124fd2" fill-rule="evenodd" transform="translate(0.000000,270.000000) scale(0.100000,-0.100000)">
    <path d="M1873 2565 c-34 -8 -81 -24 -104 -35 -51 -26 -122 -91 -151 -138
l-21 -35 -21 29 c-57 82 -140 134 -243 154 -72 14 -175 -2 -258 -41 -64 -30
-154 -120 -184 -183 -27 -58 -44 -149 -35 -191 34 -171 141 -272 299 -283 39
-2 89 1 113 7 l42 12 0 57 c0 64 31 142 71 179 31 28 90 53 126 53 77 0 166
-85 180 -172 3 -21 8 -38 11 -38 4 0 29 22 57 49 61 60 207 154 277 177 43 14
52 14 64 2 24 -24 7 -42 -76 -82 -131 -64 -215 -125 -298 -220 -29 -34 -36
-37 -56 -28 -19 8 -24 20 -29 70 -8 99 -64 172 -130 172 -35 0 -87 -39 -110
-83 -29 -56 -25 -178 9 -276 4 -11 8 -11 23 3 33 30 75 36 117 16 58 -26 80
-56 110 -150 15 -47 28 -87 30 -88 1 -2 30 15 64 38 71 48 172 97 215 103 17
3 71 28 120 55 122 68 173 88 188 73 21 -21 -6 -44 -124 -106 -89 -47 -115
-66 -117 -83 -5 -32 13 -50 60 -63 33 -8 52 -7 111 11 181 55 201 64 245 114
44 50 56 101 37 161 l-14 49 35 39 c52 57 74 111 73 182 0 75 -37 156 -92 199
-34 27 -45 30 -115 30 l-76 1 -8 43 c-26 152 -229 258 -415 217z m115 -192 c3
-17 -6 -26 -44 -43 -27 -11 -63 -32 -81 -46 -61 -47 -99 -8 -46 48 62 65 164
90 171 41z m-703 -42 c0 -19 -7 -26 -29 -32 -71 -19 -124 -77 -141 -153 -9
-40 -16 -52 -33 -54 -44 -7 -50 62 -11 138 21 42 84 105 119 119 14 6 41 9 60
8 30 -2 35 -6 35 -26z m325 -12 c0 -5 -7 -9 -15 -9 -15 0 -20 12 -9 23 8 8 24
-1 24 -14z m3 -50 c-11 -11 -45 -1 -38 12 3 4 12 6 20 2 9 -3 15 1 16 8 0 12
2 12 6 1 3 -8 1 -18 -4 -23z m867 -126 c-8 -3 -24 -10 -35 -15 -20 -9 -20 -9
-1 6 11 9 27 16 35 15 14 0 14 -1 1 -6z m-80 -39 c18 -21 5 -32 -101 -88 -74
-38 -89 -43 -104 -32 -29 21 -3 51 86 95 90 46 101 48 119 25z m-880 -209 c0
-8 -4 -15 -10 -15 -5 0 -10 7 -10 15 0 8 5 15 10 15 6 0 10 -7 10 -15z m575
-9 c0 -14 -31 -37 -115 -85 -63 -37 -127 -74 -141 -84 -24 -16 -27 -16 -40 -1
-24 30 22 70 176 151 85 45 120 51 120 19z"/>
    <path d="M1490 1679 c0 -5 -4 -7 -10 -4 -13 8 -50 -12 -50 -27 0 -6 -8 -21
-17 -32 -11 -13 -12 -16 -3 -9 31 23 110 14 110 -14 0 -11 -9 -12 -37 -8 -28
5 -34 4 -23 -4 8 -6 21 -11 29 -11 8 0 20 -8 27 -17 10 -15 16 -16 32 -6 15 9
22 8 35 -5 24 -23 30 -10 17 39 -17 63 -37 91 -61 84 -13 -4 -19 -2 -19 9 0 9
-7 16 -15 16 -8 0 -15 -5 -15 -11z"/>
  </g>
  <g id="character-15-red-breath__red" fill="#f24a25" fill-rule="evenodd" transform="translate(0.000000,270.000000) scale(0.100000,-0.100000)">
    <path d="M535 1916 c-32 -32 -41 -71 -64 -276 -23 -197 -37 -275 -86 -475 -75
-306 -68 -440 26 -534 59 -60 189 -106 324 -117 38 -3 76 -9 85 -14 8 -4 92
-6 185 -4 174 3 355 27 445 59 115 41 186 108 222 214 21 60 23 83 22 246 0
143 -5 205 -23 300 -12 66 -27 124 -32 129 -5 6 -9 18 -9 28 0 30 -45 68 -80
68 -17 0 -38 6 -45 14 -8 7 -35 20 -61 27 -60 18 -86 56 -113 168 -12 47 -23
86 -25 89 -7 6 -46 -74 -46 -93 0 -9 -6 -31 -14 -49 -14 -34 -14 -34 -58 -24
-71 16 -285 12 -357 -7 -35 -9 -67 -13 -72 -8 -4 4 -24 58 -43 119 -42 130
-67 164 -121 164 -25 0 -43 -8 -60 -24z m579 -346 c54 -20 20 -47 -71 -56 -67
-7 -143 10 -143 31 0 20 23 24 162 33 15 1 38 -2 52 -8z m-280 -266 c40 -29
69 -99 61 -146 -9 -53 -66 -112 -123 -127 -36 -10 -48 -9 -87 8 -56 25 -85 70
-85 131 0 62 28 110 81 138 51 28 111 26 153 -4z m551 2 c35 -23 65 -92 60
-135 -18 -139 -188 -188 -269 -78 -29 39 -29 125 0 164 39 52 84 75 136 70 26
-2 59 -12 73 -21z m-298 -285 c23 -34 39 -125 29 -164 -19 -76 -108 -103 -160
-48 -28 29 -28 33 -24 106 5 81 24 119 68 142 31 15 60 3 87 -36z"/>
  </g>
  <g id="character-15-red-breath__white" fill="#ffffff" fill-rule="evenodd" transform="translate(0.000000,270.000000) scale(0.100000,-0.100000)">
    <path d="M1895 2381 c-52 -24 -95 -65 -95 -90 0 -34 19 -34 68 3 26 19 60 38
74 41 33 9 52 30 44 50 -7 20 -42 19 -91 -4z"/>
    <path d="M1207 2350 c-71 -22 -140 -106 -153 -187 -6 -42 5 -73 28 -73 10 0
12 6 28 68 14 55 69 115 126 139 34 14 44 23 42 38 -3 23 -29 28 -71 15z"/>
    <path d="M2276 2072 c-77 -42 -98 -64 -78 -84 10 -10 29 -4 95 31 93 50 112
64 103 80 -13 20 -50 11 -120 -27z"/>
    <path d="M1972 1860 c-51 -27 -111 -63 -133 -80 -59 -47 -49 -96 11 -52 13 9
72 44 130 78 74 42 105 66 105 79 0 10 -4 20 -10 21 -5 2 -52 -19 -103 -46z"/>
    <path d="M928 1563 c-25 -6 -22 -30 5 -37 36 -9 129 -7 172 5 37 10 38 12 20
25 -18 13 -151 18 -197 7z"/>
    <path d="M1271 1319 c-18 -4 -50 -23 -70 -43 -33 -34 -36 -41 -36 -95 0 -89
49 -143 130 -143 100 0 171 112 129 204 -28 61 -87 91 -153 77z m73 -95 c17
-16 21 -61 8 -80 -15 -23 -50 -34 -77 -24 -46 17 -53 85 -11 112 19 13 64 9
80 -8z"/>
    <path d="M680 1297 c-35 -18 -49 -34 -64 -69 -62 -151 124 -266 233 -143 40
45 48 93 27 150 -31 79 -114 106 -196 62z m112 -74 c27 -24 23 -68 -8 -92 -15
-12 -33 -21 -41 -21 -21 0 -63 46 -63 70 0 49 73 78 112 43z"/>
  </g>
  <g id="character-15-red-breath__black" fill="#111111" fill-rule="evenodd" transform="translate(0.000000,270.000000) scale(0.100000,-0.100000)">
    <path d="M723 1229 c-24 -9 -39 -48 -29 -74 3 -8 17 -20 30 -27 20 -9 30 -8
51 6 57 37 13 119 -52 95z"/>
    <path d="M1260 1213 c-11 -15 -18 -33 -15 -41 3 -7 5 -18 5 -22 0 -16 40 -31
61 -25 11 4 26 17 35 30 13 19 13 28 3 47 -24 46 -58 50 -89 11z"/>
    <path d="M977 1036 c-51 -47 -64 -175 -23 -223 34 -39 98 -39 132 0 20 23 24
39 24 92 0 72 -10 105 -40 135 -27 27 -61 25 -93 -4z"/>
    <path d="M1281 515 l-64 -10 1 -85 c1 -110 4 -112 138 -108 83 2 106 6 123 22
45 40 20 75 -61 85 l-53 6 -3 45 c-2 25 -6 47 -10 50 -4 3 -36 1 -71 -5z"/>
    <path d="M689 509 c0 -2 -2 -21 -4 -43 -2 -21 -7 -41 -9 -44 -3 -3 -29 -9 -58
-13 -62 -10 -83 -28 -74 -63 4 -18 17 -28 45 -37 48 -14 196 -8 213 9 9 9 31
169 24 179 -3 3 -136 15 -137 12z"/>
  </g>
</g>
</svg>
