<?xml version="1.0" encoding="UTF-8"?>
<svg xmlns="http://www.w3.org/2000/svg" viewBox="1100 590 268 242" width="268" height="242" role="img"><g id="character-16-blue-archive" data-bbox="1100 590 1368 832">
  <g id="character-16-blue-archive__lemon_yellow" fill="#ffd11a" fill-rule="evenodd" transform="translate(0,1122) scale(0.1,-0.1)">
    <path d="M11504 4685 c-2 -24 0 -25 61 -25 l63 0 -11 25 c-18 38 -111 38 -113
0z M11485 4580 c5 -48 -6 -47 338 -45 669 4 792 6 781 13 -7 4 -13 16 -16 27
-3 18 -10 20 -88 16 -47 -2 -88 -7 -91 -12 -8 -13 -59 -21 -78 -13 -12 5 -6 9
19 14 19 4 -109 7 -285 7 -176 -1 -283 -3 -237 -4 99 -5 112 -24 15 -23 -38 1
-92 -2 -120 -5 -44 -6 -53 -4 -53 9 0 19 -23 25 -116 28 -58 3 -71 0 -69 -12z
m745 -10 c0 -5 -13 -10 -29 -10 -17 0 -33 5 -36 10 -4 6 8 10 29 10 20 0 36
-4 36 -10z M12138 4463 c29 -2 74 -2 100 0 26 2 2 3 -53 3 -55 0 -76 -1 -47
-3z"/>
  </g>
  <g id="character-16-blue-archive__leaf_green" fill="#45b934" fill-rule="evenodd" transform="translate(0,1122) scale(0.1,-0.1)">
    <path d="M11395 5276 c-95 -95 23 -262 205 -291 l45 -7 -31 33 c-79 87 -127
159 -106 159 15 0 123 -122 140 -157 39 -81 40 -2 2 100 -28 75 -74 144 -112
167 -47 29 -112 27 -143 -4z M11935 5204 c-63 -32 -136 -125 -160 -202 -6 -22
-5 -23 32 -17 89 15 212 95 234 153 13 33 12 39 -11 62 -24 24 -54 25 -95 4z"/>
  </g>
  <g id="character-16-blue-archive__cobalt_blue" fill="#124fd2" fill-rule="evenodd" transform="translate(0,1122) scale(0.1,-0.1)">
    <path d="M12650 4578 c1 -7 7 -24 15 -38 21 -37 19 -86 -6 -109 -24 -22 -114
-25 -826 -29 -352 -3 -363 -2 -383 18 -21 21 -28 84 -11 94 10 7 -9 66 -21 66
-56 0 -231 -132 -276 -209 -25 -43 -27 -53 -27 -171 0 -136 14 -531 20 -540 2
-3 6 -56 9 -118 6 -119 14 -145 46 -162 22 -12 1784 -16 1813 -4 21 8 24 19
42 154 24 172 31 372 15 410 -8 19 -38 49 -76 76 -73 52 -73 53 -99 239 -30
223 -47 264 -125 302 -61 29 -110 39 -110 21z m49 -276 c6 -11 11 -183 13
-427 3 -375 2 -409 -14 -419 -9 -5 -21 -7 -25 -2 -8 7 -22 835 -15 856 6 16
31 11 41 -8z m-1385 -48 c19 -50 -5 -119 -32 -92 -13 13 -17 90 -5 101 11 12
31 7 37 -9z m176 -125 c0 -61 -11 -79 -35 -59 -18 15 -20 111 -3 128 22 22 38
-7 38 -69z m818 47 c129 -35 195 -113 196 -232 1 -77 -19 -108 -90 -144 -47
-24 -59 -25 -265 -28 -249 -5 -312 4 -364 50 -117 102 -15 315 169 357 66 14
294 13 354 -3z m-980 -158 c18 -18 16 -127 -3 -134 -28 -11 -45 16 -45 70 0
46 12 76 30 76 3 0 11 -5 18 -12z m172 -147 c23 -44 8 -124 -24 -119 -35 5
-37 138 -2 138 9 0 20 -9 26 -19z m-146 -187 c3 -9 6 -39 6 -69 0 -99 -53 -90
-59 10 -3 62 35 105 53 59z m292 -8 c8 -35 1 -60 -18 -64 -18 -3 -36 57 -23
77 11 19 34 12 41 -13z m-118 -68 c17 -17 15 -93 -3 -108 -20 -16 -33 -5 -41
35 -12 65 12 105 44 73z"/>
  </g>
  <g id="character-16-blue-archive__warm_gray" fill="#9b9b9b" fill-rule="evenodd" transform="translate(0,1122) scale(0.1,-0.1)">
    <path d="M11823 5198 c-17 -18 -44 -54 -60 -80 l-29 -46 -19 54 c-10 30 -22
57 -27 60 -4 3 2 -21 13 -53 12 -32 23 -64 25 -72 3 -8 20 11 40 45 19 32 49
74 67 92 17 17 29 32 26 32 -3 0 -19 -15 -36 -32z M11652 4913 c23 -4 27 -10
31 -41 l4 -37 1 43 c2 41 2 42 -30 41 -30 -2 -30 -2 -6 -6z M12598 4851 c55
-9 71 -24 54 -51 -14 -23 -16 -66 -3 -74 4 -3 6 6 3 20 -2 14 1 37 9 51 18 34
-16 64 -70 62 l-36 -2 43 -6z M11923 4843 c82 -2 212 -2 290 0 78 1 12 3 -148
3 -159 0 -223 -2 -142 -3z M12447 4793 c18 -2 50 -2 70 0 21 2 7 4 -32 4 -38
0 -55 -2 -38 -4z M11673 4783 c92 -2 242 -2 335 0 92 1 16 3 -168 3 -184 0
-260 -2 -167 -3z M12273 4713 c26 -2 67 -2 90 0 23 2 2 3 -48 3 -49 0 -68 -1
-42 -3z M12498 4673 c23 -2 61 -2 85 0 23 2 4 4 -43 4 -47 0 -66 -2 -42 -4z
M11683 4663 c20 -2 54 -2 75 0 20 2 3 4 -38 4 -41 0 -58 -2 -37 -4z M11968
4663 c89 -2 235 -2 325 0 89 1 16 3 -163 3 -179 0 -252 -2 -162 -3z M12368
4463 c45 -2 119 -2 165 0 45 1 8 3 -83 3 -91 0 -128 -2 -82 -3z M12235 4053
c-57 -14 -84 -85 -49 -129 15 -18 15 -18 5 3 -16 33 -13 78 7 95 42 37 102 25
122 -26 5 -12 9 -15 9 -6 1 24 -52 76 -71 69 -2 -1 -12 -3 -23 -6z M11935
4020 c-28 -31 -24 -79 9 -107 26 -22 80 -31 90 -15 2 4 -10 6 -28 4 -66 -8
-106 68 -61 118 10 11 16 20 13 20 -3 0 -13 -9 -23 -20z M12228 4009 c-18 -10
-25 -54 -10 -63 5 -3 7 8 4 23 -4 30 15 45 43 35 23 -9 19 -51 -6 -59 -11 -4
-18 -9 -16 -12 3 -2 15 0 26 7 27 14 28 56 2 70 -23 12 -22 12 -43 -1z M11960
3989 c-9 -16 -8 -25 6 -40 22 -24 36 -24 60 2 19 22 12 49 -17 57 -8 2 -5 -2
5 -10 21 -17 17 -45 -9 -54 -15 -6 -45 11 -45 27 0 4 7 15 16 23 8 9 11 16 5
16 -6 0 -15 -9 -21 -21z M12023 3363 c20 -2 54 -2 75 0 20 2 3 4 -38 4 -41 0
-58 -2 -37 -4z M11512 3318 c-2 -43 -4 -47 -29 -51 l-28 -4 28 -2 c32 -1 40
13 34 65 -3 38 -4 37 -5 -8z M12282 3315 c-1 -27 -5 -61 -7 -75 l-6 -25 11 25
c6 13 9 47 7 75 l-3 50 -2 -50z M11421 3174 c21 -21 91 -28 149 -15 40 8 36 9
-27 4 -55 -4 -79 -2 -105 11 -31 16 -32 16 -17 0z M12496 3183 c-4 -4 -46 -11
-94 -14 l-87 -7 87 2 c54 0 92 6 100 14 6 6 10 12 7 12 -3 0 -9 -3 -13 -7z"/>
  </g>
  <g id="character-16-blue-archive__charcoal" fill="#111111" fill-rule="evenodd" transform="translate(0,1122) scale(0.1,-0.1)">
    <path d="M11329 5283 c-29 -47 -31 -122 -4 -177 43 -90 150 -156 288 -178 l77
-13 0 -37 0 -38 -80 -1 c-44 -1 -84 -3 -90 -4 -5 -1 -16 -3 -23 -4 -42 -4 -81
-105 -48 -126 6 -3 1 -21 -10 -40 -19 -32 -20 -39 -8 -88 7 -28 12 -56 10 -62
-9 -29 -11 -59 -6 -74 13 -42 32 -43 630 -36 554 7 571 8 592 28 26 23 27 56
5 110 -13 31 -13 43 -4 58 7 10 12 26 12 34 0 8 6 25 13 36 10 18 9 23 -15 43
-30 23 -35 54 -15 87 28 46 10 48 -459 42 l-434 -6 0 41 c0 40 0 40 49 51 171
37 291 135 291 239 0 92 -95 130 -196 79 -59 -30 -91 -63 -138 -141 -20 -34
-37 -53 -40 -45 -22 73 -54 147 -79 182 -52 74 -59 77 -184 77 l-111 0 -23
-37z m190 7 c71 -36 126 -124 154 -247 l14 -63 -48 0 c-89 0 -202 57 -247 124
-49 73 -35 163 31 191 43 19 51 18 96 -5z m513 -87 c64 -58 -71 -190 -224
-218 -46 -9 -47 -2 -12 69 62 124 180 200 236 149z m572 -435 c-3 -18 -7 -38
-9 -45 -3 -9 -102 -13 -402 -14 -219 -2 -435 -3 -480 -3 -82 -1 -105 -8 -86
-27 9 -9 136 -10 908 -5 l90 1 -3 -35 c-1 -19 -10 -43 -20 -53 -16 -18 -16
-20 6 -34 24 -17 28 -43 12 -74 -10 -18 -27 -19 -571 -19 l-561 0 3 38 c1 20
-1 44 -4 52 -15 41 -16 87 -3 105 11 15 13 34 9 73 -3 28 -4 53 -2 54 2 1 175
5 384 8 208 3 459 6 557 8 l178 3 -6 -33z M11500 5162 c0 -19 132 -172 148
-172 16 1 16 2 0 14 -10 7 -15 15 -12 18 3 4 0 9 -7 14 -8 5 -10 3 -4 -6 5 -9
4 -11 -4 -6 -6 4 -9 12 -6 17 4 5 -18 36 -47 69 -50 57 -68 71 -68 52z M12667
4314 c-4 -4 -7 -195 -7 -424 0 -353 2 -419 15 -430 8 -6 19 -9 25 -5 11 7 13
739 2 814 -7 42 -20 59 -35 45z M11952 4175 c-133 -37 -202 -110 -209 -223 -5
-85 16 -124 84 -154 99 -44 534 -34 610 13 125 77 73 289 -85 350 -74 29 -316
37 -400 14z m331 -127 c68 -36 64 -124 -7 -148 -28 -9 -40 -8 -64 4 -66 34
-51 131 23 149 11 3 21 5 23 6 2 0 13 -4 25 -11z m-228 -23 c36 -35 29 -89
-14 -122 -46 -35 -124 8 -124 67 0 69 89 105 138 55z M12233 4003 c-15 -6 -17
-49 -3 -58 20 -12 50 6 50 30 0 18 -21 40 -33 34 -1 0 -8 -3 -14 -6z M11975
3994 c-18 -19 -16 -33 7 -48 18 -11 48 7 48 30 0 24 -37 36 -55 18z M11518
3318 c-3 -52 -3 -53 -40 -59 -46 -7 -70 -26 -66 -53 5 -35 51 -49 135 -41 87
8 89 10 91 128 l2 77 -59 0 -60 0 -3 -52z M12287 3293 c-7 -112 2 -123 98
-123 81 0 119 10 128 34 9 23 -24 57 -63 65 -33 6 -35 9 -38 54 l-3 47 -58 0
-58 0 -6 -77z"/>
  </g>
</g>
</svg>