<?xml version="1.0" encoding="UTF-8"?>
<svg xmlns="http://www.w3.org/2000/svg" viewBox="330 855 225 245" width="225" height="245" role="img"><g id="character-18-root-leaf" data-bbox="330 855 555 1100">
  <g id="character-18-root-leaf__leaf_green" fill="#45b934" fill-rule="evenodd" transform="translate(0,1122) scale(0.1,-0.1)">
    <path d="M4992 2515 c-240 -42 -464 -232 -555 -470 -30 -81 -57 -196 -57 -251
0 -34 -5 -56 -15 -64 -22 -18 -29 -7 -59 92 -89 295 -270 487 -536 569 -87 27
-250 33 -311 11 -51 -18 -91 -105 -97 -216 -18 -304 219 -528 604 -571 128
-14 159 -66 129 -215 -41 -197 -43 -231 -19 -309 20 -67 78 -131 147 -162 46
-21 67 -24 182 -24 127 0 131 1 193 33 156 81 185 220 101 474 -67 198 -57
217 150 304 246 103 419 232 484 360 145 286 -18 495 -341 439z m163 -235 c-3
-5 -40 -29 -82 -55 -201 -120 -382 -281 -487 -432 -32 -46 -62 -83 -66 -83
-56 0 70 194 207 321 144 133 392 291 420 267 7 -5 11 -14 8 -18z m-1459 -146
c194 -122 423 -306 424 -342 1 -33 -33 -21 -91 32 -77 72 -225 183 -356 270
-98 65 -126 96 -85 96 11 0 59 -25 108 -56z m1528 25 c-8 -13 -74 -42 -81 -36
-2 3 8 14 23 26 28 22 70 29 58 10z m-684 -696 c0 -24 -30 -53 -54 -53 -30 0
-66 28 -66 51 0 22 25 26 34 4 8 -21 30 -19 51 5 19 21 35 18 35 -7z m-247
-23 c6 0 19 8 29 17 12 11 22 13 29 6 14 -14 -27 -63 -52 -63 -47 0 -80 40
-57 67 11 13 14 13 26 -6 8 -11 19 -21 25 -21z m129 -110 c-22 -18 -43 -18
-69 3 -20 15 -4 29 27 22 17 -4 31 -2 35 5 5 9 10 9 19 0 8 -9 5 -16 -12 -30z"/>
  </g>
  <g id="character-18-root-leaf__warm_gray" fill="#9b9b9b" fill-rule="evenodd" transform="translate(0,1122) scale(0.1,-0.1)">
    <path d="M5110 2580 c101 -8 161 -26 225 -66 l40 -25 -30 26 c-53 44 -130 68
-235 71 l-95 2 95 -8z M3621 2476 c2 -2 36 -6 74 -9 41 -3 60 -2 45 3 -25 8
-127 13 -119 6z M3906 2402 c132 -64 247 -161 319 -270 32 -49 44 -56 18 -11
-68 117 -273 281 -393 313 -14 4 12 -11 56 -32z M5240 1875 c-13 -14 -47 -41
-77 -62 -58 -40 -71 -54 -22 -26 32 19 138 112 128 113 -3 0 -16 -11 -29 -25z
M3375 1863 c35 -54 88 -114 129 -145 29 -23 24 -15 -20 27 -33 33 -73 79 -89
103 -15 23 -30 42 -32 42 -3 0 3 -12 12 -27z M4718 1585 c-10 -23 7 -124 19
-111 2 2 -1 23 -8 45 -9 31 -9 47 -1 66 6 14 9 25 7 25 -3 0 -10 -11 -17 -25z
M4772 1375 c-1 -5 8 -41 18 -80 10 -38 19 -59 19 -45 0 24 -36 146 -37 125z
M4002 1194 c-2 -69 19 -167 38 -179 5 -3 2 11 -7 32 -9 21 -19 79 -23 128 l-7
90 -1 -71z M4797 1125 c-3 -23 -17 -62 -31 -88 -13 -26 -17 -42 -10 -36 19 15
56 118 52 143 -2 13 -6 6 -11 -19z M4764 952 c16 -17 45 -37 65 -43 20 -6 50
-23 66 -38 l30 -26 -29 32 c-16 18 -42 35 -58 38 -16 4 -46 21 -66 38 l-37 31
29 -32z M4084 953 c18 -22 18 -23 -13 -40 -52 -29 -70 -46 -25 -24 60 29 69
44 41 67 l-22 19 19 -22z M4665 900 c17 -54 53 -126 71 -140 18 -14 18 -14 1
6 -9 11 -29 49 -43 85 -27 67 -42 92 -29 49z M4597 872 c7 -4 24 -33 38 -65
15 -31 30 -59 35 -62 5 -3 -7 26 -26 65 -18 38 -39 70 -46 70 -10 0 -10 -2 -1
-8z M3784 831 c-54 -39 -77 -68 -70 -86 11 -30 36 -28 76 9 22 20 37 36 33 36
-4 0 -22 -14 -39 -31 -33 -32 -64 -34 -64 -5 0 20 78 85 115 95 22 7 24 9 9
10 -12 1 -39 -12 -60 -28z M4550 829 c6 -18 10 -55 10 -82 0 -31 9 -65 25 -97
14 -27 25 -56 25 -65 0 -22 -27 -30 -48 -14 -16 12 -16 12 -1 -5 21 -23 59
-13 59 15 0 11 -11 41 -24 67 -15 31 -25 71 -28 120 -3 40 -10 78 -17 85 -8 8
-8 2 -1 -24z M4384 836 c-3 -7 -4 -33 -1 -57 4 -44 4 -44 5 8 l2 52 53 4 52 3
-53 2 c-37 1 -54 -2 -58 -12z M4862 821 c18 -15 47 -36 65 -45 19 -10 42 -36
60 -68 31 -57 56 -79 73 -62 8 8 4 10 -12 10 -17 -1 -29 12 -53 54 -20 35 -44
62 -68 75 -20 12 -47 31 -60 43 -13 12 -27 22 -30 22 -4 0 7 -13 25 -29z
M4501 739 c0 -30 4 -63 8 -74 5 -11 6 10 3 50 -6 85 -12 98 -11 24z M5069 759
c13 -5 36 -18 51 -29 35 -25 54 -25 71 -2 11 14 11 15 -1 5 -20 -19 -37 -16
-78 12 -20 14 -43 25 -52 24 -8 0 -5 -4 9 -10z M3856 690 c-49 -75 -20 -121
37 -59 l32 34 -31 -28 c-16 -15 -35 -27 -42 -27 -18 0 -14 38 6 68 26 37 34
52 29 52 -2 0 -16 -18 -31 -40z M4749 662 c11 -21 27 -44 35 -51 18 -15 46 -8
46 11 0 10 -3 9 -9 -1 -14 -21 -38 -6 -61 39 -11 22 -23 40 -25 40 -3 0 3 -17
14 -38z M4355 592 c-23 -43 -46 -48 -56 -12 -6 22 -7 23 -8 4 -1 -31 24 -50
45 -33 17 14 48 69 42 74 -2 2 -12 -13 -23 -33z"/>
  </g>
  <g id="character-18-root-leaf__charcoal" fill="#111111" fill-rule="evenodd" transform="translate(0,1122) scale(0.1,-0.1)">
    <path d="M4955 2566 c-278 -64 -514 -288 -590 -561 -9 -33 -19 -67 -21 -75 -3
-9 -21 19 -44 67 -140 298 -404 475 -710 476 -157 0 -205 -25 -256 -136 -39
-84 -41 -266 -6 -362 86 -232 294 -372 615 -415 125 -17 126 -21 93 -184 -42
-202 -31 -308 39 -400 39 -51 38 -53 -55 -102 -48 -26 -61 -28 -97 -21 -26 5
-57 4 -81 -2 -43 -12 -122 -75 -122 -97 0 -28 31 -27 63 3 41 38 82 55 113 47
13 -3 24 -8 24 -10 0 -9 -43 -89 -61 -116 -22 -30 -25 -68 -6 -68 21 0 63 51
91 111 30 65 32 67 102 103 28 15 61 38 74 51 49 52 69 26 41 -51 -12 -30 -21
-71 -21 -91 0 -25 -12 -53 -40 -96 -23 -33 -39 -68 -38 -76 14 -72 135 93 137
186 1 49 30 113 51 113 56 0 82 -12 75 -37 -3 -13 -1 -50 6 -82 10 -53 9 -62
-11 -100 -42 -83 -5 -121 40 -41 22 40 25 57 25 145 l0 100 51 3 51 3 11 -43
c6 -24 13 -69 16 -101 5 -64 41 -140 69 -145 30 -6 31 28 4 84 -18 36 -27 71
-27 102 0 26 -4 61 -9 79 -9 30 -7 32 21 42 17 6 33 11 35 11 2 0 19 -33 38
-73 23 -46 46 -79 66 -92 17 -11 39 -37 50 -58 22 -41 47 -57 59 -37 13 21
-13 74 -63 121 -63 61 -108 164 -80 184 15 11 22 9 54 -20 20 -18 54 -38 75
-45 22 -7 53 -25 70 -39 17 -14 45 -34 62 -43 19 -10 41 -36 57 -68 27 -53 49
-70 67 -52 7 7 3 26 -15 61 l-25 51 27 0 c14 0 43 -11 63 -25 40 -27 63 -31
74 -13 18 29 -99 91 -170 89 -51 -1 -78 11 -126 54 -14 12 -41 28 -61 34 -20
6 -48 25 -63 40 l-28 29 26 54 c59 122 57 178 -16 400 -54 164 -55 161 89 218
274 107 435 219 532 370 136 210 87 456 -106 531 -73 28 -220 35 -308 15z
m282 -66 c158 -69 194 -230 96 -424 -62 -122 -236 -258 -435 -340 -62 -26
-130 -54 -150 -63 -96 -40 -106 -109 -42 -278 111 -297 -10 -497 -301 -498
-129 0 -193 21 -260 86 -90 88 -102 162 -59 378 25 127 25 133 9 175 -21 56
-25 58 -173 83 -199 35 -288 73 -398 174 -161 147 -210 345 -133 535 27 66 56
82 159 89 239 17 506 -124 643 -338 52 -81 137 -290 137 -335 0 -7 5 -16 12
-20 18 -12 38 27 38 75 0 117 69 306 155 427 163 227 505 361 702 274z M5010
2238 c-183 -109 -312 -219 -411 -350 -78 -104 -106 -158 -87 -169 9 -6 18 -2
28 13 134 199 341 388 562 513 29 17 53 35 53 40 0 26 -49 10 -145 -47z M3577
2183 c-14 -14 -5 -23 88 -82 127 -83 275 -194 358 -269 69 -64 81 -70 93 -51
19 32 -317 303 -477 385 -54 27 -53 27 -62 17z M5172 2154 c-37 -26 -25 -36
18 -14 22 11 40 23 40 25 0 11 -37 4 -58 -11z M4427 1473 c-19 -18 21 -63 56
-63 27 0 57 28 57 53 0 21 -29 22 -36 2 -4 -8 -15 -15 -25 -15 -11 0 -22 7
-25 15 -7 16 -17 19 -27 8z M4237 1463 c-19 -18 21 -63 56 -63 27 0 57 28 57
53 0 21 -14 22 -30 2 -7 -8 -19 -15 -27 -15 -7 0 -16 7 -19 15 -6 16 -26 20
-37 8z M4414 1359 c-3 -6 -19 -9 -35 -5 -21 4 -29 2 -29 -8 0 -30 64 -35 80
-7 11 21 -3 40 -16 20z"/>
  </g>
</g>
</svg>