<?xml version="1.0" encoding="UTF-8"?>
<svg xmlns="http://www.w3.org/2000/svg" viewBox="575 845 245 263" width="245" height="263" role="img"><g id="character-19-crossing-knot" data-bbox="575 845 820 1108">
  <g id="character-19-crossing-knot__coral_red" fill="#f24a25" fill-rule="evenodd" transform="translate(0,1122) scale(0.1,-0.1)">
    <path d="M6430 2210 c-78 -10 -241 -82 -319 -139 -371 -275 -337 -825 64
-1052 139 -79 210 -98 387 -106 176 -8 317 27 324 82 2 11 8 39 15 61 11 37
10 46 -8 80 -30 58 -63 72 -190 83 -193 17 -301 57 -389 145 -160 161 -100
396 133 512 54 27 61 35 95 104 39 77 57 164 44 214 -7 29 -38 32 -156 16z
M6903 1813 c-31 -48 -109 -127 -149 -149 -18 -11 -18 -13 -3 -30 55 -63 129
-265 129 -352 0 -41 4 -54 21 -66 12 -8 30 -28 40 -43 17 -25 19 -26 19 -7 0
35 77 112 156 155 41 23 74 42 74 44 0 16 -34 158 -46 194 -28 84 -78 165
-144 235 l-65 68 -32 -49z"/>
  </g>
  <g id="character-19-crossing-knot__lemon_yellow" fill="#ffd11a" fill-rule="evenodd" transform="translate(0,1122) scale(0.1,-0.1)">
    <path d="M7181 2565 c-99 -18 -189 -54 -248 -99 -1 -1 3 -19 9 -39 11 -36 12
-37 52 -31 l41 6 -32 -31 c-29 -27 -31 -33 -22 -63 5 -18 9 -55 9 -83 0 -27 4
-55 8 -61 4 -7 55 -14 122 -17 206 -10 330 -74 402 -210 20 -36 23 -57 23
-147 0 -102 -1 -109 -37 -181 -67 -135 -180 -238 -365 -333 -106 -55 -133 -87
-133 -158 0 -128 191 -156 406 -58 393 178 591 636 454 1048 -81 240 -260 399
-509 452 -52 11 -97 20 -100 19 -3 0 -39 -7 -80 -14z m-1 -145 c-8 -6 -23 -10
-32 -10 -9 0 -25 -3 -35 -6 -14 -6 -15 -4 -6 6 11 12 74 30 83 23 2 -2 -2 -8
-10 -13z m90 -94 c14 -37 42 -49 69 -29 32 22 52 2 26 -27 -34 -37 -113 -13
-130 40 -13 41 20 55 35 16z m190 -64 c0 -11 9 -27 20 -37 11 -10 20 -22 20
-27 0 -14 -32 -9 -52 9 -22 20 -25 73 -3 73 8 0 15 -8 15 -18z m110 -51 c0
-23 -37 -38 -53 -22 -8 8 -6 15 9 26 27 20 44 19 44 -4z"/>
  </g>
  <g id="character-19-crossing-knot__cobalt_blue" fill="#124fd2" fill-rule="evenodd" transform="translate(0,1122) scale(0.1,-0.1)">
    <path d="M6561 2629 c19 -12 112 -12 104 0 -3 5 -31 10 -62 10 -38 0 -52 -3
-42 -10z M6498 2618 c-16 -5 -28 -14 -28 -19 0 -14 27 -10 44 7 9 8 21 12 27
8 8 -4 9 -3 5 4 -8 14 -12 14 -48 0z M6535 2588 c-22 -6 -42 -14 -45 -18 -3
-4 -15 -10 -27 -14 -11 -4 -45 -30 -75 -59 -78 -76 -127 -189 -128 -295 l0
-42 38 16 c20 9 61 24 90 33 29 9 54 23 57 32 10 31 62 70 93 71 115 3 135
-210 38 -387 -86 -157 6 -273 160 -201 223 104 279 610 87 787 -85 78 -183
104 -288 77z M6516 2265 c-25 -25 -19 -35 19 -35 39 0 44 9 16 34 -17 16 -20
16 -35 1z"/>
  </g>
  <g id="character-19-crossing-knot__warm_gray" fill="#9b9b9b" fill-rule="evenodd" transform="translate(0,1122) scale(0.1,-0.1)">
    <path d="M6680 2630 c12 -8 10 -10 -10 -10 -19 0 -21 -3 -11 -9 9 -6 23 -5 37
1 29 14 85 -7 77 -28 -3 -8 0 -14 7 -14 6 0 8 5 5 10 -3 6 -2 10 3 10 14 0 33
-26 25 -33 -3 -4 0 -14 8 -24 12 -15 12 -16 -1 -8 -12 7 -13 6 -2 -6 7 -8 16
-14 20 -15 20 -2 41 -17 36 -25 -3 -5 -2 -9 3 -10 4 0 16 -2 25 -4 16 -3 16
-1 4 23 -23 44 -87 99 -146 126 -55 26 -112 37 -80 16z M6422 2584 c-142 -95
-234 -267 -219 -409 l4 -40 1 47 c1 26 7 71 13 100 13 60 80 200 86 181 3 -7
10 -13 16 -13 8 0 8 3 -1 12 -14 14 0 43 29 59 19 10 20 9 9 -11 -10 -19 -10
-20 7 -12 10 6 27 20 37 31 11 12 27 21 36 21 9 0 25 7 36 15 16 13 17 16 4
25 -13 9 -13 11 0 20 8 5 10 10 5 10 -6 0 -34 -16 -63 -36z M7038 2093 c29 -2
74 -2 100 0 26 2 2 3 -53 3 -55 0 -76 -1 -47 -3z M7487 1815 c6 -104 11 -119
12 -30 0 39 -4 79 -8 90 -5 11 -6 -16 -4 -60z M6454 1825 c-16 -13 -16 -14 -2
-9 12 4 20 0 24 -12 3 -11 10 -28 15 -39 7 -17 8 -16 3 6 -3 14 -6 33 -8 42
-3 25 -11 28 -32 12z M6512 1720 c34 -57 121 -92 181 -72 30 10 30 10 -11 5
-55 -7 -123 19 -158 60 -19 22 -22 24 -12 7z M7481 1699 c-1 -9 -16 -46 -34
-83 -18 -36 -28 -61 -21 -56 17 15 66 129 61 143 -3 7 -6 6 -6 -4z M6296 1666
c-9 -19 -18 -56 -21 -83 -5 -44 -4 -42 10 15 8 35 19 70 26 78 7 8 10 17 7 20
-3 2 -13 -11 -22 -30z M7345 1482 c-33 -32 -73 -68 -90 -80 -21 -17 -23 -20
-7 -12 23 11 172 149 162 149 -3 1 -32 -25 -65 -57z M6308 1444 c16 -30 85
-90 131 -114 62 -31 63 -23 1 10 -30 17 -75 51 -99 77 -24 27 -39 39 -33 27z
M6701 1266 c2 -2 33 -6 69 -9 38 -3 57 -1 45 3 -19 8 -123 14 -114 6z M7134
745 c1 -17 8 -20 56 -21 l55 0 -52 3 c-38 3 -53 8 -56 21 -3 12 -4 11 -3 -3z
M6481 734 c-1 -32 -15 -44 -51 -44 -10 0 -21 -4 -24 -9 -7 -11 63 4 76 17 5 5
8 22 5 38 l-4 29 -2 -31z M6365 646 c-13 -19 -14 -29 -5 -45 17 -33 44 -41
127 -39 l78 2 -70 3 c-93 4 -112 9 -125 34 -9 16 -8 26 5 45 8 13 13 24 10 24
-2 0 -12 -11 -20 -24z M7269 619 c-14 -11 -47 -24 -75 -28 -39 -7 -43 -9 -16
-10 38 -1 91 19 111 42 18 22 12 21 -20 -4z"/>
  </g>
  <g id="character-19-crossing-knot__charcoal" fill="#111111" fill-rule="evenodd" transform="translate(0,1122) scale(0.1,-0.1)">
    <path d="M6691 2611 c-11 -7 -2 -16 40 -35 30 -14 65 -33 79 -43 21 -15 23
-15 12 -1 -7 9 -11 22 -10 29 3 13 -67 59 -92 59 -8 0 -21 -4 -29 -9z M6404
2529 c-10 -11 -27 -25 -37 -31 -16 -8 -17 -7 -8 11 18 32 -13 16 -42 -22 -61
-81 -107 -207 -107 -296 0 -45 7 -54 30 -41 13 7 18 27 22 83 6 95 48 187 119
262 29 30 50 55 47 55 -3 0 -13 -9 -24 -21z M6857 2483 c10 -15 32 -56 48 -91
16 -36 32 -57 36 -51 4 7 12 8 20 4 9 -6 10 -3 5 11 -5 10 -13 33 -18 49 -11
31 -36 65 -47 63 -18 -2 -32 3 -27 10 2 4 -5 14 -16 21 -21 13 -21 13 -1 -16z
M7240 2320 c0 -21 47 -70 67 -70 23 0 63 23 63 37 0 15 -16 17 -25 3 -17 -28
-75 -3 -75 32 0 10 -7 18 -15 18 -8 0 -15 -9 -15 -20z M6492 2295 c-12 -9 -29
-29 -37 -46 -15 -28 -15 -29 7 -29 15 0 29 11 40 30 21 37 45 38 61 3 6 -16
15 -31 19 -34 5 -3 9 -38 9 -77 1 -65 -3 -81 -39 -157 -39 -81 -43 -85 -103
-115 -225 -114 -287 -353 -131 -505 83 -80 184 -118 371 -140 72 -8 142 -20
156 -27 53 -24 83 -116 54 -169 -10 -19 67 -372 92 -421 20 -38 223 -31 278
10 62 46 31 95 -65 102 l-68 5 -22 130 c-12 71 -20 135 -17 141 2 6 -10 17
-28 24 -59 25 -85 100 -55 158 22 42 54 66 146 112 47 24 118 67 158 97 251
190 304 486 116 652 -77 67 -234 115 -364 109 l-75 -3 -7 79 c-8 87 -9 89 -30
81 -13 -5 -16 -28 -16 -128 0 -267 -126 -476 -289 -477 -99 0 -152 113 -93
200 106 157 100 399 -10 408 -20 1 -45 -4 -58 -13z m795 -226 c148 -54 208
-136 208 -284 0 -81 -3 -97 -33 -159 -47 -100 -165 -214 -292 -281 -129 -69
-167 -98 -192 -150 -26 -53 -28 -54 -50 -16 -27 48 -85 70 -221 86 -182 21
-270 52 -348 122 -132 120 -108 299 57 414 52 36 66 39 70 15 13 -80 42 -122
102 -148 158 -70 340 102 393 372 l12 63 116 -6 c86 -4 132 -11 178 -28z
M7435 2270 c-9 -15 13 -67 31 -74 20 -8 26 10 9 24 -8 7 -15 21 -15 31 0 22
-16 34 -25 19z M7538 2219 c-10 -6 -18 -14 -18 -19 0 -14 37 -12 46 1 10 17
-9 29 -28 18z M6484 805 c6 -117 8 -114 -66 -129 -62 -14 -70 -88 -11 -102 29
-8 199 1 226 11 32 13 40 47 45 185 l5 135 -103 2 -102 3 6 -105z"/>
  </g>
</g>
</svg>