<?xml version="1.0" encoding="UTF-8"?>
<svg xmlns="http://www.w3.org/2000/svg" viewBox="1110 835 258 273" width="258" height="273" role="img"><g id="character-21-night-house" data-bbox="1110 835 1368 1108">
  <g id="character-21-night-house__cobalt_blue" fill="#124fd2" fill-rule="evenodd" transform="translate(0,1122) scale(0.1,-0.1)">
    <path d="M11625 1791 c-71 -10 -164 -27 -205 -37 -41 -10 -78 -17 -81 -17 -10
3 -114 -216 -175 -367 l-59 -145 -3 -139 c-4 -171 -1 -192 42 -242 76 -89 222
-132 465 -138 96 -3 146 -8 151 -16 4 -6 24 -10 46 -8 l39 3 6 145 c7 168 22
220 78 278 90 92 246 76 320 -33 34 -51 51 -134 51 -258 0 -60 5 -117 10 -128
11 -20 54 -26 65 -9 8 13 132 13 137 0 5 -16 281 6 366 30 176 49 240 143 229
338 -6 115 -32 188 -125 356 -65 117 -55 108 -218 195 -311 167 -771 244
-1139 192z m353 -297 c60 -67 -13 -173 -95 -139 -70 30 -73 123 -5 160 34 19
71 11 100 -21z m273 -3 c34 -35 37 -68 8 -105 -45 -57 -114 -52 -143 9 -43 90
64 166 135 96z m487 -419 c3 -44 -10 -56 -28 -23 -17 33 -13 73 8 69 12 -2 18
-15 20 -46z m-1211 -14 c-3 -18 -11 -46 -18 -63 l-13 -30 -4 42 c-3 44 11 83
30 83 6 0 9 -12 5 -32z m113 -139 c0 -26 -4 -39 -14 -39 -18 0 -27 36 -15 67
13 34 29 19 29 -28z m1000 32 c28 -53 2 -147 -32 -113 -18 18 -23 113 -7 123
21 13 27 11 39 -10z m209 -27 c11 -41 0 -74 -24 -74 -17 0 -38 70 -29 94 12
30 42 18 53 -20z m-371 -48 c-4 -41 -33 -48 -41 -9 -3 15 -1 36 5 46 14 28 40
2 36 -37z"/>
  </g>
  <g id="character-21-night-house__warm_gray" fill="#9b9b9b" fill-rule="evenodd" transform="translate(0,1122) scale(0.1,-0.1)">
    <path d="M12155 2756 c-16 -7 -71 -40 -121 -72 -130 -84 -132 -86 -96 -69 18
9 73 42 122 75 105 68 137 78 182 55 28 -13 31 -13 18 -1 -22 22 -70 28 -105
12z M12060 2540 c-9 -16 -8 -25 1 -36 27 -33 75 -2 52 35 -15 24 -40 25 -53 1z
m48 -18 c3 -16 -2 -22 -17 -22 -24 0 -33 13 -25 35 9 23 38 14 42 -13z M11621
2413 l-77 -78 75 70 c42 38 80 73 86 77 5 4 6 8 2 8 -4 0 -43 -35 -86 -77z
M12155 2361 c-34 -20 -85 -77 -85 -93 0 -6 10 4 23 23 30 44 83 79 120 79 l30
0 -20 -22 c-27 -30 -43 -62 -43 -85 1 -10 7 -1 15 20 7 22 23 49 34 61 12 12
21 25 21 29 0 14 -66 6 -95 -12z M11842 2278 c-26 -26 -2 -75 31 -62 22 8 31
42 17 59 -15 18 -32 19 -48 3z m45 -14 c7 -19 -20 -49 -36 -40 -12 8 -15 39
-4 49 12 12 33 7 40 -9z M12062 2205 c-3 -74 60 -155 118 -155 8 0 -4 9 -27
19 -53 25 -76 61 -84 131 l-6 55 -1 -50z M12180 2217 c0 -11 16 -35 35 -54 33
-33 38 -35 83 -29 70 8 72 9 66 18 -3 4 -14 4 -24 -2 -52 -28 -121 -2 -146 54
-9 20 -13 25 -14 13z M12350 2110 c-13 -25 -59 -49 -113 -60 -36 -7 -38 -8
-12 -9 38 -1 114 37 133 67 8 12 12 22 9 22 -4 0 -11 -9 -17 -20z M11822 1998
c-25 -25 -6 -68 29 -68 10 0 20 4 23 8 2 4 -8 8 -22 7 -22 0 -27 4 -27 25 0
35 41 41 54 8 6 -14 10 -17 10 -7 1 19 -18 39 -39 39 -9 0 -21 -5 -28 -12z
M12330 1925 c-15 -18 -4 -46 21 -53 8 -2 5 2 -5 10 -12 10 -17 21 -13 32 10
25 42 15 41 -12 0 -16 2 -20 10 -12 7 7 7 16 0 28 -15 23 -38 26 -54 7z
M11897 1472 c-23 -25 -21 -59 4 -72 11 -7 23 -9 26 -7 2 3 -5 8 -16 12 -28 9
-27 49 1 69 12 9 18 16 12 16 -6 0 -18 -8 -27 -18z M11948 775 c-1 -36 0 -65
5 -65 4 0 7 29 7 65 0 84 -7 84 -12 0z M11857 673 c18 -2 50 -2 70 0 21 2 7 4
-32 4 -38 0 -55 -2 -38 -4z M12090 669 c-103 -6 -98 -6 42 -3 200 4 226 0 231
-35 4 -24 4 -23 6 5 1 30 -1 32 -45 38 -26 3 -63 5 -83 4 -20 -1 -88 -5 -151
-9z M11545 499 c11 -4 54 -8 95 -8 95 1 80 6 -30 12 -47 2 -76 0 -65 -4z
M12458 493 c23 -2 59 -2 80 0 20 2 1 4 -43 4 -44 0 -61 -2 -37 -4z"/>
  </g>
  <g id="character-21-night-house__charcoal" fill="#111111" fill-rule="evenodd" transform="translate(0,1122) scale(0.1,-0.1)">
    <path d="M12153 2745 c-17 -7 -65 -35 -105 -62 -40 -27 -113 -71 -163 -98
-270 -145 -382 -268 -465 -509 -44 -125 -91 -319 -81 -329 5 -5 47 0 97 13
440 108 977 38 1365 -179 57 -32 108 -56 112 -54 24 14 -82 334 -156 473 -40
74 -88 137 -187 244 -75 81 -90 104 -161 252 -87 183 -115 225 -164 248 -40
19 -50 19 -92 1z m-40 -206 c23 -37 -25 -68 -52 -35 -9 11 -10 20 -1 36 13 24
38 23 53 -1z m137 -165 c0 -3 -11 -19 -25 -35 -52 -63 -49 -144 6 -183 27 -18
81 -21 110 -6 15 9 21 7 25 -5 18 -46 -86 -112 -160 -101 -169 26 -201 224
-51 317 28 18 95 27 95 13z m-360 -99 c14 -17 5 -51 -17 -59 -33 -13 -57 36
-31 62 16 16 33 15 48 -3z m-226 -121 c45 -44 -12 -123 -63 -88 -24 17 -29 72
-9 92 17 17 54 15 72 -4z m216 -159 c17 -21 -2 -65 -28 -65 -22 0 -42 19 -42
40 0 37 47 53 70 25z m504 -78 c9 -15 7 -21 -9 -33 -33 -25 -71 9 -45 41 16
19 39 16 54 -8z m256 -7 c16 -31 -4 -62 -38 -58 -21 2 -28 9 -30 32 -5 45 47
65 68 26z M11902 1468 c-33 -33 8 -87 43 -58 26 22 12 70 -20 70 -6 0 -16 -5
-23 -12z M12181 1466 c-21 -25 -10 -61 18 -61 31 0 50 28 35 53 -15 23 -38 26
-53 8z M12705 1110 c-4 -6 -4 -24 0 -40 8 -36 35 -40 35 -6 0 46 -19 71 -35
46z M11502 1068 c-7 -7 -12 -32 -11 -57 l1 -46 13 31 c31 69 29 104 -3 72z
M12015 987 c-32 -27 -55 -113 -55 -208 l0 -67 -55 5 c-50 4 -55 3 -55 -15 0
-18 9 -21 115 -27 154 -10 346 2 338 20 -3 9 -24 15 -55 17 l-50 3 -3 80 c-3
102 -20 161 -52 191 -34 32 -92 32 -128 1z M11610 921 c0 -30 4 -41 16 -41 11
0 14 9 12 37 -4 52 -28 56 -28 4z M12597 953 c-16 -15 3 -123 22 -123 28 0 42
71 21 111 -11 19 -31 25 -43 12z M12807 953 c-22 -21 2 -106 27 -97 23 9 27
33 11 70 -14 33 -25 41 -38 27z M12440 880 c0 -34 3 -41 18 -38 12 2 17 13 17
38 0 25 -5 36 -17 38 -15 3 -18 -4 -18 -38z M11619 708 c0 -2 -2 -21 -5 -43
-7 -59 -9 -62 -53 -69 -71 -11 -78 -76 -10 -90 56 -11 166 -7 177 7 12 14 32
176 23 181 -9 5 -131 18 -132 14z M12374 678 c-9 -14 6 -151 18 -165 18 -22
181 -17 201 5 10 10 17 23 17 29 0 18 -36 43 -61 43 -40 0 -52 14 -47 54 3 26
0 37 -12 40 -30 8 -110 4 -116 -6z"/>
  </g>
</g>
</svg>