<svg preserveAspectRatio="none" width="100%" height="100%" overflow="visible" style="display: block;" viewBox="0 0 97.2349 78.529" fill="none" xmlns="http://www.w3.org/2000/svg">
<g id="character-14-river-stone__sky_cyan">
<path id="Vector" fill-rule="evenodd" clip-rule="evenodd" d="M44.9987 77.7378C31.6175 75.1112 21.8542 69.2631 13.1812 58.8059C0.593012 43.591 -3.02486 29.6152 2.52585 17.473C3.86397 14.5985 7.08536 10.6337 8.07656 10.6337C8.42348 10.6337 9.31556 9.93986 10.1581 9.09734C12.5865 6.52023 19.2771 3.59619 23.9357 3.00147C25.2739 2.85279 26.612 2.50587 26.9093 2.25807C28.9413 0.622597 57.8843 -0.665961 69.5309 0.374797C73.0496 0.672156 78.2534 1.81203 78.0056 2.15895C77.9561 2.30763 78.4517 2.45631 79.1951 2.50587C81.6235 2.60499 87.2733 5.77683 90.4452 8.8991C93.8152 12.1701 95.6985 15.441 96.541 19.5049C97.2349 22.6768 97.0366 22.9741 92.4771 25.9973C83.7546 31.8453 72.8018 31.2506 63.7324 24.4609C59.6189 21.3882 54.9603 13.8055 54.9603 10.2372C54.9603 9.09734 54.0186 8.1557 52.9283 8.1557C48.7653 8.1557 52.6309 19.158 59.0737 25.6504C69.0848 35.711 86.183 37.5447 95.5994 29.6152L97.2349 28.2275L96.8879 33.0843C95.1533 58.3103 88.1158 70.6508 72.3558 76.1519C65.6652 78.4812 52.4823 79.2742 44.9987 77.7378ZM32.8565 66.0417C33.5504 64.9018 32.8565 63.7124 30.775 62.5229C28.9909 61.4822 27.4545 61.73 26.6615 63.2168C25.3234 65.7443 31.3202 68.4701 32.8565 66.0417ZM68.5397 65.6452C75.4781 62.969 79.4924 56.0306 77.7578 49.786C76.0728 43.591 68.7379 38.3873 61.0561 37.7925C60.164 37.743 59.4206 37.5447 59.4206 37.3961C59.4206 37.1978 57.686 35.8597 55.6045 34.4225C47.1793 28.5744 41.7773 20.843 39.7949 11.9223C38.7046 7.11495 38.3081 6.17331 37.1682 6.17331C35.4336 6.17331 34.9876 7.41231 35.3345 10.9311C36.2266 19.5545 42.9667 30.1603 51.5902 36.4049L53.4735 37.743L50.599 38.3377C47.328 38.982 42.9172 41.3609 41.7773 43.0459C41.0339 44.2353 40.9844 44.2353 38.4568 43.4919C26.2651 39.9236 14.668 26.8398 12.983 14.8463C12.6856 12.517 11.7936 11.1293 10.6537 11.1293C7.48184 11.1293 8.86952 20.0996 13.1317 27.9301C18.2363 37.1978 27.5041 44.7309 37.0196 47.2585C39.0515 47.8532 39.1011 47.9028 39.1011 49.9843C39.1011 57.0713 43.9579 63.1177 51.9371 65.9921C56.2984 67.5285 64.0297 67.3798 68.5397 65.6452ZM32.3609 56.2784C34.1451 54.296 31.221 51.5206 27.7023 51.8676C26.2651 51.9667 25.9181 52.2145 25.819 53.3048C25.6208 55.1881 27.4545 56.5262 31.221 57.1705C31.3697 57.22 31.9149 56.774 32.3609 56.2784ZM87.5707 50.133C89.454 47.9028 87.7689 44.0371 85.2414 44.6814C83.0112 45.2761 82.4164 49.1418 84.3493 50.3808C85.2909 50.9755 86.976 50.8268 87.5707 50.133ZM18.2859 47.2585C18.7815 46.416 18.5833 45.9204 17.146 44.1858C12.3883 38.4864 12.537 38.5855 11.6449 39.3289C10.4554 40.3201 10.6537 41.9556 12.2892 44.1858C15.0149 47.9523 17.2947 49.1418 18.2859 47.2585ZM39.5967 36.1571C40.4392 35.1659 39.8445 33.7286 37.763 31.9445C36.0779 30.4577 35.9788 30.4081 35.0372 31.2506C33.6495 32.5392 34.046 34.4225 36.0779 35.7606C38.0603 37.0987 38.7542 37.1483 39.5967 36.1571ZM30.8741 24.3618C31.2706 23.7671 31.0228 22.8254 29.8334 20.4466C28.1979 17.1756 27.5041 15.0941 26.9589 12.0214C26.612 9.69206 24.9269 8.55218 23.8862 9.93986C22.2507 12.1701 24.6296 20.6448 27.9005 24.1636C29.2882 25.6504 30.0316 25.6999 30.8741 24.3618ZM21.6064 20.6944C20.9126 18.8606 20.1196 16.5809 19.9214 15.6393C19.4258 13.756 18.5833 13.1117 18.1372 14.3507C17.4434 16.0853 21.6064 25.353 22.5976 24.3122C22.7463 24.1636 22.3003 22.5776 21.6064 20.6944ZM79.2446 21.2891C79.988 20.397 79.5915 19.1084 78.4021 18.7615C73.8426 17.3243 71.4141 15.1932 69.9273 11.3771C68.8866 8.70086 67.945 7.80879 66.6564 8.30438C65.6652 8.70086 65.6156 11.5258 66.5573 13.8551C68.7875 19.2076 76.9649 24.0149 79.2446 21.2891ZM89.6522 19.0589C90.8416 17.8694 90.8416 17.5721 89.9496 15.3915C89.107 13.3099 87.4716 12.6657 86.1334 13.9047C84.8449 15.0445 84.944 17.473 86.2821 18.9102C87.5707 20.2979 88.3636 20.3474 89.6522 19.0589Z" fill="var(--fill-0, #39BDD0)"/>
</g>
</svg>
