<svg preserveAspectRatio="none" width="100%" height="100%" overflow="visible" style="display: block;" viewBox="0 0 62.2322 77.9691" fill="none" xmlns="http://www.w3.org/2000/svg">
<g id="character-14-river-stone__charcoal">
<path id="Vector" fill-rule="evenodd" clip-rule="evenodd" d="M38.9946 77.6639C23.0859 74.4425 18.0803 56.9479 31.3128 50.7529C34.4351 49.3157 34.782 49.2661 41.4726 49.2661C50.9385 49.2165 55.5972 51.1494 59.8593 56.7496C65.2613 63.8367 60.9992 74.1452 51.5332 76.9701C48.2127 77.9613 42.0673 78.2587 38.9946 77.6639ZM40.0353 67.7024C41.4726 66.4138 41.8195 64.4314 40.9274 62.7464C39.2919 59.6241 36.1201 58.9798 33.7412 61.3092C29.5782 65.4722 35.7732 71.7663 40.0353 67.7024ZM52.3758 68.6936C55.1511 67.4546 55.6963 63.5394 53.4165 61.4083C49.6004 57.84 44.2975 62.1517 46.8746 66.7608C48.0641 68.9414 50.1951 69.6848 52.3758 68.6936ZM35.575 66.0174C34.5342 65.0262 34.5838 63.4898 35.575 62.9446C37.6565 61.7552 39.5893 64.0845 37.9538 65.8687C36.9131 67.0086 36.5662 67.0581 35.575 66.0174ZM49.1544 66.1165C48.0641 64.7288 48.7579 63.0933 50.3934 63.0933C51.5828 63.0933 51.9297 63.3411 52.0288 64.2332C52.2271 65.4722 51.3846 66.8103 50.3934 66.8103C50.0465 66.8103 49.5013 66.4634 49.1544 66.1165ZM6.87976 13.9299C6.68152 13.7812 6.48328 12.5918 6.48328 11.3528C6.3346 6.84281 6.03724 6.24809 3.36101 5.60381C0.23873 4.81085 -0.950708 2.87802 0.833449 1.39122C2.86541 -0.293819 9.3082 0.49914 9.75424 2.5311C10.002 3.72053 10.9932 11.6501 10.9932 12.6413C10.9932 13.1369 10.5968 13.3847 7.97008 14.0786C7.5736 14.1777 7.078 14.1281 6.87976 13.9299ZM52.7722 11.4519L51.1368 11.2536V6.84281C51.1368 1.34166 51.6819 0.44958 55.5972 0.10266C59.5124 -0.293819 61.1479 0.44958 60.9496 2.48154C60.801 4.16657 60.4045 4.41437 56.9848 5.10821C55.6467 5.35601 55.5972 5.50469 55.5972 8.57741C55.5972 10.8572 55.3989 11.7988 55.0024 11.6997C54.6555 11.6997 53.6148 11.551 52.7722 11.4519Z" fill="var(--fill-0, #111111)"/>
</g>
</svg>
