<svg preserveAspectRatio="none" width="100%" height="100%" overflow="visible" style="display: block;" viewBox="0 0 92.7031 94.1125" fill="none" xmlns="http://www.w3.org/2000/svg">
<g id="character-18-root-leaf__warm_gray">
<path id="Vector" fill-rule="evenodd" clip-rule="evenodd" d="M80.4979 93.744C85.1497 93.3755 87.9131 92.5465 90.8608 90.7042L92.7031 89.5528L91.3213 90.7503C88.8803 92.7768 85.3339 93.8822 80.4979 94.0203L76.1225 94.1125L80.4979 93.744ZM11.9187 88.954C12.0108 88.8619 13.5768 88.6777 15.3269 88.5395C17.2153 88.4014 18.0904 88.4474 17.3995 88.6777C16.2481 89.0462 11.5502 89.2764 11.9187 88.954ZM25.045 85.5458C31.1246 82.5981 36.4211 78.1306 39.7373 73.1104C41.2111 70.8536 41.7638 70.5312 40.5663 72.6037C37.4344 77.9924 27.9927 85.5458 22.4658 87.0196C21.821 87.2039 23.0185 86.513 25.045 85.5458ZM86.4853 61.2737C85.8866 60.6289 84.3206 59.3853 82.9389 58.4181C80.2676 56.5758 79.6689 55.931 81.9257 57.2206C83.3995 58.0957 88.2816 62.379 87.821 62.4251C87.6828 62.4251 87.0841 61.9185 86.4853 61.2737ZM0.588629 60.721C2.20063 58.2339 4.64166 55.4704 6.53001 54.0427C7.86567 52.9834 7.63538 53.3518 5.60887 55.2862C4.08898 56.8061 2.24669 58.9247 1.50977 60.0301C0.818915 61.0894 0.128057 61.9645 0.0359425 61.9645C-0.102229 61.9645 0.174114 61.4118 0.588629 60.721ZM62.4435 47.9171C61.9829 46.8577 62.7659 42.206 63.3186 42.8047C63.4107 42.8968 63.2725 43.864 62.9501 44.8773C62.5356 46.3051 62.5356 47.042 62.904 47.9171C63.1804 48.5619 63.3186 49.0685 63.2264 49.0685C63.0883 49.0685 62.7659 48.5619 62.4435 47.9171ZM64.9306 38.2451C64.8845 38.0148 65.299 36.3567 65.7596 34.5605C66.2202 32.8103 66.6347 31.8431 66.6347 32.4879C66.6347 33.5933 64.9766 39.2123 64.9306 38.2451ZM29.4665 29.9087C29.3744 26.7307 30.3416 22.2171 31.2167 21.6645C31.447 21.5263 31.3088 22.1711 30.8943 23.1383C30.4798 24.1055 30.0192 26.7768 29.835 29.0336L29.5126 33.1788L29.4665 29.9087ZM66.082 26.7307C65.9438 25.6714 65.299 23.8752 64.6542 22.6777C64.0555 21.4802 63.8712 20.7433 64.1936 21.0197C65.0687 21.7105 66.7729 26.4544 66.5886 27.6058C66.4965 28.2046 66.3123 27.8822 66.082 26.7307ZM64.5621 18.7628C65.299 17.9799 66.6347 17.0587 67.5558 16.7824C68.477 16.506 69.8587 15.7231 70.5956 15.0322L71.9773 13.8347L70.6417 15.3086C69.9047 16.1376 68.7073 16.9206 67.9703 17.0587C67.2334 17.243 65.8517 18.0259 64.9306 18.8089L63.2264 20.2367L64.5621 18.7628ZM33.2432 18.8089C34.0722 17.7956 34.0722 17.7496 32.6445 16.9666C30.2495 15.631 29.4204 14.848 31.493 15.8612C34.2565 17.1969 34.671 17.8878 33.3814 18.9471L32.3681 19.8222L33.2432 18.8089ZM60.0024 16.3679C60.7854 13.8808 62.4435 10.5647 63.2725 9.91986C64.1015 9.27506 64.1015 9.27506 63.3186 10.1962C62.904 10.7028 61.9829 12.453 61.3381 14.1111C60.0946 17.1969 59.4037 18.3483 60.0024 16.3679ZM56.8705 15.0783C57.1929 14.894 57.9759 13.5584 58.6207 12.0846C59.3116 10.6568 60.0024 9.36718 60.2327 9.229C60.463 9.09083 59.9103 10.4265 59.0352 12.2227C58.2062 13.9729 57.239 15.4467 56.9166 15.4467C56.456 15.4467 56.456 15.3546 56.8705 15.0783ZM19.426 13.1899C16.9389 11.3937 15.8796 10.058 16.202 9.229C16.7087 7.84729 17.8601 7.9394 19.7024 9.64352C20.7156 10.5647 21.4065 11.3016 21.2223 11.3016C21.038 11.3016 20.209 10.6568 19.426 9.8738C17.9061 8.39997 16.4784 8.30786 16.4784 9.64352C16.4784 10.5647 20.0708 13.5584 21.7749 14.019C22.7882 14.3414 22.8803 14.4335 22.1895 14.4795C21.6368 14.5256 20.3932 13.9268 19.426 13.1899ZM54.7059 13.0978C54.9822 12.2688 55.1664 10.5647 55.1664 9.32112C55.1664 7.89334 55.5809 6.3274 56.3179 4.85357C56.9627 3.61002 57.4693 2.27436 57.4693 1.85985C57.4693 0.84659 56.2257 0.478132 55.2585 1.21505C54.5216 1.76773 54.5216 1.76773 55.2125 0.984762C56.1797 -0.0745545 57.9299 0.386018 57.9299 1.67562C57.9299 2.18225 57.4232 3.56397 56.8245 4.76145C56.1336 6.18923 55.6731 8.03152 55.5349 10.2883C55.3967 12.1306 55.0743 13.8808 54.7519 14.2032C54.3835 14.5716 54.3835 14.2953 54.7059 13.0978ZM47.0604 13.4202C46.9222 13.0978 46.8761 11.9003 47.0143 10.7949C47.1985 8.76843 47.1985 8.76843 47.2446 11.1634L47.3367 13.5584L49.7777 13.7426L52.1727 13.8808L49.7317 13.9729C48.0276 14.019 47.2446 13.8808 47.0604 13.4202ZM69.0757 12.7294C69.9047 12.0385 71.2404 11.0713 72.0694 10.6568C72.9445 10.1962 74.0038 8.99872 74.8329 7.52489C76.2606 4.89963 77.4121 3.88637 78.195 4.66934C78.5635 5.0378 78.3793 5.12991 77.6424 5.12991C76.8594 5.08385 76.3067 5.6826 75.2013 7.617C74.2802 9.229 73.1748 10.4725 72.0694 11.0713C71.1483 11.624 69.9047 12.4991 69.306 13.0518C68.7073 13.6044 68.0625 14.065 67.9243 14.065C67.7401 14.065 68.2467 13.4663 69.0757 12.7294ZM52.4491 8.95266C52.4491 7.57094 52.6333 6.05106 52.8175 5.54443C53.0478 5.0378 53.0939 6.005 52.9557 7.84729C52.6793 11.7622 52.403 12.3609 52.4491 8.95266ZM78.6096 9.8738C79.2083 9.64352 80.2676 9.04477 80.9585 8.53815C82.5705 7.38671 83.4456 7.38671 84.2285 8.44603C84.7352 9.09083 84.7352 9.13689 84.1825 8.67632C83.2613 7.80123 82.4784 7.9394 80.59 9.229C79.6689 9.8738 78.6096 10.3804 78.195 10.3344C77.8266 10.3344 77.9648 10.1501 78.6096 9.8738ZM22.7422 6.69586C20.4853 3.24157 21.821 1.12293 24.4463 3.97848L25.9201 5.54443L24.4923 4.25482C23.7554 3.56397 22.8803 3.01128 22.5579 3.01128C21.7289 3.01128 21.9131 4.76145 22.8343 6.14317C24.0318 7.84729 24.4002 8.53815 24.1699 8.53815C24.0778 8.53815 23.433 7.70912 22.7422 6.69586ZM63.8712 5.40625C64.3779 4.43905 65.1148 3.37974 65.4832 3.05734C66.3123 2.36648 67.6019 2.68888 67.6019 3.56397C67.6019 4.02454 67.4637 3.97848 67.1874 3.51791C66.5426 2.55071 65.4372 3.24157 64.3779 5.31414C63.8712 6.3274 63.3186 7.15643 63.2264 7.15643C63.0883 7.15643 63.3646 6.37346 63.8712 5.40625ZM45.7247 2.18225C44.6654 0.201789 43.6061 -0.0284973 43.1455 1.62956C42.8692 2.64282 42.8231 2.68888 42.777 1.81379C42.731 0.386018 43.8824 -0.489069 44.8496 0.293903C45.6326 0.938704 47.0604 3.47185 46.784 3.70214C46.6919 3.79425 46.2313 3.10339 45.7247 2.18225Z" fill="var(--fill-0, #9B9B9B)"/>
</g>
</svg>
