<svg preserveAspectRatio="none" width="100%" height="100%" overflow="visible" style="display: block;" viewBox="0 0 76.5167 85.78" fill="none" xmlns="http://www.w3.org/2000/svg">
<g id="character-02-seed-cap__warm_gray">
<path id="Vector" fill-rule="evenodd" clip-rule="evenodd" d="M51.5207 84.5039C53.6901 81.9942 53.4349 79.7823 50.5849 76.3793L48.8409 74.295L50.7976 76.3368C53.9454 79.6972 54.2431 82.4196 51.6484 84.7166L50.4148 85.78L51.5207 84.5039ZM16.1724 78.4211C16.1724 77.4428 17.3209 75.6137 18.8097 74.295L20.2134 73.0189L18.8522 74.5077C18.0866 75.3159 17.1933 76.6771 16.853 77.4853C16.5127 78.2935 16.2149 78.7189 16.1724 78.4211ZM24.5097 71.1047C25.0201 70.892 26.8492 70.6368 28.5507 70.5092C31.4432 70.2965 31.4858 70.3391 29.3589 70.6793C24.5522 71.445 23.5738 71.5301 24.5097 71.1047ZM36.7604 70.9346C36.6327 70.6368 36.6327 69.2331 36.7178 67.8719L36.8454 65.3622L36.9305 68.2122L37.0156 71.0622L39.0574 71.2323L41.0566 71.3599L39.0148 71.445C37.6536 71.4876 36.9305 71.3599 36.7604 70.9346ZM32.4216 70.807C33.0171 70.6793 33.1872 70.0413 33.3148 67.7868L33.4425 64.9368L33.5275 68.042C33.6126 70.9771 33.5701 71.1047 32.6768 71.0622C31.9537 71.0196 31.9111 70.9346 32.4216 70.807ZM1.32692 24.2713C0.00826618 21.634 -0.374568 18.784 0.3911 17.593C0.561249 17.2952 0.646323 18.0184 0.561249 19.2945C0.3911 21.1661 0.561249 21.9743 1.66721 24.1012C2.34781 25.4624 2.90079 26.6959 2.81572 26.781C2.73064 26.8661 2.05005 25.7176 1.32692 24.2713ZM75.3415 16.0617C74.8311 15.5087 73.6401 14.743 72.7042 14.3176C71.811 13.8923 71.1304 13.4669 71.2154 13.3818C71.5557 13.0415 74.6609 14.8706 75.6818 15.9766C76.2774 16.5721 76.6177 17.0826 76.49 17.0826C76.405 17.0826 75.852 16.6146 75.3415 16.0617ZM2.30527 15.1684C4.30452 13.4244 8.34555 11.9781 12.1314 11.7654L14.6836 11.5953L12.344 11.9356C8.26047 12.5311 4.60228 13.7647 2.60303 15.2535L0.646323 16.6997L2.30527 15.1684ZM67.0043 12.5736L64.452 12.0206L66.7065 12.2333C67.9401 12.3184 69.3438 12.6162 69.8968 12.8288C71.2154 13.3393 70.0244 13.2542 67.0043 12.5736ZM51.6484 10.9572C51.5207 10.6594 51.4782 9.55348 51.6058 8.53259C51.7334 6.66095 51.776 6.66095 51.8185 8.87288L51.9036 11.0848L56.0722 11.255L60.1983 11.3826L56.0297 11.4676C52.8394 11.5527 51.8185 11.4251 51.6484 10.9572ZM21.7022 10.8721C24.2544 10.5318 27.147 10.5318 26.9343 10.8296C26.8492 10.9997 25.3604 11.0848 23.7015 11.0848C22 11.0423 21.1067 10.9572 21.7022 10.8721ZM41.1417 10.8296L45.0551 10.6594L45.2252 6.74603L45.3529 2.83261V6.87364L45.3103 10.9147L41.2693 10.9572H37.2283L41.1417 10.8296ZM53.6901 6.4908C57.0506 5.81021 57.7737 2.96022 54.8812 1.81172C54.1155 1.51396 54.0304 1.38635 54.5834 1.38635C55.6043 1.34381 57.008 2.87515 57.008 4.06619C57.008 5.42737 55.1364 6.87364 53.4349 6.8311C52.1588 6.78856 52.1588 6.78856 53.6901 6.4908ZM24.935 6.02289C23.6164 5.59752 22.1276 4.44902 22.1276 3.76843C22.1276 3.55574 22.4679 3.76843 22.8932 4.27887C23.2761 4.78932 24.4671 5.42737 25.5306 5.76767C26.594 6.10797 27.147 6.36319 26.8067 6.36319C26.4664 6.36319 25.6156 6.19304 24.935 6.02289ZM33.6551 2.53485C33.6126 2.10948 33.1447 1.47142 32.5492 1.08859C30.9753 0.0676946 24.297 0.365455 22.9358 1.55649L21.9149 2.3647L22.8932 1.34381C24.382 -0.272603 31.188 -0.485288 32.9746 1.00351C33.6551 1.59903 34.038 2.27963 33.9104 2.66246C33.7402 3.13037 33.6551 3.08783 33.6551 2.53485ZM48.8409 1.04605C49.8193 0.960975 51.3506 0.960975 52.2439 1.04605C53.0946 1.13112 52.2864 1.2162 50.4148 1.2162C48.5431 1.2162 47.82 1.13112 48.8409 1.04605Z" fill="var(--fill-0, #9B9B9B)"/>
</g>
</svg>
