<svg preserveAspectRatio="none" width="100%" height="100%" overflow="visible" style="display: block;" viewBox="0 0 74.2677 93.1628" fill="none" xmlns="http://www.w3.org/2000/svg">
<g id="character-09-firefly-spots__charcoal">
<path id="Vector" fill-rule="evenodd" clip-rule="evenodd" d="M21.5955 92.0328C11.8524 89.4715 5.2231 84.5999 1.95866 77.619C0.301333 74.003 0.251111 73.8524 0.251111 67.1728C0.251111 60.3928 0.251111 60.2924 1.95866 56.9777C2.91288 55.1195 4.92177 52.2568 6.42843 50.5493C8.78888 47.988 9.24087 47.1342 9.44176 45.1253C9.64265 42.8653 9.54221 42.6644 6.07688 38.2951C1.10489 32.0173 0 29.6569 0 25.3378C0 20.868 0.903999 18.9596 4.16844 16.7498C8.33688 13.9374 10.7978 13.3347 23.2529 12.1796L26.6177 11.828V9.11603C26.6177 7.35825 26.4168 6.30359 26.0151 6.20314C21.5453 5.09825 20.8422 4.64625 20.6915 2.98892C20.4404 0.628483 22.9013 -0.37596 27.9235 0.126262C32.6444 0.578261 32.8453 0.829372 33.1466 7.10714L33.3977 12.1796L37.4155 12.5311C39.6253 12.6818 43.0404 12.9329 44.9488 13.0334L48.4644 13.184L48.8661 7.65958C49.1675 3.3907 49.4186 1.98448 50.0715 1.53248C51.0759 0.77915 56.299 0.678705 58.7097 1.38182C63.079 2.63737 62.5768 6.35381 57.9564 6.85603L55.4955 7.15736V10.6227V14.0378L59.1617 14.992C70.4114 17.8547 74.9817 22.9773 74.1781 31.8164C73.6257 37.4915 70.4617 41.7604 64.3346 45.0249C62.627 45.9289 61.0701 46.9835 60.9195 47.3351C60.819 47.7369 61.6728 49.4444 62.8781 51.2022C74.0274 67.1226 64.9875 87.111 44.4466 92.0328C38.2191 93.5394 27.3208 93.5394 21.5955 92.0328ZM24.3577 78.071C27.3711 73.8021 21.6457 68.579 17.6782 71.9439C15.6191 73.6515 15.5186 75.9617 17.3266 78.1715C19.2853 80.4817 22.7004 80.4315 24.3577 78.071ZM42.9399 77.4684C45.1497 75.3088 44.4466 71.6426 41.5839 70.4373C37.0137 68.5288 33.5986 73.7519 37.0137 77.3177C38.7715 79.1759 41.2324 79.2261 42.9399 77.4684ZM57.5044 70.9395C59.5132 68.9808 59.1115 66.1182 56.7008 64.8626C54.9932 64.0088 52.9341 64.3604 52.231 65.6662C50.0213 69.7844 54.3906 74.1035 57.5044 70.9395ZM16.724 62.5524C18.532 60.4431 17.2262 56.2244 14.7151 56.0737C11.9026 55.8728 10.8982 56.4755 10.1449 58.5848C8.73865 62.5524 14.012 65.7666 16.724 62.5524ZM35.4066 61.8995C38.7715 58.5346 34.4022 53.3115 30.1333 55.6217C28.7271 56.3751 28.1244 58.6853 28.8777 60.4933C30.0831 63.3559 33.2973 64.059 35.4066 61.8995ZM52.9341 57.5804C54.7421 56.1742 54.7421 53.5124 52.9341 51.8551C51.2266 50.248 49.519 50.248 47.9621 51.8551C45.3506 54.4666 46.9577 57.7813 51.2768 58.5848C51.4777 58.5848 52.1808 58.1831 52.9341 57.5804ZM42.8395 45.4769C45.5515 41.8609 40.1275 37.5418 36.9133 40.8062C35.3062 42.3631 35.3062 44.2715 36.9133 45.8786C38.6208 47.5862 41.4333 47.3853 42.8395 45.4769ZM25.3622 45.3262C28.7773 41.9613 24.2071 36.5373 20.2395 39.2995C17.2262 41.4089 19.2853 46.4311 23.2529 46.5315C23.7551 46.5817 24.7093 46.0293 25.3622 45.3262ZM58.0568 37.14C59.8648 34.7795 57.9061 31.0129 54.8928 31.0129C52.4821 31.0129 51.2266 32.2182 51.2266 34.5284C51.2266 38.3955 55.7968 40.1533 58.0568 37.14ZM40.027 30.4102C42.6386 27.9493 40.6297 23.4796 36.9133 23.4796C33.3475 23.4796 31.7404 27.648 34.4022 30.2595C35.9591 31.8667 38.4199 31.9169 40.027 30.4102ZM19.3355 29.2551C20.792 27.8489 20.9426 26.1916 19.7875 24.5844C18.08 22.1236 14.916 22.1738 13.2586 24.6849C10.848 28.4516 16.1715 32.4693 19.3355 29.2551Z" fill="var(--fill-0, #111111)"/>
</g>
</svg>
