<svg preserveAspectRatio="none" width="100%" height="100%" overflow="visible" style="display: block;" viewBox="0 0 98.7 93.6862" fill="none" xmlns="http://www.w3.org/2000/svg">
<g id="character-18-root-leaf__charcoal">
<path id="Vector" fill-rule="evenodd" clip-rule="evenodd" d="M76.0787 93.1595C63.2748 90.2118 52.4053 79.895 48.905 67.3214C48.4905 65.8015 48.0299 64.2356 47.9378 63.8671C47.7996 63.4526 46.9706 64.7422 45.9113 66.9529C39.4633 80.678 27.3041 88.8301 13.2106 88.8762C5.97966 88.8762 3.76891 87.7248 1.41999 82.6124C-0.376238 78.7436 -0.468352 70.3612 1.14365 65.9397C5.10457 55.2544 14.6845 48.8064 29.4688 46.8259C35.226 46.043 35.272 45.8587 33.7522 38.3514C31.8178 29.0479 32.3244 24.1658 35.5484 19.9285C37.3446 17.5796 37.2986 17.4875 33.0152 15.2307C30.8045 14.0332 30.2058 13.9411 28.5477 14.2635C27.3502 14.4938 25.9224 14.4477 24.8171 14.1714C22.8366 13.6187 19.1981 10.7171 19.1981 9.70383C19.1981 8.41423 20.6259 8.46028 22.0997 9.842C23.988 11.5922 25.8764 12.3751 27.3041 12.0067C27.9029 11.8685 28.4095 11.6382 28.4095 11.5461C28.4095 11.1316 26.4291 7.44702 25.6 6.20348C24.5868 4.82176 24.4486 3.07159 25.3237 3.07159C26.2909 3.07159 28.2253 5.42051 29.5149 8.18394C30.8966 11.1777 30.9887 11.2698 34.2127 12.9278C35.5023 13.6187 37.0222 14.678 37.621 15.2768C39.8778 17.6717 40.7989 16.4742 39.5093 12.9278C38.9566 11.5461 38.5421 9.65777 38.5421 8.73663C38.5421 7.5852 37.9894 6.29559 36.6998 4.31513C35.6405 2.79525 34.9036 1.18324 34.9496 0.814785C35.5944 -2.50133 41.1674 5.09811 41.2595 9.38143C41.3055 11.6382 42.6412 14.5859 43.6084 14.5859C46.1876 14.5859 47.3851 14.0332 47.0627 12.8818C46.9245 12.283 47.0166 10.5789 47.339 9.10508C47.7996 6.66405 47.7536 6.24954 46.8324 4.49936C44.898 0.676613 46.6021 -1.07356 48.6747 2.61102C49.688 4.45331 49.8261 5.23628 49.8261 9.28931V13.895L52.175 14.0332L54.524 14.1714L55.0306 12.1909C55.3069 11.0855 55.6293 9.01297 55.7675 7.53914C55.9978 4.59148 57.6559 1.09113 58.9455 0.860842C60.3272 0.584499 60.3732 2.15044 59.1297 4.72965C58.3007 6.38771 57.8861 7.99971 57.8861 9.42748C57.8861 10.625 57.7019 12.237 57.4716 13.066C57.0571 14.4477 57.1492 14.5398 58.4388 15.0004C59.2218 15.2768 59.9587 15.507 60.0508 15.507C60.1429 15.507 60.9259 13.9871 61.801 12.1449C62.8603 10.0262 63.9196 8.50634 64.8408 7.9076C65.6238 7.40097 66.637 6.20348 67.1436 5.23628C68.1569 3.34793 69.3083 2.61102 69.861 3.53216C70.4598 4.49936 69.2623 6.9404 66.9594 9.10508C64.0578 11.9146 61.9852 16.6585 63.2748 17.5796C63.9657 18.0862 64.2881 17.9941 65.7619 16.6585C66.6831 15.8294 68.249 14.9083 69.2162 14.5859C70.2295 14.2635 71.6572 13.4345 72.4402 12.7897C73.2232 12.1449 74.5128 11.2237 75.2958 10.8092C76.1709 10.3486 77.1841 9.15114 77.921 7.67731C79.1646 5.23628 80.1778 4.45331 81.0069 5.28233C81.3293 5.60474 81.145 6.47982 80.316 8.09183L79.1646 10.4407H80.4081C81.0529 10.4407 82.3886 9.93411 83.3097 9.28931C85.152 8.04577 86.2113 7.86154 86.718 8.69057C87.547 10.0262 82.1583 12.8818 78.8882 12.7897C76.5393 12.7436 75.2958 13.2963 73.085 15.2768C72.4402 15.8294 71.1967 16.5664 70.2755 16.8427C69.3544 17.119 68.0648 17.9941 67.3739 18.685L66.0843 20.0206L67.2818 22.5077C69.9992 28.1267 69.9071 30.7059 66.5449 40.9306C64.0578 48.484 64.0118 48.3458 70.644 50.9711C83.2637 55.8992 90.6789 61.0576 95.1464 68.0123C101.41 77.6843 99.1534 89.0144 90.2644 92.4686C86.9022 93.7582 80.1318 94.0806 76.0787 93.1595ZM89.0669 90.1197C96.3439 86.9418 98.002 79.5266 93.4884 70.5915C90.6328 64.9725 82.6189 58.7087 73.4535 54.932C70.5979 53.7345 67.466 52.4449 66.5449 52.0304C62.1234 50.1881 61.6628 47.0102 64.6105 39.2265C69.7228 25.5475 64.1499 16.3361 50.7473 16.29C44.8059 16.29 41.8582 17.2572 38.7724 20.2509C34.6272 24.304 34.0746 27.7122 36.055 37.6606C37.2065 43.5098 37.2065 43.7862 36.4695 45.7206C35.5023 48.2998 35.3181 48.3919 28.5016 49.5433C19.3362 51.1553 15.2372 52.9055 10.1709 57.5573C2.75565 64.3277 0.498849 73.447 4.04525 82.1979C5.2888 85.2377 6.62446 85.9746 11.3684 86.297C22.376 87.08 34.6733 80.5859 40.9831 70.7296C43.3781 66.999 47.293 57.373 47.293 55.3005C47.293 54.9781 47.5233 54.5636 47.8457 54.3793C48.6747 53.8266 49.5958 55.6229 49.5958 57.8336C49.5958 63.2223 52.7738 71.9271 56.7347 77.5C64.242 87.955 79.9936 94.1267 89.0669 90.1197ZM78.6119 78.0527C70.1834 73.0325 64.242 67.9662 59.6824 61.9327C56.0899 57.1428 54.8003 54.6557 55.6754 54.149C56.0899 53.8727 56.5044 54.0569 56.965 54.7478C63.1367 63.9132 72.6705 72.618 82.8492 78.3751C84.1848 79.1581 85.2902 79.9871 85.2902 80.2174C85.2902 81.4149 83.0334 80.678 78.6119 78.0527ZM12.6119 75.5196C11.9671 74.8748 12.3816 74.4603 16.6649 71.7429C22.5142 67.9201 29.3307 62.8078 33.1534 59.3535C36.3314 56.4058 36.884 56.1295 37.4367 57.0046C38.3118 58.4784 22.8366 70.9599 15.4674 74.7366C12.9804 75.9802 13.0264 75.9802 12.6119 75.5196ZM86.0732 74.1839C84.369 72.9864 84.9217 72.5259 86.9022 73.5391C87.9154 74.0458 88.7445 74.5984 88.7445 74.6906C88.7445 75.1972 87.0404 74.8748 86.0732 74.1839ZM51.7605 42.819C50.8854 41.9899 52.7277 39.9174 54.3397 39.9174C55.5833 39.9174 56.965 41.207 56.965 42.3584C56.965 43.3256 55.6293 43.3717 55.3069 42.4505C55.1227 42.0821 54.6161 41.7597 54.1555 41.7597C53.6489 41.7597 53.1422 42.0821 53.0041 42.4505C52.6817 43.1874 52.2211 43.3256 51.7605 42.819ZM43.0097 42.3584C42.1346 41.5294 43.9769 39.4568 45.5889 39.4568C46.8324 39.4568 48.2141 40.7464 48.2141 41.8978C48.2141 42.865 47.5693 42.9111 46.8324 41.9899C46.51 41.6215 45.9573 41.2991 45.5889 41.2991C45.2665 41.2991 44.8519 41.6215 44.7138 41.9899C44.4374 42.7269 43.5163 42.9111 43.0097 42.3584ZM51.1618 37.5684C51.0236 37.2921 50.2867 37.1539 49.5498 37.3382C48.5826 37.5224 48.2141 37.4303 48.2141 36.9697C48.2141 35.588 51.1618 35.3577 51.8987 36.6473C52.4053 37.6145 51.7605 38.4896 51.1618 37.5684Z" fill="var(--fill-0, #111111)"/>
</g>
</svg>
