<svg preserveAspectRatio="none" width="100%" height="100%" overflow="visible" style="display: block;" viewBox="0 0 76.6176 86.3784" fill="none" xmlns="http://www.w3.org/2000/svg">
<g id="character-02-seed-cap__charcoal">
<path id="Vector" fill-rule="evenodd" clip-rule="evenodd" d="M19.1554 85.5442C13.7958 82.8218 14.9868 75.2077 21.2823 72.0599C23.7069 70.8263 28.7263 69.9756 31.2785 70.3584L33.1502 70.6136V64.2331C33.1502 57.5122 33.2778 57.1294 35.0643 57.5547C36.0852 57.81 36.0852 57.8525 36.2128 64.3182L36.3404 70.7838L39.1904 71.0816C48.9314 72.0174 55.7799 79.589 50.9732 84.0554C46.8897 87.8412 39.4457 85.4166 35.8725 79.2062C34.8942 77.4196 34.8942 77.4196 33.3628 79.9718C30.3002 85.2039 23.5793 87.8412 19.1554 85.5442ZM27.0248 82.9494C30.0024 81.2479 32.5972 77.5897 33.3628 74.1017L33.6606 72.698H30.2151C25.8763 72.698 21.8353 73.9315 20.0487 75.8457C15.0293 81.1629 20.4316 86.6927 27.0248 82.9494ZM49.1016 82.7367C52.9725 80.1845 46.3367 73.8465 39.1054 73.251C35.2345 72.9107 35.1494 73.8465 38.5098 78.9509C41.3598 83.2046 45.9113 84.8211 49.1016 82.7367ZM42.083 57.4271C40.5091 57.0018 40.4665 55.5555 42.083 54.407C43.2315 53.5988 43.5292 53.5563 44.8904 53.9816C46.8897 54.6622 47.1874 55.5555 45.7412 56.8316C44.5501 57.8525 43.9121 57.9376 42.083 57.4271ZM53.8232 54.1518C53.1852 52.4503 56.7157 49.7279 58.3322 50.6212C58.7575 50.8339 59.0978 51.5145 59.0978 52.0675C59.0978 54.0667 54.4613 55.8533 53.8232 54.1518ZM24.7703 53.1309C23.239 52.2376 22.8987 50.6637 24.0047 49.7279C24.8129 49.0899 26.0465 49.5152 27.8756 51.0891C30.5129 53.3861 27.9606 55.0876 24.7703 53.1309ZM35.0643 49.9831C32.8524 47.0906 33.9158 44.3257 36.4681 46.3675C38.127 47.6861 38.8501 49.4727 38.127 50.6212C37.3613 51.8122 36.2979 51.5995 35.0643 49.9831ZM47.9531 47.0055C47.1874 45.304 49.1016 41.8585 50.8031 41.8585C51.909 41.8585 52.0792 42.0287 52.2068 43.0921C52.5896 46.3675 49.1441 49.5578 47.9531 47.0055ZM26.2591 42.6242C24.2174 40.4123 23.8345 39.1362 24.898 38.0727C26.4293 36.5414 29.7472 40.2847 29.1091 42.7944C28.8114 44.113 27.5778 44.0279 26.2591 42.6242ZM38.9777 42.0287C37.3613 41.0929 36.4255 37.6899 37.4889 36.6265C38.8501 35.2653 40.6367 36.7541 41.0621 39.6041C41.3598 41.3481 40.2113 42.7093 38.9777 42.0287ZM1.20477 23.5676C0.0562645 21.228 -0.113884 20.5049 0.0562646 18.5907C0.56671 13.5713 5.92639 11.5721 21.2398 10.6788L26.5569 10.3811L26.6845 7.99898L26.8121 5.65943L24.7703 5.02138C22.0054 4.21317 20.9845 2.55422 22.4308 1.1505C23.2815 0.299754 23.9196 0.172142 27.3226 0.0445311C32.9375 -0.168155 33.3203 0.172142 33.4905 5.82958L33.6606 10.0833L37.1061 10.3811C39.0203 10.5512 41.5725 10.5937 42.721 10.5087L44.8479 10.3811L44.9755 6.34003C45.1456 1.10796 45.3583 0.8102 49.7396 0.8102C53.8232 0.8102 55.6098 1.36318 55.9926 2.85198C56.4605 4.68108 55.6098 5.44675 52.1643 6.12734C51.0158 6.34003 50.9732 6.46764 51.1008 8.5945L51.2284 10.8064L57.056 11.1042C73.0075 11.9124 78.4097 15.1878 76.1127 22.6318C75.6448 24.2056 75.0918 25.5668 74.8791 25.6519C74.6664 25.7795 73.4328 25.5243 72.1142 25.0564C56.0777 19.5691 27.9181 19.4415 8.30847 24.8437C5.33087 25.6519 2.77864 26.3325 2.7361 26.3325C2.65103 26.3325 1.97044 25.0989 1.20477 23.5676Z" fill="var(--fill-0, #111111)"/>
</g>
</svg>
