<svg preserveAspectRatio="none" width="100%" height="100%" overflow="visible" style="display: block;" viewBox="0 0 64.7217 93.29" fill="none" xmlns="http://www.w3.org/2000/svg">
<g id="character-09-firefly-spots__warm_gray">
<path id="Vector" fill-rule="evenodd" clip-rule="evenodd" d="M33.2786 92.838C36.1413 92.5367 39.3053 92.1349 40.2595 91.8335C41.2639 91.5824 42.1679 91.4318 42.2684 91.5824C42.7706 92.0847 38.0999 92.8882 33.3288 93.0891L28.0555 93.29L33.2786 92.838ZM4.30044 84.4509C2.09067 82.2411 1.88978 81.9398 3.64755 83.5971C5.20444 85.0033 7.01244 86.5602 7.71555 87.0122C8.36843 87.4642 8.66977 87.8158 8.31821 87.8158C7.96666 87.8158 6.15866 86.3091 4.30044 84.4509ZM58.0884 47.7887C57.7368 46.8345 58.239 46.4327 62.7088 43.8212C64.3661 42.867 65.1697 42.5656 64.4666 43.1683C63.7635 43.771 62.1061 44.7754 60.8004 45.4785C58.8417 46.4327 58.3897 46.8847 58.5906 47.6883C58.8919 48.8434 58.5404 48.9438 58.0884 47.7887ZM0.132002 16.8017C1.13645 15.5963 4.652 13.6377 6.45999 13.2359C7.41421 13.035 7.06266 13.3363 5.55599 13.939C4.2 14.4914 2.29155 15.5461 1.28711 16.2994C0.282669 17.103 -0.269775 17.3039 0.132002 16.8017ZM52.6141 13.2861C52.4635 12.9346 52.4133 11.2772 52.5137 9.67012L52.6644 6.70701L54.4221 6.65679C56.1799 6.60657 56.1799 6.60657 54.5728 6.80746L52.9155 7.00834V10.2226C52.9155 13.1354 53.0159 13.4368 54.0706 13.6377L55.1755 13.8386L54.0204 13.939C53.4177 13.939 52.7648 13.6879 52.6141 13.2861ZM44.679 12.6332C44.9804 12.4323 45.3822 9.87101 45.583 7.00834C45.8844 1.98613 46.3364 0.429243 47.5417 0.429243C47.843 0.429243 47.6924 0.730576 47.2404 1.08213C46.5875 1.53413 46.3364 2.94035 46.035 7.15901C45.7337 11.3777 45.4826 12.6834 44.8799 12.8341C44.3777 12.9848 44.3275 12.9346 44.679 12.6332ZM38.2004 12.131C39.1044 12.0306 40.7115 12.0306 41.7159 12.131C42.7706 12.2314 42.0675 12.3319 40.1088 12.3319C38.2004 12.3319 37.3466 12.2314 38.2004 12.131ZM30.6671 11.6288C30.4662 11.4781 30.3155 9.36878 30.3155 7.00834C30.3155 4.09546 30.0644 2.18702 29.512 1.18258C28.7586 -0.273867 28.8088 -0.273867 29.6626 0.57991C30.3657 1.28302 30.6168 2.48835 30.7173 6.4559L30.9182 11.4279L33.4795 11.6288L36.0911 11.7794L33.5297 11.8799C32.1235 11.9301 30.8177 11.8297 30.6671 11.6288ZM23.3849 8.86656C23.2844 6.35546 23.1337 6.0039 22.1795 5.80301L21.0244 5.60212L22.1795 5.50168C23.5857 5.45146 23.8871 6.20479 23.636 9.26834L23.4853 11.7292L23.3849 8.86656Z" fill="var(--fill-0, #9B9B9B)"/>
</g>
</svg>
