<svg preserveAspectRatio="none" width="100%" height="100%" overflow="visible" style="display: block;" viewBox="0 0 48.5666 56.7002" fill="none" xmlns="http://www.w3.org/2000/svg">
<g id="character-09-firefly-spots__lemon_yellow">
<path id="Vector" fill-rule="evenodd" clip-rule="evenodd" d="M8.08752 55.847C4.42131 52.9341 5.87775 48.2133 10.3977 48.2133C12.8084 48.2133 14.516 49.971 14.5662 52.4821C14.6666 55.8972 10.6489 57.9564 8.08752 55.847ZM9.29286 52.3817C9.14219 50.875 8.0373 50.2724 7.5853 51.4275C7.28397 52.2813 8.13775 53.7377 8.99152 53.7377C9.24263 53.7377 9.3933 53.135 9.29286 52.3817ZM27.9755 55.0937C26.3182 54.2399 25.3137 52.0804 25.7155 50.2221C26.3684 47.2088 29.8337 46.2546 32.2946 48.4141C35.9608 51.5279 32.2444 57.2532 27.9755 55.0937ZM42.5901 47.4097C40.5813 44.8484 41.9373 41.6844 45.0008 41.6844C46.6079 41.6844 48.5666 43.643 48.5666 45.1999C48.5666 46.7568 46.6079 48.7155 45.051 48.7155C44.0968 48.7155 43.243 48.2635 42.5901 47.4097ZM46.0555 45.7022C46.0555 44.3462 45.1012 43.9444 44.147 44.8484C43.5444 45.5013 43.4941 45.8026 43.9964 46.4053C44.7999 47.3595 46.0555 46.9075 46.0555 45.7022ZM1.10665 39.4244C-2.10757 36.2604 2.3622 31.1377 5.82753 34.0506C7.5853 35.4568 7.73597 37.8675 6.2293 39.3742C4.57197 41.0315 2.66353 41.0315 1.10665 39.4244ZM20.6431 39.575C19.3875 39.0226 18.4333 37.1644 18.4333 35.5071C18.4835 34.6031 18.584 34.7035 19.1866 36.0093C20.2915 38.6208 24.9622 39.0226 24.9622 36.5115C24.9622 34.5026 21.8986 32.3431 20.7435 33.4982C20.0404 34.2515 18.8351 34.1008 19.488 33.3475C19.7893 32.9959 20.2413 32.7951 20.4924 32.9457C20.7435 33.0964 20.9444 32.9457 20.9444 32.6946C20.9444 31.7404 23.3551 32.0919 24.6608 33.2973C28.1262 36.4111 24.8115 41.6342 20.6431 39.575ZM38.6226 34.8039C36.6137 34.0004 36.3124 29.6813 38.1706 28.5262C39.2755 27.8231 41.887 28.1244 42.6404 29.0284C45.5532 32.2928 42.6404 36.4613 38.6226 34.8039ZM27.0715 22.9515C24.7111 20.4906 26.3684 16.5733 29.7333 16.5733C31.0893 16.5733 32.9977 18.8835 32.9977 20.5911C32.9977 23.7551 29.231 25.2617 27.0715 22.9515ZM28.4275 21.6457C27.5235 20.2395 28.2266 18.9337 29.7835 19.2351C30.7377 19.3857 30.9888 19.2853 30.8884 18.6324C30.7879 18.1302 30.135 17.7786 29.1808 17.6782C27.8248 17.5275 27.5737 17.7284 27.3226 18.8835C27.0213 20.4906 27.6742 22.6 28.4777 22.6C28.779 22.6 28.779 22.2484 28.4275 21.6457ZM11.5529 23.1022C7.08308 21.2942 8.99152 14.5142 13.5617 16.0209C16.8764 17.1258 17.228 21.6457 14.1142 23.052C13.4111 23.3533 12.8084 23.6044 12.7582 23.5542C12.708 23.5542 12.1555 23.3533 11.5529 23.1022ZM14.6666 21.0431C14.8675 20.7417 14.516 20.1391 13.8631 19.6871C11.6533 18.08 11.6031 18.0297 12.3062 17.7284C13.0595 17.4271 13.1097 16.5733 12.3062 16.5733C11.4022 16.5733 9.89552 18.1302 9.89552 19.0844C9.89552 20.0889 11.1511 20.792 12.5573 20.6413C13.0093 20.5911 13.4111 20.792 13.4111 21.0431C13.4111 21.7462 14.2648 21.7462 14.6666 21.0431ZM42.2888 14.3133C39.9284 12.0031 41.435 8.03554 44.6995 8.03554C47.9137 8.03554 49.4706 12.6058 46.9595 14.7151C45.5532 15.9204 43.695 15.7698 42.2888 14.3133ZM25.1631 7.9351C22.8026 6.83021 22.3506 3.61599 24.2088 1.75778C25.6151 0.301333 27.2724 0.150666 28.8795 1.30578C32.9475 4.16844 29.5826 10.0947 25.1631 7.9351ZM5.02397 7.0311C1.55864 5.62488 2.56309 0 6.27953 0C9.94574 0 11.3017 5.27333 8.0373 6.98088C6.78175 7.63377 6.53064 7.63377 5.02397 7.0311Z" fill="var(--fill-0, #FFD11A)"/>
</g>
</svg>
