<svg preserveAspectRatio="none" width="100%" height="100%" overflow="visible" style="display: block;" viewBox="0 0 57.5995 34.8294" fill="none" xmlns="http://www.w3.org/2000/svg">
<g id="character-09-firefly-spots__cobalt_blue">
<path id="Vector" fill-rule="evenodd" clip-rule="evenodd" d="M6.4231 33.7995C1.40089 31.3386 -1.00978 23.5542 0.396444 14.1124L0.948888 10.3458L3.008 11.4004C5.16755 12.4551 10.3907 14.4138 10.3907 14.0622C10.3907 13.9618 11.596 14.2129 13.0524 14.6146C14.4586 14.9662 16.7186 15.3178 18.0746 15.3178C20.7866 15.3178 20.7364 15.1671 19.732 20.4404C18.376 27.4715 15.7644 32.1422 12.1484 33.8999C9.53687 35.1555 9.1351 35.1555 6.4231 33.7995ZM9.63732 25.0106C9.78798 24.5084 10.0893 22.5497 10.24 20.5911C10.4911 17.5275 10.4409 17.176 9.83821 17.6782C8.98443 18.3813 7.62843 24.5084 8.13065 25.312C8.58265 26.1155 9.23554 25.9648 9.63732 25.0106ZM14.1573 21.7964C14.5591 20.5911 14.0569 18.3311 13.404 18.3311C12.7511 18.3311 12.2489 20.2395 12.6004 21.6457C13.0022 23.1022 13.7053 23.2026 14.1573 21.7964ZM6.72443 18.5822C6.97554 17.0755 6.8751 16.724 6.32266 16.9249C5.41866 17.2262 4.6151 19.4862 5.0671 20.6413C5.56933 21.8969 6.32266 20.9426 6.72443 18.5822ZM44.0395 26.9191C41.2773 25.4124 37.5608 21.1435 35.9537 17.5778C34.2964 13.8613 34.2964 13.8111 35.1502 13.8111C36.1044 13.8111 41.9302 11.2498 44.5919 9.64265C46.8519 8.28665 51.5226 3.71644 53.1799 1.25555L53.9835 0L54.787 1.808C55.8417 4.26888 57.5995 13.2084 57.5995 15.9204C57.5492 19.5364 55.6408 24.3075 53.5315 26.0151C51.0706 27.9235 46.7013 28.3755 44.0395 26.9191ZM49.0617 19.3355C49.0617 17.9795 46.7013 12.8066 46.0986 12.8066C45.8475 12.8066 45.4959 13.0075 45.295 13.2586C44.9937 13.7609 46.8519 19.1346 47.6555 20.1893C48.3084 21.0431 49.0617 20.5409 49.0617 19.3355ZM43.7382 18.3813C44.0897 17.8289 43.0853 14.8155 42.5328 14.8155C41.6288 14.8155 41.4279 15.9204 42.0306 17.3769C42.6835 18.8333 43.2359 19.1849 43.7382 18.3813ZM51.5728 13.6604C51.5728 12.4551 50.3173 10.2955 49.6141 10.2955C48.6599 10.2955 48.7101 11.752 49.6141 13.2586C50.719 15.1169 51.5728 15.2675 51.5728 13.6604Z" fill="var(--fill-0, #124FD2)"/>
</g>
</svg>
