<svg preserveAspectRatio="none" width="100%" height="100%" overflow="visible" style="display: block;" viewBox="0 0 72.5821 44.1688" fill="none" xmlns="http://www.w3.org/2000/svg">
<g id="character-02-seed-cap__coral_red">
<path id="Vector" fill-rule="evenodd" clip-rule="evenodd" d="M33.1502 40.7233C33.3203 37.8308 33.2352 37.1927 32.6397 36.6397C30.8106 34.9808 29.5345 36.4696 29.6621 40.0427C29.7046 41.5315 29.6196 42.8927 29.492 43.0628C28.8964 43.6158 22.6009 41.8718 19.0278 40.1703C13.8808 37.6606 10.4353 34.1726 7.79802 28.7278C5.75624 24.5167 -0.326574 6.77866 0.0137228 5.97046C0.268946 5.24733 10.8182 2.48241 16.8584 1.5466C33.6606 -1.13324 50.5478 -0.325038 67.7754 3.92868L72.5821 5.11972V9.84134C72.5821 20.0077 67.6903 31.7054 61.0545 37.3629C55.9075 41.7867 49.9949 43.6584 40.2964 43.9561L32.8949 44.1688L33.1502 40.7233ZM42.721 36.1293C44.7203 34.7256 43.4441 32.5562 40.5516 32.5562C38.6374 32.5562 36.6807 35.9166 38.2546 36.5121C39.3606 36.98 41.8277 36.7673 42.721 36.1293ZM54.9292 33.1517C56.8859 31.8756 56.6732 29.1532 54.6314 29.1532C53.3978 29.1532 51.5262 30.2592 50.718 31.4927C49.9949 32.5562 49.9949 32.6838 50.718 33.492C51.6113 34.4278 53.1426 34.3002 54.9292 33.1517ZM25.4084 32.9815C26.4718 32.386 26.4293 31.195 25.2808 30.1316C23.1965 28.2599 21.1972 27.792 20.2614 28.9831C19.4107 29.9614 20.2189 31.7054 21.9629 32.5987C23.6644 33.5345 24.2599 33.5771 25.4084 32.9815ZM34.8091 30.1316C36.0001 29.0681 35.7449 27.5793 33.9584 25.6652C32.5121 24.1338 32.2143 24.0062 31.4061 24.4316C29.7897 25.2823 30.7681 29.1532 32.9375 30.4293C33.8733 30.9823 33.9158 30.9823 34.8091 30.1316ZM48.8038 24.8144C49.8247 22.8152 49.8247 21.8368 48.7613 20.8585C47.23 19.4973 45.4434 21.0286 44.3374 24.7293C44.1673 25.2823 44.38 25.9204 44.9329 26.5159C46.0814 27.7495 47.6553 27.0689 48.8038 24.8144ZM26.0465 22.1771C26.642 21.1988 26.642 20.9861 26.0039 19.6674C24.6427 16.7324 22.4733 15.6264 21.4099 17.2853C20.7718 18.3062 21.4099 20.1779 23.0263 21.7943C24.6853 23.4532 25.1106 23.5383 26.0465 22.1771ZM38.0419 20.1353C39.0203 18.0935 36.4681 13.9249 34.8516 14.9458C33.4905 15.7965 33.2352 16.6898 33.8308 18.3913C34.9793 21.6241 36.936 22.4323 38.0419 20.1353ZM63.5642 16.6473C64.8403 14.01 65.0105 11.3727 63.947 10.6921C62.8411 10.0115 61.8202 11.4152 60.8844 14.8607C60.0336 18.0085 60.2463 19.0719 61.6075 18.8592C62.2881 18.7741 62.8836 18.0935 63.5642 16.6473ZM12.9876 17.5406C13.3278 17.0727 13.2002 16.2644 12.3495 14.2227C11.1159 11.16 10.6055 10.4369 9.79727 10.4369C8.60623 10.4369 8.39354 11.8831 9.24428 14.2227C10.4353 17.6682 11.839 18.9017 12.9876 17.5406ZM51.6538 15.0309C52.462 14.0525 53.2277 9.20328 52.7598 8.39508C52.0366 7.28911 51.0158 7.28911 50.2926 8.39508C49.4844 9.67119 48.8038 13.9674 49.2717 14.8607C49.7396 15.6689 51.0158 15.754 51.6538 15.0309ZM22.5584 13.2868C23.0263 12.5212 22.3032 9.03313 21.4524 8.01224C19.9636 6.18314 18.5174 8.39508 19.4107 11.16C20.3465 14.01 21.5801 14.8607 22.5584 13.2868ZM36.7658 12.4786C37.5315 11.713 37.4464 6.8212 36.5957 6.14061C35.3621 5.11972 34.5113 6.18314 34.3837 9.03313C34.2136 12.2234 35.3621 13.8824 36.7658 12.4786Z" fill="var(--fill-0, #F24A25)"/>
</g>
</svg>
