<svg preserveAspectRatio="none" width="100%" height="100%" overflow="visible" style="display: block;" viewBox="0 0 93.2783 74.5717" fill="none" xmlns="http://www.w3.org/2000/svg">
<g id="character-18-root-leaf__leaf_green">
<path id="Vector" fill-rule="evenodd" clip-rule="evenodd" d="M75.1174 74.1521C64.0636 72.2177 53.7468 63.4668 49.5556 52.5052C48.1739 48.7746 46.9304 43.478 46.9304 40.9449C46.9304 39.3789 46.7001 38.3657 46.2395 37.9972C45.2262 37.1682 44.9038 37.6748 43.5221 42.2345C39.423 55.8213 31.0867 64.6643 18.8355 68.441C14.8285 69.6846 7.32115 69.9609 4.51166 68.9477C2.16274 68.1186 0.320452 64.1116 0.0441089 58.9993C-0.784921 44.9979 10.1306 34.6811 27.8627 32.7006C33.758 32.0558 35.1858 29.6608 33.804 22.7983C31.9157 13.7251 31.8236 12.1591 32.929 8.56664C33.8501 5.48081 36.5214 2.53315 39.6994 1.10537C41.818 0.138172 42.7852 0 48.0818 0C53.931 0 54.1153 0.0460572 56.9708 1.51989C64.1558 5.25052 65.4914 11.6525 61.6226 23.351C58.5368 32.4703 58.9973 33.3454 68.5312 37.3524C79.8613 42.0963 87.8292 48.0377 90.8229 53.933C97.5012 67.1054 89.9939 76.7313 75.1174 74.1521ZM82.6247 63.3287C82.4865 63.0984 80.7824 61.993 78.848 60.7955C69.5905 55.2687 61.2541 47.8534 56.4181 40.8988C54.9443 38.7802 53.5626 37.0761 53.3784 37.0761C50.7992 37.0761 56.6024 46.0112 62.9122 51.8604C69.5444 57.986 80.9666 65.2631 82.2562 64.1577C82.5786 63.9274 82.7629 63.5129 82.6247 63.3287ZM15.4272 56.6043C24.3623 50.9853 34.9094 42.5108 34.9555 40.8528C35.0015 39.3329 33.4356 39.8855 30.7643 42.3266C27.2179 45.6427 20.4014 50.7551 14.3679 54.762C9.8543 57.7557 8.56469 59.1835 10.453 59.1835C10.9597 59.1835 13.1704 58.0321 15.4272 56.6043ZM85.8026 57.7557C85.4342 57.157 82.3944 55.8213 82.072 56.0977C81.9799 56.2359 82.4405 56.7425 83.1313 57.2952C84.4209 58.3084 86.3553 58.6308 85.8026 57.7557ZM54.2995 25.6999C54.2995 24.5946 52.9178 23.2589 51.8124 23.2589C50.4307 23.2589 48.7726 24.5485 48.7726 25.6078C48.7726 26.6211 49.9241 26.8053 50.3386 25.792C50.707 24.8248 51.7203 24.917 52.6875 26.0223C53.5626 26.9895 54.2995 26.8514 54.2995 25.6999ZM42.9234 24.6406C43.1997 24.6406 43.7985 25.0091 44.259 25.4236C44.8117 25.9302 45.2723 26.0223 45.5947 25.6999C46.2395 25.0551 44.3512 22.7983 43.1997 22.7983C41.035 22.7983 39.5151 24.6406 40.5745 25.8842C41.0811 26.4829 41.2193 26.4829 41.7719 25.6078C42.1404 25.1012 42.647 24.6406 42.9234 24.6406ZM48.8648 19.5743C47.8515 18.7453 46.8843 18.7453 45.6868 19.7125C44.7657 20.4033 45.5026 21.0481 46.9304 20.7257C47.7133 20.5415 48.3581 20.6336 48.5424 20.956C48.7726 21.3705 49.0029 21.3705 49.4174 20.956C49.7859 20.5415 49.6477 20.2191 48.8648 19.5743Z" fill="var(--fill-0, #45B934)"/>
</g>
</svg>
