<svg preserveAspectRatio="none" width="100%" height="100%" overflow="visible" style="display: block;" viewBox="0 0 59.7493 69.8727" fill="none" xmlns="http://www.w3.org/2000/svg">
<g id="character-14-river-stone__warm_gray">
<path id="Vector" fill-rule="evenodd" clip-rule="evenodd" d="M35.8814 69.4266C34.2459 68.7823 32.7095 66.5026 32.7591 64.768C32.8087 63.2812 32.8582 63.3308 33.2051 65.1149C33.6016 67.3451 34.5928 68.4354 36.823 69.2779C37.7151 69.5753 38.062 69.8727 37.6655 69.8727C37.2691 69.8727 36.4265 69.6744 35.8814 69.4266ZM49.5599 69.3771C48.9652 68.9806 49.0643 68.931 49.9564 69.1788C51.7901 69.724 53.8716 68.5345 54.7142 66.5522C55.1106 65.5114 55.4576 65.0158 55.4576 65.3627C55.6062 68.1381 51.6414 70.8143 49.5599 69.3771ZM6.54191 12.4327C6.34367 8.56705 5.84807 7.03069 4.75775 6.78289C3.91523 6.63421 3.96479 6.58465 4.95599 6.63421C6.34367 6.73333 7.13663 9.26089 6.78971 12.4327L6.59147 14.1673L6.54191 12.4327ZM11.2501 11.6893C11.0519 10.599 10.9527 9.06265 10.9527 8.22013C11.0023 7.42717 11.2005 8.07145 11.4483 9.70693C11.9439 13.0274 11.7457 14.762 11.2501 11.6893ZM56.201 11.7389C56.0523 11.392 56.0523 9.85561 56.1514 8.41837L56.3001 5.74213L56.3992 8.81485C56.4488 10.6981 56.7461 11.9371 57.1426 12.0858C57.5886 12.284 57.5886 12.3832 57.093 12.3832C56.7461 12.4327 56.3496 12.1354 56.201 11.7389ZM0.991198 5.49433C0.446039 4.94917 0 4.10666 0 3.61106C0 2.42162 1.7346 0.835701 2.57712 1.18262C3.02316 1.38086 2.9736 1.47998 2.42844 1.47998C0.0495599 1.62866 0 5.04829 2.32932 5.89081C3.22139 6.23773 3.41963 6.43597 2.87448 6.43597C2.37888 6.48553 1.53636 6.03949 0.991198 5.49433ZM10.4076 4.89961C10.4076 2.76854 9.91198 2.0747 8.12783 1.52954C6.93839 1.18262 6.88883 1.13306 7.83047 1.0835C9.46594 1.03394 10.9032 2.71898 10.9032 4.75093C10.9032 5.69257 10.8041 6.48553 10.6554 6.48553C10.5067 6.48553 10.4076 5.74213 10.4076 4.89961ZM51.5423 2.66942C51.5423 0.984381 57.6382 -0.750216 59.6206 0.340102C60.1162 0.637462 59.1745 0.786141 56.8948 0.786141C53.8716 0.786141 53.3265 0.934821 52.484 1.97558C51.9884 2.61986 51.5423 2.91722 51.5423 2.66942Z" fill="var(--fill-0, #9B9B9B)"/>
</g>
</svg>
