<svg preserveAspectRatio="none" width="100%" height="100%" overflow="visible" style="display: block;" viewBox="0 0 31.5669 11.2578" fill="none" xmlns="http://www.w3.org/2000/svg">
<g id="character-02-seed-cap__lemon_yellow">
<path id="Vector" fill-rule="evenodd" clip-rule="evenodd" d="M2.08398 10.6509C0.339959 9.80012 -0.298098 8.22625 0.127273 6.01432C0.76533 2.48374 6.21008 -0.238641 12.0802 0.0165821C15.5257 0.186731 15.5257 0.229268 13.4839 4.48298C10.9317 9.80012 5.82725 12.565 2.08398 10.6509ZM24.3734 9.8852C22.672 8.99192 21.7361 8.14118 20.2899 6.05686C18.9287 4.05761 17.5675 0.867325 17.9078 0.527028C18.3332 0.101656 24.2884 1.25016 26.2025 2.14344C28.5421 3.16433 31.1794 5.84417 31.5197 7.41804C32.0727 10.0979 27.6488 11.6292 24.3734 9.8852Z" fill="var(--fill-0, #FFD11A)"/>
</g>
</svg>
