<svg preserveAspectRatio="none" width="100%" height="100%" overflow="visible" style="display: block;" viewBox="0 0 42.6084 61.4159" fill="none" xmlns="http://www.w3.org/2000/svg">
<g id="character-09-firefly-spots__warm_gray">
<path id="Vector" fill-rule="evenodd" clip-rule="evenodd" d="M21.9084 61.1183C23.793 60.92 25.876 60.6555 26.5042 60.4571C27.1654 60.2918 27.7606 60.1926 27.8267 60.2918C28.1573 60.6224 25.0825 61.1514 21.9415 61.2837L18.4699 61.4159L21.9084 61.1183ZM2.83112 55.5968C1.37635 54.1421 1.2441 53.9437 2.40131 55.0348C3.42626 55.9605 4.61652 56.9855 5.0794 57.283C5.50922 57.5806 5.7076 57.812 5.47616 57.812C5.24472 57.812 4.05445 56.8202 2.83112 55.5968ZM38.2415 31.4609C38.0101 30.8327 38.3407 30.5682 41.2833 28.8489C42.3744 28.2207 42.9034 28.0224 42.4405 28.4191C41.9776 28.8159 40.8865 29.4771 40.0269 29.94C38.7374 30.5682 38.4399 30.8658 38.5721 31.3948C38.7705 32.1552 38.5391 32.2214 38.2415 31.4609ZM0.0869015 11.0611C0.74816 10.2676 3.06256 8.97813 4.25283 8.71363C4.88102 8.58138 4.64958 8.77975 3.6577 9.17651C2.765 9.5402 1.50861 10.2345 0.847348 10.7305C0.18609 11.2595 -0.177602 11.3917 0.0869015 11.0611ZM34.6376 8.74669C34.5385 8.51525 34.5054 7.42417 34.5715 6.36616L34.6707 4.41545L35.8279 4.38239C36.9851 4.34932 36.9851 4.34932 35.9271 4.48157L34.836 4.61383V6.72985C34.836 8.6475 34.9022 8.84588 35.5965 8.97813L36.3239 9.11038L35.5634 9.17651C35.1667 9.17651 34.7368 9.01119 34.6376 8.74669ZM29.4137 8.31687C29.6121 8.18462 29.8766 6.49841 30.0088 4.61383C30.2072 1.30754 30.5048 0.282585 31.2983 0.282585C31.4967 0.282585 31.3975 0.480963 31.0999 0.712403C30.6701 1.00997 30.5048 1.93573 30.3064 4.71301C30.108 7.4903 29.9427 8.34993 29.546 8.44912C29.2153 8.54831 29.1823 8.51525 29.4137 8.31687ZM25.1486 7.98624C25.7437 7.92012 26.8017 7.92012 27.463 7.98624C28.1573 8.05237 27.6944 8.11849 26.405 8.11849C25.1486 8.11849 24.5865 8.05237 25.1486 7.98624ZM20.1892 7.65561C20.0569 7.55642 19.9577 6.16778 19.9577 4.61383C19.9577 2.69618 19.7924 1.43979 19.4287 0.778529C18.9328 -0.180296 18.9658 -0.180296 19.5279 0.381774C19.9908 0.844655 20.1561 1.63816 20.2222 4.25013L20.3545 7.52336L22.0407 7.65561L23.7599 7.7548L22.0737 7.82093C21.148 7.85399 20.2883 7.78787 20.1892 7.65561ZM15.395 5.83715C15.3289 4.18401 15.2297 3.95257 14.6015 3.82032L13.8411 3.68806L14.6015 3.62194C15.5273 3.58888 15.7257 4.08482 15.5603 6.10166L15.4612 7.72174L15.395 5.83715Z" fill="var(--fill-0, #9B9B9B)"/>
</g>
</svg>
