<svg preserveAspectRatio="none" width="100%" height="100%" overflow="visible" style="display: block;" viewBox="0 0 61.802 62.7417" fill="none" xmlns="http://www.w3.org/2000/svg">
<g id="character-18-root-leaf__warm_gray">
<path id="Vector" fill-rule="evenodd" clip-rule="evenodd" d="M53.6653 62.496C56.7665 62.2504 58.6087 61.6977 60.5738 60.4695L61.802 59.7019L60.8809 60.5002C59.2535 61.8512 56.8893 62.5881 53.6653 62.6802L50.7483 62.7416L53.6653 62.496ZM7.9458 59.3027C8.00721 59.2413 9.05118 59.1185 10.218 59.0264C11.4769 58.9342 12.0602 58.9649 11.5997 59.1185C10.8321 59.3641 7.70016 59.5176 7.9458 59.3027ZM16.6967 57.0305C20.7497 55.0654 24.2808 52.0871 26.4915 48.7402C27.4741 47.2357 27.8425 47.0208 27.0442 48.4025C24.9563 51.995 18.6618 57.0305 14.9772 58.0131C14.5473 58.1359 15.3457 57.6753 16.6967 57.0305ZM57.6569 40.8491C57.2577 40.4192 56.2138 39.5902 55.2926 38.9454C53.5117 37.7172 53.1126 37.2873 54.6171 38.1471C55.5997 38.7305 58.8544 41.586 58.5473 41.6167C58.4552 41.6167 58.0561 41.279 57.6569 40.8491ZM0.392419 40.4806C1.46709 38.8226 3.09444 36.9803 4.35334 36.0284C5.24378 35.3222 5.09026 35.5679 3.73924 36.8575C2.72599 37.8707 1.49779 39.2832 1.00652 40.0201C0.545943 40.7263 0.0853713 41.3097 0.0239617 41.3097C-0.0681527 41.3097 0.116076 40.9412 0.392419 40.4806ZM41.629 31.9447C41.3219 31.2385 41.8439 28.1373 42.2124 28.5365C42.2738 28.5979 42.1817 29.2427 41.9667 29.9182C41.6904 30.87 41.6904 31.3613 41.936 31.9447C42.1203 32.3746 42.2124 32.7123 42.151 32.7123C42.0588 32.7123 41.8439 32.3746 41.629 31.9447ZM43.287 25.4967C43.2563 25.3432 43.5327 24.2378 43.8397 23.0403C44.1468 21.8735 44.4231 21.2287 44.4231 21.6586C44.4231 22.3955 43.3177 26.1415 43.287 25.4967ZM19.6443 19.9391C19.5829 17.8205 20.2277 14.8114 20.8111 14.443C20.9646 14.3509 20.8725 14.7807 20.5962 15.4255C20.3198 16.0703 20.0128 17.8512 19.89 19.3557L19.675 22.1192L19.6443 19.9391ZM44.0547 17.8205C43.9625 17.1143 43.5327 15.9168 43.1028 15.1185C42.7036 14.3201 42.5808 13.8289 42.7958 14.0131C43.3792 14.4737 44.5152 17.6363 44.3924 18.4039C44.331 18.8031 44.2082 18.5881 44.0547 17.8205ZM43.0414 12.5086C43.5327 11.9866 44.4231 11.3725 45.0372 11.1883C45.6513 11.004 46.5725 10.482 47.0637 10.0215L47.9849 9.22315L47.0944 10.2057C46.6032 10.7584 45.8048 11.2804 45.3136 11.3725C44.8223 11.4953 43.9011 12.0173 43.287 12.5393L42.151 13.4911L43.0414 12.5086ZM22.1621 12.5393C22.7148 11.8638 22.7148 11.8331 21.763 11.3111C20.1663 10.4206 19.6136 9.89866 20.9953 10.5742C22.8376 11.4646 23.114 11.9252 22.2542 12.6314L21.5787 13.2148L22.1621 12.5393ZM40.0016 10.9119C40.5236 9.25385 41.629 7.04311 42.1817 6.61324C42.7344 6.18337 42.7344 6.18337 42.2124 6.79747C41.936 7.13522 41.3219 8.30201 40.8921 9.40738C40.063 11.4646 39.6025 12.2322 40.0016 10.9119ZM37.9137 10.0522C38.1286 9.92936 38.6506 9.03892 39.0805 8.05637C39.5411 7.10452 40.0016 6.24478 40.1552 6.15267C40.3087 6.06055 39.9402 6.95099 39.3568 8.14848C38.8041 9.31526 38.1593 10.2978 37.9444 10.2978C37.6374 10.2978 37.6374 10.2364 37.9137 10.0522ZM12.9507 8.79328C11.2926 7.59579 10.5864 6.70536 10.8014 6.15267C11.1391 5.23152 11.9067 5.29293 13.1349 6.42901C13.8104 7.04311 14.271 7.53439 14.1482 7.53439C14.0254 7.53439 13.4727 7.10452 12.9507 6.58254C11.9374 5.59998 10.9856 5.53857 10.9856 6.42901C10.9856 7.04311 13.3806 9.03892 14.5166 9.34597C15.1921 9.5609 15.2535 9.62231 14.793 9.65302C14.4245 9.68372 13.5955 9.28456 12.9507 8.79328ZM36.4706 8.73187C36.6548 8.17919 36.7776 7.04311 36.7776 6.21408C36.7776 5.26223 37.054 4.21827 37.5452 3.23571C37.9751 2.40668 38.3129 1.51624 38.3129 1.2399C38.3129 0.564393 37.4838 0.318755 36.839 0.810032C36.3478 1.17849 36.3478 1.17849 36.8083 0.656508C37.4531 -0.049703 38.6199 0.257345 38.6199 1.11708C38.6199 1.45483 38.2822 2.37598 37.883 3.1743C37.4224 4.12615 37.1154 5.35434 37.0233 6.85888C36.9311 8.08707 36.7162 9.25385 36.5013 9.46879C36.2556 9.71443 36.2556 9.5302 36.4706 8.73187ZM31.3736 8.94681C31.2815 8.73187 31.2508 7.93355 31.3429 7.19663C31.4657 5.84562 31.4657 5.84562 31.4964 7.44227L31.5578 9.03892L33.1852 9.16174L34.7818 9.25385L33.1545 9.31526C32.0184 9.34597 31.4964 9.25385 31.3736 8.94681ZM46.0505 8.48623C46.6032 8.02566 47.4936 7.38086 48.0463 7.10452C48.6297 6.79747 49.3359 5.99915 49.8886 5.01659C50.8404 3.26642 51.608 2.59091 52.13 3.11289C52.3757 3.35853 52.2528 3.41994 51.7616 3.41994C51.2396 3.38924 50.8711 3.7884 50.1342 5.078C49.5201 6.15267 48.7832 6.9817 48.0463 7.38086C47.4322 7.74932 46.6032 8.33271 46.204 8.70117C45.8048 9.06963 45.375 9.37667 45.2829 9.37667C45.16 9.37667 45.4978 8.97751 46.0505 8.48623ZM34.966 5.96844C34.966 5.0473 35.0889 4.03404 35.2117 3.69628C35.3652 3.35853 35.3959 4.00333 35.3038 5.23152C35.1196 7.84143 34.9353 8.2406 34.966 5.96844ZM52.4064 6.58254C52.8055 6.42901 53.5117 6.02985 53.9723 5.6921C55.047 4.92448 55.6304 4.92448 56.1524 5.63069C56.4901 6.06055 56.4901 6.09126 56.1217 5.78421C55.5076 5.20082 54.9856 5.29293 53.7267 6.15267C53.1126 6.58254 52.4064 6.92029 52.13 6.88958C51.8844 6.88958 51.9765 6.76677 52.4064 6.58254ZM15.1614 4.4639C13.6569 2.16104 14.5473 0.748622 16.2975 2.65232L17.2801 3.69628L16.3282 2.83655C15.8369 2.37598 15.2535 2.00752 15.0386 2.00752C14.4859 2.00752 14.6087 3.1743 15.2228 4.09545C16.0212 5.23152 16.2668 5.6921 16.1133 5.6921C16.0519 5.6921 15.622 5.13941 15.1614 4.4639ZM42.5808 3.60417C42.9186 2.95937 43.4099 2.25316 43.6555 2.03822C44.2082 1.57765 45.0679 1.79259 45.0679 2.37598C45.0679 2.68303 44.9758 2.65232 44.7916 2.34527C44.3617 1.70047 43.6248 2.16104 42.9186 3.54276C42.5808 4.21827 42.2124 4.77095 42.151 4.77095C42.0588 4.77095 42.2431 4.24897 42.5808 3.60417ZM30.4831 1.45483C29.7769 0.134526 29.0707 -0.0189982 28.7637 1.08638C28.5794 1.76188 28.5487 1.79259 28.518 1.20919C28.4873 0.257345 29.2549 -0.326046 29.8997 0.195936C30.4217 0.625803 31.3736 2.31457 31.1893 2.46809C31.1279 2.5295 30.8209 2.06893 30.4831 1.45483Z" fill="var(--fill-0, #9B9B9B)"/>
</g>
</svg>
