<svg preserveAspectRatio="none" width="100%" height="100%" overflow="visible" style="display: block;" viewBox="0 0 48.8929 61.3322" fill="none" xmlns="http://www.w3.org/2000/svg">
<g id="character-09-firefly-spots__charcoal">
<path id="Vector" fill-rule="evenodd" clip-rule="evenodd" d="M14.2171 60.5883C7.80285 58.902 3.43854 55.6949 1.28945 51.0992C0.198377 48.7187 0.165315 48.6195 0.165315 44.2221C0.165315 39.7586 0.165315 39.6925 1.28945 37.5103C1.91765 36.287 3.24017 34.4024 4.23205 33.2783C5.78601 31.5921 6.08358 31.03 6.21583 29.7075C6.34808 28.2197 6.28195 28.0874 4.00061 25.2109C0.727384 21.0781 0 19.5241 0 16.6807C0 13.7381 0.595132 12.4817 2.74422 11.0269C5.48844 9.17542 7.10853 8.77867 15.3081 8.01822L17.5233 7.78678V6.00138C17.5233 4.84418 17.3911 4.14986 17.1266 4.08373C14.184 3.35635 13.7211 3.05878 13.6219 1.96771C13.4566 0.413751 15.0767 -0.247507 18.383 0.0831223C21.4909 0.380689 21.6231 0.546003 21.8215 4.67887L21.9868 8.01822L24.6319 8.24966C26.0866 8.34885 28.3349 8.51417 29.5913 8.58029L31.9057 8.67948L32.1702 5.04256C32.3686 2.23221 32.5339 1.30645 32.9637 1.00888C33.625 0.51294 37.0635 0.446814 38.6505 0.909695C41.527 1.73627 41.1964 4.18292 38.1546 4.51355L36.5345 4.71193V6.99327V9.24155L38.9481 9.86974C46.3542 11.7543 49.3629 15.1267 48.8339 20.9458C48.4702 24.6819 46.3873 27.4923 42.3536 29.6414C41.2295 30.2365 40.2045 30.9308 40.1053 31.1623C40.0392 31.4268 40.6013 32.5509 41.3948 33.7081C48.7347 44.189 42.7834 57.3481 29.2607 60.5883C25.1609 61.5801 17.9862 61.5801 14.2171 60.5883ZM16.0355 51.3968C18.0193 48.5864 14.2501 45.1479 11.6381 47.3631C10.2826 48.4872 10.2164 50.0081 11.4067 51.4629C12.6962 52.9838 14.9444 52.9507 16.0355 51.3968ZM28.2688 51C29.7236 49.5783 29.2607 47.1647 27.3761 46.3712C24.3674 45.1148 22.1191 48.5534 24.3674 50.9008C25.5246 52.1241 27.1447 52.1572 28.2688 51ZM37.857 46.7018C39.1796 45.4124 38.915 43.5278 37.328 42.7012C36.2039 42.1391 34.8483 42.3706 34.3854 43.2302C32.9307 45.9414 35.8071 48.7848 37.857 46.7018ZM11.0099 41.1803C12.2002 39.7917 11.3406 37.0144 9.68743 36.9152C7.83591 36.783 7.17465 37.1797 6.67871 38.5684C5.75295 41.1803 9.22455 43.2963 11.0099 41.1803ZM23.3094 40.7505C25.5246 38.5353 22.6481 35.0967 19.8377 36.6176C18.912 37.1136 18.5152 38.6345 19.0112 39.8247C19.8047 41.7093 21.9207 42.1722 23.3094 40.7505ZM34.8483 37.9071C36.0386 36.9813 36.0386 35.229 34.8483 34.1379C33.7242 33.0799 32.6 33.0799 31.5751 34.1379C29.8558 35.8572 30.9138 38.0393 33.7572 38.5684C33.8895 38.5684 34.3524 38.3038 34.8483 37.9071ZM28.2027 29.9389C29.9881 27.5584 26.4173 24.715 24.3012 26.8641C23.2432 27.889 23.2432 29.1454 24.3012 30.2034C25.4254 31.3276 27.2769 31.1953 28.2027 29.9389ZM16.6968 29.8397C18.945 27.6245 15.9363 24.0537 13.3244 25.8722C11.3406 27.2608 12.6962 30.5671 15.3081 30.6333C15.6388 30.6663 16.267 30.3026 16.6968 29.8397ZM38.2207 24.4505C39.411 22.8965 38.1215 20.4168 36.1378 20.4168C34.5507 20.4168 33.7242 21.2103 33.7242 22.7312C33.7242 25.2771 36.7329 26.4343 38.2207 24.4505ZM26.3511 20.0201C28.0704 18.4 26.7479 15.4574 24.3012 15.4574C21.9538 15.4574 20.8958 18.2016 22.6481 19.9209C23.673 20.9789 25.2931 21.0119 26.3511 20.0201ZM12.7292 19.2596C13.688 18.3338 13.7872 17.2428 13.0268 16.1848C11.9026 14.5647 9.81969 14.5977 8.72861 16.2509C7.14159 18.7306 10.6463 21.3756 12.7292 19.2596Z" fill="var(--fill-0, #111111)"/>
</g>
</svg>
