<svg preserveAspectRatio="none" width="100%" height="100%" overflow="visible" style="display: block;" viewBox="0 0 67.2061 67.0495" fill="none" xmlns="http://www.w3.org/2000/svg">
<g id="character-01-rock-sprout__warm_gray">
<path id="Vector" fill-rule="evenodd" clip-rule="evenodd" d="M49.9634 65.7136C48.5957 64.2505 47.0053 62.024 47.0053 61.5151C47.0053 61.3242 47.4506 61.8967 47.9914 62.7873C48.5321 63.6461 49.5499 64.9502 50.2815 65.7136C51.013 66.4452 51.522 67.0495 51.4265 67.0495C51.3311 67.0495 50.695 66.4452 49.9634 65.7136ZM29.4478 62.6919C30.1793 62.6283 31.3244 62.6283 31.9924 62.6919C32.6285 62.7555 32.0242 62.8192 30.6246 62.8192C29.2251 62.8192 28.6844 62.7555 29.4478 62.6919ZM38.6082 59.9565C39.4988 59.1613 40.7711 57.6664 41.4709 56.6486C43.0613 54.2312 43.4747 53.8177 42.5205 55.5353C41.6299 57.1575 38.6719 60.529 37.654 61.0698C37.3042 61.2606 37.7176 60.7517 38.6082 59.9565ZM28.7162 60.7835C23.0227 60.0201 17.5519 56.0124 15.7071 51.2413C14.9755 49.3965 14.3394 46.5339 13.9577 43.4486C13.3534 38.7729 12.1765 36.2602 7.91433 30.6303C6.32397 28.531 5.08349 26.6226 5.17891 26.3999C5.27433 26.1773 5.21072 26.0501 5.05168 26.1455C4.66999 26.3999 2.85699 22.2968 2.4753 20.3248C1.33024 14.2814 3.01602 10.719 7.50083 9.47854C10.5225 8.68336 33.7099 7.15661 34.6005 7.72914C35.2049 8.11083 34.9822 11.5778 34.3143 12.373C33.7736 13.0409 33.4237 13.1364 31.1972 13.1682C26.8714 13.2 23.7225 14.8539 22.1003 17.8756C21.0189 19.9431 21.0825 24.2689 22.2912 26.6862C24.6449 31.5209 30.5292 34.2563 35.5548 32.8886C36.509 32.6342 37.4314 32.5069 37.6222 32.6023C37.7813 32.7296 37.8449 32.6978 37.7176 32.5387C37.495 32.2843 39.976 30.2804 40.3894 30.3758C40.4849 30.4077 40.7711 30.2168 41.0256 29.9305C41.3755 29.4852 41.3755 29.4216 40.9938 29.6443C40.7075 29.8351 40.6121 29.8033 40.7075 29.4852C40.8029 29.2308 41.0574 29.0717 41.2482 29.1354C41.4709 29.1672 41.5663 29.0717 41.4709 28.9127C41.3755 28.7537 41.6299 27.8631 42.0434 26.9407C42.4251 26.0183 42.8386 25.3821 42.934 25.573C43.0294 25.732 43.0294 25.7002 42.9976 25.4775C42.934 25.2549 43.0931 23.4101 43.3475 21.3426C43.602 19.2751 43.92 15.3311 44.0155 12.5956C44.2063 7.63372 44.2063 7.63372 45.0015 7.41107C45.9875 7.18842 53.9393 7.47468 57.5017 7.91998C65.199 8.84239 66.2487 9.54215 66.2487 13.6135C66.2487 16.3807 65.6761 17.5894 62.9407 20.7065C59.9509 24.1098 59.0921 26.2409 58.4877 31.9662C57.8198 38.1686 57.0564 39.25 52.7306 39.8862C49.2955 40.3951 49.0092 40.2997 48.4367 38.1686C48.055 36.8327 47.2598 36.5146 46.3374 37.3416C45.6376 37.9778 45.5422 39.2182 46.1784 39.4727C47.0053 39.7908 47.1644 42.399 46.4646 43.4168C46.1147 43.8939 44.588 46.8201 43.0931 49.8736C39.4352 57.3483 37.495 59.5112 33.5509 60.5608C31.9605 60.9743 30.6883 61.038 28.7162 60.7835ZM35.682 54.263C36.6044 52.9589 36.2545 51.1459 35.0777 51.1459C33.4873 51.1459 32.4377 53.7859 33.5191 54.9946C34.1234 55.6625 34.8868 55.4081 35.682 54.263ZM28.3345 53.7859C29.3524 52.0365 28.4618 49.5556 26.8396 49.5556C24.9948 49.5556 24.2632 52.7045 25.7263 54.2948C26.6169 55.2172 27.603 55.0582 28.3345 53.7859ZM34.9504 47.2654C36.1273 45.0708 35.7138 42.558 34.1552 42.558C32.6285 42.558 31.4516 45.6115 32.3422 47.2973C32.8511 48.2197 34.4415 48.2197 34.9504 47.2654ZM40.8029 45.8659C42.1706 45.3252 42.775 41.5402 41.6299 40.5223C40.4849 39.4727 39.2126 40.9358 38.8309 43.703C38.5764 45.6433 39.308 46.4385 40.8029 45.8659ZM27.8574 45.0389C28.4936 44.212 28.6526 41.6038 28.0801 40.7768C27.094 39.2818 25.4083 40.2361 25.2174 42.4308C24.9948 44.6255 26.776 46.3748 27.8574 45.0389ZM21.2415 42.5898C22.1003 40.9676 21.0825 37.4052 19.7466 37.2144C17.8064 36.9281 17.3929 40.904 19.1741 42.6534C19.8738 43.385 20.828 43.3214 21.2415 42.5898ZM36.0955 38.1686C36.9225 36.6419 36.7316 35.8785 35.5548 35.8785C33.9644 35.8785 33.042 38.0732 34.1234 39.1864C34.7914 39.8544 35.3321 39.5681 36.0955 38.1686ZM53.8121 35.306C54.1301 34.1291 53.653 32.6978 52.9215 32.6978C52.1581 32.6978 51.3311 34.8607 51.7446 35.7831C52.2535 36.9281 53.4304 36.6737 53.8121 35.306ZM24.5495 35.4968C24.5177 35.0833 24.4541 34.6698 24.4541 34.5426C24.3904 34.1291 23.15 34.2563 23.15 34.6698C23.15 35.0833 24.0724 36.1966 24.4222 36.1966C24.5495 36.1966 24.6131 35.8785 24.5495 35.4968ZM43.8246 35.0515C43.8246 34.9561 43.6656 34.6062 43.5066 34.2881C43.1885 33.6838 43.1567 33.6838 42.5523 34.2881C41.8208 35.0197 41.7572 35.4332 42.3297 35.6558C42.7114 35.7831 43.8246 35.3696 43.8246 35.0515ZM46.9099 34.1291C48.5003 33.0158 48.4049 29.8033 46.7827 29.5807C45.3514 29.358 44.1745 32.7932 45.2559 33.9701C45.9557 34.7334 46.0193 34.7334 46.9099 34.1291ZM17.7427 31.4573C18.8878 29.2944 16.5977 25.4457 15.1982 27.1315C14.6893 27.7358 15.0073 30.2804 15.6753 31.3301C16.2796 32.2207 17.2974 32.2843 17.7427 31.4573ZM12.9717 30.9484C12.59 30.5349 12.1129 30.2486 11.9856 30.344C11.8266 30.4395 11.6994 30.2804 11.6994 30.026C11.6994 29.7397 11.5722 29.517 11.3813 29.517C10.9678 29.517 10.9996 29.5807 11.4131 30.6939C11.7312 31.5209 11.7948 31.5209 12.0175 30.9484C12.2401 30.344 12.2401 30.344 12.6854 31.0438C12.9399 31.4255 13.2579 31.7436 13.417 31.7436C13.576 31.7436 13.3852 31.3937 12.9717 30.9484ZM54.4482 28.1493C55.6569 25.6366 54.7345 22.5513 53.0487 23.4737C51.7446 24.1734 50.9812 27.386 51.8082 28.9127C52.3808 29.9942 53.7167 29.5807 54.4482 28.1493ZM11.8266 25.5412C12.2083 23.9826 10.4589 21.0245 9.37746 21.438C8.32782 21.8197 8.48686 23.76 9.72733 25.6366C10.3635 26.6226 11.5722 26.559 11.8266 25.5412ZM48.5957 24.746C49.4227 23.1874 48.3094 20.452 47.2598 21.5016C46.7827 21.9788 46.9099 24.8096 47.4188 25.1277C48.0232 25.5093 48.214 25.4457 48.5957 24.746ZM56.9928 20.2294C57.5653 19.4342 57.6607 17.8756 57.2154 17.5894C56.7383 17.3031 55.9113 18.7662 55.9113 19.8795C55.9113 21.0882 56.293 21.2154 56.9928 20.2294ZM52.9851 18.5436C53.5576 17.3031 53.4622 16.4125 52.8261 16.5397C52.4444 16.6033 52.1899 17.0486 52.0627 17.8438C51.8082 19.5296 52.3489 19.9431 52.9851 18.5436ZM44.3653 15.1402C44.3017 14.3768 44.2381 14.9176 44.2381 16.3171C44.2381 17.7166 44.3017 18.3209 44.3653 17.6848C44.429 17.0168 44.429 15.8718 44.3653 15.1402ZM60.2053 16.3807C61.0005 15.172 61.1277 13.8043 60.5234 13.2954C59.8554 12.7229 59.2193 13.4544 58.9012 15.1084C58.5513 17.0168 59.2829 17.7484 60.2053 16.3807ZM11.3177 15.172C11.4131 13.8679 10.9996 13.1364 10.2999 13.3908C9.28203 13.7725 9.88637 16.6988 10.9042 16.3807C11.0632 16.3171 11.2541 15.7764 11.3177 15.172ZM18.2198 13.9633C18.1244 13.4226 18.1562 12.9455 18.3471 12.8183C18.5379 12.7229 18.697 12.373 18.697 12.0867C18.6651 11.6096 18.6333 11.6096 18.2198 12.1503C17.5519 13.0409 17.6155 14.8858 18.2835 14.8858C18.3789 14.8858 18.3471 14.4723 18.2198 13.9633ZM49.8998 13.2954C50.1224 11.5778 49.9952 11.0689 49.2318 11.0689C48.5321 11.0689 48.2776 11.6732 48.2776 13.2636C48.2776 15.4901 49.6135 15.5219 49.8998 13.2954ZM56.0704 12.6274C56.3248 11.5778 55.7841 10.6872 55.1162 10.9735C54.48 11.1961 54.162 13.2 54.6391 13.7725C55.1798 14.4086 55.7841 13.8997 56.0704 12.6274ZM46.242 59.3522C45.8921 58.0163 46.0511 55.0582 46.5282 53.6905C46.9417 52.4818 48.9138 49.4283 48.9138 49.9691C48.9138 50.0963 48.5003 50.7642 47.9914 51.464C46.7509 53.2134 46.242 55.1854 46.4328 57.8254C46.6237 60.1792 46.56 60.529 46.242 59.3522ZM63.2588 55.1536C63.3224 55.09 64.4039 54.9628 65.6125 54.8674C66.9166 54.7719 67.521 54.8037 67.0439 54.9628C66.2487 55.2172 63.0043 55.3763 63.2588 55.1536ZM54.9889 52.291C54.5754 51.8775 53.4304 51.0823 52.3808 50.5098C51.3629 49.9691 50.5041 49.3329 50.5041 49.1421C50.5041 48.8876 50.5995 48.8558 50.7586 49.1103C50.8858 49.3011 51.7128 49.8418 52.6352 50.3189C54.0347 51.0823 56.3566 53.0544 55.8795 53.0544C55.7841 53.0544 55.3706 52.7045 54.9889 52.291ZM43.8564 52.5772C43.8564 52.4182 44.429 51.1777 45.0969 49.8736C45.7649 48.5695 46.3374 47.6471 46.3374 47.8062C46.3374 47.997 45.7649 49.2057 45.0969 50.5098C44.429 51.8139 43.8564 52.7681 43.8564 52.5772ZM47.9277 47.4881C47.5461 45.5479 47.4824 45.4524 47.1008 46.1204C46.8781 46.5339 46.7191 46.6929 46.6873 46.5021C46.6873 46.343 46.8781 45.8977 47.1326 45.5479C47.6733 44.8481 47.6733 44.8799 48.2776 47.5835C48.5003 48.5059 48.5957 49.3329 48.5003 49.4283C48.4367 49.5238 48.1504 48.6332 47.9277 47.4881ZM55.7523 41.0949C56.4521 40.8404 57.4381 40.2361 57.9788 39.759L58.933 38.9002L58.1378 39.8226C57.3427 40.7132 55.6887 41.6356 54.8935 41.572C54.6709 41.572 55.0526 41.3493 55.7523 41.0949ZM3.8112 28.4992C2.85699 27.0997 1.90277 25.4139 2.25265 25.732C2.60253 26.0183 5.01987 29.8351 4.86084 29.8351C4.79722 29.8351 4.32012 29.2308 3.8112 28.4992ZM1.39386 24.078C0.185184 21.0563 -0.355538 16.5079 0.248798 14.5677C0.407834 14.0906 0.439641 14.5995 0.34422 15.84C0.153377 18.0347 0.78952 21.8833 1.68012 23.9826C1.93458 24.6187 2.12542 25.2231 2.03 25.2867C1.96639 25.3503 1.68012 24.8096 1.39386 24.078ZM6.83288 7.57011C7.24638 7.41107 8.29601 7.18842 9.21842 7.12481C10.8724 6.93396 10.8724 6.96577 8.83673 7.41107C6.4512 7.91998 5.84686 7.9836 6.83288 7.57011ZM62.0819 6.74312C61.8593 6.6477 60.7778 6.45685 59.6964 6.29782L57.6607 6.01155L59.7282 6.13878C61.5094 6.2342 64.2766 6.90215 62.9089 6.90215C62.6545 6.87035 62.2728 6.80673 62.0819 6.74312ZM32.9466 5.56625L40.3258 5.27999V3.46698C40.3258 1.39952 40.962 0.22265 42.0116 0.286264C42.6478 0.318072 42.6478 0.349879 42.0752 0.477107C41.0256 0.731565 40.6439 1.55855 40.6439 3.59421V5.56625L35.1731 5.7571C32.1514 5.88433 28.748 5.94794 27.603 5.91613C26.4579 5.88433 28.8753 5.72529 32.9466 5.56625ZM47.4188 5.43903C48.7865 5.37541 50.9176 5.37541 52.1899 5.43903C53.4622 5.47083 52.3489 5.53445 49.7089 5.53445C47.1008 5.53445 46.0511 5.47083 47.4188 5.43903ZM44.8425 4.10312C44.9061 3.84867 45.4786 3.46698 46.0829 3.27614C47.8005 2.70361 47.7051 0.826986 45.9557 0.477107L45.2559 0.349879L45.9557 0.286264C46.8463 0.254457 47.6415 1.04964 47.6415 1.97204C47.6415 2.79903 47.228 3.24433 46.0511 3.59421C45.6058 3.72144 45.1287 4.0077 45.0015 4.19855C44.8106 4.4212 44.7788 4.38939 44.8425 4.10312ZM16.4068 0.890601C17.043 0.190843 17.3929 0.0954215 19.7466 0.0636143L22.3548 0L19.7466 0.22265C17.87 0.381686 16.9476 0.604336 16.4068 1.04964L15.6753 1.65397L16.4068 0.890601Z" fill="var(--fill-0, #9B9B9B)"/>
</g>
</svg>
