<svg preserveAspectRatio="none" width="100%" height="100%" overflow="visible" style="display: block;" viewBox="0 0 31.973 37.3276" fill="none" xmlns="http://www.w3.org/2000/svg">
<g id="character-09-firefly-spots__lemon_yellow">
<path id="Vector" fill-rule="evenodd" clip-rule="evenodd" d="M5.32429 36.766C2.91069 34.8483 3.86952 31.7404 6.84518 31.7404C8.4322 31.7404 9.55634 32.8976 9.5894 34.5507C9.65553 36.799 7.01049 38.1546 5.32429 36.766ZM6.1178 34.4846C6.01861 33.4927 5.29122 33.096 4.99366 33.8564C4.79528 34.4185 5.35735 35.3773 5.91942 35.3773C6.08473 35.3773 6.18392 34.9806 6.1178 34.4846ZM18.4172 36.27C17.3261 35.7079 16.6649 34.2862 16.9294 33.0629C17.3592 31.0791 19.6405 30.4509 21.2606 31.8726C23.6742 33.9225 21.2275 37.6917 18.4172 36.27ZM28.0385 31.2114C26.716 29.5252 27.6087 27.4422 29.6255 27.4422C30.6835 27.4422 31.973 28.7317 31.973 29.7566C31.973 30.7816 30.6835 32.071 29.6586 32.071C29.0304 32.071 28.4683 31.7735 28.0385 31.2114ZM30.3198 30.0872C30.3198 29.1945 29.6917 28.93 29.0635 29.5252C28.6667 29.955 28.6336 30.1534 28.9643 30.5501C29.4933 31.1783 30.3198 30.8808 30.3198 30.0872ZM0.728542 25.9544C-1.38748 23.8714 1.55511 20.499 3.83646 22.4167C4.99366 23.3424 5.09285 24.9294 4.10096 25.9213C3.00988 27.0124 1.75349 27.0124 0.728542 25.9544ZM13.59 26.0536C12.7634 25.6899 12.1352 24.4666 12.1352 23.3755C12.1683 22.7803 12.2344 22.8465 12.6312 23.7061C13.3586 25.4254 16.4334 25.6899 16.4334 24.0367C16.4334 22.7142 14.4166 21.2925 13.6561 22.053C13.1933 22.5489 12.3997 22.4497 12.8296 21.9538C13.0279 21.7223 13.3255 21.5901 13.4908 21.6893C13.6561 21.7885 13.7884 21.6893 13.7884 21.524C13.7884 20.8958 15.3754 21.1272 16.235 21.9207C18.5164 23.9706 16.3342 27.4092 13.59 26.0536ZM25.4265 22.9126C24.104 22.3836 23.9056 19.5402 25.129 18.7797C25.8564 18.3169 27.5756 18.5152 28.0716 19.1104C29.9892 21.2595 28.0716 24.0037 25.4265 22.9126ZM17.8221 15.1097C16.2681 13.4897 17.3592 10.9108 19.5744 10.9108C20.4671 10.9108 21.7235 12.4317 21.7235 13.5558C21.7235 15.6388 19.2438 16.6306 17.8221 15.1097ZM18.7148 14.2501C18.1196 13.3244 18.5825 12.4647 19.6075 12.6631C20.2357 12.7623 20.401 12.6962 20.3348 12.2663C20.2687 11.9357 19.8389 11.7043 19.2107 11.6381C18.318 11.539 18.1527 11.6712 17.9874 12.4317C17.789 13.4897 18.2188 14.8783 18.7478 14.8783C18.9462 14.8783 18.9462 14.6469 18.7148 14.2501ZM7.60563 15.2089C4.66303 14.0187 5.91942 9.55518 8.92814 10.5471C11.1103 11.2745 11.3417 14.2501 9.29184 15.1759C8.82895 15.3743 8.4322 15.5396 8.39914 15.5065C8.36607 15.5065 8.00238 15.3743 7.60563 15.2089ZM9.65553 13.8534C9.78778 13.655 9.55634 13.2582 9.12652 12.9607C7.67175 11.9026 7.63869 11.8696 8.10157 11.6712C8.59751 11.4728 8.63058 10.9108 8.10157 10.9108C7.50644 10.9108 6.51455 11.9357 6.51455 12.5639C6.51455 13.2252 7.34112 13.688 8.26689 13.5889C8.56445 13.5558 8.82895 13.688 8.82895 13.8534C8.82895 14.3162 9.39102 14.3162 9.65553 13.8534ZM27.8401 9.42293C26.2862 7.90204 27.2781 5.29007 29.4272 5.29007C31.5432 5.29007 32.5681 8.29879 30.915 9.68743C29.9892 10.4809 28.7659 10.3818 27.8401 9.42293ZM16.5657 5.22394C15.0117 4.49656 14.7142 2.38053 15.9375 1.1572C16.8632 0.198377 17.9543 0.0991887 19.0123 0.859636C21.6904 2.74422 19.4752 6.64564 16.5657 5.22394ZM3.30745 4.62881C1.02611 3.70305 1.68737 0 4.13402 0C6.54761 0 7.44031 3.47161 5.29122 4.59574C4.46465 5.02556 4.29934 5.02556 3.30745 4.62881Z" fill="var(--fill-0, #FFD11A)"/>
</g>
</svg>
