<svg preserveAspectRatio="none" width="100%" height="100%" overflow="visible" style="display: block;" viewBox="0 0 62.1855 49.7145" fill="none" xmlns="http://www.w3.org/2000/svg">
<g id="character-18-root-leaf__leaf_green">
<path id="Vector" fill-rule="evenodd" clip-rule="evenodd" d="M50.0782 49.4347C42.7091 48.1451 35.8312 42.3112 33.0371 35.0035C32.1159 32.5164 31.2869 28.9853 31.2869 27.2966C31.2869 26.2526 31.1334 25.5771 30.8263 25.3315C30.1508 24.7788 29.9359 25.1165 29.0147 28.1563C26.282 37.2142 20.7245 43.1096 12.557 45.6273C9.88565 46.4564 4.88077 46.6406 3.00777 45.9651C1.44183 45.4124 0.213635 42.7411 0.029406 39.3329C-0.523281 29.9986 6.75376 23.1207 18.5751 21.8004C22.5053 21.3705 23.4572 19.7739 22.536 15.1989C21.2771 9.15003 21.2157 8.10607 21.9526 5.71109C22.5667 3.65387 24.3476 1.68876 26.4663 0.736915C27.8787 0.0921144 28.5235 0 32.0545 0C35.954 0 36.0769 0.0307048 37.9806 1.01326C42.7705 3.50035 43.6609 7.76832 41.0817 15.5673C39.0245 21.6469 39.3316 22.2303 45.6875 24.9016C53.2408 28.0642 58.5528 32.0251 60.5486 35.9553C65.0008 44.7369 59.9959 51.1542 50.0782 49.4347ZM55.0831 42.2191C54.991 42.0656 53.8549 41.3287 52.5653 40.5304C46.3937 36.8458 40.8361 31.9023 37.6121 27.2659C36.6295 25.8535 35.7084 24.7174 35.5856 24.7174C33.8661 24.7174 37.7349 30.6741 41.9415 34.5736C46.363 38.6574 53.9778 43.5087 54.8375 42.7718C55.0524 42.6183 55.1752 42.3419 55.0831 42.2191ZM10.2848 37.7362C16.2415 33.9902 23.2729 28.3405 23.3037 27.2352C23.3344 26.2219 22.2904 26.5904 20.5095 28.2177C18.1452 30.4285 13.6009 33.8367 9.5786 36.508C6.56953 38.5038 5.7098 39.4557 6.96869 39.4557C7.30645 39.4557 8.78028 38.6881 10.2848 37.7362ZM57.2018 38.5038C56.9561 38.1047 54.9296 37.2142 54.7147 37.3985C54.6533 37.4906 54.9603 37.8283 55.4209 38.1968C56.2806 38.8723 57.5702 39.0872 57.2018 38.5038ZM36.1997 17.1333C36.1997 16.3964 35.2785 15.5059 34.5416 15.5059C33.6205 15.5059 32.5151 16.3657 32.5151 17.0719C32.5151 17.7474 33.2827 17.8702 33.5591 17.1947C33.8047 16.5499 34.4802 16.6113 35.125 17.3482C35.7084 17.993 36.1997 17.9009 36.1997 17.1333ZM28.6156 16.4271C28.7998 16.4271 29.199 16.6727 29.506 16.9491C29.8745 17.2868 30.1815 17.3482 30.3965 17.1333C30.8263 16.7034 29.5674 15.1989 28.7998 15.1989C27.3567 15.1989 26.3434 16.4271 27.0496 17.2561C27.3874 17.6553 27.4795 17.6553 27.848 17.0719C28.0936 16.7341 28.4314 16.4271 28.6156 16.4271ZM32.5765 13.0495C31.901 12.4969 31.2562 12.4969 30.4579 13.1417C29.8438 13.6022 30.3351 14.0321 31.2869 13.8172C31.8089 13.6943 32.2388 13.7558 32.3616 13.9707C32.5151 14.247 32.6686 14.247 32.945 13.9707C33.1906 13.6943 33.0985 13.4794 32.5765 13.0495Z" fill="var(--fill-0, #45B934)"/>
</g>
</svg>
