<svg preserveAspectRatio="none" width="100%" height="100%" overflow="visible" style="display: block;" viewBox="0 0 11.4009 11.3425" fill="none" xmlns="http://www.w3.org/2000/svg">
<g id="character-01-rock-sprout__lemon_yellow">
<path id="Vector" fill-rule="evenodd" clip-rule="evenodd" d="M3.13105 10.6427C-2.65786 7.71647 0.204787 -0.935076 6.62983 0.0827536C13.4684 1.1642 12.7368 11.3425 5.83466 11.3425C5.1349 11.3425 3.89442 11.0244 3.13105 10.6427ZM4.7214 6.60322C5.35755 5.36274 4.02165 3.99504 2.81297 4.66299C2.11322 5.04467 1.95418 6.22154 2.55852 6.82587C3.13105 7.3984 4.33972 7.27117 4.7214 6.60322ZM9.04718 6.41238C9.39706 5.04467 7.96574 4.09046 7.01152 5.04467C6.15273 5.90346 6.82068 7.20756 8.12477 7.20756C8.63369 7.20756 8.88814 6.98491 9.04718 6.41238Z" fill="var(--fill-0, #FFD11A)"/>
</g>
</svg>
