<svg preserveAspectRatio="none" width="100%" height="100%" overflow="visible" style="display: block;" viewBox="0 0 19.3322 20.6384" fill="none" xmlns="http://www.w3.org/2000/svg">
<g id="character-01-rock-sprout__leaf_green">
<path id="Vector" fill-rule="evenodd" clip-rule="evenodd" d="M5.17802 20.3048C4.00115 19.7959 1.48838 17.0604 0.693204 15.4383C-0.324625 13.339 -0.197396 7.5819 0.915855 6.91395C1.04308 6.81853 1.58381 8.09082 2.12453 9.71298C3.23778 13.0209 3.71489 13.8479 4.28741 13.498C4.57368 13.3072 4.47826 12.4802 3.84211 9.99925C3.39681 8.18624 3.11055 6.6595 3.20597 6.56407C3.52404 6.246 5.36886 7.83636 6.29127 9.23588C8.35873 12.3848 8.96307 16.8378 7.65897 19.3506C6.92741 20.7501 6.54572 20.9091 5.17802 20.3048ZM14.084 7.26383C12.3664 6.72311 10.299 5.3236 9.28114 3.98769C8.1997 2.55637 8.42235 2.42914 10.3626 3.25613C13.4479 4.59203 14.2749 3.47878 11.3168 1.98384C8.77223 0.679748 8.54958 0.488905 9.59921 0.202641C12.271 -0.46531 15.5153 0.55252 17.9009 2.74721C19.205 3.95589 19.3322 4.24215 19.3322 5.54625C19.3322 6.88215 19.2368 7.04118 18.4734 7.23203C16.8831 7.64552 15.3881 7.64552 14.084 7.26383Z" fill="var(--fill-0, #45B934)"/>
</g>
</svg>
