<svg preserveAspectRatio="none" width="100%" height="100%" overflow="visible" style="display: block;" viewBox="0 0 37.9197 22.9294" fill="none" xmlns="http://www.w3.org/2000/svg">
<g id="character-09-firefly-spots__cobalt_blue">
<path id="Vector" fill-rule="evenodd" clip-rule="evenodd" d="M4.22854 22.2513C0.922251 20.6313 -0.664769 15.5065 0.260993 9.29068L0.624685 6.81096L1.98026 7.50528C3.40197 8.1996 6.84051 9.48906 6.84051 9.25762C6.84051 9.19149 7.63402 9.3568 8.59285 9.62131C9.51861 9.85275 11.0064 10.0842 11.8991 10.0842C13.6845 10.0842 13.6515 9.985 12.9902 13.4566C12.0975 18.0854 10.3782 21.1603 7.99771 22.3175C6.27844 23.144 6.01394 23.144 4.22854 22.2513ZM6.34457 16.4653C6.44376 16.1347 6.64213 14.8452 6.74132 13.5558C6.90664 11.539 6.87357 11.3075 6.47682 11.6381C5.91475 12.101 5.02205 16.1347 5.35268 16.6637C5.65025 17.1927 6.08007 17.0935 6.34457 16.4653ZM9.32023 14.3493C9.58473 13.5558 9.25411 12.068 8.82429 12.068C8.39447 12.068 8.06384 13.3244 8.29528 14.2501C8.55978 15.2089 9.02266 15.2751 9.32023 14.3493ZM4.42692 12.2333C4.59223 11.2414 4.52611 11.0099 4.16242 11.1422C3.56728 11.3406 3.03828 12.8284 3.33584 13.5889C3.66647 14.4154 4.16242 13.7872 4.42692 12.2333ZM28.9927 17.7217C27.1742 16.7298 24.7275 13.9195 23.6695 11.572C22.5785 9.12536 22.5785 9.0923 23.1405 9.0923C23.7687 9.0923 27.604 7.40609 29.3564 6.34808C30.8442 5.45538 33.919 2.44666 35.0101 0.826573L35.5391 0L36.0681 1.19026C36.7624 2.81035 37.9196 8.69555 37.9196 10.4809C37.8866 12.8615 36.6302 16.0024 35.2416 17.1266C33.6215 18.383 30.745 18.6805 28.9927 17.7217ZM32.299 12.7292C32.299 11.8365 30.745 8.43104 30.3482 8.43104C30.1829 8.43104 29.9515 8.56329 29.8192 8.72861C29.6209 9.05924 30.8442 12.597 31.3732 13.2913C31.803 13.8534 32.299 13.5227 32.299 12.7292ZM28.7943 12.101C29.0257 11.7373 28.3645 9.75356 28.0008 9.75356C27.4056 9.75356 27.2734 10.4809 27.6701 11.4398C28.1 12.3986 28.4637 12.63 28.7943 12.101ZM33.9521 8.99311C33.9521 8.1996 33.1255 6.7779 32.6626 6.7779C32.0345 6.7779 32.0675 7.73672 32.6626 8.72861C33.39 9.95194 33.9521 10.0511 33.9521 8.99311Z" fill="var(--fill-0, #124FD2)"/>
</g>
</svg>
