<svg preserveAspectRatio="none" width="100%" height="100%" overflow="visible" style="display: block;" viewBox="0 0 67.3421 67.8452" fill="none" xmlns="http://www.w3.org/2000/svg">
<g id="character-01-rock-sprout__charcoal">
<path id="Vector" fill-rule="evenodd" clip-rule="evenodd" d="M53.0607 67.5266C51.5339 67.1131 48.2578 63.7098 47.1445 61.4514C45.5224 58.0481 45.7132 53.7541 47.6534 51.0823L48.5122 49.8736L48.0033 47.4563C47.6852 46.1522 47.3672 44.9753 47.2399 44.8481C47.1127 44.7209 46.6038 45.5161 46.0949 46.6293C42.3734 54.8037 40.306 58.0163 37.507 60.1792C32.6723 63.837 23.2255 62.342 17.5002 56.9666C14.1605 53.8495 13.0154 51.305 11.9976 44.6891C11.0434 38.5503 10.4072 37.0235 6.84484 32.2843C2.16919 26.0819 0.960513 23.6963 0.197141 19.1479C-0.439002 15.3311 0.515213 10.9735 2.32822 9.3195C3.95039 7.85637 8.62604 6.71131 14.2241 6.36143C19.3132 6.04336 19.3769 6.04336 19.2496 4.70746C19.1542 3.62602 19.0588 3.5306 17.6593 3.1171C15.719 2.57638 15.1465 1.65397 16.1007 0.66795C16.7051 0.0954215 17.1504 0 19.7904 0C23.5118 0 23.6708 0.159036 24.0207 3.33975C24.1797 5.18457 24.3706 5.72529 24.7205 5.66168C24.9749 5.62987 28.6009 5.50264 32.7677 5.40722L40.306 5.18457V3.21252C40.306 0.349879 40.6559 0 43.5821 0C46.2221 0 47.0809 0.413493 46.9219 1.68578C46.8583 2.29012 46.5402 2.57638 45.7132 2.86264C45.1089 3.0853 44.5999 3.40337 44.6318 3.59421C44.6636 3.81686 44.6954 4.26216 44.7272 4.61204C44.759 5.21638 44.9816 5.24818 48.9893 5.24818C56.0505 5.24818 62.5392 6.17059 65.1792 7.50649C67.1194 8.49251 67.3421 9.06504 67.3421 13.2C67.3421 17.3667 66.9922 18.2255 63.9069 21.6289C61.6804 24.1098 60.758 26.3681 60.1855 31.012C59.5811 35.5604 58.8178 38.0732 57.6091 39.3137C56.6231 40.3315 54.3966 41.1903 52.7426 41.1903C50.6115 41.1903 50.6115 41.6038 52.6154 43.2259C54.5556 44.7845 54.7146 44.8163 57.0047 43.9257C59.4857 42.9715 62.7618 43.5758 65.6245 45.4842C67.2467 46.5339 67.3421 46.6929 67.3421 47.9016V49.2375L65.9426 47.9334C63.5888 45.7705 60.9806 44.8163 58.4679 45.2616C56.6549 45.5479 56.7503 45.9295 59.0404 47.17C62.1575 48.8876 61.5532 49.81 58.2452 48.3469C57.2274 47.9016 56.3686 47.5835 56.305 47.6471C56.0187 47.9652 58.3088 50.5734 59.6447 51.4004C62.0621 52.9271 64.6067 53.3088 66.8014 52.45C67.2467 52.291 67.3421 52.45 67.3421 53.2134C67.3421 54.1358 67.2467 54.1994 65.8789 54.4221C61.2351 55.1218 56.0505 52.1638 54.7464 48.0924C54.3329 46.6929 53.9513 46.2158 52.5199 45.198C51.5975 44.4982 50.5161 43.6076 50.1344 43.1941C48.6713 41.6674 48.5122 42.7488 49.5937 46.6611C50.2616 49.1421 50.2934 49.2057 51.7884 49.9691C55.1599 51.6548 57.3864 54.931 58.0862 59.2249C58.7223 62.9146 57.45 66.8269 55.3826 67.5902C54.4602 67.9401 54.492 67.9401 53.0607 67.5266ZM55.7007 64.7276C57.3864 61.8331 56.0187 55.758 52.997 52.8953C50.8978 50.8915 50.7069 51.2095 51.7248 55.0264C52.4563 57.73 52.5517 58.4298 52.2019 58.6842C51.6929 59.1295 51.5021 58.7478 50.3252 55.1854C49.2756 52.0047 49.0848 51.7185 48.5758 52.6091C46.6038 56.2987 48.5122 62.6601 52.3291 65.0775C54.1739 66.2225 54.8737 66.1589 55.7007 64.7276ZM33.213 60.1474C37.1571 59.0977 39.0973 56.9348 42.7551 49.4601C44.2501 46.4067 45.7768 43.4804 46.1267 43.0033C46.8265 41.9855 46.6674 39.3773 45.8404 39.0592C45.2043 38.8047 45.2997 37.5643 45.9995 36.9281C46.9219 36.1011 47.7171 36.4192 48.0987 37.7551C48.6713 39.8862 48.9575 39.9816 52.3927 39.4727C56.7185 38.8365 57.4819 37.7551 58.1498 31.5527C58.7541 25.8274 59.6129 23.6963 62.6028 20.293C65.3382 17.1759 65.9108 15.9672 65.9108 13.2C65.9108 9.12866 64.8611 8.4289 57.1638 7.50649C53.6014 7.06119 45.6496 6.77493 44.6636 6.99758C43.8684 7.22023 43.8684 7.22023 43.6775 12.1821C43.1686 25.1277 41.6419 29.517 36.8708 31.8708C31.718 34.4154 24.625 31.7436 21.9532 26.2727C20.7446 23.8554 20.681 19.5296 21.7624 17.4621C23.3846 14.4405 26.5335 12.7865 30.8593 12.7547C33.0858 12.7229 33.4356 12.6274 33.9764 11.9595C34.6443 11.1643 34.867 7.69733 34.2626 7.31565C33.372 6.74312 10.1846 8.26986 7.16291 9.06504C3.50509 10.0829 1.81931 12.4048 1.81931 16.5397C1.81931 20.9291 3.47328 24.7778 7.76725 30.5349C11.934 36.0693 13.0154 38.3594 13.6198 43.0351C14.0015 46.1204 14.6376 48.983 15.3692 50.8279C17.8501 57.2847 26.6607 61.8967 33.213 60.1474ZM33.1494 27.545C36.5845 25.9865 37.7614 22.2014 35.8212 19.0207C33.6583 15.5219 27.3605 15.7127 25.4838 19.3069C23.0347 24.0462 28.3465 29.7397 33.1494 27.545ZM51.6929 18.7662C51.3113 18.3845 51.9474 16.2217 52.4881 16.1262C53.1243 15.999 53.2197 16.8896 52.6472 18.1301C52.2973 18.8935 52.0428 19.0843 51.6929 18.7662ZM58.5633 16.2217C58.3088 15.5537 58.6587 13.7725 59.1994 13.0409C59.8674 12.1185 60.7898 12.9773 60.5353 14.2814C60.1537 16.1262 58.9768 17.3031 58.5633 16.2217ZM9.83471 15.6809C9.26218 15.1084 9.35761 13.2318 9.96194 12.9773C10.6617 12.7229 11.0752 13.4544 10.9798 14.7585C10.8843 15.9354 10.439 16.2853 9.83471 15.6809ZM17.6275 14.2496C17.2458 13.8679 17.4048 12.373 17.8819 11.7368C18.2954 11.1961 18.3272 11.1961 18.359 11.6732C18.359 11.9595 18.2 12.3094 18.0092 12.4048C17.8183 12.532 17.7865 13.0091 17.8819 13.5499C18.1046 14.4723 18.0092 14.6631 17.6275 14.2496ZM48.1624 14.2814C47.8761 13.9952 47.8761 11.8323 48.1305 11.1643C48.3532 10.56 49.4028 10.4964 49.6255 11.0689C50.1344 12.5002 48.9893 15.0766 48.1624 14.2814ZM54.3011 13.359C53.824 12.7865 54.1421 10.7826 54.7782 10.56C55.4462 10.2737 55.9869 11.1643 55.7325 12.214C55.4462 13.4862 54.8419 13.9952 54.3011 13.359ZM27.7421 23.1874C27.1378 22.5513 27.2332 21.8197 27.9966 21.3426C29.0781 20.6429 30.3185 22.2014 29.4915 23.2192C28.9826 23.8236 28.3783 23.8236 27.7421 23.1874ZM32.4178 23.3147C31.8771 22.7739 31.9407 21.5653 32.5132 21.3426C33.6583 20.9291 34.7079 22.3286 33.9445 23.2192C33.4674 23.7918 32.9267 23.8236 32.4178 23.3147Z" fill="var(--fill-0, #111111)"/>
</g>
</svg>
