<svg preserveAspectRatio="none" width="100%" height="100%" overflow="visible" style="display: block;" viewBox="0 0 65.8 62.4575" fill="none" xmlns="http://www.w3.org/2000/svg">
<g id="character-18-root-leaf__charcoal">
<path id="Vector" fill-rule="evenodd" clip-rule="evenodd" d="M50.7192 62.1063C42.1832 60.1412 34.9369 53.2633 32.6033 44.8809C32.327 43.8677 32.0199 42.8237 31.9585 42.5781C31.8664 42.3017 31.3137 43.1615 30.6075 44.6353C26.3088 53.7853 18.2028 59.2201 8.80709 59.2508C3.98644 59.2508 2.51261 58.4832 0.946663 55.0749C-0.250825 52.4957 -0.312235 46.9075 0.762434 43.9598C3.40305 36.8363 9.78965 32.5376 19.6459 31.2173C23.484 30.6953 23.5147 30.5725 22.5014 25.5676C21.2118 19.3652 21.5496 16.1105 23.6989 13.2857C24.8964 11.7197 24.8657 11.6583 22.0102 10.1538C20.5363 9.35547 20.1372 9.29406 19.0318 9.50899C18.2335 9.66252 17.2816 9.63181 16.5447 9.44758C15.2244 9.07913 12.7987 7.14472 12.7987 6.46922C12.7987 5.60948 13.7506 5.64019 14.7331 6.56133C15.992 7.72812 17.2509 8.2501 18.2028 8.00446C18.6019 7.91234 18.9397 7.75882 18.9397 7.69741C18.9397 7.42107 17.6194 4.96468 17.0667 4.13565C16.3912 3.21451 16.2991 2.04773 16.8825 2.04773C17.5273 2.04773 18.8169 3.61367 19.6766 5.45596C20.5977 7.45177 20.6592 7.51318 22.8085 8.61856C23.6682 9.07913 24.6815 9.78534 25.0806 10.1845C26.5852 11.7812 27.1993 10.9828 26.3395 8.61856C25.9711 7.69741 25.6947 6.43851 25.6947 5.82442C25.6947 5.0568 25.3263 4.19706 24.4665 2.87676C23.7603 1.8635 23.2691 0.788829 23.2998 0.54319C23.7296 -1.66756 27.4449 3.39874 27.5063 6.25429C27.537 7.75882 28.4275 9.72393 29.0723 9.72393C30.7917 9.72393 31.5901 9.35547 31.3751 8.58785C31.283 8.18869 31.3444 7.05261 31.5594 6.07006C31.8664 4.4427 31.8357 4.16636 31.2216 2.99957C29.932 0.451076 31.0681 -0.715707 32.4498 1.74068C33.1253 2.96887 33.2174 3.49085 33.2174 6.19288V9.26336L34.7834 9.35547L36.3493 9.44758L36.6871 8.12728C36.8713 7.39036 37.0862 6.00865 37.1783 5.02609C37.3319 3.06098 38.4372 0.727419 39.297 0.573895C40.2181 0.389666 40.2488 1.43363 39.4198 3.1531C38.8671 4.25847 38.5908 5.33314 38.5908 6.28499C38.5908 7.08331 38.4679 8.15798 38.3144 8.71067C38.0381 9.63181 38.0995 9.69322 38.9592 10.0003C39.4812 10.1845 39.9725 10.338 40.0339 10.338C40.0953 10.338 40.6173 9.32477 41.2007 8.09657C41.9069 6.68415 42.6131 5.67089 43.2272 5.27173C43.7492 4.93398 44.4247 4.13565 44.7624 3.49085C45.4379 2.23195 46.2056 1.74068 46.574 2.35477C46.9732 2.99957 46.1749 4.62693 44.6396 6.07006C42.7052 7.94305 41.3235 11.1056 42.1832 11.7197C42.6438 12.0575 42.8587 11.9961 43.8413 11.1056C44.4554 10.553 45.4993 9.93886 46.1441 9.72393C46.8197 9.50899 47.7715 8.95631 48.2935 8.52644C48.8155 8.09657 49.6752 7.48248 50.1972 7.20613C50.7806 6.89909 51.4561 6.10076 51.9474 5.11821C52.7764 3.49085 53.4519 2.96887 54.0046 3.52156C54.2195 3.73649 54.0967 4.31988 53.544 5.39455L52.7764 6.9605H53.6054C54.0353 6.9605 54.9257 6.62274 55.5398 6.19288C56.768 5.36385 57.4742 5.24103 57.812 5.79371C58.3647 6.68415 54.7722 8.58785 52.5922 8.52644C51.0262 8.49574 50.1972 8.86419 48.7234 10.1845C48.2935 10.553 47.4645 11.0442 46.8504 11.2285C46.2363 11.4127 45.3765 11.9961 44.916 12.4567L44.0562 13.3471L44.8545 15.0052C46.6661 18.7511 46.6047 20.4706 44.3633 27.2871C42.7052 32.3227 42.6745 32.2306 47.096 33.9807C55.5091 37.2661 60.4526 40.7051 63.431 45.3415C67.6068 51.7895 66.1023 59.3429 60.1762 61.6458C57.9348 62.5055 53.4212 62.7204 50.7192 62.1063ZM59.3779 60.0798C64.2293 57.9612 65.3347 53.0177 62.3256 47.061C60.4219 43.315 55.0792 39.1391 48.969 36.6213C47.0653 35.823 44.9774 34.9633 44.3633 34.6869C41.4156 33.4587 41.1086 31.3401 43.0737 26.151C46.4819 17.0317 42.7666 10.8907 33.8315 10.86C29.8706 10.86 27.9055 11.5048 25.8483 13.5006C23.0848 16.2026 22.7164 18.4748 24.0367 25.107C24.8043 29.0066 24.8043 29.1908 24.313 30.4804C23.6682 32.1999 23.5454 32.2613 19.0011 33.0289C12.8908 34.1035 10.1581 35.2703 6.78058 38.3715C1.8371 42.8851 0.332566 48.9647 2.69684 54.7986C3.52587 56.8251 4.41631 57.3164 7.5789 57.5313C14.9174 58.0533 23.1155 53.7239 27.3221 47.1531C28.9187 44.666 31.5287 38.2487 31.5287 36.867C31.5287 36.652 31.6822 36.3757 31.8971 36.2529C32.4498 35.8844 33.0639 37.0819 33.0639 38.5557C33.0639 42.1482 35.1825 47.9514 37.8231 51.6667C42.828 58.6367 53.3291 62.7511 59.3779 60.0798ZM52.4079 52.0352C46.7889 48.6883 42.828 45.3108 39.7883 41.2885C37.3933 38.0952 36.5335 36.4371 37.1169 36.0994C37.3933 35.9151 37.6696 36.038 37.9767 36.4985C42.0911 42.6088 48.447 48.412 55.2328 52.2501C56.1232 52.7721 56.8601 53.3248 56.8601 53.4783C56.8601 54.2766 55.3556 53.7853 52.4079 52.0352ZM8.40793 50.3464C7.97806 49.9165 8.25441 49.6402 11.11 47.8286C15.0095 45.2801 19.5538 41.8719 22.1023 39.569C24.2209 37.6039 24.5894 37.4197 24.9578 38.0031C25.5412 38.9856 15.2244 47.3066 10.3116 49.8244C8.65357 50.6534 8.68428 50.6534 8.40793 50.3464ZM57.3821 49.456C56.246 48.6576 56.6145 48.3506 57.9348 49.0261C58.6103 49.3638 59.163 49.7323 59.163 49.7937C59.163 50.1315 58.0269 49.9165 57.3821 49.456ZM34.507 28.546C33.9236 27.9933 35.1518 26.6116 36.2265 26.6116C37.0555 26.6116 37.9767 27.4713 37.9767 28.2389C37.9767 28.8837 37.0862 28.9144 36.8713 28.3003C36.7485 28.0547 36.4107 27.8398 36.1037 27.8398C35.7659 27.8398 35.4282 28.0547 35.3361 28.3003C35.1211 28.7916 34.8141 28.8837 34.507 28.546ZM28.6731 28.2389C28.0897 27.6862 29.3179 26.3045 30.3926 26.3045C31.2216 26.3045 32.1428 27.1643 32.1428 27.9319C32.1428 28.5767 31.7129 28.6074 31.2216 27.9933C31.0067 27.7477 30.6382 27.5327 30.3926 27.5327C30.1776 27.5327 29.9013 27.7477 29.8092 27.9933C29.625 28.4846 29.0109 28.6074 28.6731 28.2389ZM34.1079 25.0456C34.0157 24.8614 33.5245 24.7693 33.0332 24.8921C32.3884 25.0149 32.1428 24.9535 32.1428 24.6465C32.1428 23.7253 34.1079 23.5718 34.5991 24.4315C34.9369 25.0763 34.507 25.6597 34.1079 25.0456Z" fill="var(--fill-0, #111111)"/>
</g>
</svg>
