<svg xmlns="http://www.w3.org/2000/svg" viewBox="0 0 1254 1254"><path fill="#050502" d="M830 276c9 9 9 18 9 29a97 97 0 0 1-14 47l-2 3c-18 30-49 49-82 58a145 145 0 0 1-36 3h-17a22 22 0 0 0-13 5c-8 9-7 24-8 35v16h3q68 0 132 17l4 1 30 8a459 459 0 0 1 57 22l2 1 19 9a342 342 0 0 1 96 66l2 2q10 9 18 20l2 2a197 197 0 0 1 36 74l1 2a137 137 0 0 1-17 100q-11 18-26 33l-2 2c-32 33-78 53-121 68l-8 3-32 9-17 5-18 4-4 1-5 1-16 3h-5l-6 2-12 2h-2l-19 3-4 1q-29 4-57 5h-3a1158 1158 0 0 1-174-5h-3l-17-3-9-1-16-2-6-1-3-1-27-5-12-2-3-1-9-2-4-1-16-4-14-4-26-8-3-1-21-8-7-3-48-23-2-1c-42-24-76-57-89-104l-1-4c-9-37 2-76 22-108l21-29 2-2 9-10a209 209 0 0 1 31-28l6-5a380 380 0 0 1 95-54l9-4 22-9 3-1 57-16 2-1 11-2 10-2 7-1 12-2 12-2 2-1 8-1h2q46-6 92-5v-29a26 26 0 0 0-6-16q-4-4-10-4h-5q-59-1-102-40l-2-1-11-14-2-2q-7-10-11-22l-1-3a81 81 0 0 1-5-31v-3q-1-13 7-23c14-12 37-10 54-9q16 0 30 5l4 1a141 141 0 0 1 83 88h2v-2l5-11 1-3a168 168 0 0 1 57-62l3-2c29-17 90-37 119-12"/><path fill="#F3C00F" d="M794 285h4q13-1 24 5c5 7 3 17 2 25a104 104 0 0 1-16 36l-2 2q-28 36-74 44-18 3-37 2-19 0-32 12c-10 15-10 30-11 47l-1 29 10 1 4 1h3q26 1 51 4h4l10 2h3l13 3-7 4-3 1-3 1q-9 3-19 9l-11 4-14 6-9 3-16 8-11 5-15 7-3 2a601 601 0 0 0-157 110l-12 13-9 9-21 25q-24 29-45 61l-1 2-36 62-13 25-1 2-4 7-2 5q-5 3-11-1l-3-2-4-1-3-2q-40-18-73-46l-3-2-2-6 5-10 3-5 2-2 4-7 31-46 1-2 40-49 5-6 29-30 1-1q9-10 19-18l5-5 20-16 47-35a428 428 0 0 1 74-41l6-3q19-9 40-16l8-3 30-11 24-7 4-2 1-9v-2l2-38v-14h-2l-1-3q-2-13-14-20-14-5-28-5a146 146 0 0 1-43-6l-2-1a126 126 0 0 1-42-24l-2-2a86 86 0 0 1-27-51v-11c0-9 0-9 3-13q11-6 24-4h3q18 0 35 5l4 1 28 12a139 139 0 0 1 27 22 110 110 0 0 1 27 44l3 8 5 14q1 4 5 6 8 1 13-3l2-6 5-12 6-14h2l1-3 6-13 2-2h2l1-2q6-13 17-21l2-2c11-11 30-29 45-29v-2q23-9 48-9"/><path fill="#ED4C14" d="m790 505 3 1 10 2 3 1 11 3 3 1 31 9 1 2-2 1-33 14-8 4-19 9-2 1-61 36-3 2-27 19-2 2-49 39-6 6-9 8-6 5-20 21-6 6-11 12-3 3-22 28-28 40-2 3-27 44-8 18h-2l-1 3-5 11-8 17-4 10-9 21q-30-4-60-12l-2-1-29-8-14-4-13-5 4-11 1-3 2-3 1-3 10-18 4-8a485 485 0 0 1 37-62q15-23 32-44l2-2 23-28 26-27 2-2 13-12 7-7 17-14 2-1q14-12 30-23l2-2a724 724 0 0 1 96-55l2-1c12-6 12-6 19-7v-2l2-1 13-5 21-9 3-1 19-7 12-5 16-6 4-1q9-4 17-2"/><path fill="#449F2A" d="m878 532 5 3 7 3 27 13 18 10-7 5-2 1-3 1a431 431 0 0 0-108 68l-2 1-28 25c-21 20-21 20-30 31l-7 7-21 24-22 30a642 642 0 0 0-81 159l-3 8q-27 1-55-1l-3-1h-11l-3-1h-2l-6-1-7-1h-6l-42-6 6-17 1-3q8-19 18-37l8-17h2v-2l3-8 2-2 1-3 2-3 14-23 6-8a537 537 0 0 1 54-71l7-8q8-10 18-19l5-6 17-16 8-7 18-15 2-2 29-22 2-2a567 567 0 0 1 57-37l3-1a714 714 0 0 1 69-36l3-1 6-1v-2l3-1 5-2 2-1 11-4q5-2 10-1"/><path fill="#F3C00F" d="m956 574 8 6 20 16 5 5 14 13 2 4-2 1a279 279 0 0 0-53 33l-2 1a299 299 0 0 0-38 37l-8 9-19 22-20 29-1 2-17 28-2 3-11 22h-2v2l-7 15-10 23-3 7-13 37v3l-3 9v3l-1 2q-3 3-8 4l-17 2-25 4-39 3h-2l-6 1h-9l-15 1h-33l3-13 1-4 2-4v-2q13-34 30-66h2v-2l3-8 2-2 1-3 2-3a517 517 0 0 1 35-54 532 532 0 0 1 49-60l16-17 6-6 21-20q55-50 124-80l3-1c12-5 12-5 17-2"/><path fill="#ED4C13" d="m1017 629 6 8c22 32 37 70 30 110a94 94 0 0 1-9 27l-2 5-13 20-2 3c-34 44-89 66-140 84l-3 1-53 15-6 1-4 1h-3l-9 1q11-44 31-84l2-3 6-13 1-2a428 428 0 0 1 48-75l2-3 7-8 1-1a345 345 0 0 1 45-47c46-40 46-40 65-40"/><path fill="#439E29" d="M604 489q-5 4-11 5l-33 11-2 1-21 8-18 9-8 3-22 11-7 4a553 553 0 0 0-92 62l-25 22-6 6-17 16-5 5-17 18-5 5-12 14-6 8-22 27-41 61-1 2-2 4-2 2-1 2-1 2h-3l-2-3-2-2-1-3-2-2a108 108 0 0 1-17-56v-3l2-25h2v-4l3-13 1-2a183 183 0 0 1 24-44l2-2a218 218 0 0 1 38-41l9-7a390 390 0 0 1 62-40l16-8 4-2 9-4 11-4 16-7 12-4q21-8 42-13h3c24-7 24-7 35-8l6-1 16-3h3l10-2h4a464 464 0 0 1 74-5m190-205h4q13 0 24 6c5 7 3 17 2 25a104 104 0 0 1-16 36l-2 2q-28 36-74 44-18 3-37 2-19 0-32 12c-10 15-10 30-11 47l-1 29 7 1h2l3 1h8v1h-4l-30 4v-4l2-59h-2l-1-3q-2-13-14-20-14-6-28-5a146 146 0 0 1-43-6l-2-1a126 126 0 0 1-42-24l-2-2a86 86 0 0 1-27-51v-11c0-9 0-9 3-13q11-6 24-4h3q18 0 35 5l4 1q14 4 26 11l2 1a139 139 0 0 1 27 22 110 110 0 0 1 27 44l3 8 5 14q1 4 5 6 8 1 13-3l2-6 5-12 6-14h2l1-3 5-9 1-4 2-2h2l1-2q6-13 17-21l2-2c11-11 30-29 45-29v-2q23-9 48-9"/><path fill="#080707" d="M976 369q5 3 6 7l1 5a34 34 0 0 0 12 22q6 5 14 6l6 4q2 5-1 10l-10 3q-13 4-22 16l-5 13a11 11 0 0 1-6 7l-7-1-2-4h-2v-2a35 35 0 0 0-11-25l-14-7c-7-2-7-2-9-6v-7a25 25 0 0 1 13-6q13-3 20-15l5-14 2-5a13 13 0 0 1 10-1"/><path fill="#090808" d="M315 355q6 0 9 4l2 7q3 13 16 21l14 4q4 1 7 5v6q-4 5-11 7a35 35 0 0 0-20 18l-2 9q0 5-3 9-5 3-10 3-4-3-6-7v-5a33 33 0 0 0-14-18q-6-4-13-4-6-1-10-6-2-5 2-10l11-5q12-5 16-15l4-16q1-7 8-8"/><path fill="#0A0909" d="M221 509h4v2l2 1q6 4 11 11l3 3 2 3 2 2q3 4 2 9l-3 5-11 1-6-5-1-2-3-4-5-5q-5-5-7-12 1-9 10-9"/><path fill="#0A0A09" d="M183 546q7 1 12 6l3 1 9 7q6 3 7 9t-2 7q-3 3-8 3-7-2-13-7l-2-2-7-5-2-1q-3-2-5-6 0-5 2-9 3-4 6-3"/><path fill="#0A0909" d="m1052 527 6 5q1 6-2 11l-3 3-12 11q-4 5-9 5-4 0-7-2l-3-9q4-7 10-12l3-2c11-11 11-11 17-10"/><path fill="#080808" d="m1084 568 4 4v7q-7 7-15 11l-3 2c-9 5-9 5-14 4q-5-2-6-7 0-5 3-8l12-8 2-1q8-6 17-4"/><path fill="#F3F3F4" d="M971 396h2l1 2a33 33 0 0 0 15 17v2l-5 3q-8 6-14 14l-7-9-11-10 8-6q6-5 9-11z"/><path fill="#F4F4F4" d="M316 382q5 1 6 6 6 8 15 12l-7 6-11 14-2-2a49 49 0 0 0-16-14l5-6q7-6 10-16"/><path fill="#261E01" d="m499 640 2 1-40 40 2-6 7-6 1-1 6-6 11-12z"/><path fill="#317F1D" d="M604 489q-2 4-8 4h-3l-8 1v-2l-17-1v-1z"/><path fill="#292829" d="m695 299 2 1-24 24-2-1q11-13 24-24"/><path fill="#388D26" d="m644 673 2 1-1 1-9 10-16 15-2-1z"/><path fill="#D8AE06" d="m731 495 8 1h2c6 1 6 1 8 3l-10 3v-4z"/><path fill="#230A02" d="m642 653 2 1-16 16-3-1 2-2 4-3 1-2z"/><path fill="#378B24" d="m707 319 2 1-16 16-2-1z"/><path fill="#317A1E" d="M786 285h21v1h-12l-3 1h-7l-4 1-5-1q4-2 10-2"/><path fill="#A28207" d="m681 490 21 1v1l-9 1h-7q-3 0-5-3"/><path fill="#443503" d="M748 915q-5 3-11 3l-3-1h-2v-1zm-11 3h5v1h-5z"/><path fill="#D5AB0D" d="M687 811v6l-1 2-2 2-1 2h-2z"/><path fill="#E2E2E2" d="M599 303q8 2 11 8-4 0-7-3l-2-2-2-2z"/><path fill="#363637" d="m968 369 2 1-1 3h-2l-1 3-3 3q0-6 5-10"/><path fill="#2C2C2C" d="m330 537 2 1-10 6-3-1 5-3 3-2z"/><path fill="#D2A80C" d="m251 787 2 2-2 4-2 2-4 3z"/><path fill="#C59F0B" d="m292 727 1 3-3 4-2 2-1 1-2-1z"/><path fill="#317B1F" d="m878 532-5 4-7-2z"/><path fill="#4C4C4C" d="M496 483c-10 4-10 4-16 2v-1l6-1 3-1z"/><path fill="#3E3004" d="m728 507-1 3-7 3-2-2 4-2 2-1z"/><path fill="#2F930D" d="m637 487 2 1-1 2 6 1q-3 3-7 3z"/><path fill="#D3A80D" d="m692 802 1 4-3 5h-2z"/><path fill="#2B2B2C" d="m474 282 2 1-2 2-4 6h-2q2-5 6-9"/><path fill="#CF400E" d="M360 855h1l-1 8-2 1-1-2z"/><path fill="#DFB40D" d="m316 697 1 4-5 4q1-5 4-8"/><path fill="#BDBDBD" d="M861 913q-5 3-10 2 4-4 10-2"/><path fill="#D2AA0E" d="M492 553v2h-3l-1 3h-5c6-5 6-5 9-5"/><path fill="#30761D" d="M552 492v1a24 24 0 0 1-14 1v-1z"/><path fill="#2B701B" d="M660 387v7l-3 4z"/><path fill="#BBBBBC" d="m316 382 3 1-3 6h-2z"/><path fill="#ECECEC" d="m680 309 3 1-5 5-1-3h2z"/></svg>