<svg xmlns="http://www.w3.org/2000/svg" viewBox="0 0 1254 1254"><path fill="#050502" d="M830 276a27 27 0 0 1 9 20q1 46-31 79-19 19-45 30l-3 1a133 133 0 0 1-55 10h-17a22 22 0 0 0-13 5c-8 9-7 24-8 35v16h3q68 0 132 17l4 1 30 8a459 459 0 0 1 57 22l2 1 19 9a342 342 0 0 1 96 66l2 2q10 9 18 20l2 2a197 197 0 0 1 36 74l1 2a137 137 0 0 1-17 100q-11 18-26 33l-2 2c-32 33-78 53-121 68l-8 3-32 9-17 5-18 4-4 1-5 1-16 3h-5l-6 2-12 2h-2l-19 3-4 1q-29 4-57 5h-3a1158 1158 0 0 1-174-5h-3l-17-3-9-1-16-2-6-1-3-1-27-5-12-2-3-1-9-2-4-1-16-4-14-4-26-8-3-1-21-8-7-3-48-23-2-1c-42-24-76-57-89-104l-1-4c-9-37 2-76 22-108l21-29 2-2 9-10a209 209 0 0 1 31-28l6-5a380 380 0 0 1 95-54l9-4 22-9 3-1 57-16 2-1 11-2 10-2 7-1 12-2 12-2 2-1 8-1h2q46-6 92-5l-1-25v-2a31 31 0 0 0-5-19l-13-4h-6l-10-1h-2a133 133 0 0 1-77-30l-3-2a115 115 0 0 1-32-45l-1-3a84 84 0 0 1-5-31v-3a34 34 0 0 1 6-21c12-12 27-12 42-11h3q21 0 40 5l3 1 13 6a140 140 0 0 1 40 29c14 13 26 34 31 53h2l1-2 7-16 1-2a161 161 0 0 1 97-77c22-5 60-10 79 5"/><path fill="#F3C00F" d="M817 290q3 7 2 13v4a59 59 0 0 1-6 24l-1 3q-6 15-17 27l-1 2c-16 20-44 32-69 35l-20 1h-11q-17 0-29 12-12 16-11 37v6l-3 35h4l31 1 16 1 48 6v2l-9 3-12 5-8 3-17 7-2 1-2 1-2 1-4 2-9 4q-13 5-25 12l-5 2-29 16-9 5-22 13-7 4a665 665 0 0 0-118 93l-2 2-11 12-8 8-13 15-6 7-21 28-2 2a707 707 0 0 0-48 78l-15 30-3 8-4 9-19-6-3-1a278 278 0 0 1-72-46l-3-2-2-6 4-8 1-3 2-3 2-3q25-43 56-82l2-2 23-28 25-26 2-2q6-7 13-12l7-7 20-17a510 510 0 0 1 68-46l3-1a593 593 0 0 1 102-49l12-5 16-5 10-4 32-11v-2q-1-10 2-18l2-25v-8q3-16-7-29a38 38 0 0 0-26-9c-39-1-77-9-105-38a87 87 0 0 1-25-59 16 16 0 0 1 4-11c7-7 19-6 28-5h3q45-1 80 27l2 2a112 112 0 0 1 27 35l2 3 11 28c4 13 4 13 10 17q7 1 13-3l2-6 1-3 2-4q12-37 40-66l2-2c22-23 81-52 111-29"/><path fill="#ED4C14" d="m792 506 6 1 15 4 10 2q10 2 19 6h3q7 3 7 5l-15 5-25 10-2 1-20 10-2 1-25 14-8 4a667 667 0 0 0-67 48l-2 2-42 36-30 28-19 22-8 8-16 19-5 7a674 674 0 0 0-45 65l-1 2-21 38-30 63q-30-4-60-12l-2-1-29-8-14-4-13-5 3-10 5-10 10-20 22-39a496 496 0 0 1 64-88l6-7 20-21 7-7q10-11 22-20l7-7q10-9 21-16l6-5a672 672 0 0 1 147-88l14-6q23-11 47-19l8-3 14-5h2q8-3 16 0"/><path fill="#449F2A" d="m878 533 11 5 3 1 5 2 38 20q-8 7-18 9l-9 4a280 280 0 0 0-59 33l-2 1-47 38-2 2-15 14-6 5-13 14-5 5-17 19-5 7-10 12-2 2a695 695 0 0 0-101 187l-3 8q-27 1-55-1l-3-1h-11l-3-1h-2l-6-1-7-1h-6l-42-6 3-11 1-3 2-4 2-3 4-10 1-3 23-44q22-38 48-73l2-2 27-34 15-17 8-9 21-21 15-14 8-7 14-13 8-6 29-23q56-43 120-69l5-2 23-7 4-2q4-2 9 0"/><path fill="#F3C00F" d="m956 574 6 4 2 2 23 18 16 16 2 4-2 1a340 340 0 0 0-105 82l-2 3-18 22-1 2a537 537 0 0 0-44 72l-2 3-7 16-6 13-18 49-3 10q-3 7-4 15l-4 3-14 2-19 3-13 2-39 3h-2l-6 1h-9l-15 1h-33l3-14 2-3 1-4 1-2 18-42 5-10q22-51 56-94l6-8 4-6 2-3 16-19 9-11 11-12 5-6 12-13 3-2 12-11 7-7 24-19a395 395 0 0 1 95-56l2-1 7-2 2-1q6-4 14-1"/><path fill="#ED4C13" d="m1017 629 6 8a172 172 0 0 1 28 61c9 28 3 59-11 85a139 139 0 0 1-20 27l-2 2-30 26-2 1c-30 22-64 35-99 47l-3 1-53 15-6 1-4 1h-3l-9 1q7-26 16-50l2-8 6-13 4-8 10-21 1-2a431 431 0 0 1 46-73l2-3a418 418 0 0 1 50-53 257 257 0 0 1 46-33l3-1 9-5 3-2 2-2 3-1z"/><path fill="#439E29" d="M605 489q-2 3-6 3l-2 1-3 1-36 14-38 17-9 3q-47 20-89 50l-2 2q-16 10-31 23l-8 6-13 11-36 34-20 21-21 26-24 33-33 51-1 2-3 5-3 5h-3l-5-6-1-2q-7-11-11-23l-2-3a96 96 0 0 1-5-43v-2c2-32 18-63 39-87l2-3a223 223 0 0 1 39-38 397 397 0 0 1 82-50l3-1 14-6 7-3 46-16 10-2q14-5 29-7l6-2 13-2 13-3 16-2 6-1 3-1 10-1 32-3zm212-199q2 6 2 13v4a59 59 0 0 1-6 24l-1 3q-6 15-17 27l-1 2c-16 20-44 32-69 35l-20 1h-11q-17 0-29 12-12 16-11 37v6l-3 35h21v1h-4l-30 4q0-10 2-19l3-25v-8q1-16-8-29a38 38 0 0 0-26-9c-39-1-77-9-105-38a87 87 0 0 1-25-59 16 16 0 0 1 4-11c7-7 19-6 28-5h3q45-1 80 27l2 2a112 112 0 0 1 27 35l2 3 11 28c4 13 4 13 10 17q7 1 13-3l2-6 1-3 2-4q12-37 40-66l2-2c22-23 81-52 111-29"/><path fill="#080707" d="M976 369q5 3 6 7l1 5a34 34 0 0 0 12 22q6 5 14 6l6 4q2 5-1 10l-10 3q-13 4-22 16l-5 13a11 11 0 0 1-6 7l-7-1-2-4h-2v-2a35 35 0 0 0-11-25l-14-7c-7-2-7-2-9-6v-7a25 25 0 0 1 13-6q13-3 20-15l5-14 2-5a13 13 0 0 1 10-1"/><path fill="#090808" d="M315 355q6 0 9 4l2 7q3 13 16 21l14 4q4 1 7 5v6q-4 5-11 7a35 35 0 0 0-20 18l-2 9q0 5-3 9-5 3-10 3-4-3-6-7v-5a33 33 0 0 0-14-18q-6-4-13-4-6-1-10-6-2-5 2-10l11-5q12-5 16-15l4-16q1-7 8-8"/><path fill="#0A0909" d="M221 509h4v2l2 1q6 4 11 11l3 3 2 3 2 2q3 4 2 9l-3 5-11 1-6-5-1-2-3-4-5-5q-5-5-7-12 1-9 10-9"/><path fill="#0A0A09" d="M183 546q7 1 12 6l3 1 9 7q6 3 7 9t-2 7q-3 3-8 3-7-2-13-7l-2-2-7-5-2-1q-3-2-5-6 0-5 2-9 3-4 6-3"/><path fill="#0A0909" d="m1052 527 6 5q1 6-2 11l-3 3-12 11q-4 5-9 5-4 0-7-2l-3-9q4-7 10-12l3-2c11-11 11-11 17-10"/><path fill="#080808" d="m1084 568 4 4v7q-7 7-15 11l-3 2c-9 5-9 5-14 4q-5-2-6-7 0-5 3-8l12-8 2-1q8-6 17-4"/><path fill="#F3F3F4" d="M971 396h2l1 2a33 33 0 0 0 15 17v2l-5 3q-8 6-14 14l-7-9-11-10 8-6q6-5 9-11z"/><path fill="#F4F4F4" d="M316 382q5 1 6 6 6 8 15 12l-7 6-11 14-2-2a49 49 0 0 0-16-14l5-6q7-6 10-16"/><path fill="#32801D" d="M605 489q-3 4-8 4l-3 1h-5l-3-2-9-1h-8v-1z"/><path fill="#2C2C2D" d="m695 299 2 1-2 2-11 11-16 17c0-7 10-15 15-20z"/><path fill="#398E26" d="m652 667-1 5-2 2-8 8-17 16-2-1z"/><path fill="#ECECED" d="m686 304 2 2-12 12-2-2 3-4h2l1-3z"/><path fill="#CCCCCB" d="M464 301h1v17h-3l-1-6v-4l1-5h2z"/><path fill="#BC9603" d="m731 495 19 2v2q-3 3-8 2v-4h-6z"/><path fill="#443503" d="M748 915q-5 3-11 3l-3-1h-2v-1zm-11 3h5v1h-5z"/><path fill="#D04311" d="M457 708q0 5-4 8l-2 2-2 2-2-1z"/><path fill="#363637" d="m968 369 2 1-1 3h-2l-1 3-3 3q0-6 5-10"/><path fill="#C63F10" d="m922 697 1 2-3 4-2 2q-2 2-5 2z"/><path fill="#DEB30C" d="m327 681 2 3-7 6q0-5 5-9"/><path fill="#2C2C2C" d="m330 537 2 1-10 6-3-1 5-3 3-2z"/><path fill="#C13D10" d="m827 515 12 3-4 2-6-2v-2z"/><path fill="#4C4C4C" d="M496 483c-10 4-10 4-16 2v-1l6-1 3-1z"/><path fill="#398B26" d="m526 826 1 2-2 4-1 2-1 2h-2z"/><path fill="#D3AB0E" d="m759 708 2 3-6 5-2-1z"/><path fill="#B6930D" d="m613 505-5 4-6-1c7-5 7-5 11-3"/><path fill="#3C970B" d="m638 490 9 1-9 3z"/><path fill="#D9AE0D" d="m687 811 1 4-3 5h-2z"/><path fill="#C73B09" d="m846 521 6 2-4 3-3-3z"/><path fill="#398F23" d="m746 293 2 1h-3v2l-5 2-2-2c5-3 5-3 8-3"/><path fill="#BDBDBD" d="M861 913q-5 3-10 2 4-4 10-2"/><path fill="#D4AB0D" d="m748 721 2 3-4 4-3-1z"/><path fill="#BBBBBC" d="m316 382 3 1-3 6h-2z"/></svg>