<svg xmlns="http://www.w3.org/2000/svg" viewBox="0 0 1254 1254"><path fill="#050502" d="M831 277a26 26 0 0 1 8 16q2 32-14 59l-2 3a128 128 0 0 1-58 49l-4 2a136 136 0 0 1-52 10h-22a18 18 0 0 0-14 6c-9 14-7 35-7 50h3q67 0 133 17l4 1 30 8a459 459 0 0 1 57 22l2 1 19 9a342 342 0 0 1 96 66l2 2q10 9 18 20l2 2a197 197 0 0 1 36 74l1 2a137 137 0 0 1-17 100q-11 18-26 33l-2 2c-32 33-78 53-121 68l-8 3-32 9-17 5-18 4-4 1-5 1-16 3h-5l-6 2-12 2h-2l-19 3-4 1q-29 4-57 5h-3a1158 1158 0 0 1-174-5h-3l-17-3-9-1-16-2-6-1-3-1-27-5-12-2-3-1-9-2-4-1-16-4-14-4-26-8-3-1-21-8-7-3-48-23-2-1c-42-24-76-57-89-104l-1-4c-9-37 2-76 22-108l21-29 2-2 9-10a209 209 0 0 1 31-28l6-5a380 380 0 0 1 95-54l9-4 22-9 3-1 57-16 2-1 11-2 10-2 7-1 12-2 12-2 2-1 8-1h2q46-6 92-5v-19c-1-20-1-20-5-26q-8-5-16-4c-40-2-77-14-106-44a117 117 0 0 1-25-42l-1-3-2-24v-3q0-11 6-21c12-11 27-12 42-11h3q21 0 40 5l4 1a119 119 0 0 1 43 27 130 130 0 0 1 28 33l11 24 2 3 1-2c12-23 12-23 19-33l2-2 14-17 3-3c31-32 107-65 148-33"/><path fill="#F3C00F" d="M789 285h6q15-1 27 6c5 5 3 14 3 20l-2 7-1 3a87 87 0 0 1-20 35l-2 2c-12 16-32 26-50 32l-4 2-16 4h-3l-42 3q-15 0-27 7l-2 2q-9 8-11 21v27c0 17 0 17 3 24q2 4 1 9h3a439 439 0 0 1 60 4l18 1 20 3v2l-32 10q-12 3-23 8l-3 1-15 7-7 3-9 4-7 3-14 8-3 1a643 643 0 0 0-94 63l-3 2-39 35c-20 18-20 18-28 28l-5 6-9 9-6 7-17 20-23 29a736 736 0 0 0-50 76l-8 14-5 9-1 3-5 10-3 7-1 2q-2 6-5 6l-9-2-3-2-4-1-3-2q-40-18-73-46l-3-2-2-6 6-13 2-3a539 539 0 0 1 50-71l13-16 1-2 10-10 5-6 17-17 6-6 24-22 13-12 7-6 29-22 2-2q31-22 64-42l3-2a647 647 0 0 1 100-49l4-1 27-9 3-1 3-1 7-2 1-18-1-15v-6a74 74 0 0 0-8-37l-2-5-4-2-6-4q-10-3-22-4-47 0-81-32l-15-21-1-2-6-13-1-3-3-22v-3q-1-7 3-12c17-9 40-5 58 0a111 111 0 0 1 53 40l2 2q11 18 19 38l1 3 5 18q2 4 6 7 6 1 11-1l6-9v-2l6-13c14-36 39-66 74-82l23-7q18-4 36-4"/><path fill="#449F2A" d="m890 537 7 4 3 1 15 8 3 1 17 10-7 5-13 7-3 1-33 19a536 536 0 0 0-124 96l-19 20a558 558 0 0 0-81 127l-1 2-2 5-12 27-5 14-5 14-9 23q-27 1-55-1l-3-1h-11l-3-1h-2l-6-1-7-1h-6l-42-6 5-14 1-3 5-10q13-30 29-58l2-3q20-34 43-67l2-2 19-26 2-3a689 689 0 0 1 66-71l7-6 18-15 6-4q59-46 129-75l3-1 6-1v-2l11-4 3-1 20-8 6-3q11-2 21 4"/><path fill="#ED4C14" d="m787 504 1 1 6 1 16 4 18 5 23 7 1 2-2 1-31 13-10 4-17 8-9 4a380 380 0 0 0-71 40l-2 2-42 31-1 1-30 28-5 3-8 9-8 8-16 17q-37 44-68 93l-2 3c-24 39-24 39-27 48h-2l-1 3-6 13-1 2-24 52a537 537 0 0 1-101-24l-13-4-4-2 4-11 1-3 2-3 2-4 14-26 1-2a754 754 0 0 1 53-80l1-2 10-13 26-31 15-16 5-6 18-18 14-13 9-9 23-19 48-35 2-2q19-13 40-24l3-2 12-6 16-8 4-2 18-8 9-3q7-4 15-6l8-3q18-7 38-12l17-5z"/><path fill="#F3C00F" d="m955 573 7 5 2 2 3 2q9 6 17 14l4 4 2 1 4 4 11 11v2l-3 2-31 20-9 7-26 22-7 6-14 14-3 3-17 18-32 42-1 2q-12 17-22 36l-7 11-4 10-5 10h-2v2l-3 8-1 3-2 4q-14 30-22 63v3l-1 2q-3 3-8 4l-17 2-25 4q-20 3-39 3h-2l-6 1-9 1h-48l4-16 1-3 2-4 6-17h2v-2l6-16 2-4 1-3 3-7 9-19 1-2a513 513 0 0 1 79-117l32-32 7-7 20-17 2-2a656 656 0 0 1 102-65l3-2 9-5 3-1c17-9 17-9 22-7"/><path fill="#ED4C13" d="m1018 630 3 4 2 3 2 2 2 3c20 32 33 70 26 109-9 36-35 66-65 87l-2 1a336 336 0 0 1-79 40l-8 3-39 12-3 1-34 9h-2l-12 1a372 372 0 0 1 24-69l4-9 3-6h2l1-4 8-17 2-4a387 387 0 0 1 35-53l21-25q10-14 22-24l2-2 22-21c51-45 51-45 63-41"/><path fill="#449E29" d="m603 489-10 5-24 8-3 1c-14 5-14 5-19 9l-8 3-14 6-3 2a724 724 0 0 0-151 101l-27 24-6 5-13 13-2 2q-7 6-12 13l-5 5-10 12-7 8a504 504 0 0 0-62 91h-3l-5-7-1-2a116 116 0 0 1-17-81l2-8 1-3a197 197 0 0 1 49-81l2-1q10-11 21-20l5-4q44-35 96-56l3-1a460 460 0 0 1 103-31l10-2 10-2 4-1 6-1h4l9-1 31-4h2l21-2zm185-204h7q15-1 27 6c5 5 3 14 3 20l-2 7-1 3a87 87 0 0 1-20 35l-2 2c-12 16-32 26-50 32l-4 2-16 4h-3l-42 3q-15 0-27 7l-2 2q-9 8-11 21v27c0 17 0 17 3 24l1 9h20v1h-2q-16 0-33 4l1-3v-15l-1-15v-6a74 74 0 0 0-8-37l-2-5-4-2-6-4q-10-4-22-3-46-1-81-32l-15-22-1-2-6-13-1-3-3-22v-3q-1-7 3-12c17-9 40-5 58 0a111 111 0 0 1 53 40l2 2q11 18 19 38l1 3 5 18q2 4 6 7 6 1 11-1l6-9v-2l6-13c14-36 39-66 74-82l23-7q18-4 36-4"/><path fill="#080707" d="M976 369q5 3 6 7l1 5a34 34 0 0 0 12 22q6 5 14 6l6 4q2 5-1 10l-10 3q-13 4-22 16l-5 13a11 11 0 0 1-6 7l-7-1-2-4h-2v-2a35 35 0 0 0-11-25l-14-7c-7-2-7-2-9-6v-7a25 25 0 0 1 13-6q13-3 20-15l5-14 2-5a13 13 0 0 1 10-1"/><path fill="#090808" d="M315 355q6 0 9 4l2 7q3 13 16 21l14 4q4 1 7 5v6q-4 5-11 7a35 35 0 0 0-20 18l-2 9q0 5-3 9-5 3-10 3-4-3-6-7v-5a33 33 0 0 0-14-18q-6-4-13-4-6-1-10-6-2-5 2-10l11-5q12-5 16-15l4-16q1-7 8-8"/><path fill="#0A0909" d="M221 509h4v2l2 1q6 4 11 11l3 3 2 3 2 2q3 4 2 9l-3 5-11 1-6-5-1-2-3-4-5-5q-5-5-7-12 1-9 10-9"/><path fill="#0A0A09" d="M183 546q7 1 12 6l3 1 9 7q6 3 7 9t-2 7q-3 3-8 3-7-2-13-7l-2-2-7-5-2-1q-3-2-5-6 0-5 2-9 3-4 6-3"/><path fill="#0A0909" d="m1052 527 6 5q1 6-2 11l-3 3-12 11q-4 5-9 5-4 0-7-2l-3-9q4-7 10-12l3-2c11-11 11-11 17-10"/><path fill="#080808" d="m1084 568 4 4v7q-7 7-15 11l-3 2c-9 5-9 5-14 4q-5-2-6-7 0-5 3-8l12-8 2-1q8-6 17-4"/><path fill="#F3F3F4" d="M971 396h2l1 2a33 33 0 0 0 15 17v2l-5 3q-8 6-14 14l-7-9-11-10 8-6q6-5 9-11z"/><path fill="#F4F4F4" d="M316 382q5 1 6 6 6 8 15 12l-7 6-11 14-2-2a49 49 0 0 0-16-14l5-6q7-6 10-16"/><path fill="#378B1F" d="M603 489q-2 4-8 4h-3l-8 1 1-3h-13v2l-15-1v-1l23-2z"/><path fill="#220A02" d="m650 641 2 1-26 26-2-1 15-15z"/><path fill="#3B9227" d="m654 659 2 1-1 1-9 10-11 10-2-1z"/><path fill="#3A9823" d="M529 495c-6 6-18 5-25 5l6-4z"/><path fill="#C59E05" d="m731 495 19 2v2l-11 3-1-4-7-2z"/><path fill="#DFDFE0" d="m688 302 2 2-13 13-2-2 2-2 6-6z"/><path fill="#327E20" d="M782 285h25v1h-3l-21 1h-4l-5 1-6-1v-1z"/><path fill="#2E6F1B" d="M506 291h21v1h-12l-3 1h-7l-4 1-6-1v-1z"/><path fill="#D8AD0B" d="m734 736 2 3-3 1-1 4-3 3h-2z"/><path fill="#CFBF0B" d="M650 491q-4 3-8 3l-3 1-7-1z"/><path fill="#337B20" d="m576 490-4 1v2l-15-1v-1z"/><path fill="#443503" d="M748 915q-5 3-11 3l-3-1h-2v-1zm-11 3h5v1h-5z"/><path fill="#C8A209" d="M617 500v2l-6 2h-10l7-2 2-1z"/><path fill="#0C2808" d="m659 404 2 1-4 4-2 2-5 3q2-4 6-7l2-2z"/><path fill="#CDA504" d="m345 850 1 2-2 5-2 2-1 2-2-3z"/><path fill="#363637" d="m968 369 2 1-1 3h-2l-1 3-3 3q0-6 5-10"/><path fill="#2A8E0E" d="M636 484h1v7l4 1-7 2z"/><path fill="#2C2C2C" d="m330 537 2 1-10 6-3-1 5-3 3-2z"/><path fill="#3A2D04" d="M690 520h-2l-2 1-1 3h-5l-2-1 5-2 3-1z"/><path fill="#DCDBDC" d="m679 417 2 1q-4 7-7 7h-2q3-5 7-8"/><path fill="#E1E1E1" d="m603 304 7 6-2 2-7-6z"/><path fill="#D7430F" d="m443 899 2 1h2q-5 3-12 1 3-3 8-2"/><path fill="#D2AC0D" d="m712 767 2 3-3 3h-2v3h-2z"/><path fill="#E0B40D" d="m460 576 1 3-7 4-2-2z"/><path fill="#358E1F" d="M529 495q-3 4-8 3l-4-2z"/><path fill="#4C4C4C" d="M496 483c-10 4-10 4-16 2v-1l6-1 3-1z"/><path fill="#D0440E" d="M353 870h2l-1 2 1 6-4-1z"/><path fill="#3A9224" d="m542 296 7 1 5 2-4 1v-2l-3 1-5-2z"/><path fill="#35861F" d="m931 559 4 3-6 4-2-1 1-2h3z"/><path fill="#BDBDBD" d="M861 913q-5 3-10 2 4-4 10-2"/><path fill="#2E721C" d="M552 492v1a24 24 0 0 1-14 1v-1z"/><path fill="#BBBBBC" d="m316 382 3 1-3 6h-2z"/><path fill="#2D701B" d="M782 285v1a24 24 0 0 1-14 1v-1z"/></svg>