<svg xmlns="http://www.w3.org/2000/svg" viewBox="0 0 1254 1254"><path fill="#050502" d="M831 277a26 26 0 0 1 8 16q2 44-27 77l-2 2c-20 25-55 40-87 44h-36q-7 0-12 5l-3 4-1 1q-4 15-4 30v16h3q68 0 132 17l4 1 30 8a459 459 0 0 1 57 22l2 1 19 9a342 342 0 0 1 96 66l2 2q10 9 18 20l2 2a197 197 0 0 1 36 74l1 2a137 137 0 0 1-17 100q-11 18-26 33l-2 2c-32 33-78 53-121 68l-8 3-32 9-17 5-18 4-4 1-5 1-16 3h-5l-6 2-12 2h-2l-19 3-4 1q-29 4-57 5h-3a1158 1158 0 0 1-174-5h-3l-17-3-9-1-16-2-6-1-3-1-27-5-12-2-3-1-9-2-4-1-16-4-14-4-26-8-3-1-21-8-7-3-48-23-2-1c-42-24-76-57-89-104l-1-4c-9-37 2-76 22-108l21-29 2-2 9-10a209 209 0 0 1 31-28l6-5a380 380 0 0 1 95-54l9-4 22-9 3-1 57-16 2-1 11-2 10-2 7-1 12-2 12-2 2-1 8-1h2q46-6 92-5v-19c-1-20-1-20-6-26a19 19 0 0 0-13-5h-6q-59-1-102-43l-8-10-2-3c-4-6-4-6-4-9h-2a103 103 0 0 1-12-50 36 36 0 0 1 6-21c12-11 27-12 42-12h3a131 131 0 0 1 96 41 152 152 0 0 1 29 46l3 8 1-3q28-62 90-89l17-5 2-1c23-5 57-8 77 7"/><path fill="#F3C00F" d="M785 285h4c19 0 19 0 26 5 5 12 1 27-3 39h-2l-1 2a81 81 0 0 1-15 25l-2 2a121 121 0 0 1-46 32l-3 1-17 5-3 1q-19 2-39 2-15 0-27 10l-6 13-1 3-2 28v8q-1 15 3 28h3a457 457 0 0 1 68 5l15 1 13 2v2l-21 6-15 5-2 1-32 13-3 1-30 16-6 3-3 2a644 644 0 0 0-104 72l-15 13-8 6-12 12-6 5-19 18-13 14-9 10-15 16-6 8-33 43-1 2-12 18a623 623 0 0 0-42 72l-1 3-5 12-19-6-3-1a278 278 0 0 1-72-46l-3-2-2-6 6-14 2-3a452 452 0 0 1 69-95l3-4 2-2 25-26q9-10 20-18l7-7 24-19 49-35 45-27 3-2 41-22 2-1a755 755 0 0 1 80-33l3-1 7-3 3-1 3-1 3-3v-33c0-36 0-36-11-48a34 34 0 0 0-22-7l-4-1h-2a128 128 0 0 1-38-6l-4-1a103 103 0 0 1-34-23l-2-2a94 94 0 0 1-19-29l-2-2a69 69 0 0 1-5-31v-3l2-11q10-6 23-4h4q15-1 29 4l4 1a101 101 0 0 1 36 21l2 2a137 137 0 0 1 38 70q2 8 6 14c7 1 7 1 10-1l5-9c13-38 34-75 71-94q30-14 63-14"/><path fill="#449F2A" d="m882 534 5 3 19 8 15 8 3 2 3 1 3 2 5 4-11 6-14 7-3 1-8 4-2 1a502 502 0 0 0-61 36l-2 2-42 32-2 1-10 10-6 5q-12 11-22 23l-6 6-28 35-1 2-39 59-1 3q-5 7-8 15h-2l-1 2-6 14-10 22-29 73q-27 1-55-1l-3-1h-11l-3-1h-2l-6-1-7-1h-6l-42-6 3-10 4-9 5-10 2-4 9-20 1-2 21-37 2-3q18-30 39-59l1-2 35-43 18-22 13-13 2-3 15-15 2-2 12-11 7-5 15-13 8-6 34-25 34-20 26-14 3-2 3-1 3-1 6-1v-2l4-1 2-1 6-1v-2h2l14-5 16-6 14-5a18 18 0 0 1 15 0"/><path fill="#ED4C14" d="m804 508 4 1 35 10 2 1 6 2 1 2q-11 5-23 8l-10 4-6 2q-13 4-24 11l-7 3-16 8-3 2a520 520 0 0 0-104 74l-7 6-11 11-2 2-17 16-10 12-7 8q-13 14-24 29l-5 6a831 831 0 0 0-54 78l-1 2-20 35q-8 13-13 26h-2l-1 4-4 9-2 5-6 12-1 3-3 7-62-13-33-9-11-4-12-4 4-12 3-4 1-3 3-7a530 530 0 0 1 40-67l27-37 7-10 20-23 16-18 2-2 23-24 2-2 12-11 8-8 15-13 8-6 26-21a628 628 0 0 1 69-46l31-18 3-1 19-9 3-1 4-2a400 400 0 0 1 62-22l9-2 3-1q17-4 33 1"/><path fill="#F3C00F" d="m955 573 4 3 2 2 3 1 2 2 22 18 3 2 8 8 1 3 2 1 3 3v2l-3 2q-12 6-22 14l-11 8q-19 14-37 30l-3 2-20 19-2 3-15 16-6 8a391 391 0 0 0-47 68l-3 5-3 7-1 3-1 2h-2v2l-7 16-5 11-3 7-5 14-1 2-4 12-7 24-2 6-1 3-1 3q0 3-4 4l-21 3-25 4-39 3h-2l-6 1h-9l-15 1h-33l3-14 1-2 13-33 1-3 8-16 3-7 8-18 2-4 22-39 20-31 2-2 24-31 5-7 30-32 3-3 19-17 7-6q53-43 114-72l3-1c23-12 23-12 28-10"/><path fill="#ED4C13" d="m1018 630 5 7 2 2 6 10a141 141 0 0 1 22 102c-9 37-35 66-65 87l-2 1a336 336 0 0 1-79 40l-8 3-39 12-3 1-34 9h-2l-12 1 14-45 1-3 9-20 4-9 17-36q17-32 41-60l7-8 28-30 2-2 17-16a585 585 0 0 1 56-41l1-1c8-5 8-5 12-4"/><path fill="#439E29" d="m604 489-6 4h-3l-2 1-31 13-7 3-12 6-6 3-20 9-2 1q-19 9-37 20l-3 2a754 754 0 0 0-130 93l-6 5-15 14-4 5q-9 8-16 17l-4 5-17 19-32 45-1 2-17 30-7 12-9-12-2-2a114 114 0 0 1-12-86l1-2a190 190 0 0 1 50-82l27-25a376 376 0 0 1 52-34 235 235 0 0 1 40-19l8-3q7-4 15-6l10-4 24-8 3-1q19-6 39-9l3-1h3l7-3 7-1 12-2 22-3 3-1q37-5 75-5m181-204h4c19 0 19 0 26 5 5 12 1 27-3 39h-2l-1 2a81 81 0 0 1-15 25l-2 2a121 121 0 0 1-46 32l-3 1-17 5-3 1q-19 2-39 2-15 0-27 10l-6 13-1 3-2 28v8a98 98 0 0 0 3 28h17v1h-12l-21 4v-44c0-14-1-29-11-39a34 34 0 0 0-22-7l-4-1h-2a128 128 0 0 1-38-6l-4-1a103 103 0 0 1-34-23l-2-2a94 94 0 0 1-19-29l-2-2a69 69 0 0 1-5-31v-3l2-11q10-6 23-4h4q15-1 29 4l4 1a101 101 0 0 1 38 23 137 137 0 0 1 38 70q2 8 6 14c7 1 7 1 10-1l5-9c12-38 34-75 71-94q30-14 63-14"/><path fill="#080707" d="M976 369q5 3 6 7l1 5a34 34 0 0 0 12 22q6 5 14 6l6 4q2 5-1 10l-10 3q-13 4-22 16l-5 13a11 11 0 0 1-6 7l-7-1-2-4h-2v-2a35 35 0 0 0-11-25l-14-7c-7-2-7-2-9-6v-7a25 25 0 0 1 13-6q13-3 20-15l5-14 2-5a13 13 0 0 1 10-1"/><path fill="#090808" d="M315 355q6 0 9 4l2 7q3 13 16 21l14 4q4 1 7 5v6q-4 5-11 7a35 35 0 0 0-20 18l-2 9q0 5-3 9-5 3-10 3-4-3-6-7v-5a33 33 0 0 0-14-18q-6-4-13-4-6-1-10-6-2-5 2-10l11-5q12-5 16-15l4-16q1-7 8-8"/><path fill="#0A0909" d="M221 509h4v2l2 1q6 4 11 11l3 3 2 3 2 2q3 4 2 9l-3 5-11 1-6-5-1-2-3-4-5-5q-5-5-7-12 1-9 10-9"/><path fill="#0A0A09" d="M183 546q7 1 12 6l3 1 9 7q6 3 7 9t-2 7q-3 3-8 3-7-2-13-7l-2-2-7-5-2-1q-3-2-5-6 0-5 2-9 3-4 6-3"/><path fill="#0A0909" d="m1052 527 6 5q1 6-2 11l-3 3-12 11q-4 5-9 5-4 0-7-2l-3-9q4-7 10-12l3-2c11-11 11-11 17-10"/><path fill="#080808" d="m1084 568 4 4v7q-7 7-15 11l-3 2c-9 5-9 5-14 4q-5-2-6-7 0-5 3-8l12-8 2-1q8-6 17-4"/><path fill="#F3F3F4" d="M971 396h2l1 2a33 33 0 0 0 15 17v2l-5 3q-8 6-14 14l-7-9-11-10 8-6q6-5 9-11z"/><path fill="#F4F4F4" d="M316 382q5 1 6 6 6 8 15 12l-7 6-11 14-2-2a49 49 0 0 0-16-14l5-6q7-6 10-16"/><path fill="#36871F" d="M604 489q-3 4-8 4l-3 1h-5l-2-1v-1l-17-1v-1h11l3-1z"/><path fill="#368521" d="M636 442h1l1 49 4 1-7 2z"/><path fill="#D6AC0C" d="m306 706 3 1-6 8-8 8-2-1 2-2 2-3 3-3z"/><path fill="#CBA305" d="m730 495 20 2v2l-4 1-3 1-4-1v-2h-2z"/><path fill="#DEDDDE" d="M668 433h1l1 7-1 1v9l-1 21 3 1h-4v-28z"/><path fill="#E2E2E3" d="m688 302 2 2-11 11-2-2 3-4h2v-2z"/><path fill="#24770E" d="M636 476h1l1 15 4 1-7 2z"/><path fill="#B49108" d="m679 490 21 1v1l-9 1h-10z"/><path fill="#DBB10B" d="m733 736 2 3-3 1v2q-2 4-5 6l-2-1z"/><path fill="#0D2408" d="m792 357 2 2-4 4-3 3q-2 3-6 3l2-2z"/><path fill="#313131" d="m479 279 2 1-11 10q0-3 2-5z"/><path fill="#443503" d="M748 915q-5 3-11 3l-3-1h-2v-1zm-11 3h5v1h-5z"/><path fill="#E2E1E1" d="M599 303q8 2 11 8-4 0-7-3l-2-2-2-2z"/><path fill="#DE4511" d="m760 563-5 3-3 2-4 1v-2l4-3 3-1z"/><path fill="#D0C10B" d="M651 491a18 18 0 0 1-13 3l-2-1z"/><path fill="#363637" d="m968 369 2 1-1 3h-2l-1 3-3 3q0-6 5-10"/><path fill="#D3440E" d="M354 868h2l-1 3v7l-4-1z"/><path fill="#312501" d="m343 854 2 3-6 9-1-2 2-5 2-3z"/><path fill="#2C2C2C" d="m330 537 2 1-10 6-3-1 5-3 3-2z"/><path fill="#C13D10" d="m827 515 12 3-4 2-6-2v-2z"/><path fill="#DADADB" d="m679 417 2 1q-4 7-7 7h-2q3-5 7-8"/><path fill="#D7430F" d="m443 899 2 1h2q-5 3-12 1 3-3 8-2"/><path fill="#C59E04" d="M826 808h1q0 7-4 11c1-8 1-8 3-11"/><path fill="#389422" d="m449 512-7 3-4-2c7-2 7-2 11-1"/><path fill="#4C4C4C" d="M496 483c-10 4-10 4-16 2v-1l6-1 3-1z"/><path fill="#DCB10D" d="M315 696q1 4-2 7l-3 2q0-5 5-9"/><path fill="#D23F0A" d="m846 521 6 2-7 3z"/><path fill="#292001" d="m439 709 1 2-7 8q0-4 3-7l2-2z"/><path fill="#CCA70C" d="m560 523 2 1q-2 4-7 4h-3z"/><path fill="#D7AC0D" d="m745 721 2 3-4 4-3-1z"/><path fill="#35861F" d="m931 559 4 3-6 4-2-1 1-2h3z"/><path fill="#2F2404" d="m688 519 2 1v2l-5 2-3-2z"/><path fill="#BDBDBD" d="M861 913q-5 3-10 2 4-4 10-2"/><path fill="#B8930B" d="M663 855q2 5-1 10l-2-1z"/><path fill="#2F741C" d="M553 492v1a24 24 0 0 1-14 1v-1z"/><path fill="#BBBBBC" d="m316 382 3 1-3 6h-2z"/></svg>