<svg xmlns="http://www.w3.org/2000/svg" viewBox="0 0 1254 1254"><path fill="#050502" d="M830 276a27 27 0 0 1 9 20v8a88 88 0 0 1-9 38l-1 3c-13 27-37 47-64 59l-3 2a133 133 0 0 1-57 10h-17a22 22 0 0 0-13 5c-8 10-7 24-8 36v15h3q68 0 132 17l4 1 30 8a459 459 0 0 1 57 22l2 1 19 9a342 342 0 0 1 96 66l2 2q10 9 18 20l2 2a197 197 0 0 1 36 74l1 2a137 137 0 0 1-17 100q-11 18-26 33l-2 2c-32 33-78 53-121 68l-8 3-32 9-17 5-18 4-4 1-5 1-16 3h-5l-6 2-12 2h-2l-19 3-4 1q-29 4-57 5h-3a1158 1158 0 0 1-174-5h-3l-17-3-9-1-16-2-6-1-3-1-27-5-12-2-3-1-9-2-4-1-16-4-14-4-26-8-3-1-21-8-7-3-48-23-2-1c-42-24-76-57-89-104l-1-4c-9-37 2-76 22-108l21-29 2-2 9-10a209 209 0 0 1 31-28l6-5a380 380 0 0 1 95-54l9-4 22-9 3-1 57-16 2-1 11-2 10-2 7-1 12-2 12-2 2-1 8-1h2q46-6 92-5l-1-25v-2q1-10-4-18-8-6-20-5l-10-1h-2a138 138 0 0 1-93-45 100 100 0 0 1-25-66v-3q-1-11 6-21c12-11 27-12 42-12h3a114 114 0 0 1 42 7q30 11 52 33l2 2 11 13 1 2c19 27 19 27 19 38h2v-2l5-11 1-2a193 193 0 0 1 27-38l3-3c30-31 109-69 149-36"/><path fill="#F3C00F" d="M785 285h3q12-1 21 3 4 4 3 8v8l-2 14-1 4c-4 23-22 44-40 57-25 16-50 20-79 20a36 36 0 0 0-28 12c-9 13-9 28-9 43l-1 7v28h4l40 2 27 3 10 1 17 2v2l-3 1-17 5-38 16-13 6q-9 3-17 8l-4 2-43 25a746 746 0 0 0-84 59l-35 29-3 2-11 11-21 21-8 8-12 13-7 9-16 19a573 573 0 0 0-40 58l-1 2-18 30-2 4-1 2-2 3-2 6h-2l-1 3q-4 12-10 23l-2 6-19-6-3-1a278 278 0 0 1-72-46l-3-2-2-6 5-10 1-2 2-5h2v-2l4-9 2-3 2-4 2-2 21-33 21-27 2-2q11-14 23-26l6-8 15-15 2-2 12-11 7-7 15-12 11-9 21-16 7-5 42-26 2-1a594 594 0 0 1 71-37l10-4 10-5 3-1 14-6 23-9 7-3 14-5 12-5 8-2v-2l1-17c4-17 6-44-4-60a29 29 0 0 0-26-12c-27-1-51-5-74-20l-3-2q-28-18-40-50v-4h-2l-3-21v-2q0-5 2-9c9-6 21-5 31-5h4q45 1 78 32 24 28 33 62c5 15 5 15 9 18h8q6-7 8-17l2-6 1-3q4-12 10-23 3-3 4-7 13-23 34-38l2-2q17-12 37-18l3-1q17-4 33-3"/><path fill="#ED4C14" d="m802 508 11 3 2 1 13 3 15 4 2 1q7 2 7 4l-21 8h-3l-12 5c-29 9-56 26-82 43l-2 2-35 25-28 23-15 14-5 5-17 16-6 6-16 16-7 8-13 15-6 8q-31 37-57 78l-1 2-19 31-2 3-1 3-2 3-3 7-3 6h-2l-1 2-7 16-1 2-4 9-3 7-1 3-8 17q-30-4-60-12l-2-1-29-8-14-4-13-5 3-10q4-6 6-13l5-10h2l1-2 7-16 1-3q20-35 44-67l2-2a534 534 0 0 1 42-51l2-3 39-39 7-6 21-17 25-20 2-1 41-29 3-2a571 571 0 0 1 94-52l3-2 6-2 24-10 9-3 14-5 15-4a52 52 0 0 1 33 0"/><path fill="#449F2A" d="m905 545 7 4 3 1 5 2 15 9-7 5-2 1-12 5a415 415 0 0 0-105 64l-3 2a561 561 0 0 0-79 83l-2 2a697 697 0 0 0-68 111l-1 2-15 33-17 44-3 8-55-1-3-1h-11l-3-1h-2l-6-1-7-1h-6l-42-6 5-14 1-3 5-10a658 658 0 0 1 48-87l2-2a664 664 0 0 1 44-60l15-19 6-7 12-13 6-6 17-18 6-6 19-18 5-5 21-17q14-12 30-23l2-1q42-31 90-51l9-4 28-9 9-3c13-5 27 5 39 11"/><path fill="#F3C00F" d="m953 573 12 7a297 297 0 0 1 38 34l2 4-3 2a377 377 0 0 0-64 44l-3 2-24 23-2 2-18 19-1 2a394 394 0 0 0-53 79l-2 3-6 13-1 3q-11 22-20 45l-1 2-3 12-3 10-4 10v4l-2 6-1 4-1 3-4 3-21 3-25 4-39 3h-2l-6 1h-9l-15 1h-33l3-13 1-4 2-4v-2a618 618 0 0 1 57-114 547 547 0 0 1 64-85l5-7 20-20 19-18 31-24a384 384 0 0 1 105-56q7-3 7-1"/><path fill="#ED4C13" d="m1018 630 5 7 2 2 14 25a170 170 0 0 1 13 36c8 30 1 62-15 88q-20 30-49 50l-2 1c-30 22-65 35-99 47l-3 1-53 15-6 1-4 1-3 1h-9q3-15 8-29 3-5 4-11l5-15 1-3 24-49q14-28 32-53l1-2 20-24 2-2a329 329 0 0 1 36-37l3-2a446 446 0 0 1 66-47l2-1z"/><path fill="#439E29" d="m605 489-7 4q-13 4-25 10l-16 7-7 3-11 5-23 11-11 5-18 9-4 2-26 14-2 1a609 609 0 0 0-139 110l-7 7-12 14-7 9-19 25-2 3a531 531 0 0 0-38 61l-5 9-9-12-2-2q-10-18-14-38l-1-2c-5-38 11-75 32-105l5-6 2-3a235 235 0 0 1 44-42 361 361 0 0 1 89-52q15-7 31-12l6-2q8-4 16-5l7-2 3-1 8-2 17-5 3-1 27-5 10-2 25-5h3q38-5 77-5m180-204h3q12-1 21 3 4 4 3 8v8l-2 14-1 4c-4 23-22 44-40 57-25 16-50 20-79 20a36 36 0 0 0-28 12c-9 13-9 28-9 43l-1 7v28h19v1h-4l-30 4 2-18c3-17 5-44-5-60a29 29 0 0 0-26-12c-27-1-51-5-74-20l-3-2q-28-18-40-50v-4h-2l-3-21v-2q-1-5 2-9c9-6 21-5 31-5h4q45 1 78 32 24 28 33 62c5 15 5 15 9 18h8q6-7 8-17l2-6 1-3q4-12 10-23 3-3 4-7a114 114 0 0 1 36-40q17-12 37-18l3-1q16-4 33-3"/><path fill="#080707" d="M976 369q5 3 6 7l1 5a34 34 0 0 0 12 22q6 5 14 6l6 4q2 5-1 10l-10 3q-13 4-22 16l-5 13a11 11 0 0 1-6 7l-7-1-2-4h-2v-2a35 35 0 0 0-11-25l-14-7c-7-2-7-2-9-6v-7a25 25 0 0 1 13-6q13-3 20-15l5-14 2-5a13 13 0 0 1 10-1"/><path fill="#090808" d="M315 355q6 0 9 4l2 7q3 13 16 21l14 4q4 1 7 5v6q-4 5-11 7a35 35 0 0 0-20 18l-2 9q0 5-3 9-5 3-10 3-4-3-6-7v-5a33 33 0 0 0-14-18q-6-4-13-4-6-1-10-6-2-5 2-10l11-5q12-5 16-15l4-16q1-7 8-8"/><path fill="#0A0909" d="M221 509h4v2l2 1q6 4 11 11l3 3 2 3 2 2q3 4 2 9l-3 5-11 1-6-5-1-2-3-4-5-5q-5-5-7-12 1-9 10-9"/><path fill="#0A0A09" d="M183 546q7 1 12 6l3 1 9 7q6 3 7 9t-2 7q-3 3-8 3-7-2-13-7l-2-2-7-5-2-1q-3-2-5-6 0-5 2-9 3-4 6-3"/><path fill="#0A0909" d="m1052 527 6 5q1 6-2 11l-3 3-12 11q-4 5-9 5-4 0-7-2l-3-9q4-7 10-12l3-2c11-11 11-11 17-10"/><path fill="#080808" d="m1084 568 4 4v7q-7 7-15 11l-3 2c-9 5-9 5-14 4q-5-2-6-7 0-5 3-8l12-8 2-1q8-6 17-4"/><path fill="#F3F3F4" d="M971 396h2l1 2a33 33 0 0 0 15 17v2l-5 3q-8 6-14 14l-7-9-11-10 8-6q6-5 9-11z"/><path fill="#F4F4F4" d="M316 382q5 1 6 6 6 8 15 12l-7 6-11 14-2-2a49 49 0 0 0-16-14l5-6q7-6 10-16"/><path fill="#251D01" d="m492 652 2 1-1 2-29 29-3 2-13 14-4 1 19-19 5-7 17-16 2-2z"/><path fill="#48780E" d="M651 446h1v43h19v1l-25 1 1-3h2z"/><path fill="#34861E" d="m605 489-7 4-2 1-9-2-9-1h-8v-1z"/><path fill="#C59E05" d="m731 495 19 2v2l-11 3-1-4-7-2z"/><path fill="#30791D" d="M770 285h26l10 2v1h-14v-1l-22-1z"/><path fill="#443503" d="M748 915q-5 3-11 3l-3-1h-2v-1zm-11 3h5v1h-5z"/><path fill="#358621" d="M475 505q-7 4-15 3c10-5 10-5 15-3"/><path fill="#363637" d="m968 369 2 1-1 3h-2l-1 3-3 3q0-6 5-10"/><path fill="#302603" d="m695 518 2 1-7 5-3-2 4-2 2-1z"/><path fill="#2C2C2C" d="m330 537 2 1-10 6-3-1 5-3 3-2z"/><path fill="#C03D10" d="m827 515 12 3-4 2-6-2v-2z"/><path fill="#D7430F" d="m443 899 2 1h2q-5 3-12 1 3-3 8-2"/><path fill="#210A02" d="m670 628 2 1-9 9-2-2z"/><path fill="#4C4C4C" d="M496 483c-10 4-10 4-16 2v-1l6-1 3-1z"/><path fill="#ECBD04" d="m825 809 1 4-3 6h-2z"/><path fill="#B93C0F" d="M365 844h2q0 6-4 8l-1-2z"/><path fill="#C73A09" d="m846 521 6 2-4 3-3-3z"/><path fill="#2B2B2C" d="m670 324 1 2q-2 5-7 7z"/><path fill="#BDBDBD" d="M861 913q-5 3-10 2 4-4 10-2"/><path fill="#BBBBBC" d="m316 382 3 1-3 6h-2z"/><path fill="#EAEAEA" d="m680 309 3 1-5 5-1-3h2z"/></svg>