<svg xmlns="http://www.w3.org/2000/svg" viewBox="0 0 1254 1254"><path fill="#050502" d="m818 270 3 2q13 4 17 16 3 7 2 15v3q-1 12-5 24l-1 4q-7 19-21 35l-2 3a131 131 0 0 1-73 41h-3l-30 3-15 1h-2q-8 0-14 5-7 11-6 24v2l-1 24h3q68 0 132 17l4 1 30 8a459 459 0 0 1 57 22l2 1 19 9a342 342 0 0 1 96 66l2 2q10 9 18 20l2 2a197 197 0 0 1 36 74l1 2a137 137 0 0 1-17 100q-11 18-26 33l-2 2c-32 33-78 53-121 68l-8 3-32 9-17 5-18 4-4 1-5 1-16 3h-5l-6 2-12 2h-2l-19 3-4 1q-29 4-57 5h-3a1158 1158 0 0 1-174-5h-3l-17-3-9-1-16-2-6-1-3-1-27-5-12-2-3-1-9-2-4-1-16-4-14-4-26-8-3-1-21-8-7-3-48-23-2-1c-42-24-76-57-89-104l-1-4c-9-37 2-76 22-108l21-29 2-2 9-10a209 209 0 0 1 31-28l6-5a380 380 0 0 1 95-54l9-4 22-9 3-1 57-16 2-1 11-2 10-2 7-1 12-2 12-2 2-1 8-1h2q46-6 92-5v-19c-1-20-1-20-5-26q-8-5-16-4-59-1-102-40l-2-2a101 101 0 0 1-30-61v-13a34 34 0 0 1 6-21c11-11 26-12 41-11l7-1a111 111 0 0 1 35 6 131 131 0 0 1 76 61l14 28 1-3a165 165 0 0 1 27-43l2-3 7-7 2-2c31-33 90-55 135-40"/><path fill="#F3C00F" d="M795 285h4c17 0 17 0 24 4q4 5 4 11v5c-1 24-15 46-32 62-26 23-60 32-94 32h-10q-19-1-33 11c-12 12-11 32-10 48v2l2 27 8 1 3 1h3l11 1q38 2 75 7v2q-4 3-8 3-13 3-24 9l-13 5q-19 6-37 15l-7 3a458 458 0 0 0-81 44l-3 2-40 29-29 25-7 6-15 15-5 5-15 15-6 8-25 29-8 10-17 23-2 3-22 34-5 8-4 5-2 3-14 24-1 2-1 2-9 16-1 3-5 10-3 7-1 2q-2 6-5 6l-9-2-3-2-4-2-2-1a262 262 0 0 1-79-51l4-11 9-14 39-57 34-40 33-35 19-17 5-5 14-12 8-6q11-10 24-19l2-1a615 615 0 0 1 89-56l7-4 11-5 6-3 3-1 6-3 17-7 9-3 36-12 15-5 7-2v-38c-1-16-1-33-13-44-10-9-22-8-35-9q-49-1-85-36a96 96 0 0 1-21-41l-1-3a43 43 0 0 1 1-26c9-8 24-6 35-6q13 0 25 5l6 2a111 111 0 0 1 60 50v2l3 1 5 10 2 7h2l4 11 7 18 4 6q6 2 12-1l9-18a145 145 0 0 1 74-84 157 157 0 0 1 66-15"/><path fill="#ED4C14" d="m793 506 10 3h3l11 3h2l2 1 6 2 6 1 18 6 1 2-2 1-27 12-20 9-61 32a544 544 0 0 0-84 59l-19 18-9 7q-14 12-25 26l-6 6-19 22-23 31-2 2a749 749 0 0 0-43 69l-1 2-4 8-4 8-10 17-1 4-8 16-4 8-1 2-10 24-62-13-33-9-11-4-12-4 4-12 1-2 4-7 1-2 25-46 26-40 2-2 29-40 22-27 35-37 2-3 14-12 8-7 18-16 7-5a524 524 0 0 1 67-45l27-15 3-2 23-11 2-1 11-3v-2l32-12 9-3 16-6 7-3 25-9 4-1 4-1q7-2 14 1"/><path fill="#449F2A" d="M872 532q10 1 18 5l3 2 42 22-7 5c-42 18-83 46-118 76l-8 6-15 13-3 3-28 27-20 21a537 537 0 0 0-80 123l-1 2-2 4q-16 34-28 69l-4 11q-27 1-55-1l-3-1h-11l-3-1h-2l-6-1-7-1h-6l-42-6q2-10 6-19l1-2a627 627 0 0 1 45-86l17-26 1-2 35-47 29-33 17-18 3-3 18-17 9-8 5-4 29-22 2-2q24-17 50-32l2-1a484 484 0 0 1 57-30l15-7 15-6 8-4 5-2 2-1 12-4z"/><path fill="#F3C00F" d="m956 574 6 5 3 1 2 2a285 285 0 0 1 36 32l2 4-3 2a295 295 0 0 0-68 49l-27 27-6 7-14 17q-45 54-71 119l-3 7-7 17-1 2-8 24v3l-3 9v3l-1 2q-3 4-8 4l-17 2-25 4-39 3h-2l-6 1h-9l-15 1h-33l3-12 1-3 1-3 1-3q30-82 82-152l1-2 12-15 16-18 8-9 14-15 5-4 15-15 7-6 18-15 6-4 31-23 2-2c79-53 79-53 94-46"/><path fill="#ED4C13" d="m1017 629 6 8c22 32 37 70 30 110a94 94 0 0 1-9 27l-1 3a140 140 0 0 1-28 38l-2 3-25 20-2 1-39 23a389 389 0 0 1-74 28l-3 1q-23 7-47 12l-2 1-12 1q4-17 10-33l1-3 6-15 1-3 4-8 4-10a382 382 0 0 1 67-109l17-20 16-17 3-2 20-18a263 263 0 0 1 49-35l2-1z"/><path fill="#439E29" d="M603 489q-4 4-9 4c-24 7-24 7-35 12l-6 2-31 14-2 1a642 642 0 0 0-125 81l-9 7-15 13-7 7-36 34-4 4-2 2-15 17-11 13a624 624 0 0 0-59 80l-11 18a97 97 0 0 1-26-62v-18c3-41 28-76 55-105l2-2 15-14 9-7a380 380 0 0 1 112-62l36-12c28-10 28-10 37-9v-2l71-12 18-2h3zm192-204h4c17 0 17 0 24 4q4 5 4 11v5c-1 24-15 46-32 62-26 23-60 32-94 32h-10q-19-1-33 11c-12 12-10 32-10 48v2l2 27 7 1h2l3 1h8v1h-2c-23 1-23 1-33 4v-38c-1-16-1-33-13-44-11-9-22-8-35-9q-49-1-85-36a96 96 0 0 1-21-41l-1-3a43 43 0 0 1 1-26c9-8 24-6 35-6q13 0 25 5l6 2a111 111 0 0 1 60 50v2l3 1 5 10 2 7h2l3 8 1 3 7 18 4 6q6 2 12-1l9-18a145 145 0 0 1 74-84 157 157 0 0 1 66-15"/><path fill="#080707" d="M976 369q5 3 6 7l1 5a34 34 0 0 0 12 22q6 5 14 6l6 4q2 5-1 10l-10 3q-13 4-22 16l-5 13a11 11 0 0 1-6 7l-7-1-2-4h-2v-2a35 35 0 0 0-11-25l-14-7c-7-2-7-2-9-6v-7a25 25 0 0 1 13-6q13-3 20-15l5-14 2-5a13 13 0 0 1 10-1"/><path fill="#090808" d="M315 355q6 0 9 4l2 7q3 13 16 21l14 4q4 1 7 5v6q-4 5-11 7a35 35 0 0 0-20 18l-2 9q0 5-3 9-5 3-10 3-4-3-6-7v-5a33 33 0 0 0-14-18q-6-4-13-4-6-1-10-6-2-5 2-10l11-5q12-5 16-15l4-16q1-7 8-8"/><path fill="#0A0909" d="M221 509h4v2l2 1q6 4 11 11l3 3 2 3 2 2q3 4 2 9l-3 5-11 1-6-5-1-2-3-4-5-5q-5-5-7-12 1-9 10-9"/><path fill="#0A0A09" d="M183 546q7 1 12 6l3 1 9 7q6 3 7 9t-2 7q-3 3-8 3-7-2-13-7l-2-2-7-5-2-1q-3-2-5-6 0-5 2-9 3-4 6-3"/><path fill="#0A0909" d="m1052 527 6 5q1 6-2 11l-3 3-12 11q-4 5-9 5-4 0-7-2l-3-9q4-7 10-12l3-2c11-11 11-11 17-10"/><path fill="#080808" d="m1084 568 4 4v7q-7 7-15 11l-3 2c-9 5-9 5-14 4q-5-2-6-7 0-5 3-8l12-8 2-1q8-6 17-4"/><path fill="#F3F3F4" d="M971 396h2l1 2a33 33 0 0 0 15 17v2l-5 3q-8 6-14 14l-7-9-11-10 8-6q6-5 9-11z"/><path fill="#F4F4F4" d="M316 382q5 1 6 6 6 8 15 12l-7 6-11 14-2-2a49 49 0 0 0-16-14l5-6q7-6 10-16"/><path fill="#35881F" d="M603 489q-2 4-8 4h-3l-8 1v-2l-16-1v-1h11l3-1z"/><path fill="#3B9227" d="M645 669q0 4-3 7l-3 2-2 3-2 2-8 8-3-1z"/><path fill="#DCDCDC" d="M668 433h1l1 7-1 1v9l-1 21 3 1h-4v-28z"/><path fill="#BC9703" d="m731 495 19 2v2q-3 3-8 2v-4h-6z"/><path fill="#DDB20C" d="m332 681 2 3-9 9-3-1 2-2 2-2 2-2z"/><path fill="#32831F" d="M780 286a36 36 0 0 1-20 4q9-6 20-4"/><path fill="#398A25" d="m686 331 1 3-11 12q0-5 5-9l1-2z"/><path fill="#443503" d="M748 915q-5 3-11 3l-3-1h-2v-1zm-11 3h5v1h-5z"/><path fill="#398E23" d="M343 551q-1 4-4 5h-7l4-2 3-2z"/><path fill="#363637" d="m968 369 2 1-1 3h-2l-1 3-3 3q0-6 5-10"/><path fill="#CCA404" d="m345 850 1 2-2 5-2 2-1 2-2-3z"/><path fill="#AA360D" d="m757 514-4 1v2h-10l6-2 3-1z"/><path fill="#071804" d="M663 406q-2 5-8 9 2-7 8-9"/><path fill="#D4AA0B" d="m735 738 1 2q-2 6-7 7z"/><path fill="#2C2C2C" d="m330 537 2 1-10 6-3-1 5-3 3-2z"/><path fill="#D6D6D7" d="m679 417 2 1q-4 7-7 7h-2q3-5 7-8"/><path fill="#E1E1E1" d="m603 304 7 6-2 2-7-6z"/><path fill="#4C4C4C" d="M496 483c-10 4-10 4-16 2v-1l6-1 3-1z"/><path fill="#2E2502" d="m914 687 1 2-7 8-2-1z"/><path fill="#D3A80D" d="m691 802 1 4-3 5h-2z"/><path fill="#D2AB0D" d="M726 749h3l-2 4-3 1v2l-2-1z"/><path fill="#DAAF0D" d="m686 811 1 4-3 5h-2z"/><path fill="#CFAA0D" d="M712 769h2l-2 5h-2v2h-2z"/><path fill="#35861F" d="m931 559 4 3-6 4-2-1 1-2h3z"/><path fill="#BDBDBD" d="M861 913q-5 3-10 2 4-4 10-2"/><path fill="#DDB30E" d="m759 710 3 1-6 5-2-1z"/><path fill="#338C1E" d="M522 496v1h-6v2l-6-1q6-3 12-2"/><path fill="#C49C08" d="m705 492 11 1v1l-9 1z"/><path fill="#31791D" d="M552 492v1a24 24 0 0 1-14 1v-1z"/><path fill="#BBBBBC" d="m316 382 3 1-3 6h-2z"/><path fill="#E7E7E7" d="m682 307 3 1-5 5v-4h2z"/></svg>