<svg xmlns="http://www.w3.org/2000/svg" viewBox="0 0 1254 1254"><path fill="#050502" d="M830 276a27 27 0 0 1 9 20q2 18-4 34l-1 2a123 123 0 0 1-71 73l-3 1a135 135 0 0 1-55 10h-17q-8 1-14 6c-7 10-6 23-7 35v15h3q68 0 132 17l4 1 30 8a459 459 0 0 1 57 22l2 1 19 9a342 342 0 0 1 96 66l2 2q10 9 18 20l2 2a197 197 0 0 1 36 74l1 2a137 137 0 0 1-17 100q-11 18-26 33l-2 2c-32 33-78 53-121 68l-8 3-32 9-17 5-18 4-4 1-5 1-16 3h-5l-6 2-12 2h-2l-19 3-4 1q-29 4-57 5h-3a1158 1158 0 0 1-174-5h-3l-17-3-9-1-16-2-6-1-3-1-27-5-12-2-3-1-9-2-4-1-16-4-14-4-26-8-3-1-21-8-7-3-48-23-2-1c-42-24-76-57-89-104l-1-4c-9-37 2-76 22-108l21-29 2-2 9-10a209 209 0 0 1 31-28l6-5a380 380 0 0 1 95-54l9-4 22-9 3-1 57-16 2-1 11-2 10-2 7-1 12-2 12-2 2-1 8-1h2q46-6 92-5v-29a26 26 0 0 0-6-16q-4-4-10-4h-5q-64-1-107-46a117 117 0 0 1-21-33l-1-3a82 82 0 0 1-5-31v-3a34 34 0 0 1 6-21c12-12 27-12 42-11h3a123 123 0 0 1 44 6q18 7 34 19l3 2a144 144 0 0 1 44 60l3 7 1-3a188 188 0 0 1 37-54l2-2c29-30 107-64 146-33"/><path fill="#F3C10F" d="M818 289q4 4 5 9v6a78 78 0 0 1-10 33l-1 3c-13 25-37 42-63 51a189 189 0 0 1-59 8q-17 0-30 12a63 63 0 0 0-9 36v37l2 4 5 1h11l22 1 30 3 15 2 14 2v2l-3 1-3 1-3 1-16 6-22 8-3 1-15 7-9 4-33 16-26 15-42 25-50 38-9 7-19 18-24 23-15 15-6 8-18 21-20 25-2 2-21 32a806 806 0 0 0-55 97l-11-3-3-2-4-1-3-1a277 277 0 0 1-72-46l-3-2-2-6 4-8 1-3 2-3 2-3a572 572 0 0 1 57-81l24-28 3-3 18-19 3-3 12-11 8-7 14-13 7-6a528 528 0 0 1 70-49l2-1c44-28 44-28 68-37l4-2 17-7 11-5 28-11 11-4 24-8 3-1 4-2 1-21v-15c1-34 1-34-8-45q-11-10-26-9c-32-2-32-2-47-7l-3-1q-40-14-61-51l-2-3a78 78 0 0 1-7-34v-2q-1-6 3-11 13-6 28-4h2q16-1 30 3l3 1a120 120 0 0 1 50 31c19 18 30 46 37 71q0 4 4 6c7 1 7 1 10-1l4-7 1-3 1-4a168 168 0 0 1 34-59l13-13 3-2c27-23 79-42 113-25"/><path fill="#EE4D14" d="m787 504 1 1 5 1q10 1 20 5l17 5q11 2 22 7-10 6-21 9l-11 5-10 4c-71 29-133 77-188 131l-1 2-23 25-11 13-6 7-25 32-2 2-40 63-2 3a789 789 0 0 0-43 88q-30-4-60-12l-2-1-29-8-14-4-13-5 3-9 1-3 1-2 2-3 18-34a706 706 0 0 1 54-83l2-2 36-44 27-29 2-2 12-10 8-7 21-18c44-37 97-73 151-93l16-7q7-4 15-6l8-3 28-10c25-9 25-9 31-8"/><path fill="#449F2A" d="m884 535 6 3 13 6 24 12 8 6-12 6-19 9-4 1a482 482 0 0 0-80 53 438 438 0 0 0-66 60l-7 7-12 14-7 9-28 38-1 2a692 692 0 0 0-75 152l-3 8q-27 1-55-1l-3-1h-11l-3-1h-2l-6-1-7-1h-6l-42-6 5-17 2-3 14-30 1-2 18-33a632 632 0 0 1 63-91l16-19 7-9 9-10 5-6 18-19 15-14 7-6 21-17c46-38 99-71 155-91l12-4c21-9 21-9 30-4"/><path fill="#F3C00F" d="m954 572 11 8 2 2q9 6 17 14l4 4 13 12 2 2 2 4-2 1q-27 14-50 33l-3 2-16 14-7 6-12 12-2 2-16 17q-30 35-52 74l-1 2a486 486 0 0 0-34 71l-1 3-13 38-1 3v2l-4 11-49 7-38 3h-2l-6 1h-9l-15 1h-33l3-13 1-4 2-4v-2a618 618 0 0 1 92-163q6-9 14-17l7-9q4-6 10-11l5-6q9-10 19-18l5-5 12-10 8-7 21-17 2-1 15-11 2-1a444 444 0 0 1 88-48z"/><path fill="#ED4C14" d="m1017 629 6 8c23 33 37 71 30 112-7 37-34 67-65 89l-2 1a334 334 0 0 1-79 40l-8 3-39 12-3 1-34 9h-2l-12 1a444 444 0 0 1 75-159l2-2q10-15 22-28l2-2q15-19 33-34l7-7 23-18 2-2c33-24 33-24 42-24"/><path fill="#449F2A" d="M604 489q-2 4-8 4l-3 1-8 2-16 7-10 4-15 7-33 14-3 2-45 25a552 552 0 0 0-84 59l-12 10-2 2-39 37-4 4-2 2-15 16-37 47-2 2-32 51-8 13-9-12-2-2q-10-18-14-38l-1-2c-5-36 9-73 30-102l25-29 3-3 15-14 9-7q10-9 22-16l2-1 32-20 2-1 6-3 3-1 10-5 4-2 24-10 8-3q21-9 43-14l7-2 16-5h3l18-4 5-1 11-3h2l26-4h2q38-5 76-5"/><path fill="#449E29" d="M818 289q4 4 5 9v6a78 78 0 0 1-10 33l-1 3c-13 25-37 42-63 51a189 189 0 0 1-59 8q-17 0-30 12a63 63 0 0 0-9 36v37l2 4h4l3 1h11v1h-13l-16 3h-3l-3 1v-31c1-39 1-39-9-50q-10-10-25-9c-32-2-32-2-47-7l-3-1q-40-14-61-51l-2-3a78 78 0 0 1-8-34v-2q1-6 4-11 13-6 28-4h2q16-1 30 3l3 1a120 120 0 0 1 50 31c19 18 30 46 37 71q0 4 4 6c7 1 7 1 10-1l4-7 1-3 1-4a168 168 0 0 1 34-59l13-13 3-2c27-23 79-42 113-25"/><path fill="#080707" d="M976 369q5 3 6 7l1 5a34 34 0 0 0 12 22q6 5 14 6l6 4q2 5-1 10l-10 3q-13 4-22 16l-5 13a11 11 0 0 1-6 7l-7-1-2-4h-2v-2a35 35 0 0 0-11-25l-14-7c-7-2-7-2-9-6v-7a25 25 0 0 1 13-6q13-3 20-15l5-14 2-5a13 13 0 0 1 10-1"/><path fill="#090808" d="M315 355q6 0 9 4l2 7q3 13 16 21l14 4q4 1 7 5v6q-4 5-11 7a35 35 0 0 0-20 18l-2 9q0 5-3 9-5 3-10 3-4-3-6-7v-5a33 33 0 0 0-14-18q-6-4-13-4-6-1-10-6-2-5 2-10l11-5q12-5 16-15l4-16q1-7 8-8"/><path fill="#0A0909" d="M221 509h4v2l2 1q6 4 11 11l3 3 2 3 2 2q3 4 2 9l-3 5-11 1-6-5-1-2-3-4-5-5q-5-5-7-12 1-9 10-9"/><path fill="#0A0A09" d="M183 546q7 1 12 6l3 1 9 7q6 3 7 9t-2 7q-3 3-8 3-7-2-13-7l-2-2-7-5-2-1q-3-2-5-6 0-5 2-9 3-4 6-3"/><path fill="#0A0909" d="m1052 527 6 5q1 6-2 11l-3 3-12 11q-4 5-9 5-4 0-7-2l-3-9q4-7 10-12l3-2c11-11 11-11 17-10"/><path fill="#080808" d="m1084 568 4 4v7q-7 7-15 11l-3 2c-9 5-9 5-14 4q-5-2-6-7 0-5 3-8l12-8 2-1q8-6 17-4"/><path fill="#F3F3F4" d="M971 396h2l1 2a33 33 0 0 0 15 17v2l-5 3q-8 6-14 14l-7-9-11-10 8-6q6-5 9-11z"/><path fill="#F4F4F4" d="M316 382q5 1 6 6 6 8 15 12l-7 6-11 14-2-2a49 49 0 0 0-16-14l5-6q7-6 10-16"/><path fill="#E5BB0F" d="m362 649-2 6-4 3-2 2-19 19-3-1 20-20 2-2q3-4 8-7"/><path fill="#3D9528" d="m650 666 1 3-17 17-2 3-8 5 7-10 2-1z"/><path fill="#35861E" d="m604 489-7 4h-3l-8 1v-2l-17-1v-1z"/><path fill="#BB9603" d="m731 495 19 2v2l-8 2v-4h-6z"/><path fill="#D74712" d="m505 661-6 8-2 2-6 3c11-13 11-13 14-13"/><path fill="#3A8F25" d="m670 355 2 2-1 2-6 11-3 3 5-12 1-2z"/><path fill="#D64613" d="M941 682v3l-2-1zm-4 3 2 1c-7 9-7 9-12 10z"/><path fill="#DAB10D" d="M343 667q0 4-3 7l-2 2-6 3z"/><path fill="#443503" d="M748 915q-5 3-11 3l-3-1h-2v-1zm-11 3h5v1h-5z"/><path fill="#26850E" d="m636 484 2 1v2l3 4 2 1-7 2z"/><path fill="#D6450F" d="M354 868h2l-1 10-4-1z"/><path fill="#31781E" d="M501 500h-3v2l-5-1v2l-8-1v-1l6-1 3-1z"/><path fill="#363637" d="m968 369 2 1-1 3h-2l-1 3-3 3q0-6 5-10"/><path fill="#2D761B" d="M774 286a29 29 0 0 1-16 3q7-4 16-3"/><path fill="#337E20" d="m878 532-4 4h-4l-4-2z"/><path fill="#342701" d="m343 854 2 3-6 9-1-2 2-5 2-3z"/><path fill="#D9AE0E" d="m691 802 1 4-4 7h-2z"/><path fill="#2C2C2C" d="m330 537 2 1-10 6-3-1 5-3 3-2z"/><path fill="#EAEAEA" d="M601 304q6 1 9 7l-5-1-1-2-2-2z"/><path fill="#E7BA0B" d="m738 736-2 4h-2v2l-1 2-2 1q1-7 7-9"/><path fill="#CE4111" d="m825 534-7 4h-3l-2 1v-2q5-3 12-3"/><path fill="#358420" d="M479 504h-3v2l-8 1v-2c7-2 7-2 11-1"/><path fill="#4C4C4C" d="M496 483c-10 4-10 4-16 2v-1l6-1 3-1z"/><path fill="#E6B90C" d="M573 584v2l-3 3-2 1-4 1q2-6 9-7"/><path fill="#DD4611" d="m905 719 2 3-4 4-3-1z"/><path fill="#C8A20E" d="m512 544 2 1q-2 4-6 4h-3q3-4 7-5"/><path fill="#CAA50B" d="M555 525v2l-9 2c5-4 5-4 9-4"/><path fill="#BDBDBD" d="M861 913q-5 3-10 2 4-4 10-2"/><path fill="#BBBBBC" d="m316 382 3 1-3 6h-2z"/><path fill="#EAEAEA" d="m680 309 3 1-5 5-1-3h2z"/></svg>