<?xml version="1.0" encoding="UTF-8"?>
<svg xmlns="http://www.w3.org/2000/svg" viewBox="40 325 232 255" width="232" height="255" role="img"><g id="character-06-flower-face" data-bbox="40 325 272 580">
  <g id="character-06-flower-face__coral_red" fill="#f24a25" fill-rule="evenodd" transform="translate(0,1122) scale(0.1,-0.1)">
    <path d="M1460 7201 c-174 -57 -271 -219 -226 -375 49 -169 256 -251 431 -172
293 132 219 541 -100 553 -44 1 -91 -1 -105 -6z m210 -241 c42 -42 15 -120
-42 -120 -63 0 -89 71 -42 115 33 30 57 32 84 5z m-196 -12 c9 -12 16 -33 16
-46 0 -27 -42 -72 -68 -72 -29 0 -62 37 -62 70 0 62 81 95 114 48z"/>
  </g>
  <g id="character-06-flower-face__leaf_green" fill="#45b934" fill-rule="evenodd" transform="translate(0,1122) scale(0.1,-0.1)">
    <path d="M1491 6276 c-21 -23 -23 -33 -23 -165 0 -78 -2 -141 -5 -141 -3 0
-18 9 -34 21 -16 11 -33 17 -39 14 -6 -3 -13 1 -16 9 -22 58 -270 82 -372 37
-60 -27 -136 -105 -145 -148 -10 -48 53 -111 132 -133 48 -13 187 -13 253 1
41 9 148 53 230 97 4 2 12 -16 17 -40 41 -165 59 -193 124 -196 73 -3 79 21
38 152 -27 86 -28 121 -3 111 191 -82 360 -84 506 -6 99 52 187 167 203 263 5
33 -31 86 -61 89 -53 6 -208 3 -212 -3 -3 -5 -10 -6 -15 -2 -15 9 -147 -34
-208 -67 -77 -43 -129 -80 -193 -142 l-56 -55 -8 75 c-3 41 -4 103 0 137 l6
61 -45 28 c-55 32 -47 32 -74 3z"/>
  </g>
  <g id="character-06-flower-face__warm_gray" fill="#9b9b9b" fill-rule="evenodd" transform="translate(0,1122) scale(0.1,-0.1)">
    <path d="M1755 7901 c-86 -24 -155 -65 -211 -124 l-49 -51 56 51 c92 85 181
121 324 133 l80 7 -70 1 c-39 0 -97 -7 -130 -17z M2006 7892 c28 -10 68 -28
88 -40 20 -12 34 -17 31 -12 -10 16 -96 57 -135 64 -26 4 -22 1 16 -12z M2209
7747 c7 -9 24 -42 37 -74 13 -32 24 -51 24 -43 0 22 -46 116 -61 126 -12 7
-12 5 0 -9z M1077 7706 c-26 -7 -51 -17 -55 -21 -4 -5 2 -5 13 -1 74 27 195
31 285 11 l25 -6 -25 12 c-39 17 -188 21 -243 5z M944 7641 c-33 -22 -79 -61
-104 -87 -42 -44 -40 -44 18 9 34 31 83 68 107 83 40 23 53 34 41 34 -2 0 -30
-18 -62 -39z M1870 7626 c30 -6 66 -18 80 -25 24 -11 24 -11 5 4 -23 18 -80
35 -115 34 -14 0 0 -6 30 -13z M2270 7538 c0 -40 -3 -83 -6 -95 -5 -18 -1 -23
22 -28 16 -3 50 -14 77 -25 26 -10 47 -17 47 -14 0 8 -61 35 -97 42 l-37 8 3
92 c1 51 0 92 -3 92 -3 0 -6 -33 -6 -72z M2036 7509 c8 -17 22 -61 30 -98 l14
-66 -6 55 c-5 52 -36 140 -49 140 -3 0 2 -14 11 -31z M1034 7418 c-31 -29 -60
-62 -66 -73 -5 -11 4 -3 21 17 17 20 50 53 73 72 23 20 38 36 34 36 -4 0 -32
-24 -62 -52z M701 7092 c-2 -26 41 -100 76 -133 l37 -34 -38 45 c-21 25 -47
65 -57 90 -10 25 -18 39 -18 32z M2346 6988 c-10 -85 -38 -144 -94 -197 -33
-32 -38 -38 -14 -22 39 27 76 74 96 122 15 35 33 159 24 159 -3 0 -9 -28 -12
-62z M736 6699 c-3 -17 -5 -59 -5 -93 2 -55 3 -52 9 29 8 95 7 116 -4 64z
M943 6665 c0 -38 2 -53 4 -32 2 20 2 52 0 70 -2 17 -4 1 -4 -38z M740 6526 c0
-36 68 -161 111 -201 l43 -40 -41 46 c-46 52 -67 89 -94 164 -10 28 -18 41
-19 31z M2095 6450 c-10 -23 -45 -66 -77 -96 -33 -30 -56 -54 -53 -54 29 0
168 170 152 186 -2 2 -12 -14 -22 -36z M1490 6455 c-13 -14 -46 -36 -74 -50
-27 -14 -43 -25 -35 -25 18 0 99 50 118 73 17 22 29 21 55 0 21 -18 21 -18 2
5 -24 28 -37 28 -66 -3z M1645 6400 c19 -8 123 -14 114 -6 -2 2 -33 6 -69 9
-38 3 -57 1 -45 -3z M1158 6193 c23 -2 61 -2 85 0 23 2 4 4 -43 4 -47 0 -66
-2 -42 -4z"/>
  </g>
  <g id="character-06-flower-face__charcoal" fill="#111111" fill-rule="evenodd" transform="translate(0,1122) scale(0.1,-0.1)">
    <path d="M1755 7891 c-119 -35 -212 -102 -275 -201 l-31 -48 -52 22 c-65 29
-143 46 -210 46 -392 0 -659 -567 -367 -779 l37 -27 -29 -34 c-63 -76 -82
-135 -83 -250 0 -97 2 -110 31 -171 56 -118 139 -189 268 -228 148 -45 364
-16 453 62 22 19 22 19 58 -3 46 -29 81 -35 190 -35 80 0 97 3 157 32 110 52
199 150 221 244 6 23 15 28 69 39 298 58 457 402 318 686 -46 94 -114 146
-220 168 -25 5 -25 6 -25 113 0 96 -3 114 -26 164 -82 175 -284 258 -484 200z
m199 -285 c94 -55 141 -177 113 -290 -8 -34 -17 -68 -19 -76 -2 -11 5 -14 27
-13 165 11 237 -27 271 -143 52 -180 -82 -362 -283 -382 l-67 -7 -2 -48 c-8
-141 -131 -251 -279 -252 -70 0 -95 10 -177 67 -13 10 -23 6 -52 -20 -100 -88
-232 -104 -360 -44 -85 40 -120 73 -157 148 -54 109 -36 219 52 326 22 26 39
52 39 58 0 6 -24 34 -53 63 -128 126 -123 273 15 414 125 127 287 144 442 46
28 -18 28 -18 44 7 37 59 137 146 187 163 78 27 198 19 259 -17z M1595 6937
c-20 -16 -17 -56 7 -70 12 -8 21 -7 32 2 38 32 1 96 -39 68z M1380 6925 c-26
-32 13 -81 48 -59 34 22 22 74 -18 74 -10 0 -23 -7 -30 -15z"/>
  </g>
</g>
</svg>