<?xml version="1.0" encoding="UTF-8"?>
<svg xmlns="http://www.w3.org/2000/svg" viewBox="475 325 200 260" width="200" height="260" role="img"><g id="character-08-gray-heart" data-bbox="475 325 675 585">
  <g id="character-08-gray-heart__lemon_yellow" fill="#ffd11a" fill-rule="evenodd" transform="translate(0,1122) scale(0.1,-0.1)">
    <path d="M5723 7010 c-45 -10 -76 -33 -114 -80 -39 -48 -43 -49 -76 -10 -130
155 -344 47 -318 -159 17 -134 163 -324 321 -416 59 -34 77 -29 154 42 207
191 293 433 201 562 -34 48 -110 76 -168 61z m19 -237 c24 -21 23 -58 -2 -83
-27 -27 -46 -25 -76 5 -53 53 22 129 78 78z m-260 -10 c37 -33 14 -103 -34
-103 -54 0 -79 74 -36 104 29 20 47 20 70 -1z m152 -154 c3 -3 -5 -15 -17 -27
-21 -19 -28 -21 -55 -11 -53 18 -43 46 17 45 27 -1 52 -4 55 -7z"/>
  </g>
  <g id="character-08-gray-heart__warm_gray" fill="#9b9b9b" fill-rule="evenodd" transform="translate(0,1122) scale(0.1,-0.1)">
    <path d="M5454 7810 c-231 -46 -439 -258 -527 -536 -56 -176 -71 -291 -72
-524 0 -222 6 -271 47 -400 67 -208 199 -348 392 -414 15 -5 17 -13 12 -44 -3
-20 -6 -49 -6 -64 0 -21 -6 -28 -27 -31 -27 -5 -27 -5 2 -3 29 1 30 3 37 61
11 86 10 85 60 73 24 -5 52 -14 63 -20 11 -7 92 -14 187 -16 l167 -5 4 -46 c3
-35 4 -32 2 11 -1 65 1 66 109 73 64 5 121 25 200 71 73 44 118 83 109 97 -3
6 -2 7 4 4 14 -9 57 39 48 53 -3 6 -1 9 5 8 19 -5 80 115 107 210 86 301 -7
839 -192 1117 -163 246 -461 378 -731 325z m-35 -193 c16 -21 32 -147 20 -169
-23 -43 -55 0 -65 89 -8 77 14 117 45 80z m218 1 c6 -8 8 -46 4 -93 -5 -67 -9
-80 -25 -83 -28 -6 -36 15 -36 94 0 83 26 121 57 82z m241 -82 c4 -34 -25
-148 -41 -158 -14 -8 -34 0 -41 18 -5 12 15 120 29 162 9 26 50 9 53 -22z
m-638 -52 c22 -56 24 -103 5 -110 -29 -12 -76 83 -61 122 9 24 46 16 56 -12z
m831 -60 c11 -14 8 -25 -21 -80 -37 -70 -51 -81 -74 -56 -13 16 -13 22 5 62
20 44 55 90 70 90 3 0 13 -7 20 -16z m-527 -165 c17 -85 -7 -140 -40 -94 -14
19 -20 126 -8 138 13 13 42 -13 48 -44z m-417 -38 c30 -44 39 -79 24 -94 -17
-17 -40 1 -70 54 -42 76 -2 111 46 40z m658 -23 c0 -60 -13 -85 -39 -75 -20 8
-22 107 -4 125 27 27 43 9 43 -50z m393 30 c5 -40 -46 -94 -72 -75 -18 13 -18
15 -1 48 34 67 67 79 73 27z m-842 -23 c27 -66 6 -121 -33 -83 -21 22 -30 98
-12 109 23 14 29 11 45 -26z m619 -104 c-13 -27 -19 -30 -31 -20 -18 15 -18
29 2 58 14 20 18 21 31 8 13 -13 13 -18 -2 -46z m-871 -92 c30 -32 35 -43 25
-55 -18 -22 -38 -17 -76 21 -29 29 -33 37 -23 55 16 30 33 25 74 -21z m733 0
c103 -39 142 -179 90 -321 -52 -142 -243 -368 -312 -368 -49 0 -207 124 -284
224 -75 97 -95 149 -96 247 0 79 2 89 29 128 71 103 184 106 283 9 l42 -42 43
49 c64 73 138 100 205 74z m288 -12 c25 -38 31 -113 10 -121 -11 -4 -25 0 -36
10 -19 17 -44 107 -34 124 11 18 44 11 60 -13z m-1047 -197 c59 -36 34 -70
-40 -54 -48 11 -68 34 -49 58 18 21 49 20 89 -4z m1214 -56 c13 -28 5 -49 -25
-68 -21 -13 -37 6 -37 45 0 50 43 66 62 23z m6 -158 c7 -32 -8 -66 -27 -66
-32 0 -42 48 -15 75 19 19 38 15 42 -9z m-1160 -8 c20 -20 14 -42 -22 -81 -36
-40 -56 -46 -75 -23 -16 19 7 65 45 95 31 24 36 25 52 9z m956 -10 c23 -33 21
-105 -3 -118 -39 -20 -68 69 -41 121 14 25 25 24 44 -3z m-834 -262 c0 -113
-61 -116 -64 -4 -1 64 15 93 45 77 16 -8 19 -21 19 -73z m708 52 c18 -23 19
-119 1 -131 -29 -18 -47 -1 -54 51 -10 72 21 118 53 80z m223 -9 c15 -29 6
-116 -14 -136 -31 -31 -50 1 -42 71 10 83 32 109 56 65z m-717 -147 c6 -29 9
-76 7 -103 -2 -28 -34 -33 -53 -9 -23 28 -24 112 -3 134 21 20 43 10 49 -22z
m343 -33 c25 -48 14 -129 -17 -129 -29 0 -42 26 -42 80 1 77 32 103 59 49z
M5989 5780 c52 -12 68 -33 53 -73 -10 -29 -10 -30 3 -13 8 11 15 28 15 37 0
24 -47 59 -79 58 -23 -1 -22 -2 8 -9z M5243 5673 c20 -2 54 -2 75 0 20 2 3 4
-38 4 -41 0 -58 -2 -37 -4z"/>
  </g>
  <g id="character-08-gray-heart__charcoal" fill="#111111" fill-rule="evenodd" transform="translate(0,1122) scale(0.1,-0.1)">
    <path d="M5672 6774 c-41 -28 -22 -94 28 -94 51 0 76 54 40 90 -24 24 -38 25
-68 4z M5404 6745 c-33 -50 20 -104 71 -71 44 29 27 96 -25 96 -20 0 -35 -8
-46 -25z M5534 6609 c-10 -17 26 -40 55 -37 24 3 50 32 39 43 -3 4 -16 2 -27
-5 -15 -7 -27 -8 -40 0 -14 7 -22 7 -27 -1z M5324 5926 c-2 -6 -7 -38 -12 -70
l-7 -59 -59 -12 c-81 -16 -104 -47 -65 -86 27 -27 187 -25 215 3 17 16 49 196
37 208 -13 13 -105 27 -109 16z M5841 5919 c-24 -5 -44 -10 -45 -11 -1 -2 1
-47 4 -101 6 -125 18 -138 119 -136 90 1 114 9 126 43 12 36 -15 61 -80 70
-49 8 -51 12 -45 114 2 36 -1 36 -79 21z"/>
  </g>
</g>
</svg>