<?xml version="1.0" encoding="UTF-8"?>
<svg xmlns="http://www.w3.org/2000/svg" viewBox="75 590 201 250" width="201" height="250" role="img"><g id="character-12-rice-bow" data-bbox="75 590 276 840">
  <g id="character-12-rice-bow__lemon_yellow" fill="#ffd11a" fill-rule="evenodd" transform="translate(0,1122) scale(0.1,-0.1)">
    <path d="M2000 5209 c-29 -15 -60 -22 -87 -20 -102 6 -240 -55 -318 -141 -43
-48 -43 -48 -107 -48 -185 0 -356 -133 -388 -301 -20 -103 26 -219 110 -276
48 -34 49 -26 -25 -203 -127 -302 -205 -578 -205 -728 0 -111 61 -106 73 6 19
176 242 872 278 864 8 -2 41 -9 74 -15 33 -6 61 -11 63 -13 7 -4 -33 -140 -99
-334 -126 -372 -174 -559 -151 -582 6 -6 49 -11 97 -12 l87 -2 -7 26 c-3 14
-8 75 -11 135 -7 126 16 265 86 520 21 77 44 168 50 201 l12 61 47 6 c25 3 54
9 64 12 15 6 17 0 17 -57 0 -84 -10 -139 -76 -403 -90 -358 -87 -487 8 -499
80 -10 118 -12 118 -6 0 3 52 6 116 7 123 2 150 7 157 26 2 7 0 68 -5 137 -5
77 -4 240 3 425 7 165 9 356 5 425 -14 288 -104 466 -271 535 -95 39 -97 41
-51 81 84 73 233 114 313 87 43 -16 239 -1 259 19 63 63 -132 118 -236 67z
m-706 -604 c21 -32 45 -32 71 2 23 28 45 25 45 -6 0 -22 -37 -56 -69 -64 -28
-7 -76 15 -85 38 -20 52 9 74 38 30z m322 10 c8 -21 -22 -64 -53 -76 -46 -17
-103 19 -103 65 0 22 20 20 46 -5 26 -24 58 -19 74 12 13 23 28 25 36 4z
M2066 5074 c-19 -51 14 -163 57 -188 40 -25 66 27 52 101 -12 65 -93 130 -109
87z M2295 5073 c-40 -10 -38 -22 14 -72 28 -27 51 -53 51 -59 0 -5 21 -34 48
-65 26 -30 55 -68 66 -82 52 -75 176 -90 176 -22 0 43 -112 116 -178 117 -23
0 -40 8 -57 28 -34 37 -31 42 20 42 85 0 106 58 34 95 -31 17 -140 28 -174 18z
M2284 4892 c-47 -70 -21 -223 38 -230 56 -7 71 122 25 201 -35 60 -41 62 -63
29z M2444 4709 c20 -69 19 -95 -7 -112 -47 -30 -77 -186 -44 -231 43 -58 112
38 109 153 -1 68 -34 195 -54 207 -8 5 -9 0 -4 -17z M2535 4648 c-18 -48 65
-146 138 -164 30 -7 67 17 67 42 0 56 -188 167 -205 122z M2527 4483 c-12 -11
-8 -66 12 -156 17 -76 17 -88 4 -95 -35 -20 -56 -153 -31 -207 17 -39 55 -34
73 10 25 59 23 111 -16 329 -10 60 -19 113 -19 118 0 10 -14 11 -23 1z M2600
4406 c0 -71 76 -156 139 -156 18 0 21 6 21 41 0 54 -11 71 -66 108 -59 38 -94
41 -94 7z M2650 4180 c0 -26 35 -98 63 -127 36 -40 47 -30 47 42 0 63 -1 66
-32 85 -44 27 -78 26 -78 0z M2635 4045 c4 -16 6 -41 5 -55 -10 -153 2 -200
51 -200 63 0 44 118 -40 250 l-23 35 7 -30z"/>
  </g>
  <g id="character-12-rice-bow__warm_gray" fill="#9b9b9b" fill-rule="evenodd" transform="translate(0,1122) scale(0.1,-0.1)">
    <path d="M1854 3315 l1 -80 30 -1 c28 -2 28 -2 3 3 -26 4 -27 6 -31 81 l-3 77
0 -80z M1085 3157 c3 -10 5 -20 5 -23 0 -18 70 -34 148 -34 77 0 93 3 113 21
l24 21 -25 -16 c-17 -12 -49 -16 -112 -16 -94 0 -130 10 -147 44 -8 14 -10 15
-6 3z M1734 3116 c15 -12 41 -16 110 -14 l91 2 -95 5 c-52 3 -102 10 -110 14
-8 5 -6 1 4 -7z"/>
  </g>
  <g id="character-12-rice-bow__charcoal" fill="#111111" fill-rule="evenodd" transform="translate(0,1122) scale(0.1,-0.1)">
    <path d="M1257 4623 c-19 -30 28 -83 72 -83 32 0 89 55 74 71 -10 10 -17 8
-36 -9 -31 -29 -57 -28 -83 5 -13 16 -23 22 -27 16z M1465 4610 c-15 -25 33
-70 75 -70 22 0 80 50 80 69 0 18 -26 13 -45 -9 -10 -11 -29 -20 -41 -20 -13
0 -29 9 -36 20 -14 22 -24 25 -33 10z M1240 3368 c0 -18 -3 -56 -6 -85 l-7
-52 -44 -7 c-56 -8 -98 -42 -89 -71 10 -31 49 -43 145 -43 131 0 134 3 139
164 l4 126 -71 0 -71 0 0 -32z M1714 3268 c6 -106 10 -136 23 -145 21 -16 186
-18 213 -3 64 34 40 94 -42 107 l-53 8 -3 83 -3 82 -71 0 -71 0 7 -132z"/>
  </g>
</g>
</svg>