<?xml version="1.0" encoding="UTF-8"?>
<svg xmlns="http://www.w3.org/2000/svg" viewBox="820 840 275 268" width="275" height="268" role="img"><g id="character-20-green-heart-night" data-bbox="820 840 1095 1108">
  <g id="character-20-green-heart-night__coral_red" fill="#f24a25" fill-rule="evenodd" transform="translate(0,1122) scale(0.1,-0.1)">
    <path d="M9584 1596 c-48 -21 -103 -75 -136 -134 -33 -57 -39 -57 -57 -1 -31
98 -127 157 -198 123 -152 -75 -102 -339 94 -499 76 -62 92 -64 159 -24 151
91 274 262 281 394 7 120 -53 180 -143 141z"/>
  </g>
  <g id="character-20-green-heart-night__leaf_green" fill="#45b934" fill-rule="evenodd" transform="translate(0,1122) scale(0.1,-0.1)">
    <path d="M9195 2624 c-256 -39 -437 -279 -395 -521 6 -38 25 -105 41 -151 49
-141 40 -186 -69 -348 -70 -104 -99 -178 -108 -272 -17 -178 90 -339 269 -407
71 -26 77 -25 77 16 0 33 41 70 70 62 31 -8 69 -52 76 -88 l6 -33 76 -8 c114
-10 263 9 365 48 81 30 85 33 97 71 17 57 60 97 103 97 46 0 58 -17 64 -90 7
-68 5 -68 101 -45 257 61 454 319 413 541 -26 138 -93 220 -254 311 -157 88
-215 152 -309 339 -94 189 -130 243 -215 325 -125 120 -268 174 -408 153z
m-77 -549 c9 -20 19 -25 47 -25 26 0 39 6 51 25 20 30 44 33 44 4 0 -33 -53
-79 -92 -79 -48 1 -111 61 -93 90 11 18 32 11 43 -15z m272 -5 c35 -37 41 -37
85 1 25 22 39 29 46 22 25 -25 -44 -93 -93 -93 -35 0 -88 48 -88 79 0 29 17
26 50 -9z m295 -476 c56 -37 68 -144 25 -241 -68 -155 -287 -356 -352 -322
-133 69 -246 227 -256 360 -6 85 9 128 59 173 80 73 169 34 235 -101 l20 -43
42 65 c67 105 163 151 227 109z m312 -287 c-6 -44 -11 -52 -26 -42 -12 7 -15
98 -4 109 15 15 34 -29 30 -67z m173 -22 c-13 -46 -30 -69 -30 -41 0 8 5 18
10 21 6 3 10 19 10 34 0 15 3 31 7 34 14 15 15 -4 3 -48z m-1270 -39 c0 -7 3
-29 7 -47 6 -31 5 -33 -10 -20 -18 15 -24 81 -7 81 6 0 10 -6 10 -14z"/>
  </g>
  <g id="character-20-green-heart-night__warm_gray" fill="#9b9b9b" fill-rule="evenodd" transform="translate(0,1122) scale(0.1,-0.1)">
    <path d="M10185 2523 c30 -8 45 -23 45 -47 0 -61 -88 -62 -91 -1 -1 17 -2 18
-6 2 -12 -45 58 -74 90 -39 33 36 8 94 -39 91 -18 -1 -18 -2 1 -6z M10376
2289 c-15 -12 -25 -30 -25 -42 2 -22 2 -22 6 0 7 38 42 56 71 37 14 -9 21 -11
18 -5 -17 27 -44 31 -70 10z M10119 2199 l-24 -21 25 16 c31 20 44 20 64 0 24
-23 20 -70 -6 -88 -12 -9 -18 -16 -12 -16 40 0 57 77 24 110 -25 25 -42 25
-71 -1z M8559 2033 c-11 -15 -11 -16 1 -5 24 21 67 14 90 -15 12 -16 18 -21
14 -13 -15 32 -38 50 -64 50 -15 0 -34 -8 -41 -17z M10342 2017 c-12 -13 -22
-27 -22 -31 0 -5 9 3 21 18 35 45 85 32 99 -25 7 -32 8 -32 9 -6 2 59 -67 87
-107 44z M8596 659 c6 -10 102 -41 113 -37 5 2 -20 12 -54 23 -35 12 -62 18
-59 14z M10338 645 c-10 -13 -41 -33 -70 -44 -29 -11 -46 -20 -38 -20 38 -1
145 68 129 83 -2 2 -12 -6 -21 -19z M9423 593 c26 -2 67 -2 90 0 23 2 2 3 -48
3 -49 0 -68 -1 -42 -3z M9015 580 c74 -8 241 -13 234 -6 -2 2 -71 6 -154 8
-93 4 -124 3 -80 -2z M9645 570 c30 -8 122 -13 114 -6 -2 2 -35 6 -74 9 -42 3
-58 2 -40 -3z M9843 553 c43 -2 110 -2 150 0 40 1 5 3 -78 3 -82 0 -115 -2
-72 -3z"/>
  </g>
  <g id="character-20-green-heart-night__charcoal" fill="#111111" fill-rule="evenodd" transform="translate(0,1122) scale(0.1,-0.1)">
    <path d="M8557 2512 c-22 -25 -21 -38 5 -56 15 -11 26 -12 40 -5 23 12 25 64
2 73 -24 9 -29 8 -47 -12z M10152 2508 c-28 -28 -7 -78 33 -78 27 0 45 18 45
45 0 27 -18 45 -45 45 -12 0 -26 -5 -33 -12z M10382 2284 c-31 -21 -29 -61 4
-76 23 -11 29 -10 46 11 35 44 -6 96 -50 65z M8387 2242 c-32 -35 -15 -82 28
-82 23 0 55 28 55 48 0 16 -37 52 -53 52 -8 0 -21 -8 -30 -18z M10128 2199
c-44 -25 -43 -75 3 -99 49 -27 94 54 53 94 -18 18 -32 20 -56 5z M9077 2093
c-15 -25 47 -93 85 -93 47 0 111 61 93 89 -4 8 -18 1 -41 -19 -43 -38 -59 -38
-92 0 -27 31 -37 36 -45 23z M9346 2091 c-20 -31 36 -91 84 -91 48 0 115 69
91 93 -8 8 -20 2 -42 -21 -39 -40 -63 -40 -98 -1 -18 20 -31 27 -35 20z M8554
2014 c-39 -58 30 -122 81 -74 29 27 31 47 9 78 -22 31 -69 30 -90 -4z M10341
2004 c-12 -15 -21 -30 -21 -34 0 -16 43 -60 59 -60 31 0 61 30 61 60 0 60 -62
81 -99 34z M8370 1770 c-48 -48 11 -139 66 -102 15 10 34 47 34 66 0 22 -36
56 -60 56 -11 0 -29 -9 -40 -20z M9967 1363 c-11 -10 -8 -91 3 -98 15 -9 28
35 23 73 -5 31 -13 39 -26 25z M8880 1231 c0 -24 10 -51 19 -51 4 0 5 16 3 35
-4 37 -22 49 -22 16z M8635 1100 c-342 -45 -432 -222 -138 -270 83 -13 92 -21
63 -50 -47 -47 -3 -106 103 -139 149 -46 447 -68 671 -50 149 11 171 11 277
-7 158 -26 503 -27 599 -1 149 41 190 112 108 188 -39 35 -38 36 57 54 92 18
131 39 145 78 24 70 -37 114 -204 146 l-108 21 -66 -41 c-72 -46 -150 -75
-223 -85 l-49 -7 0 41 c0 45 -15 93 -33 104 -46 29 -117 -17 -136 -89 -10 -37
-16 -42 -69 -62 -141 -53 -270 -71 -405 -57 -62 7 -66 9 -72 37 -10 45 -52 89
-85 89 -33 0 -50 -18 -59 -63 -9 -39 -28 -39 -109 -2 -70 32 -125 77 -163 131
-16 24 -33 43 -37 43 -4 -1 -34 -5 -67 -9z m1518 -335 c24 -18 18 -46 -13 -63
-30 -15 -164 -12 -181 5 -15 15 -3 48 24 61 33 16 148 14 170 -3z"/>
  </g>
</g>
</svg>