<svg xmlns="http://www.w3.org/2000/svg" viewBox="0 0 1254 1254"><path fill="#3C9D2D" d="m666 248 2 1a101 101 0 0 1 41 22c23 21 38 51 48 80l5 14 1 3v2l1 5 3-2 10-6 2-1q20-10 41-5c31 9 49 34 64 61l2 3 21 46 3 7 6 15 4 11 6 15 5 15 9 23 5 15 8 24 4 10 3 9 3 7 8 22 4 15 7 21 20 59c35 104 35 104 16 142a78 78 0 0 1-46 38l-21 6-6 2-10 2-18 3-11 1q-6 2-10 6l-10 6-3 2-6 1v2l-29 10-5 1-14 3-3 1-23 3-11 1-23 3h-4l-13 1h-3l-69 2q-42 0-83-2h-3l-18-1h-2l-22-2h-6c-27-1-62-4-86-17l-7-3-17-11q-4-3-9-3h-17a446 446 0 0 1-84-8h-2c-26-6-51-16-67-38a96 96 0 0 1-10-74q12-48 29-94l2-7 7-19 9-26 3-9 6-16 5-14 1-3 6-14 1-3v-2l7-19 3-7 5-13 1-2 7-19 5-13 1-3c22-52 22-52 37-75l1-2c15-23 32-44 59-50h7q22 0 39 13v-3l5-17 1-3 16-44 1-2a233 233 0 0 1 32-56l1-2q24-31 61-43l4-1c17-5 39-5 57 0"/><path fill="#ED4C0F" d="M693 623h3a212 212 0 0 1 45 4 234 234 0 0 1 71 25 162 162 0 0 1 79 96q7 18 17 33a109 109 0 0 1 15 28l1 3a96 96 0 0 1-5 74l-1 3q-19 33-56 47l-3 1q-28 10-58 13h-4l-41 5h-4l-87 1h-20l-31-1-24-1-52-3-27-3-9-2q-15-2-28-7l-3-1a77 77 0 0 1-43-36l-5-12-1-2a101 101 0 0 1-4-33v-3q0-18 4-35l1-3a246 246 0 0 1 55-97l5-6 9-8 6-6 18-15 2-1a307 307 0 0 1 78-42l3-1 40-11h3q25-5 51-4"/><path fill="#050503" d="m666 248 2 1a101 101 0 0 1 41 22c23 21 38 51 48 80l5 14 1 3v2l1 5 3-2 10-6 2-1q20-10 41-5c31 9 49 34 64 61l2 3 21 46 3 7 6 15 4 11 6 15 5 15 9 23 5 15 8 24 4 10 3 9 3 7 8 22 4 15 7 21 20 59c35 104 35 104 16 142a78 78 0 0 1-46 38l-21 6-6 2-10 2-18 3-11 1q-6 2-10 6l-10 6-3 2-6 1v2l-29 10-5 1-14 3-3 1-23 3-11 1-23 3h-4l-13 1h-3l-69 2q-42 0-83-2h-3l-18-1h-2l-22-2h-6c-27-1-62-4-86-17l-7-3-17-11q-4-3-9-3h-17a446 446 0 0 1-84-8h-2c-26-6-51-16-67-38a96 96 0 0 1-10-74q12-48 29-94l2-7 7-19 9-26 3-9 6-16 5-14 1-3 6-14 1-3v-2l7-19 3-7 5-13 1-2 7-19 5-13 1-3c22-52 22-52 37-75l1-2c15-23 32-44 59-50h7q22 0 39 13v-3l5-17 1-3 16-44 1-2a233 233 0 0 1 32-56l1-2q24-31 61-43l4-1c17-5 39-5 57 0m-96 43-3 3c-21 19-36 51-45 77l-3 8-15 45c-4 14-4 14-7 17q-4 3-10 1l-7-6a45 45 0 0 0-32-12c-15 1-27 12-36 23-23 28-38 63-52 97v2l-9 24-7 16-8 23-4 10-7 19-4 11-4 13-4 10-2 7-4 9-6 18-4 12-8 24-3 9-16 49c-7 24-7 24-8 37v3q-1 26 15 46c31 31 89 31 130 31h8l-5-12a109 109 0 0 1-9-48v-7c0-47 23-92 51-129l2-2a250 250 0 0 1 45-46 303 303 0 0 1 117-58l3-1 43-7 17-1h18q25 0 50 4l3 1 29 8a218 218 0 0 1 60 30l3 2 24 21a164 164 0 0 1 40 67q8 19 18 35a143 143 0 0 1 19 39 103 103 0 0 1-2 66l-13 27-2 5c23-2 52-8 69-27a66 66 0 0 0 14-38v-3q0-28-10-54l-7-21-7-24-14-41-1-2-3-10-4-11-14-41-4-14-3-6-2-7-5-15-7-20-4-10-3-9-5-13-9-25-6-16-1-2-6-15c-21-53-21-53-38-76l-2-2-5-7-2-2a64 64 0 0 0-30-21l-2-1a47 47 0 0 0-35 8l-10 8q-5 5-12 5-4-1-7-6l-2-9-8-24-2-6-9-20-2-6q-2-6-6-11l-1-2-4-6-1-2a97 97 0 0 0-58-43l-20-1h-3a89 89 0 0 0-65 28m65 337-3 1q-64 14-117 54l-3 2-23 21-4 3q-5 4-9 10l-3 3a247 247 0 0 0-31 45c-14 26-25 55-24 85v7a88 88 0 0 0 23 61 101 101 0 0 0 43 22l5 2 18 3 8 1 3 1 6 1 15 1 2 1 61 3 16 1h64l76-1q43-3 85-13h2q15-4 28-11l3-2 21-14q25-22 30-55l1-4c5-22-3-48-15-67l-6-9a148 148 0 0 1-18-40l-11-24-2-3c-22-39-62-63-104-78l-3-1-23-6-3-1a216 216 0 0 0-47-4h-8a248 248 0 0 0-53 5"/><path fill="#060606" d="M366 279q6 3 7 8l2 7a51 51 0 0 0 23 30l13 6q3 1 5 4 1 6-3 11l-7 3a53 53 0 0 0-30 27l-3 9q-1 7-6 10-6 2-11-2-3-4-4-9a52 52 0 0 0-26-32l-10-4-7-6q-2-5 2-10 5-4 12-6 21-10 29-33l2-7 3-5q5-2 9-1"/><path fill="#070200" d="m863 837 6 3q3 6 2 11l-3 7-1 2-14 18a102 102 0 0 1-60 34q-5 1-9-2-4-4-3-10 3-6 9-7l6-2a88 88 0 0 0 54-42c6-11 6-11 12-12M579 677l5 5v7q-6 7-14 9-34 16-60 44-3 3-9 2l-4-2-2-10c12-21 59-59 84-55"/><path fill="#F6F6F6" d="M362 313h2l2 4a52 52 0 0 0 20 20v2l-4 3a65 65 0 0 0-19 20l-6-7-17-17 9-8 10-13z"/><path fill="#090808" d="m203 681 3 1h3l3 1 12 1 4 1 4 1h3l8 5q2 5 0 10l-4 4q-10 1-19-2h-5l-10-3h-4q-4-1-7-5-2-4-1-9 4-5 10-5"/><path fill="#080707" d="m1012 398 5 4q2 5 0 10l-7 5-4 1-3 2-3 1-10 4-3 1-3 1-2 1h-9q-4-3-5-8 1-6 6-8 6-5 15-8l9-4 4-1z"/><path fill="#080808" d="M968 348q4 1 7 4l1 8-3 5-1 3-2 3-4 6-2 3-3 8q-2 5-7 6t-9-3q-3-5-2-11l6-12 3-6c8-15 8-15 16-14"/><path fill="#060605" d="M231 624q8 3 12 10l10 11c6 6 6 6 6 10l-1 6-9 3q-6-1-10-7l-2-2c-17-16-17-16-17-22q0-4 2-7 4-3 9-2"/><path fill="#DB460C" d="m526 724 2 1-14 15h-2l-1 3-3-1h2l1-2 4-5 2-2 2-2 2-2z"/><path fill="#BB3D0C" d="m628 953 1 1h7l2 1h9v1l-36-1v-1z"/><path fill="#1C1B1D" d="m382 340 2 1-4 2zm-4 3 2 1-9 10-1 2-3-1 4-5 3-3z"/><path fill="#DADADA" d="m880 947 2 1q-4 5-12 7l1-4 6-1v-2z"/><path fill="#363737" d="M317 608q2 5-1 10l-4 4z"/><path fill="#C8410C" d="m825 899 2 1q-4 4-10 6l-2-2 5-3 3-1z"/><path fill="#3A3A3B" d="M494 395h1v10h-2l-2 3z"/><path fill="#B63A0B" d="M783 951v1l-15 1v-1q8-3 15-1"/><path fill="#303031" d="m962 348 2 1-1 1-5 8h-2q2-6 6-10"/><path fill="#CB440C" d="M580 694q-1 3-5 3l-6 1c7-6 7-6 11-4"/><path fill="#1D1D1D" d="m790 364-9 3v-2q4-3 9-1"/><path fill="#393839" d="M264 759h1v7l-4 4z"/><path fill="#1C1C1D" d="m976 410 3 1-2 1-6 5v-3z"/><path fill="#F3F3F3" d="m289 679 2 1-2 7-2-1z"/><path fill="#2B2B2C" d="m348 527 2 2-1 4-4 2 1-2z"/><path fill="#2D2D2D" d="m354 513 2 1q-1 5-5 7z"/><path fill="#D6D5D6" d="m405 348-1 3-5 2-2-2z"/></svg>