<?xml version="1.0" encoding="UTF-8"?>
<svg xmlns="http://www.w3.org/2000/svg" viewBox="690 315 185 270" width="185" height="270" role="img">
<rect x="690" y="315" width="185" height="270" fill="#ffffff"/>
<g id="character-09-firefly-spots" data-bbox="690 315 875 585">
  <g id="character-09-firefly-spots__lemon_yellow" fill="#ffd11a" fill-rule="evenodd" transform="translate(0,1122) scale(0.1,-0.1)">
    <path d="M7264 7222 c-73 -58 -44 -152 46 -152 48 0 82 35 83 85 2 68 -78 109
-129 67z m24 -69 c-3 -30 -25 -42 -34 -19 -6 17 11 46 28 46 5 0 8 -12 6 -27z
M7660 7207 c-33 -17 -53 -60 -45 -97 13 -60 82 -79 131 -36 73 62 -1 176 -86
133z M7951 7054 c-40 -51 -13 -114 48 -114 32 0 71 39 71 70 0 31 -39 70 -70
70 -19 0 -36 -9 -49 -26z m69 -34 c0 -27 -19 -35 -38 -17 -12 13 -13 19 -3 31
16 19 41 10 41 -14z M7125 6895 c-64 -63 25 -165 94 -107 35 28 38 76 8 106
-33 33 -71 33 -102 1z M7514 6898 c-25 -11 -44 -48 -44 -81 1 -18 3 -16 15 10
22 52 115 60 115 10 0 -40 -61 -83 -84 -60 -14 15 -38 12 -25 -3 6 -7 15 -11
20 -8 5 3 9 0 9 -5 0 -19 48 -12 74 12 69 62 3 166 -80 125z M7872 6803 c-40
-16 -46 -102 -9 -125 22 -14 74 -8 89 10 58 65 0 148 -80 115z M7642 6567
c-47 -49 -14 -127 53 -127 27 0 65 46 65 80 0 63 -75 93 -118 47z m27 -26
c-18 -28 -4 -54 27 -48 19 3 24 1 22 -12 -2 -10 -15 -17 -34 -19 -27 -3 -32 1
-37 24 -6 32 7 74 23 74 6 0 6 -7 -1 -19z M7333 6570 c-89 -36 -51 -171 40
-141 66 22 73 112 11 140 -14 6 -26 11 -27 10 -1 0 -12 -4 -24 -9z m62 -41 c4
-6 -3 -18 -16 -27 -44 -32 -45 -33 -31 -39 15 -6 16 -23 0 -23 -18 0 -48 31
-48 50 0 20 25 34 53 31 9 -1 17 3 17 8 0 14 17 14 25 0z M7945 6395 c-47 -46
-17 -125 48 -125 64 0 95 91 45 133 -28 24 -65 21 -93 -8z M7604 6268 c-47
-22 -56 -86 -19 -123 28 -29 61 -32 93 -9 81 57 14 175 -74 132z M7203 6250
c-69 -28 -49 -140 25 -140 73 0 100 105 35 139 -25 13 -30 13 -60 1z"/>
  </g>
  <g id="character-09-firefly-spots__cobalt_blue" fill="#124fd2" fill-rule="evenodd" transform="translate(0,1122) scale(0.1,-0.1)">
    <path d="M7241 7878 c-100 -49 -148 -204 -120 -392 l11 -75 41 21 c43 21 147
60 147 53 0 -2 24 3 53 11 28 7 73 14 100 14 54 0 53 -3 33 102 -27 140 -79
233 -151 268 -52 25 -60 25 -114 -2z m64 -175 c3 -10 9 -49 12 -88 5 -61 4
-68 -8 -58 -17 14 -44 136 -34 152 9 16 22 13 30 -6z m90 -64 c8 -24 -2 -69
-15 -69 -13 0 -23 38 -16 66 8 29 22 31 31 3z m-148 -64 c5 -30 3 -37 -8 -33
-18 6 -34 51 -25 74 10 25 25 6 33 -41z M7990 7741 c-55 -30 -129 -115 -161
-186 -33 -74 -33 -75 -16 -75 19 0 135 -51 188 -83 45 -27 138 -118 171 -167
l16 -25 16 36 c21 49 56 227 56 281 -1 72 -39 167 -81 201 -49 38 -136 47
-189 18z m100 -151 c0 -27 -47 -130 -59 -130 -5 0 -12 4 -16 9 -6 10 31 117
47 138 13 17 28 7 28 -17z m-106 -19 c7 -11 -13 -71 -24 -71 -18 0 -22 22 -10
51 13 29 24 36 34 20z m156 -94 c0 -24 -25 -67 -39 -67 -19 0 -18 29 0 59 22
37 39 40 39 8z"/>
  </g>
  <g id="character-09-firefly-spots__warm_gray" fill="#9b9b9b" fill-rule="evenodd" transform="translate(0,1122) scale(0.1,-0.1)">
    <path d="M7619 7510 c57 -6 120 -14 139 -20 20 -5 38 -8 40 -5 10 10 -83 26
-178 30 l-105 4 104 -9z M7042 7343 c-44 -44 -48 -50 -13 -17 31 28 67 59 81
68 13 9 19 16 12 16 -7 0 -43 -30 -80 -67z M8113 6613 c-7 -19 3 -27 92 -79
33 -19 49 -25 35 -13 -14 12 -47 32 -73 46 -39 19 -48 28 -44 44 6 23 -1 25
-10 2z M6959 5996 c20 -24 90 -63 126 -71 19 -4 12 2 -18 14 -27 11 -65 32
-85 47 -20 16 -31 20 -23 10z M8004 5926 c-3 -7 -4 -40 -2 -72 l3 -59 35 -1
c35 -1 35 -1 3 3 l-33 4 0 64 c0 58 2 64 23 68 l22 4 -23 2 c-12 0 -25 -5 -28
-13z M7846 5913 c6 -4 14 -55 18 -112 6 -100 15 -131 39 -131 6 0 3 6 -6 13
-13 9 -18 37 -24 121 -6 84 -11 110 -23 113 -10 3 -11 2 -4 -4z M7717 5903
c18 -2 50 -2 70 0 21 2 7 4 -32 4 -38 0 -55 -2 -38 -4z M7567 5893 c-4 -3 -7
-45 -7 -92 0 -58 -5 -96 -16 -116 -15 -29 -14 -29 3 -12 14 14 19 38 21 117
l4 99 51 4 52 3 -51 2 c-28 1 -54 -1 -57 -5z M7422 5838 c-2 -50 -5 -57 -24
-61 l-23 -4 23 -2 c28 -1 34 14 29 75 l-3 49 -2 -57z"/>
  </g>
  <g id="character-09-firefly-spots__charcoal" fill="#111111" fill-rule="evenodd" transform="translate(0,1122) scale(0.1,-0.1)">
    <path d="M7330 7485 c-194 -51 -326 -148 -391 -287 -33 -72 -34 -75 -34 -208
0 -135 0 -137 34 -203 19 -37 59 -94 89 -128 47 -51 56 -68 60 -108 4 -45 2
-49 -67 -136 -99 -125 -121 -172 -121 -258 0 -89 18 -127 83 -171 83 -56 132
-68 380 -91 l67 -7 0 -54 c0 -35 -4 -56 -12 -58 -89 -22 -103 -31 -106 -64 -5
-47 44 -67 144 -57 94 9 98 14 104 139 l5 101 80 7 c44 3 112 8 150 10 l70 3
8 -110 c6 -85 11 -113 24 -122 20 -15 124 -17 172 -3 87 25 77 99 -15 109
l-49 6 0 69 0 68 73 19 c224 57 315 159 299 335 -11 113 -74 198 -196 263 -34
18 -65 39 -68 46 -2 8 15 42 39 77 222 317 42 715 -367 813 -124 30 -341 30
-455 0z m55 -278 c60 -85 -54 -189 -133 -122 -41 34 -43 80 -7 124 39 46 107
45 140 -2z m370 -12 c44 -43 30 -116 -27 -140 -91 -38 -159 66 -91 137 35 37
84 38 118 3z m290 -130 c40 -39 32 -96 -16 -121 -34 -17 -75 -10 -89 16 -44
82 43 168 105 105z m-812 -167 c36 -42 10 -126 -40 -129 -56 -4 -76 8 -91 50
-28 79 77 143 131 79z m372 -13 c67 -67 -20 -171 -105 -125 -28 15 -40 61 -25
97 24 57 88 71 130 28z m349 -86 c36 -28 36 -81 0 -114 -34 -32 -68 -32 -99 0
-52 52 -20 118 66 134 4 0 18 -8 33 -20z m-201 -241 c54 -72 -54 -158 -118
-93 -32 31 -32 69 0 101 34 34 90 30 118 -8z m-348 -3 c68 -67 -23 -175 -102
-120 -60 42 -19 142 60 144 10 1 29 -10 42 -24z m651 -163 c36 -47 -3 -122
-63 -122 -48 0 -73 24 -73 70 0 77 91 112 136 52z m-359 -134 c52 -49 12 -138
-62 -138 -71 0 -103 83 -50 135 31 32 80 33 112 3z m-412 -23 c29 -28 32 -61
9 -93 -34 -49 -97 -48 -130 2 -48 75 58 155 121 91z"/>
  </g>
</g>
</svg>