<?xml version="1.0" encoding="UTF-8"?>
<svg xmlns="http://www.w3.org/2000/svg" viewBox="35 845 280 260" width="280" height="260" role="img">
<rect x="35" y="845" width="280" height="260" fill="#ffffff"/>
<g id="character-17-yellow-sun-seed" data-bbox="35 845 315 1105">
  <g id="character-17-yellow-sun-seed__lemon_yellow" fill="#ffd11a" fill-rule="evenodd" transform="translate(0,1122) scale(0.1,-0.1)">
    <path d="M1495 2344 c-179 -40 -339 -168 -444 -354 -29 -52 -53 -106 -53 -120
0 -30 -24 -71 -40 -67 -16 3 -86 -159 -103 -240 -69 -325 154 -643 485 -693
41 -7 85 -16 96 -22 14 -6 89 -8 200 -5 470 12 704 179 739 527 12 120 -45
353 -90 370 -36 14 -49 37 -37 65 9 20 6 35 -23 95 -19 39 -35 73 -35 76 0 17
-107 167 -147 205 -144 140 -362 205 -548 163z m278 -371 c180 -81 228 -296
93 -429 -68 -68 -137 -94 -251 -94 -187 0 -314 100 -315 249 -1 229 248 373
473 274z m-733 -537 c0 -29 -53 -81 -74 -73 -25 10 -19 42 13 76 32 35 61 33
61 -3z m70 -121 c10 -12 8 -21 -9 -48 -33 -53 -58 -72 -76 -57 -22 18 -19 31
16 78 33 45 49 51 69 27z m1105 -44 c19 -43 10 -71 -21 -71 -19 0 -54 59 -54
92 0 54 47 41 75 -21z m-1005 -76 c15 -18 -9 -82 -42 -112 -17 -15 -20 -15
-35 0 -18 18 -7 56 29 102 23 29 31 31 48 10z m851 -50 c23 -51 22 -73 -3 -88
-24 -16 -44 6 -58 63 -13 55 -8 70 21 70 14 0 26 -13 40 -45z m-692 -34 c28
-18 -5 -131 -39 -131 -26 0 -34 33 -19 78 18 58 31 70 58 53z m465 -29 c24
-86 11 -131 -32 -118 -29 9 -42 114 -17 132 20 15 42 8 49 -14z m-256 -14 c18
-18 15 -103 -4 -122 -12 -13 -20 -14 -36 -5 -18 10 -20 17 -15 61 8 68 29 92
55 66z"/>
  </g>
  <g id="character-17-yellow-sun-seed__leaf_green" fill="#45b934" fill-rule="evenodd" transform="translate(0,1122) scale(0.1,-0.1)">
    <path d="M2654 2692 c-107 -77 -155 -214 -120 -335 9 -31 20 -57 25 -57 4 0
35 28 68 63 84 87 125 204 109 312 -9 54 -25 58 -82 17z M2653 2259 c-43 -13
-42 -19 9 -52 60 -38 112 -51 172 -41 61 11 66 23 28 65 -28 32 -34 34 -103
36 -41 1 -89 -2 -106 -8z"/>
  </g>
  <g id="character-17-yellow-sun-seed__warm_gray" fill="#9b9b9b" fill-rule="evenodd" transform="translate(0,1122) scale(0.1,-0.1)">
    <path d="M1769 2693 c-11 -15 -11 -16 1 -5 41 36 66 4 38 -50 -10 -21 -16 -38
-13 -38 14 0 42 77 34 93 -13 22 -43 22 -60 0z M2793 2630 c0 -41 2 -58 4 -37
2 20 2 54 0 75 -2 20 -4 3 -4 -38z M2516 2633 c-27 -41 -56 -116 -55 -142 0
-9 8 10 19 42 10 32 30 76 44 98 15 21 24 39 21 39 -2 0 -16 -17 -29 -37z
M2010 2630 c-11 -8 -8 -9 12 -4 44 10 47 -19 8 -69 -50 -63 -57 -77 -17 -32
52 58 63 81 47 100 -14 17 -29 19 -50 5z M1960 2568 c-16 -22 -30 -46 -30 -53
0 -14 21 -35 35 -35 5 0 2 5 -7 11 -25 14 -22 30 12 77 17 23 28 42 25 42 -3
0 -18 -19 -35 -42z M962 2538 c-21 -21 -13 -42 42 -103 46 -51 57 -58 72 -49
10 6 19 17 21 25 3 8 0 7 -7 -3 -18 -29 -36 -21 -84 36 -61 71 -60 119 2 81
l27 -16 -24 20 c-27 24 -33 25 -49 9z M2702 2360 c-12 -16 -22 -30 -22 -32 0
-2 31 -3 70 -3 38 0 62 3 52 7 -9 4 -36 7 -60 7 l-42 1 16 25 c23 35 12 31
-14 -5z M2320 2263 c-28 -36 -21 -87 17 -122 l27 -26 -22 25 c-73 85 1 189 79
111 16 -16 29 -37 29 -45 0 -9 5 -16 10 -16 16 0 -16 56 -46 79 -37 29 -68 26
-94 -6z M781 2265 c30 -16 59 -70 59 -110 0 -29 94 -217 118 -238 9 -6 4 6
-10 29 -47 74 -98 183 -98 210 0 51 -50 125 -85 124 -5 -1 2 -7 16 -15z M2517
2162 c-26 -26 -47 -51 -47 -54 0 -4 21 15 46 42 40 43 49 48 63 38 14 -12 14
-11 2 5 -17 21 -9 25 -64 -31z M2924 2142 c-19 -23 -32 -27 -105 -33 l-84 -7
82 2 c75 1 85 4 110 28 15 15 25 29 22 31 -2 2 -14 -7 -25 -21z M740 2116 c0
-3 13 -12 28 -20 19 -10 35 -31 47 -63 19 -48 72 -143 82 -143 2 0 -6 17 -18
38 -32 52 -37 61 -58 114 -13 31 -30 52 -50 63 -17 8 -31 13 -31 11z M2359
1988 c-13 -28 -41 -77 -62 -107 -30 -45 -32 -50 -8 -22 32 36 106 169 99 177
-3 2 -15 -19 -29 -48z M1709 1789 l-24 -21 25 16 c37 24 75 20 99 -10 12 -15
21 -22 21 -17 0 19 -47 53 -72 53 -14 0 -36 -9 -49 -21z M1965 845 c3 -22 5
-57 5 -77 0 -37 1 -38 38 -36 36 1 36 1 5 5 -31 4 -33 7 -34 46 -1 23 -5 56
-10 72 -7 26 -8 25 -4 -10z M1933 603 c20 -2 54 -2 75 0 20 2 3 4 -38 4 -41 0
-58 -2 -37 -4z"/>
  </g>
  <g id="character-17-yellow-sun-seed__charcoal" fill="#111111" fill-rule="evenodd" transform="translate(0,1122) scale(0.1,-0.1)">
    <path d="M2624 2738 c-107 -73 -176 -227 -155 -348 7 -37 21 -81 32 -99 l20
-33 -28 -33 c-31 -37 -43 -43 -43 -19 0 25 -56 74 -84 74 -35 0 -60 -40 -52
-83 6 -34 33 -65 74 -86 17 -9 21 -18 17 -34 -15 -51 -68 -154 -110 -213 -46
-64 -55 -94 -32 -112 18 -15 27 -7 86 81 54 81 104 186 116 247 4 22 24 53 53
82 l45 47 39 -31 c75 -59 215 -88 292 -58 136 51 -13 229 -175 207 -46 -6 -46
-5 -14 37 71 93 105 255 76 364 l-12 42 -48 0 c-38 0 -59 -7 -97 -32z m114
-86 c5 -64 -15 -147 -50 -216 -21 -40 -110 -136 -127 -136 -5 0 -17 23 -26 51
-42 126 15 275 134 351 55 34 63 28 69 -50z m104 -400 c33 -19 56 -58 42 -72
-5 -5 -37 -13 -69 -16 -55 -6 -66 -3 -124 27 -78 41 -85 54 -34 68 84 23 138
21 185 -7z M1495 2690 c-17 -27 -17 -116 -1 -129 13 -11 20 -11 28 -3 13 13
28 110 21 130 -6 15 -39 16 -48 2z M1766 2678 c-46 -70 -52 -137 -11 -122 17
7 74 116 68 132 -8 20 -41 14 -57 -10z M1191 2616 c-16 -19 25 -109 52 -114
28 -6 31 25 6 75 -26 52 -40 61 -58 39z M2000 2608 c-55 -59 -73 -118 -37
-118 21 0 100 107 93 125 -8 22 -32 19 -56 -7z M967 2533 c-15 -15 -5 -38 39
-89 46 -55 70 -66 80 -39 10 24 -81 135 -110 135 -2 0 -6 -3 -9 -7z M732 2269
c-63 -24 -47 -115 28 -159 34 -20 48 -37 64 -75 28 -71 125 -225 141 -225 13
0 25 21 25 46 0 8 -17 40 -39 72 -54 80 -111 196 -111 228 0 67 -60 131 -108
113z M1441 1774 c-52 -66 6 -147 84 -118 24 10 46 60 39 89 -14 57 -88 74
-123 29z M1710 1782 c-33 -27 -33 -87 -1 -113 45 -36 102 -14 117 47 15 61
-66 107 -116 66z M976 1430 c-30 -36 -31 -43 -12 -59 17 -14 78 44 73 69 -4
27 -34 22 -61 -10z M1063 1308 c-50 -56 -62 -98 -28 -98 21 0 76 70 73 93 -4
29 -21 31 -45 5z M2144 1307 c-13 -34 40 -115 63 -96 18 16 16 38 -7 77 -20
33 -47 42 -56 19z M1168 1183 c-24 -27 -46 -76 -41 -90 10 -27 43 -13 63 27
33 65 18 109 -22 63z M2005 1179 c-12 -18 5 -96 24 -113 17 -15 20 -16 34 -1
14 14 14 20 1 57 -21 62 -44 83 -59 57z M1332 1098 c-38 -47 -28 -142 11 -109
17 13 40 97 32 112 -9 13 -31 11 -43 -3z M1787 1094 c-14 -14 -8 -111 8 -124
34 -29 56 30 36 100 -7 25 -30 37 -44 24z M1534 1056 c-3 -7 -4 -35 -2 -62 2
-41 6 -49 23 -49 22 0 40 62 30 103 -6 25 -42 31 -51 8z M1891 866 l-44 -10 7
-100 c9 -137 16 -146 111 -146 84 0 119 10 135 40 24 45 -19 80 -96 80 -33 0
-34 2 -34 38 0 59 -12 112 -24 111 -6 -1 -31 -7 -55 -13z M1315 791 l-7 -80
-37 -7 c-56 -10 -83 -31 -79 -62 4 -37 60 -55 141 -46 84 10 97 25 97 118 0
40 3 87 6 103 6 29 4 30 -33 36 -21 3 -48 9 -59 12 -21 6 -22 2 -29 -74z"/>
  </g>
</g>
</svg>