<?xml version="1.0" encoding="UTF-8"?>
<svg xmlns="http://www.w3.org/2000/svg" viewBox="1125 315 243 270" width="243" height="270" role="img">
<rect x="1125" y="315" width="243" height="270" fill="#ffffff"/>
<g id="character-11-lotus-water" data-bbox="1125 315 1368 585">
  <g id="character-11-lotus-water__coral_red" fill="#f24a25" fill-rule="evenodd" transform="translate(0,1122) scale(0.1,-0.1)">
    <path d="M13202 7252 c-63 -10 -199 -180 -257 -322 -111 -269 -110 -267 -120
-208 -31 184 -125 244 -248 159 -75 -51 -186 -225 -202 -317 -9 -47 -21 -64
-46 -64 -22 0 -49 37 -49 68 0 27 -58 136 -112 209 -52 71 -98 104 -153 111
-42 4 -48 2 -79 -31 -39 -42 -61 -111 -60 -189 1 -32 -3 -55 -7 -52 -5 3 -9
13 -9 23 0 28 -98 215 -136 259 -121 142 -237 62 -220 -151 21 -286 152 -465
409 -562 180 -67 536 -75 762 -16 410 106 611 356 632 783 11 211 -25 313
-105 300z m-1419 -764 c25 -35 64 -81 86 -103 75 -72 37 -84 -43 -14 -44 39
-96 126 -96 161 0 26 2 24 53 -44z m1147 -10 c0 -14 -96 -108 -111 -108 -11 0
91 119 104 120 4 0 7 -5 7 -12z m-757 -39 c50 -23 62 -95 22 -134 -27 -28 -42
-30 -66 -12 -44 34 -51 96 -14 132 28 29 26 28 58 14z m382 -9 c55 -60 -27
-178 -86 -124 -23 20 -25 64 -4 104 23 44 61 53 90 20z"/>
  </g>
  <g id="character-11-lotus-water__lemon_yellow" fill="#ffd11a" fill-rule="evenodd" transform="translate(0,1122) scale(0.1,-0.1)">
    <path d="M12285 7495 c-113 -40 -145 -182 -61 -264 60 -58 132 -60 205 -4 138
105 19 327 -144 268z"/>
  </g>
  <g id="character-11-lotus-water__cobalt_blue" fill="#124fd2" fill-rule="evenodd" transform="translate(0,1122) scale(0.1,-0.1)">
    <path d="M13079 6363 c-8 -9 -54 -42 -102 -74 -154 -100 -360 -156 -602 -166
-311 -12 -557 58 -698 199 -55 55 -54 55 -133 29 -180 -57 -284 -154 -284
-262 0 -196 225 -305 688 -333 183 -12 206 -15 230 -35 76 -61 100 -66 327
-66 374 1 602 61 656 171 17 37 31 50 63 63 151 58 211 125 204 227 -7 108
-87 188 -240 240 -85 29 -91 29 -109 7z m113 -163 c-47 -39 -198 -64 -220 -37
-18 21 -7 27 113 58 86 23 102 24 115 12 13 -13 12 -17 -8 -33z m-1554 15 c73
-16 83 -21 80 -39 -6 -43 -208 -9 -208 34 0 18 16 31 35 27 6 -2 47 -11 93
-22z m-197 -130 c24 -8 77 -21 118 -28 79 -13 93 -24 65 -52 -15 -14 -29 -16
-82 -11 -125 13 -203 53 -173 90 16 20 17 20 72 1z m1829 0 c34 -40 -94 -89
-235 -90 -75 0 -80 1 -83 22 -4 25 6 29 101 38 37 4 95 15 130 25 78 23 72 23
87 5z m-1300 -80 c54 -12 97 -15 153 -11 80 7 117 -2 117 -29 0 -34 -111 -51
-240 -35 -147 18 -218 51 -189 86 15 18 34 16 159 -11z m815 -20 c0 -37 -102
-65 -241 -65 -81 0 -116 17 -98 47 9 15 27 18 105 20 52 2 114 7 139 12 67 14
95 10 95 -14z m-1015 -106 c10 -7 -2 -9 -38 -6 -29 2 -59 10 -65 17 -14 15 78
5 103 -11z m1174 -5 c24 -9 19 -39 -8 -52 -61 -27 -156 -26 -156 3 0 19 15 27
84 41 34 6 62 12 63 13 1 0 8 -2 17 -5z m-385 -68 c21 -25 -16 -41 -108 -44
-93 -4 -130 10 -118 42 9 22 208 24 226 2z"/>
  </g>
  <g class="ic-fx"><g id="character-11-lotus-water__petal_pink" fill="#f06292" fill-rule="evenodd" transform="translate(0,1122) scale(0.1,-0.1)">
    <path d="M12393 7841 c-22 -14 -44 -45 -74 -107 l-44 -87 -20 29 c-128 178
-204 160 -222 -53 -6 -79 -10 -84 -39 -52 -22 24 -113 79 -131 79 -50 0 -70
-111 -38 -215 8 -27 13 -50 11 -52 -2 -2 -27 8 -57 22 -108 50 -167 24 -141
-63 17 -57 70 -132 94 -132 16 0 158 -106 158 -118 0 -2 -8 -1 -17 2 -54 21
31 -39 111 -78 189 -92 428 -111 610 -48 114 40 225 103 298 171 62 57 133
141 108 127 -8 -4 -4 2 10 14 14 12 19 19 12 15 -10 -5 -10 -1 -1 19 7 14 16
23 20 20 9 -5 49 117 49 151 0 27 -29 55 -57 55 -32 0 -123 -40 -175 -76 -26
-19 -45 -27 -41 -19 3 8 9 15 13 15 34 0 49 265 17 297 -17 17 -87 11 -87 -8
0 -6 -4 -7 -10 -4 -5 3 -10 1 -10 -6 0 -7 -3 -9 -7 -6 -3 4 -12 -1 -20 -11 -9
-11 -12 -11 -7 -2 7 16 -77 -60 -109 -98 -24 -28 -33 -22 -41 28 -13 83 -86
210 -120 210 -6 0 -25 -9 -43 -19z m37 -361 c86 -61 80 -194 -12 -263 -154
-115 -331 90 -201 234 57 63 148 75 213 29z m-463 -283 c21 -23 8 -35 -15 -14
-10 10 -25 17 -33 17 -16 0 -69 39 -53 40 5 0 15 -5 22 -12 6 -6 15 -8 19 -4
4 4 1 11 -6 15 -11 7 -10 11 5 19 15 8 20 5 32 -16 7 -15 21 -35 29 -45z"/>
  </g></g>
  <g id="character-11-lotus-water__warm_gray" fill="#9b9b9b" fill-rule="evenodd" transform="translate(0,1122) scale(0.1,-0.1)">
    <path d="M12284 6760 c0 -96 2 -136 3 -87 2 48 2 126 0 175 -1 48 -3 8 -3 -88z
M12374 6800 c0 -58 1 -81 3 -52 2 28 2 76 0 105 -2 28 -3 5 -3 -53z"/>
  </g>
  <g id="character-11-lotus-water__charcoal" fill="#111111" fill-rule="evenodd" transform="translate(0,1122) scale(0.1,-0.1)">
    <path d="M12290 6732 c0 -208 7 -243 44 -229 30 12 38 60 39 245 l2 182 -42 0
-43 0 0 -198z M12493 6435 c-66 -47 -39 -165 31 -134 46 21 61 94 26 129 -24
24 -29 24 -57 5z M12117 6422 c-36 -40 -10 -132 36 -132 48 0 74 44 57 96 -18
53 -63 70 -93 36z"/>
  </g>
</g>
</svg>