<?xml version="1.0" encoding="UTF-8"?>
<svg id="Layer_1" data-name="Layer 1" xmlns="http://www.w3.org/2000/svg" width="82" height="29.82" xmlns:xlink="http://www.w3.org/1999/xlink" viewBox="0 0 82 29.82">
  <defs>
    <style>
      .cls-1 {
        fill: none;
      }

      .cls-1, .cls-2 {
        stroke-width: 0px;
      }

      .cls-3 {
        clip-path: url(#clippath-1);
      }

      .cls-4 {
        clip-path: url(#clippath);
      }

      .cls-2 {
        fill: #fff;
      }
    </style>
    <clipPath id="clippath">
      <rect class="cls-1" y="0" width="82" height="29.82"/>
    </clipPath>
    <clipPath id="clippath-1">
      <rect class="cls-1" y="0" width="82" height="29.82"/>
    </clipPath>
  </defs>
  <g id="indian-headdress-white">
    <g class="cls-4">
      <g class="cls-3">
        <path class="cls-2" d="M40.12,11.97c-.24.39-.47.8-.64,1.09.23.02.62-.01.83-.42.15-.29,0-.52-.18-.67"/>
        <path class="cls-2" d="M41.94,18.64s-.07-.06-.12-.08c-.05-.02-.1-.03-.16-.03-.12,0-.21.03-.27.1-.07.07-.1.16-.1.27s.03.2.1.27c.07.07.16.1.27.1.08,0,.15-.02.21-.05.06-.03.1-.08.13-.13.03-.06.04-.12.04-.19,0-.05,0-.1-.02-.15-.02-.04-.04-.08-.07-.12"/>
        <path class="cls-2" d="M44.48,18.46h-.09v.35h.09c.11,0,.18-.01.22-.04.04-.02.06-.07.06-.13s-.02-.11-.06-.14c-.05-.03-.12-.04-.22-.04"/>
        <path class="cls-2" d="M36.31,18.64s-.07-.06-.12-.08c-.04-.02-.1-.03-.16-.03-.12,0-.21.03-.28.1-.07.07-.1.16-.1.27s.04.2.1.27c.07.07.16.1.28.1.08,0,.15-.02.2-.05.06-.03.1-.08.13-.13.03-.06.04-.12.04-.19,0-.05,0-.1-.02-.15-.02-.04-.04-.08-.07-.12"/>
        <path class="cls-2" d="M81.08,14.08c-.17-.49-.53-.74-.66-1.03-.13-.29-.24-.78-.24-.93s-.11-.26-.43-.21c-.32.05-.68.22-.77-.03-.04-.12.23-.33.4-.48.18-.15.47-.22.48-.45.01-.22-.28-.56-.47-.87-.19-.31-.37-.64-.34-.76.03-.12.16-.22.26-.26.09-.03.2,0,.2,0l-.07.17s.27.04.42.02c.15-.01.4-.08.42-.3.01-.22-.16-.53-.54-1.1-.37-.57-1.1-1.36-1.69-1.82-.59-.46-1.03-.59-1.28-.78-.25-.19-.37-.26-.33-.38.03-.12.19-.33.23-.54.04-.22-.02-.45-.14-.64-.09-.14-.59-.37-.95-.53-.37-.16-.48-.23-.59-.29-.1-.06-.11-.09-.05-.25.06-.16.12-.39.04-.53-.08-.14-.66-.34-1.39-.58-.74-.23-2-.54-2.6-.73-.6-.19-1.11-.31-1.25-.2-.13.12-.1.4-.2.48-.11.08-.26.13-.41.01-.1-.08-1.09-.55-2.3-.71-1.2-.16-2.6-.09-4.36.22-1.76.32-5.4,1.12-7.64,1.78-8.85,2.61-19.17,6.83-28.01,11.16-3.83,1.88-7.64,3.81-11.39,5.84-1.88,1.05-3.75,2.13-5.6,3.23-1.1.65-2.21,1.28-3.27,1.99-.54.32-1.05.68-1.58,1.02-.82.51-1.59,1.08-2.39,1.61-.41.28-.8.59-1.23.85-.17.11-.35.21-.48.38,1.45.08,2.84-.38,4.21-.77,1.12-.35,2.22-.71,3.3-1.15,1.2-.48,2.41-.95,3.58-1.49,2.24-1.05,4.46-2.13,6.69-3.19,2.49-1.19,4.34-1.05,3.08-.33-.93.49-1.82,1.04-2.77,1.51-1.11.56-2.21,1.16-3.28,1.79-1.03.57-2.08,1.11-3.1,1.7-1.13.66-2.24,1.34-3.35,2.03-.09.05-.15.13-.2.22.71.12,1.44.06,2.15-.02,3.27-.44,6.25-1.59,9.3-2.76.64-.26,1.23-.6,1.83-.93.99-.55,2.02-1,3.02-1.55,1.35-.67,2.62-1.49,4.03-2.04,1.43-.55,1.32.27.11.92-.72.35-1.41.75-2.12,1.12-.62.32-1.22.66-1.82,1.01-1.18.65-2.33,1.36-3.44,2.11-.48.38-.98.7-1.45,1.09-.49.43-1.06.8-1.4,1.35,1.36.09,2.71-.26,4.01-.65,2.45-.76,4.83-1.72,7.11-2.89,1.61-.83,3.17-1.74,4.72-2.67,1.05-.62,2.12-1.2,3.19-1.77.75-.4,1.25.25.56.78-1.54,1.18-3.09,2.34-4.63,3.51-.6.45-1.18.92-1.8,1.32-.82.52-1.64,1.04-2.49,1.5-.3.2-.65.32-.92.57.39.16.83.13,1.24.08.98-.14,1.92-.46,2.85-.79,1.68-.62,3.35-1.28,4.94-2.11.56-.32,1.13-.63,1.68-.97.94-.51,1.83-1.09,2.73-1.66,1.94-1.21,1.19-.85,3.13-2.04,2.17-1.33,2.01-.27,1.49.12-2.98,2.44-5.34,4.33-8.37,6.72-.47.38-.99.73-1.33,1.23,0,.02.02.07.03.09.9.09,1.77-.3,2.59-.61,1.75-.66,3.54-1.29,5.19-2.21,2.83-1.54,5.23-3.46,7.67-5.47,1.17-.97,1.6-.37-.08,1.11-1.03.9-1.81,1.46-2.77,2.43-.67.67-1.3,1.4-1.96,2.08-.41.46-.85.89-1.22,1.38-.21.31-.45.61-.56.98.4.02.78-.12,1.16-.22.81-.28,1.62-.59,2.38-.98,2.21-1.17,3.91-2.39,5.66-4.06,1.08-1.03,2.78-2.78,2.96-3,.19-.22.74-.3.37.24-.1.13-1.15,1.74-2.32,2.96-1,1.05-2.04,1.93-2.97,2.89-.54.56-1.13,1.07-1.73,1.56-.07.06-.13.13-.19.2.35.03.69-.12,1.02-.2,2.72-.91,4.72-2.17,7.08-3.82.29-.2.56-.3.73-.16.17.14.12.34-.16.65-.27.32-1.01.99-1.47,1.73-.46.74-.54,1.06-.54,1.06,0,0,2.53-.22,4.04-.17,1.51.04,3.4.42,4.52.6,1.12.17,2.08.36,2.94.44.86.08,1.68.23,2,.29.51.08.52-.07.61-.06.08.01.34.27.79.35.45.08.95.07,1.34.08.39,0,.51.03.64-.06.13-.09.17-.17.05-.32-.12-.16-.42-.24-.55-.59-.14-.34.14-.62.33-.71.19-.1.36-.07.54-.03.17.03.33.21.33.21,0,0,.16-.57.11-1.58-.05-1.01-.41-1.97-.92-2.84-.51-.87-.79-.85-.82-1.37-.04-.52.21-1.15.61-1.56.4-.42.69-.54,1.3-1.45.61-.91.73-1.38,1-2.03.26-.65.62-.97,1.5-1.34.88-.38,1.48-.38,1.88-.59.39-.21.79-.67.62-1.16M76.4,6.7c.12.26.36.34.37.39,0,.05-.11.42-.11.42,0,0-.03,0-.08-.03-.06-.01-.1.03-.17.03-.07,0-.25-.14-.35-.25-.1-.11-.29-.31-.42-.47-.13-.17-.37-.28-.6-.3-.23,0-.08-.26,0-.36.07-.11.31-.52.31-.52,0,0,.14-.02.24,0,.1,0,.28.08.4.21.15.17.3.63.41.89M74.85,4.91c.23-.05.39-.05.5-.1.11-.06.15-.12.15-.12h.32s.11.36-.18.6c-.29.24-.79.41-1.06.55-.27.14-.38.22-.48.34-.11.12-.24.38-.27.11-.03-.27-.03-.78.21-1.01.24-.24.59-.31.81-.36M70.42,1.55c.09-.12.21-.29.21-.29,0,0,.44.1,1.31.34.87.23,2.01.66,2.01.66,0,0-.1.12-.23.29-.09.1-.26.31-.26.31,0,0-.77-.29-1.19-.43-.43-.14-1.74-.46-1.93-.51-.2-.05,0-.24.09-.36M70,2.4l3.16.94-.44.63c-1.02-.33-2.05-.63-3.08-.96l.36-.6ZM71.99,8.61c.07.15.18.58.34,2.17.17,1.59-.03,2.89-.18,3.27-.15.38-.37.31-.45.3-.12-.01-.11-.2-.16-.52-.03-.32.06-1,.06-1.59,0-.59-.03-1.07-.13-1.63-.07-.44-.3-1.32-.36-1.51-.05-.15-.15-.03-.28.15-.06.08-.24.27-.41.52-.18.27-.38.62-.62.92-.4.52-.89.97-1.1.99-.21.02-.15-.18-.09-.29.07-.11.33-.49.95-1.4.35-.52,1.26-1.9,2.05-3.06.61-.89,1.16-1.64,1.23-1.7.17-.13.28-.05.3.15.02.2-.02.58-.15.82-.13.24-.46.8-.82,1.3-.36.51-.24.98-.17,1.13M69.82,20.49c-.42-.23-.77-.34-.92-.08-.17.3,0,.56,0,.89.01.4-.37.54-.45.69-.08.15.13.25.14.58.01.33-.32.52-.32.52,0,0-.18-.41-.32-.63-.14-.22-.27-.1-.49-.03-.22.06-.41.07-.6.15-.18.08-.38.34-.38.34,0,0-.24-.3.17-.78.4-.47.94-.41,1.29-.59.46-.24.31-.66.38-1.14.07-.48.31-.68.71-.98.4-.29.56-.58.56-.58,0,0,.08.14.14.26.06.13.02.48.06.59.04.11.75.46,1.27.62.53.16,1.49.77,2.01,1.11.52.34.51.64.51.64,0,0-.18.02-.55-.04-.37-.07-.79-.21-1.43-.53-.65-.32-1.3-.75-1.78-1.01M71.44,23.82c-.05.2-.06.46-.06.57,0,.11,0,.24-.05.23-.05,0-.17-.28-.25-.49-.07-.21-.14-.42-.13-.63,0-.21-.03-.78-.04-1.02-.02-.24-.07-.43-.1-.5-.04-.13.05-.14.05-.14,0,0,.34.02.59.62.21.49.03,1.16-.01,1.36M70.39,23.59c-.07.33-.16.87-.16.87,0,0-.19-.36-.27-.77-.08-.42-.12-.89-.04-1.22.09-.32.17-.51.17-.51,0,0,.25,0,.36.35.1.35,0,.94-.06,1.27M69.6,22.67c-.12.3-.31.75-.31.75,0,0-.06-.2-.09-.34-.03-.15-.22-.63-.1-1.08.14-.53.4-.8.4-.8,0,0,.2.15.24.5.03.36-.01.67-.14.97M68.18,23.87c-.06.15-.04.22-.42.36-.39.14-.88.29-.88.29,0,0,.06-.21.07-.3,0-.09,0-.33.32-.48.31-.15.45-.26.59-.39.14-.13.25-.26.29-.18.05.08.1.54.03.69M67.24,19.98c.23.04.48.18.61.28.12.1.24.34.24.34,0,0-.09.03-.22.05-.13.01-.38,0-.65-.04-.28-.03-1,0-1,0,0,0,0-.21.25-.44.26-.24.54-.23.77-.19M66.2,17.97c-.19-.95.05-1.38.21-1.38.16,0,.21.15.29.36.08.21.05.46.07.91.02.45.07.77.09.95,0,.18-.01.55-.01.55,0,0-.46-.43-.64-1.38M64.22,15.34l.2-.68,1.26.33-.3.7-1.16-.34ZM65.17,16.24l-.26.53-.95-.29.14-.55,1.06.31ZM64.58,14.08l.23-.64,1.49.4-.34.67-1.38-.42ZM64.57,11.29c-.24,0-.47-.41-.85-.39-.37.03-.59.15-1.05.42-.47.27-.92.48-1.17.54-.26.06-.43.11-.73.22-.29.11-.67.22-.88.18-.21-.04-.35-.08-.19-.26.17-.18.22-.21.88-.59.67-.39,1.02-.55,1.67-.75.65-.2,1.22-.4,1.75-.67.53-.26.82-.45.89-.5.07-.06.2-.1.3-.06.1.04.2.14.2.14,0,0-.11.46-.32.96-.2.5-.25.76-.49.77M64.95,12.78l.21-.57,1.77.49-.33.53-1.65-.45ZM65.38,11.57l.33-.67,2.01.54-.4.64-1.94-.51ZM71.01,6.7l-.42.65-2.98-.8.31-.63,3.1.78ZM68.23,5.38l.34-.58,3.1.87-.42.62-3.02-.92ZM70.23,7.92l-.46.71-2.77-.75.29-.74,2.95.78ZM69.28,9.18l-.38.57-2.48-.64.27-.62,2.59.69ZM68.48,10.37l-.33.49-2.23-.53.26-.59,2.3.63ZM69.26,3.67l3.23.88-.42.59-3.19-.91.38-.56ZM66.43,2.93s.61.02,1.24-.21c.4-.14.69-.4.78-.48.09-.08.17-.14.17-.14,0,0,.19.2.12.4-.07.21-.35.69-.49.91-.14.22-.22.31-.3.34-.07.03-.21,0-.37-.14-.16-.13-.46-.23-.66-.31-.2-.08-.6-.23-.6-.23l.1-.11ZM65.48,5.28s.51-.21,1.07-.46c.29-.13.64-.43.64-.43,0,0,.18.06.25.1.07.04.21.13.18.21-.04.08-.48,1.11-.52,1.17-.04.06-.14.23-.33.16-.2-.06-.23-.34-.49-.45-.31-.13-.87-.05-.87-.05l.08-.27ZM66.19,7.06l.27.08-.79,1.67s-.17.03-.38-.04c-.21-.07-.27-.21-.81-.2-.54.01-1.48.2-2.62.57-1.15.37-3.02.91-3.91,1.19-.89.28-1.24-.27-.39-.67.85-.41,1.63-.7,2.39-.89.76-.19,1.86-.41,2.59-.55.73-.13,1.86-.35,2.56-.63.7-.28,1.08-.53,1.08-.53M54.31,9.12c-.91.38-1.82,0-.66-.57,1.16-.58,2.41-1.22,5.28-2.09,2.77-.84,4.26-.98,4.77-1.03.51-.06.72.02.72.02l.16.18s-.14.27-.5.4c-.37.13-.67.07-1.67.34-1,.27-2.6.59-4.47,1.31-1.88.72-2.71,1.06-3.63,1.44M44.46,9.38c.74-.33,8.7-3.76,9.1-3.9,1.04-.35,3.25-1.18,4.47-1.46,1.56-.36,4.03-1.01,5.15-1.16,1.46-.19,1.84.18,1.84.18,0,0-.12.2-.69.3-.58.1-1.54.19-2.58.42-1.04.23-2.07.49-3.07.78-1.01.29-3.59,1.1-4.73,1.51-.32.12-.82.3-1.39.53-.4.15-7.86,3.4-8.31,3.58-1.26.58-1.62.05.22-.78M51.61,12.32c-.12.51-.72.5-.72.5-.59,0-.57-.34-.57-.34.07-.56.75-.59.75-.59.69-.02.55.44.55.44M33.73,19.63h-.43v-.84l-.39.49h-.04l-.4-.49v.84h-.42v-1.45h.4l.45.55.45-.55h.39v1.45ZM36.76,19.28c-.06.12-.15.21-.28.27-.12.07-.27.1-.45.1s-.33-.04-.46-.11c-.12-.07-.22-.16-.28-.28-.06-.11-.09-.24-.09-.37s.03-.25.09-.37c.06-.11.15-.2.28-.28.12-.07.28-.1.46-.1.13,0,.25.02.36.06.11.04.19.1.26.16.07.07.12.15.15.24.04.09.05.19.05.28,0,.14-.03.26-.09.37M35.98,17.03c-.59.24-1.18.35-1.57.4-.35.04-.67.04-.96.02-.39-.01-.72-.07-1-.15-.63-.17-1.05-.43-1.27-.65-.59-.58-.46-1.28-.46-1.28.07-.64.84-1.52,2.5-1.51,2.04.02,2.23,1.08,1.79,1.46-.33.3-.8.33-1.17.29-.33-.03-.74-.2-.99-.45.28,0,.5-.03.62-.07.18-.05.32-.16.35-.3,0,0,0,0,0,0h0s0-.04,0-.05c0-.14-.13-.26-.3-.31,0,0,0,0-.01,0-.33-.08-.66,0-.8.04-.35.12-.82.39-.83.95,0,.03,0,.06,0,.09.01.21.12.74.81,1.07.16.07.34.12.52.16.24.04.86.09,1.59-.16.66-.24,1.27-.7,1.79-1.29.39-.43.77-.98,1.1-1.72v-.03c-1.31-.68-.96-1.91-.89-2.14,0-.01,0-.03.02-.04-.47.03-.83.14-1.05.24-.41.17-.6.38-.66.49-.08.13-.18.46.12.64.44.27,1.28,0,1.3,0-.03.07-.07.14-.12.2-.04.06-.1.11-.15.15-.05.04-.11.08-.17.12-.06.03-.12.06-.19.08-.06.02-.13.04-.19.06-.06.01-.12.02-.19.03-.06,0-.12.01-.17.02-.05,0-.1,0-.15,0-.04,0-.08,0-.12,0-.03,0-.05,0-.08,0,0,0-.02,0-.03,0-.55-.06-.9-.38-.99-.74-.1-.42.03-.8.36-1.09.52-.49,1.49-.7,2.83-.74.18-.21.42-.4.74-.58.21-.1.52-.24.93-.34.75-.16,1.8-.23,3.26-.05h0c-.14.12-.29.23-.44.35-.46.41-.8.71-1.17,1.22l-.02.02s-.02.02-.02.03l-.06.09s.09.07.14.11c.18.17.59.63.33,1.26-.04.07-.1.18-.21.31-.02.02-.04.04-.06.06-.1.1-.2.16-.25.2-.51.34-1.18.31-1.18.31-.03.07-.47.84-.94,1.49-.74.95-1.58,1.48-2.24,1.77M39.59,18.53h-.53v1.1h-.44v-1.1h-.53v-.35h1.5v.35ZM42.39,19.28c-.06.12-.16.21-.28.27-.13.07-.28.1-.45.1s-.33-.04-.45-.11c-.12-.07-.22-.16-.28-.28-.06-.11-.09-.24-.09-.37s.03-.25.09-.37c.06-.11.15-.2.28-.28.13-.07.27-.1.45-.1.13,0,.25.02.36.06.1.04.19.1.26.16.07.07.12.15.15.24.03.09.05.19.05.28,0,.14-.03.26-.09.37M44.89,19.63l-.11-.26c-.04-.09-.08-.16-.11-.21-.03-.04-.06-.07-.1-.08-.03-.01-.07-.02-.12-.02h-.05v.57h-.43v-1.45h.74c.12,0,.22.02.3.07.07.05.13.11.16.18.03.07.05.14.05.2,0,.07-.01.14-.04.19-.03.05-.06.09-.09.11-.03.03-.07.05-.1.07.05.03.09.06.11.1.03.04.07.11.12.23l.15.32h-.47ZM48.06,19.52c-.06.03-.12.06-.18.07-.06.02-.13.03-.19.04-.07,0-.13.01-.2.01-.13,0-.24-.02-.34-.05-.1-.03-.19-.09-.26-.15-.07-.07-.13-.15-.17-.24-.04-.09-.05-.19-.05-.3,0-.12.02-.23.06-.33.04-.09.1-.17.18-.23.08-.06.17-.11.26-.14.1-.03.2-.05.32-.05.16,0,.35.04.56.11v.38c-.07-.04-.14-.08-.21-.11-.07-.03-.15-.04-.25-.04-.08,0-.16.02-.23.05-.07.03-.13.08-.18.14-.04.06-.07.14-.07.22,0,.07.02.14.06.2.04.06.09.11.17.15.07.03.15.05.23.05.07,0,.14,0,.2-.03.06-.02.12-.04.16-.06.04-.02.09-.05.13-.07v.37ZM50.4,18.97v.67h-.44v-.66l-.58-.8h.45l.33.46.33-.46h.46l-.57.79ZM53.57,19.52c-.06.03-.12.06-.18.07-.06.02-.13.03-.19.04-.06,0-.13.01-.2.01-.13,0-.24-.02-.34-.05-.1-.03-.19-.09-.26-.15-.07-.07-.13-.15-.17-.24-.03-.09-.06-.19-.06-.3,0-.12.02-.23.07-.33.04-.09.1-.17.18-.23.08-.06.17-.11.27-.14.1-.03.2-.05.32-.05.16,0,.35.04.56.11v.38c-.07-.04-.14-.08-.21-.11-.07-.03-.15-.04-.25-.04-.09,0-.16.02-.24.05-.07.03-.13.08-.18.14-.04.06-.07.14-.07.22,0,.07.02.14.06.2.04.06.09.11.16.15.07.03.15.05.23.05.07,0,.14,0,.2-.03.06-.02.12-.04.16-.06.04-.02.09-.05.13-.07v.37ZM56.17,19.63h-1.1v-1.45h.44v1.1h.66v.35ZM58.72,19.63h-1.09v-1.45h1.07v.29h-.64v.26h.61v.29h-.61v.31h.66v.29ZM58.47,16.94c-.3.12-.9.33-1.21.18-.27-.13-.29-.35-.27-.5.01-.08.04-.15.07-.2.16-.29.52-.85,1.31-1.97h0s0,0,0,0c.07-.1.19-.31.01-.41-.17-.1-.35-.08-.49-.03,0,0-.01,0-.02,0-.17.07-.28.21-.28.21h0s0,0,0,0c-.04.05-.07.1-.1.14,0,0-.01.02-.02.03-.13.23.01.27.07.28.12,0,.26-.02.31-.03-.17.43-.62.53-.9.56l-.09.14-1.2,1.72h-1.27s1.8-2.6,1.8-2.6c0,0,.2-.28,0-.17-.1.06-.21.19-.37.38l-1.31,1.55c-.11.13-.21.23-.26.27l-.21.2c-.08.06-.17.12-.29.2,0,0-.34.21-.72.21,0,0-.59.02-.78-.34,0,0-.46.36-1.08.36,0,0-.88.08-1.24-.56,0,0-.08.05-.22.13-.36.22-.83.41-1.17.41,0,0-.64.1-.92-.39,0,0-.13.09-.21.15-.08.06-.36.25-.75.25,0,0-.6.02-.78-.34,0,0-.46.36-1.08.36,0,0-.88.08-1.24-.56,0,0-1.12.63-1.64.59,0,0-.43,0-.6-.19,0,0,0,0,0,0,0,0,0,0,0,0-.05-.06-.07-.12-.07-.17,0-.05.01-.1.03-.14.08-.18.38-.69,1.42-2.17.07-.1.19-.31.01-.41-.24-.13-.49-.04-.63.04-.1.06-.15.13-.22.25l-.03.04s0,0,0,.01c-.13.23,0,.27.07.28.12,0,.26-.02.31-.03-.17.43-.63.53-.9.56l-1.3,1.87h-1.27s1.81-2.6,1.81-2.6c.02-.02.03-.04.05-.07.01-.02.02-.04.04-.06,0,0,.01-.02.02-.03,0,0,0-.01,0-.02-.56.56-1.31.97-1.47.37,0,0,0,0,0,0,.54,0,.87-.37,1.05-.53l.15-.14.33-.3s.01,0,.01-.01c.02-.02.04-.03.05-.05.16-.13.46-.37.74-.39.01,0,.02,0,.03,0,.11,0,.42,0,.61.27,0,0,.58-.25,1.25-.26,0,0,1.31-.04.65.99l-1.22,1.9s-.03.06-.02.09h0c.02.09.13.22.73-.2,0,0,.96-2.49,3.49-2.78,0,0,.53-.09.78.19l1.23-1.74h1.24s-3.02,4.43-3.02,4.43c0,0-.08.15.07.2.13.05.4-.14.86-.65,0,0,.24-.29.45-.59l.2-.3s0,0,0,0l1.01-1.51h1.18l-1.91,2.81s-.12.2.07.24c.11.02.25-.02.54-.21,0,0,.12-.07.2-.13,0,0,.93-2.43,3.46-2.72,0,0,.53-.09.78.19l.12-.19h1.23l-1.94,2.92s-.07.12-.02.15c.02.02.13,0,.21-.08,0,0,.12-.1.18-.16l.1-.1s.8-.89,1.03-1.17c0,0,1.25-1.56,2.09-1.57,0,0,.42-.06.65.27,0,0,.58-.24,1.25-.26,0,0,1.31-.04.65.99l-1.14,1.75s0,.01-.01.03c-.08.13-.25.48.16.39.33-.08.67-.23.85-.32-.03.05-.07.09-.11.14-.37.44-.85.67-.99.73M59.3,16.96c0-.2.16-.36.36-.36s.36.16.36.36-.16.36-.36.36-.36-.16-.36-.36M63.66,19.3c-.06.62-.26,1.52-.36,2.04-.1.52.02.63.08.73.06.1.14.24.05.42-.09.18-.33.26-.75.45-.42.19-.94.59-1.21.81-.27.23-.36.12-.47.03-.12-.08-.13-.19-.09-.27.04-.07.14-.28.43-.67.28-.39.62-1.25.93-1.97.31-.72.49-1.66.69-2.11.19-.45.07-.19.13-.33.06-.14.14-.28.25-.28.11,0,.19.06.27.15.07.08.11.46.05,1.01M63.64,16.45c-.07.64-.07,1.03-.11,1.14-.07.16-.11.2-.39.2-.27,0-.55.07-1,.52-.47.47-.68.8-1.34,1.33-.72.57-.9.64-1,.64-.11,0-.18-.21-.17-.35.01-.13.05-.3.68-.99.63-.68,1.17-1.25,1.49-1.64.24-.3.3-.34.55-.75.24-.4.48-.86.65-1.02.2-.2.34-.34.51-.28.14.05.3.17.29.23,0,.06-.11.33-.18.97M63.74,14.59c-.12,0-.45-.17-.79-.11-.34.06-.55.12-.67.17-.14.07-.22.09-.25,0-.04-.09.07-.23.38-.62.31-.38.51-.71.96-1.11.18-.15.34-.31.48-.42.23-.17.42-.25.42-.25,0,0,.07.06.11.09.04.03.08.1.08.1,0,0-.19.53-.33,1.06-.14.53-.21.85-.23.91-.01.06-.05.18-.17.17M65.57,24.54c-.22-.35-.18-.61-.14-.77.04-.16.08-.23-.03-.36-.11-.13-.33-.51-.42-.92-.09-.41.2-.94.2-.94,0,0-.16.12-.29.18-.13.06-.23.06-.23.06,0,0,.14-.56.24-.82.1-.26.21-.59.4-.81.19-.22.32-.28.29-.39-.03-.11-.19-.41-.22-.54-.03-.13-.08-.31-.15-.3-.07.02-.22.1-.4.69-.17.58-.24,1.08-.34,1.31-.11.23-.18.42-.41.33-.25-.08-.15-.77.11-1.52.26-.75.64-1.96.89-2.46.25-.51.5-1.07.76-1.63.25-.56.51-1.15.9-1.65.38-.5.55-.68.6-.68.05,0,.21.09.26.24.05.16,0,.42-.28.95-.27.53-.74,1.19-.9,1.54-.16.35-.3.81-.46,1.1-.16.3-.34.52-.27.96.03.19.09.3.13.43.05.18.08.35.11.42.05.13.1.3.2.43.09.12.26.26.27.35,0,.09-.03.2-.04.26,0,.07.04.2-.13.28-.17.09-.35.3-.45.42-.09.13-.15.38-.15.38h.42s-.38.41-.34,1.17c.04.7.38.99.39,1.06,0,.07-.16.25-.09.8.05.44.36.7.36.7,0,0,.07.08.06.15-.02.07-.09.12-.09.12,0,0-.47-.13-.74-.55M68.66,28.33s-.47-.12-.78-.12c-.31,0-.46.02-.55-.03-.09-.05-.18-.11-.19-.24,0-.12-.1-.77-.16-.98-.06-.22-.11-.35-.11-.35,0,0-.22-.03-.42-.1-.1-.04-.2-.09-.25-.18-.07-.13-.07-.3-.08-.41-.02-.14-.02-.39.07-.54.09-.15.18-.26.24-.23.07.03.1.15.15.36.05.21.13.49.25.58.12.1.28.11.39.03.11-.07.24-.4.32-.36.09.04.18.2.3.63.14.48.31.95.47,1.19.16.25.4.51.4.51l-.05.23ZM71.89,28.87c-.1.11-.44-.14-.74-.38-.3-.26-.76-.84-1.21-1.35-.39-.43-1.35-1.42-1.43-1.44-.08-.02-.35.05-.43-.03-.08-.08-.18-.17-.06-.26.13-.09.43-.35.55-.87.12-.53-.06-.89-.06-.89,0,0,.06-.06.11-.1.06-.04.19-.07.29.05.1.12.26.28.29.9.02.57-.1.85-.1.85,0,0,.87.66,1.21.99.34.33.73.74,1.07,1.31.34.56.61,1.11.5,1.22M72.76,26.72s-.17-.15-.27-.27c-.1-.12-.28-.26-.4-.32-.12-.06-.23-.12-.29-.27-.06-.15.02-.45.06-.54.04-.09.16-.48.24-.79.09-.3.11-.53.1-.78,0-.25.03-.43.07-.55.03-.07.14-.17.14-.17,0,0,.07.08.1.15.02.07.07.16.03.27-.04.1-.09.21-.07.49.03.28.24,1.03.29,1.57.05.55-.03,1.2-.03,1.2M73.91,28.15s-.21-.4-.42-.53c-.21-.13-.35-.18-.43-.28-.08-.1-.24-.34-.13-.57.11-.23.26-1.11.2-2.05-.06-.95-.26-1.49-.2-1.52.16-.09.37.03.46.23.09.2.33.99.36,2,.04,1.01.01,1.58.09,1.89.09.3.17.43.17.43l-.1.39ZM74.62,24.23c.16.61.27.95.32,1.42.04.47.02.78.07.97.05.19.16.48.16.48l-.09.25s-.3-.13-.49-.12c-.19.02-.33.08-.4.08s-.12-.08-.08-.21c.03-.13.1-.59.06-1.41-.04-.81-.22-1.45-.23-1.81-.01-.35.05-.59.22-.54.17.04.33.27.49.88M76.53,16.23c-.16.03-.46.09-1.25.37-.79.28-.9.48-1.14.56-.24.09-.43.05-.76.06-.34,0-.98.07-1.45.24-.47.17-.56.47-.96.68-.39.2-.58.11-.58.11,0,0,.17-.26.59-1.06.42-.8.5-1.44.52-1.5.02-.05.1-.02.21.02.12.02.35.56.87.7.45.12.95.02,1.1-.04.16-.06.69-.35,1.55-.48.85-.13,1.49.3,1.49.3,0,0-.04.02-.2.05M77.37,10.31c-.3.11-.34.28-.4.66-.05.38-.03.59.07.78.09.19-.02.24-.02.24,0,0,0,.06.02.14,0,.08-.08.19-.19.38-.11.19-.13.48-.18.6-.05.13-.27.14-.27.14,0,0-.15-.21-.24-.82-.08-.6.09-1.4.4-2.54.26-.97.1-1.2.08-1.4-.02-.2-.12-.24-.1-.3.01-.06.14-.2.14-.2,0,0,.14.14.44.25.24.09.26-.02.38.04.11.06,0,.25-.07.35-.05.1-.15.35-.08.54.07.2.16.27.32.3.16.02.34-.09.45-.02.11.07.09.21.04.34-.04.13-.1.17-.16.21-.07.04-.21.16-.63.32M78.68,12.25c-.05.1-.01.19-.04.36-.02.16-.11.26-.21.31-.09.05-.28.19-.28.19,0,0-.1-.24-.13-.41-.04-.16.14-.48.3-.61.16-.13.45-.06.45-.06,0,0-.04.12-.1.22"/>
        <path class="cls-2" d="M53.62,14.29s.31-.43-.15-.43c0,0-1.24.1-2.18,2.05,0,0-.2.46.27.48,0,0,.01,0,.02,0,.02,0,.03,0,.05,0,.02,0,.05,0,.07,0,.03,0,.06-.01.09-.02.04-.01.07-.02.11-.04.04-.02.09-.04.13-.06.05-.02.1-.05.14-.08.05-.04.1-.08.15-.12.06-.05.11-.1.16-.15.06-.06.12-.13.17-.2.06-.08.12-.16.17-.24.02-.02.03-.04.04-.06l.11-.16s.02-.02.02-.03c0,0,0,0,0,0-.29-.16-.38-.48-.38-.56h0v-.03c.15.06.49.12.72-.02,0,0,0,0,.02-.01.01,0,.02-.02.04-.03,0,0,0,0,0,0,0,0,.02-.01.03-.02.04-.04.1-.09.16-.17.02-.02.04-.04.05-.07"/>
        <path class="cls-2" d="M59.92,16.96c0-.15-.12-.27-.27-.27s-.27.12-.27.27.12.26.27.26.27-.12.27-.26M59.62,16.97v.2h-.08v-.43h.08c.05,0,.15,0,.15.12,0,.05-.02.09-.06.11l.07.19h-.09l-.07-.2h0Z"/>
        <path class="cls-2" d="M47.1,13.85s-1.25.1-2.2,2.04c0,0-.21.46.27.48h.05s.04,0,.07,0c.03,0,.06,0,.09-.02.04,0,.07-.02.11-.03.04-.02.09-.03.13-.05.05-.02.09-.05.14-.08.05-.03.1-.07.15-.11.06-.05.11-.09.16-.15.06-.06.11-.12.16-.18.04-.05.08-.11.13-.17,0,0,.15-.23.24-.39-.21-.12-.34-.33-.37-.46,0-.02,0-.03,0-.05,0-.03,0-.06,0-.09.15.06.55.15.81-.06.03-.02.08-.07.14-.15,0,0,.01-.02.02-.02,0,0,.38-.51-.09-.51"/>
        <path class="cls-2" d="M59.63,16.81h-.01v.12h.02s.05-.03.05-.06c0-.03-.01-.06-.06-.05"/>
        <path class="cls-2" d="M39.4,11.08c.33-.33.65-.62,1.1-.93-.57-.02-1.59.02-2.3.7.04,0,.08,0,.12.02.26.03.67.09,1.08.21"/>
        <path class="cls-2" d="M37.89,11.31c-.06.09-.18.31-.19.59-.06.52.18.73.3.8,0,0,0,0,0,0,0,0,0,0,.01,0,0,0,0,0,0,0,0,0,.05.02.06.03.03-.05.08-.12.14-.22.19-.29.45-.65.8-1.05-.43-.16-.94-.17-1.14-.17"/>
      </g>
    </g>
  </g>
</svg>