<svg xmlns="http://www.w3.org/2000/svg" viewBox="0 0 1254 1254"><path fill="#0940BE" d="M626 145h6q49 0 97 9l3 1a416 416 0 0 1 106 39l2 1a400 400 0 0 1 84 58l17 15 5 5 8 8 7 7 14 16a460 460 0 0 1 65 102l17 42a393 393 0 0 1 21 90 449 449 0 0 1-21 210 433 433 0 0 1-95 158l-8 9-14 14-2 1-1 1-5 5-23 19a417 417 0 0 1-53 36l-2 1a454 454 0 0 1-71 33l-3 1-39 12-3 1a476 476 0 0 1-110 12h-3a437 437 0 0 1-81-7 421 421 0 0 1-104-34l-3-1a412 412 0 0 1-105-69l-30-28-18-20-6-6c-35-39-61-89-78-138l-2-6-13-48-2-9q-5-26-7-52v-3q-5-61 7-120l2-8a426 426 0 0 1 79-173l2-3 31-36q13-16 28-28l7-6 15-13 3-2q52-41 114-66l3-1a427 427 0 0 1 159-29"/><path fill="#FDCA02" d="M503 412q2 2 2 5-1 5-4 8a185 185 0 0 0-42 90 204 204 0 0 0-1 68v2l9 35a197 197 0 0 0 27 53l1 2 24 27a199 199 0 0 0 152 59 162 162 0 0 0 42-5l3-1 19-5 7-1 3 3q1 9-5 16l-1 3-15 24-1 2q-10 13-22 25l-2 3c-35 35-83 56-132 62h-2l-25 1h-2l-34-3-7-1a233 233 0 0 1-118-62l-2-2-20-22-1-2a284 284 0 0 1-31-51l-1-3q-6-10-8-22l-2-7-1-3-3-8-3-20a251 251 0 0 1 0-72v-2q4-27 15-53l3-7a227 227 0 0 1 71-93l2-1q13-11 28-19l2-1c57-32 57-32 75-22"/><path fill="#020204" d="M626 145h6q49 0 97 9l3 1a416 416 0 0 1 106 39l2 1a400 400 0 0 1 84 58l17 15 5 5 8 8 7 7 14 16a460 460 0 0 1 65 102l17 42a393 393 0 0 1 21 90 449 449 0 0 1-21 210 433 433 0 0 1-95 158l-8 9-14 14-2 1-1 1-5 5-23 19a417 417 0 0 1-53 36l-2 1a454 454 0 0 1-71 33l-3 1-39 12-3 1a476 476 0 0 1-110 12h-3a437 437 0 0 1-81-7 421 421 0 0 1-104-34l-3-1a412 412 0 0 1-105-69l-30-28-18-20-6-6c-35-39-61-89-78-138l-2-6-13-48-2-9q-5-26-7-52v-3q-5-61 7-120l2-8a426 426 0 0 1 79-173l2-3 31-36q13-16 28-28l7-6 15-13 3-2q52-41 114-66l3-1a427 427 0 0 1 159-29m-70 29-4 1q-18 3-35 8l-3 1q-36 10-70 26l-2 1c-46 21-86 53-121 88l-3 2-16 18a442 442 0 0 0-52 76l-1 2a387 387 0 0 0-42 117l-2 13-1 2-3 20v3l-2 44v3q0 49 10 97l1 4 6 20 3 9 12 33 13 29 1 2q21 40 49 74l3 3q15 19 32 36l3 2 18 17a393 393 0 0 0 60 42q30 18 63 31l3 1q30 14 62 18l7 2c39 13 88 10 128 6h3a351 351 0 0 0 73-14l8-3 7-2 4-1q11-3 21-8l3-1a429 429 0 0 0 85-47l2-1q22-17 42-36l7-6q5-3 8-8l7-7 14-16 6-7a421 421 0 0 0 74-134q5-14 8-29l2-8a414 414 0 0 0 8-160 430 430 0 0 0-38-125 372 372 0 0 0-75-108l-4-6-26-25a412 412 0 0 0-264-104h-20q-36-1-72 5"/><path fill="#040303" d="M511 397q8 4 11 13v10q-2 11-10 18-13 18-22 38l-1 2-5 15-8 25-1 10-1 12v17a130 130 0 0 0 4 36l2 9 1 4a185 185 0 0 0 43 75l5 6 11 10 3 3a185 185 0 0 0 67 35l4 2 14 4 7 1c31 6 67 3 96-9a25 25 0 0 1 17 0 28 28 0 0 1 14 17c2 11-4 20-9 29l-2 3q-6 12-14 23l-1 2-16 19-1 2a233 233 0 0 1-52 42l-2 1q-17 10-35 17l-2 1q-21 8-43 12l-3 1-39 2h-8q-19 1-38-3h-3l-19-5-3-1q-38-11-70-33l-2-1-25-20-3-3c-27-24-53-57-64-92l-3-6a256 256 0 0 1 1-189l1-3 1-2a261 261 0 0 1 52-80l2-2 25-23 2-1c24-19 91-63 122-43m-148 89-6 8-1 2a216 216 0 0 0-30 49l-1 3q-20 48-20 98v2l2 39 7 27 2 8 1 2 2 6q2 8 6 15l1 3q19 38 48 69l2 2a232 232 0 0 0 55 41 227 227 0 0 0 64 24h2q21 5 42 4h2q20 0 40-3h2q15-3 29-8l4-1q29-10 54-28l3-2a217 217 0 0 0 45-43l1-2 20-31 3-6 2-3 1-9-3-3-16 3-19 6h-3q-17 4-35 3h-8q-21 0-42-4l-3-1-30-10-3-1a180 180 0 0 1-43-25l-2-2a214 214 0 0 1-41-41l-2-3a210 210 0 0 1-38-98v-3q-3-29 2-57v-2a188 188 0 0 1 44-91l3-6-3-5c-38-21-117 48-140 74"/><path fill="#040304" d="M592 235a39 39 0 0 1 17 23h2c23-1 23-1 30 5q8 8 7 19c-1 11-10 18-17 25l1 2 3 9a29 29 0 0 1-1 24q-4 7-13 10-14 1-26-6v-2l-11 5a30 30 0 0 1-25 8q-8-2-13-11c-5-9-2-22 0-31l-2-1a43 43 0 0 1-18-15 33 33 0 0 1-1-20q5-8 14-12 10-3 19-3v-3q2-15 14-25 10-6 20-1"/><path fill="#030303" d="M841 330q12 7 15 22l1 8h3q14 0 24 7 7 7 7 15a24 24 0 0 1-8 18l-13 10v2l1 14q2 11-5 19-8 7-19 7a44 44 0 0 1-19-12l-4-1-9 4q-10 7-21 3-9-4-13-12c-4-11 1-22 5-32l-2-1q-6-4-11-11l-1-2q-5-9-3-19a27 27 0 0 1 14-13l14-1h10v-3a36 36 0 0 1 16-22q10-3 18 0"/><path fill="#030304" d="M876 604a31 31 0 0 1 9 14l1 2 2 8h3q14-2 24 6a25 25 0 0 1 7 15 31 31 0 0 1-12 21l-6 4v4l1 2v4q3 12-2 21-5 8-15 9c-9 1-17-5-24-10l-12 7a28 28 0 0 1-20 1q-8-4-11-13a50 50 0 0 1 2-21l1-5-4-3c-12-11-12-11-13-19q-1-10 7-19 12-6 26-6l1-2q4-15 16-22 10-3 19 2"/><path fill="#526982" d="M586 248q5 3 6 9a34 34 0 0 0 9 15 65 65 0 0 0 25 1q5 0 7 3v7l-9 10c-8 8-8 8-8 12q1 9 5 18 2 6 1 11l-2 3c-9 2-17-4-25-8l-1-1-10 1-1 3-4 1v2q-6 7-13 8l-6-2q-3-7-1-15l2-7v-11l-2-1-6-3-2-2-2-1-4-3-2-2-5-3v-7a15 15 0 0 1 11-6l2-1h3l10-1 5-2 2-6 1-3v-2c5-18 5-18 14-17"/><path fill="#6B776F" d="M832 343q3 0 5 2l5 11 3 10 2 5 6 2h3l4 1 10 2 6 4v7l-5 5-3 2-6 4c-7 4-7 4-8 7l1 7 1 3 1 7c1 9 1 9-1 13q-4 2-9 1l-7-5-2-1-7-6q-4-2-8-1l-9 5c-11 5-11 5-16 4l-4-5q1-9 5-19 2-5 1-11l-8-8-6-6q-4-4-3-7-1-3 2-5 4-3 9-2h7l7-1h3l5-1 3-6 1-3 2-2 2-6 1-2q2-5 7-5"/><path fill="#A59742" d="M865 615q5 1 7 7l3 8 5 10 5 1h8l14 4v8l-13 12-5 4 1 10 1 2v3l1 13-4 3a24 24 0 0 1-13-6l-2-1-6-4q-8-1-14 4l-4 3-3 2q-4 2-9 1-2-4-2-10l3-11v-11l-7-6-10-10 1-7q3-2 8-2l3-1h6c7 0 7 0 10-2l6-12 3-8q2-4 7-4"/><path fill="#040406" d="M733 898q12 8 16 21 3 18-8 31a36 36 0 0 1-26 11q-9 0-16-4l-2-1a37 37 0 0 1-15-22 38 38 0 0 1 6-27 35 35 0 0 1 45-9"/><path fill="#040405" d="M691 513q10 7 14 21 3 17-8 30a31 31 0 0 1-21 11q-17 2-29-10a39 39 0 0 1-9-26q2-14 13-24 19-14 40-2"/><path fill="#030405" d="M392 319v2h2q11 4 18 15 4 7 3 15v2a27 27 0 0 1-4 15l-2 3a33 33 0 0 1-49 6 36 36 0 0 1-11-26 33 33 0 0 1 13-26l2-2q13-6 28-4"/><path fill="#030305" d="M976 443a37 37 0 0 1 21 22q2 7 1 13v2a35 35 0 0 1-13 21 37 37 0 0 1-27 6 34 34 0 0 1-21-14 40 40 0 0 1-4-28 38 38 0 0 1 20-22 36 36 0 0 1 23 0"/><path fill="#030405" d="M933 788a32 32 0 0 1 13 18v7q1 14-8 25-10 10-25 11a34 34 0 0 1-23-10 38 38 0 0 1-10-27 36 36 0 0 1 14-23 35 35 0 0 1 39-1"/><path fill="#305CAF" d="M805 905a27 27 0 0 1 12 17q2 13-6 23-8 9-20 9a29 29 0 0 1-21-9q-7-10-6-23a31 31 0 0 1 15-19q14-6 26 2"/><path fill="#DFB815" d="M678 522a25 25 0 0 1 13 12q3 11-3 20a20 20 0 0 1-11 8q-9 2-16-3a24 24 0 0 1-9-12q-2-10 4-17 8-11 22-8"/><path fill="#F7C703" d="M724 909q7 4 11 11v10q0 8-6 13-9 6-19 4-10-4-14-14-3-8 2-15 10-15 26-9"/><path fill="#DFB815" d="M395 336a20 20 0 0 1 7 12 25 25 0 0 1-6 19 26 26 0 0 1-15 5 24 24 0 0 1-16-9q-3-8-2-17 3-9 11-13a22 22 0 0 1 21 3"/><path fill="#A49741" d="M971 455q9 4 13 12a20 20 0 0 1-14 27q-7 2-13-1a27 27 0 0 1-11-13q-2-8 2-15c7-8 12-11 23-10"/><path fill="#6A766E" d="M924 799q6 4 9 10 3 12-4 20a23 23 0 0 1-17 6 20 20 0 0 1-13-7q-6-8-4-19a27 27 0 0 1 12-12q8-3 17 2"/><path fill="#5F7B9B" d="M798 913a18 18 0 0 1 9 11 20 20 0 0 1-4 15 20 20 0 0 1-16 5q-8-2-12-10a18 18 0 0 1 1-14c4-9 14-11 22-7"/><path fill="#9CA582" d="M795 919q4 3 5 7 1 5-3 9-3 3-7 2-5-1-8-5v-10q5-5 13-3"/><path fill="#E4BC05" d="M307 610h1l1 7h-2l1 5h1v15l-1 17-1 3v8l-2-1c0-38 0-38 2-54"/><path fill="#053AB3" d="m338 282 2 1-15 17-3 2-5 5-3-1z"/><path fill="#0639A2" d="M475 523h2v2l-1 3v3l-1 12v3l-1 27h-1v-35z"/><path fill="#E7BA03" d="m385 464 1 3-17 17-3-1z"/><path fill="#D5A904" d="M662 762h13v1l-11 1v1h-17l-5-2z"/><path fill="#DDDCDD" d="m960 907 3 2-3 3h-2l-1 2-5 5-2-2z"/><path fill="#053AAE" d="m727 817 2 2-4 5-3 3-2 2h-2q2-5 6-8l2-2z"/><path fill="#0636A0" d="m759 764 2 2-2 7h-2l-1 4h-2z"/><path fill="#C1A311" d="M383 332h4v2l-5 1h-3l-5-2zm-8 3 2 1Z"/><path fill="#D1AA04" d="M317 722h3l2 7-2 5-1-4-1-3z"/><path fill="#073CB2" d="m638 299 1 2-3 4-1 2-4 4-1-4 4-4 2-2z"/><path fill="#ECC004" d="m364 486 3 1-6 7-3-1z"/><path fill="#2F2300" d="m739 768 2 4-4 6h-2z"/><path fill="#EEBF03" d="m614 756 12 2q-3 3-8 2l-2-1h-2z"/><path fill="#042F8D" d="M475 523h2v2l-2 9-1 3v2h-1z"/><path fill="#063CAD" d="M532 688q6 3 9 8-4 0-7-3l-2-2-1-1z"/><path fill="#D0AE15" d="m681 524 9 8q-5 0-9-5z"/><path fill="#EFEEEF" d="m307 275 3 1-6 7-2-1v-2h2l1-3h2z"/><path fill="#CEA905" d="m309 692 5 5-2 6z"/><path fill="#0938A2" d="M932 901q-2 6-7 8l2-6z"/><path fill="#053CB1" d="m331 904 7 6-2 2-6-7z"/><path fill="#0537A5" d="m498 459 2 3-4 6h-2z"/><path fill="#EDC508" d="m733 772 4 2-3 6-2-2z"/><path fill="#F4C707" d="m327 748 4 1 1 6h-2z"/><path fill="#ECBF02" d="m494 428 3 1-4 6-2-1z"/><path fill="#F2C706" d="M468 873h3l1 2 3 1v2l-7-2z"/><path fill="#F1C304" d="m643 863-7 4 1-4z"/><path fill="#D8B004" d="M319 562q3 4 2 7l-1 2-2-2z"/><path fill="#D6AC04" d="m323 553 3 1-2 5h-3z"/><path fill="#D8B004" d="M339 520h1v5l-3 1v3h-2z"/><path fill="#E7BB02" d="m482 447 2 2-3 6-2-4z"/><path fill="#0739AD" d="m400 379 2 2-5 3-3-1z"/><path fill="#F0F0F0" d="m299 284 2 2-5 5q0-4 2-6z"/><path fill="#1C1C1C" d="M495 166q-3 4-8 3v-2c5-2 5-2 8-1"/></svg>