<svg xmlns="http://www.w3.org/2000/svg" viewBox="0 0 1254 1254"><path fill="#0840BE" d="M626 145h6q49 0 97 9l3 1a416 416 0 0 1 106 39l2 1a400 400 0 0 1 84 58l17 15 5 5 8 8 7 7 14 16a460 460 0 0 1 65 102l17 42a393 393 0 0 1 21 90 449 449 0 0 1-21 210 433 433 0 0 1-95 158l-8 9-14 14-2 1-1 1-5 5-23 19a417 417 0 0 1-53 36l-2 1a454 454 0 0 1-71 33l-3 1-39 12-3 1a476 476 0 0 1-110 12h-3a437 437 0 0 1-81-7 421 421 0 0 1-104-34l-3-1a412 412 0 0 1-105-69l-30-28-18-20-6-6c-35-39-61-89-78-138l-2-6-13-48-2-9q-5-26-7-52v-3q-5-61 7-120l2-8a426 426 0 0 1 79-173l2-3 31-36q13-16 28-28l7-6 15-13 3-2q52-41 114-66l3-1a427 427 0 0 1 159-29"/><path fill="#FDCA02" d="M503 412q2 2 2 5-1 5-4 8a185 185 0 0 0-42 90 204 204 0 0 0-1 68v2l9 35a197 197 0 0 0 27 53l1 2 24 27a199 199 0 0 0 152 59 162 162 0 0 0 42-5l3-1 19-5 7-1 3 3q1 9-5 16l-1 3-15 24-1 2q-10 13-22 25l-2 3c-35 35-83 56-132 62h-2l-25 1h-2l-34-3-7-1a233 233 0 0 1-118-62l-2-2-20-22-1-2a284 284 0 0 1-31-51l-1-3q-6-10-8-22l-2-7-1-3-3-8-3-20a251 251 0 0 1 0-72v-2q4-27 15-53l3-7a227 227 0 0 1 71-93l2-1q13-11 28-19l2-1c57-32 57-32 75-22"/><path fill="#020204" d="M626 145h6q49 0 97 9l3 1a416 416 0 0 1 106 39l2 1a400 400 0 0 1 84 58l17 15 5 5 8 8 7 7 14 16a460 460 0 0 1 65 102l17 42a393 393 0 0 1 21 90 449 449 0 0 1-21 210 433 433 0 0 1-95 158l-8 9-14 14-2 1-1 1-5 5-23 19a417 417 0 0 1-53 36l-2 1a454 454 0 0 1-71 33l-3 1-39 12-3 1a476 476 0 0 1-110 12h-3a437 437 0 0 1-81-7 421 421 0 0 1-104-34l-3-1a412 412 0 0 1-105-69l-30-28-18-20-6-6c-35-39-61-89-78-138l-2-6-13-48-2-9q-5-26-7-52v-3q-5-61 7-120l2-8a426 426 0 0 1 79-173l2-3 31-36q13-16 28-28l7-6 15-13 3-2q52-41 114-66l3-1a427 427 0 0 1 159-29m-70 29-4 1q-18 3-35 8l-3 1q-36 10-70 26l-2 1c-46 21-86 53-121 88l-3 2-16 18a442 442 0 0 0-52 76l-1 2a387 387 0 0 0-42 117l-2 13-1 2-3 20v3l-2 44v3q0 49 10 97l1 4 6 20 3 9 12 33 13 29 1 2q21 40 49 74l3 3q15 19 32 36l3 2 18 17a393 393 0 0 0 60 42q30 18 63 31l3 1q30 14 62 18l7 2c39 13 88 10 128 6h3a351 351 0 0 0 73-14l8-3 7-2 4-1q11-3 21-8l3-1a429 429 0 0 0 85-47l2-1q22-17 42-36l7-6q5-3 8-8l7-7 14-16 6-7a421 421 0 0 0 74-134q5-14 8-29l2-8a414 414 0 0 0 8-160 430 430 0 0 0-38-125 372 372 0 0 0-75-108l-4-6-26-25a412 412 0 0 0-264-104h-20q-36-1-72 5"/><path fill="#040303" d="M511 397q8 4 11 13v10q-2 11-10 18-13 18-22 38l-1 2-5 15-8 25-1 10-1 12v17a130 130 0 0 0 4 36l2 9 1 4a185 185 0 0 0 43 75l5 6 11 10 3 3a185 185 0 0 0 67 35l4 2 14 4 7 1c31 6 67 3 96-9a25 25 0 0 1 17 0 28 28 0 0 1 14 17c2 11-4 20-9 29l-2 3q-6 12-14 23l-1 2-16 19-1 2a233 233 0 0 1-52 42l-2 1q-17 10-35 17l-2 1q-21 8-43 12l-3 1-39 2h-8q-19 1-38-3h-3l-19-5-3-1q-38-11-70-33l-2-1-25-20-3-3c-27-24-53-57-64-92l-3-6a256 256 0 0 1 1-189l1-3 1-2a261 261 0 0 1 52-80l2-2 25-23 2-1c24-19 91-63 122-43m-148 89-6 8-1 2a216 216 0 0 0-30 49l-1 3q-20 48-20 98v2l2 39 7 27 2 8 1 2 2 6q2 8 6 15l1 3q19 38 48 69l2 2a232 232 0 0 0 55 41 227 227 0 0 0 64 24h2q21 5 42 4h2q20 0 40-3h2q15-3 29-8l4-1q29-10 54-28l3-2a217 217 0 0 0 45-43l1-2 20-31 3-6 2-3 1-9-3-3-16 3-19 6h-3q-17 4-35 3h-8q-21 0-42-4l-3-1-30-10-3-1a180 180 0 0 1-43-25l-2-2a214 214 0 0 1-41-41l-2-3a210 210 0 0 1-38-98v-3q-3-29 2-57v-2a188 188 0 0 1 44-91l3-6-3-5c-38-21-117 48-140 74"/><path fill="#030304" d="M592 235a39 39 0 0 1 17 23h2c23-1 23-1 30 5q8 8 7 19c-1 11-10 18-17 25l1 2 3 9a29 29 0 0 1-1 24q-4 7-13 10-14 1-26-6v-2l-11 5a30 30 0 0 1-25 8q-8-2-13-11c-5-9-2-22 0-31l-2-1a43 43 0 0 1-18-15 33 33 0 0 1-1-20q5-8 14-12 10-3 19-3v-3q2-15 14-25 10-6 20-1"/><path fill="#040303" d="M841 330q12 7 15 22l1 8h3q14 0 24 7 7 7 7 15a24 24 0 0 1-8 18l-13 10v2l1 14q2 11-5 19-8 7-19 7a44 44 0 0 1-19-12l-4-1-9 4q-10 7-21 3-9-4-13-12c-4-11 1-22 5-32l-2-1q-6-4-11-11l-1-2q-5-9-3-19a27 27 0 0 1 14-13l14-1h10v-3a36 36 0 0 1 16-22q10-3 18 0"/><path fill="#030304" d="M876 604a31 31 0 0 1 9 14l1 2 2 8h3q14-2 24 6a25 25 0 0 1 7 15 31 31 0 0 1-12 21l-6 4v4l1 2v4q3 12-2 21-5 8-15 9c-9 1-17-5-24-10l-12 7a28 28 0 0 1-20 1q-8-4-11-13a50 50 0 0 1 2-21l1-5-4-3c-12-11-12-11-13-19q-1-10 7-19 12-6 26-6l1-2q4-15 16-22 10-3 19 2"/><path fill="#7C8062" d="M583 247q5 1 7 5l2 5a34 34 0 0 0 9 15 65 65 0 0 0 25 1q5 0 7 3 2 5-2 10l-2 2-2 3-9 9q-3 4-2 9l4 11 2 14-3 3q-9 1-16-4l-2-1-6-3-8-1-6 5c-10 9-10 9-16 10l-4-1q-2-4-2-9v-4l2-12-1-8-14-11c-7-4-7-4-8-8q0-4 2-7l11-4h3l10-1q4-1 6-4l1-4 1-3 1-5q0-11 10-15"/><path fill="#BBA432" d="M832 343q5 1 7 5l5 15v3l1 2 4 4 5 1h3l6 1c9 2 9 2 13 6v6l-9 8-2 1-5 3q-6 4-6 7l1 7v4l1 3c2 11 2 11 0 15q-4 3-9 2l-7-5-2-1-7-6q-4-2-9-1l-7 4a29 29 0 0 1-17 5q-3-1-3-5l3-16c4-9 4-9 2-14l-7-8-5-4-1-1q-4-3-4-8l1-5q4-2 8-1h18q5-1 7-5l2-4 1-3 2-3 2-5 1-2q2-5 7-5"/><path fill="#EDC00A" d="M865 615q4 1 6 6c6 14 6 14 6 18l8 1 3 1h5q9 0 14 5 1 4-2 8l-9 8-7 7q0 7 2 13 2 8 1 15l-3 3-9-1-2-2-3-2-4-3q-5-5-11-3l-8 5c-8 6-8 6-14 5l-3-3q-1-10 3-19v-10l-7-7-5-3-1-2-4-4 1-7 8-2 3-1 13-1q3 0 5-3l3-8c5-14 5-14 11-14"/><path fill="#030406" d="M733 898q12 8 16 21 3 18-8 31a36 36 0 0 1-26 11q-9 0-16-4l-2-1a37 37 0 0 1-15-22 38 38 0 0 1 6-27 35 35 0 0 1 45-9"/><path fill="#040405" d="M691 513q10 7 14 21 3 17-8 30a31 31 0 0 1-21 11q-17 2-29-10a39 39 0 0 1-9-26q2-14 13-24 19-14 40-2"/><path fill="#020305" d="M392 319v2h2q11 4 18 15 4 7 3 15v2a27 27 0 0 1-4 15l-2 3a33 33 0 0 1-49 6 36 36 0 0 1-11-26 33 33 0 0 1 13-26l2-2q13-6 28-4"/><path fill="#030305" d="M976 443a37 37 0 0 1 21 22q2 7 1 13v2a35 35 0 0 1-13 21 37 37 0 0 1-27 6 34 34 0 0 1-21-14 40 40 0 0 1-4-28 38 38 0 0 1 20-22 36 36 0 0 1 23 0"/><path fill="#040405" d="M933 788a32 32 0 0 1 13 18v7q1 14-8 25-10 10-25 11a34 34 0 0 1-23-10 38 38 0 0 1-10-27 36 36 0 0 1 14-23 35 35 0 0 1 39-1"/><path fill="#496CA4" d="M848 829a27 27 0 0 1 12 17q2 13-6 23-8 9-20 9a29 29 0 0 1-21-9q-7-10-6-23a31 31 0 0 1 15-19q14-6 26 2"/><path fill="#CCAE22" d="M724 909a35 35 0 0 1 12 12q3 11-4 18-4 7-13 8-10 1-18-5-5-7-7-14 1-9 8-16 10-8 22-3"/><path fill="#F6C505" d="M678 522a26 26 0 0 1 13 12q3 10-2 18-4 7-12 10-10 2-18-4-7-6-7-13-2-10 5-17 8-8 21-6"/><path fill="#8F8B51" d="M394 335q7 6 8 14 1 9-4 16a26 26 0 0 1-16 7q-10-1-17-9a21 21 0 0 1-3-15 27 27 0 0 1 12-15 24 24 0 0 1 20 2"/><path fill="#5D6E76" d="M973 456q9 5 12 14 1 9-4 17l-3 3h-2l-1 3q-10 4-18 0l-9-9v-2h-2c-1-15-1-15 3-20q10-10 24-6"/><path fill="#556B80" d="M923 798q7 4 10 11 2 12-5 21l-7 4-2 1q-10 2-18-4a15 15 0 0 1-6-12q-1-7 2-14 10-13 26-7"/><path fill="#919D87" d="M841 837a18 18 0 0 1 9 11 20 20 0 0 1-4 15 20 20 0 0 1-16 5q-8-2-12-10a18 18 0 0 1 1-14c4-9 14-11 22-7"/><path fill="#F1DF5F" d="M838 843q4 3 5 7 1 5-3 9-3 3-7 2-5-1-8-5v-10q5-5 13-3"/><path fill="#E4BC05" d="M307 610h1l1 7h-2l1 5h1v15l-1 17-1 3v8l-2-1c0-38 0-38 2-54"/><path fill="#053AB3" d="m338 282 2 1-15 17-3 2-5 5-3-1z"/><path fill="#0639A2" d="M475 523h2v2l-1 3v3l-1 12v3l-1 27h-1v-35z"/><path fill="#E7BA03" d="m385 464 1 3-17 17-3-1z"/><path fill="#D5A904" d="M662 762h13v1l-11 1v1h-17l-5-2z"/><path fill="#DDDCDD" d="m960 907 3 2-3 3h-2l-1 2-5 5-2-2z"/><path fill="#053AAE" d="m727 817 2 2-4 5-3 3-2 2h-2q2-5 6-8l2-2z"/><path fill="#0636A0" d="m759 764 2 2-2 7h-2l-1 4h-2z"/><path fill="#322700" d="m895 662 2 1-1 1q-6 4-6 9v8q-3-6-2-12l5-5z"/><path fill="#D1AA04" d="M317 722h3l2 7-2 5-1-4-1-3z"/><path fill="#073CB2" d="m638 299 1 2-3 4-1 2-4 4-1-4 4-4 2-2z"/><path fill="#C39A05" d="m678 557 4 3-11 2h-5v-1h10z"/><path fill="#ECC004" d="m364 486 3 1-6 7-3-1z"/><path fill="#2F2300" d="m739 768 2 4-4 6h-2z"/><path fill="#EEBF03" d="m614 756 12 2q-3 3-8 2l-2-1h-2z"/><path fill="#042F8D" d="M475 523h2v2l-2 9-1 3v2h-1z"/><path fill="#063CAD" d="M532 688q6 3 9 8-4 0-7-3l-2-2-1-1z"/><path fill="#E4B806" d="m681 524 9 8q-5 0-9-5z"/><path fill="#EFEEEF" d="m307 275 3 1-6 7-2-1v-2h2l1-3h2z"/><path fill="#CEA905" d="m309 692 5 5-2 6z"/><path fill="#0938A2" d="M932 901q-2 6-7 8l2-6z"/><path fill="#053CB1" d="m331 904 7 6-2 2-6-7z"/><path fill="#0537A5" d="m498 459 2 3-4 6h-2z"/><path fill="#E1BE05" d="m661 557 10 2-6 2-3-1z"/><path fill="#7E773C" d="m541 282 2 1-2 3-1 5h-2c1-7 1-7 3-9"/><path fill="#EDC508" d="m733 772 4 2-3 6-2-2z"/><path fill="#F4C707" d="m327 748 4 1 1 6h-2z"/><path fill="#ECBF02" d="m494 428 3 1-4 6-2-1z"/><path fill="#F2C706" d="M468 873h3l1 2 3 1v2l-7-2z"/><path fill="#F1C304" d="m643 863-7 4 1-4z"/><path fill="#D8B004" d="M319 562q3 4 2 7l-1 2-2-2z"/><path fill="#D6AC04" d="m323 553 3 1-2 5h-3z"/><path fill="#D8B004" d="M339 520h1v5l-3 1v3h-2z"/><path fill="#E7BB02" d="m482 447 2 2-3 6-2-4z"/><path fill="#0739AD" d="m400 379 2 2-5 3-3-1z"/><path fill="#F0F0F0" d="m299 284 2 2-5 5q0-4 2-6z"/><path fill="#1C1C1C" d="M495 166q-3 4-8 3v-2c5-2 5-2 8-1"/></svg>